<svg width="55" height="55" viewBox="0 0 55 55" fill="none" xmlns="http://www.w3.org/2000/svg">
<path fill-rule="evenodd" clip-rule="evenodd" d="M27.2069 54.4131C22.9369 54.4131 19.4252 51.167 19.0047 47.008C15.7664 49.6517 10.9878 49.4639 7.9684 46.4445C4.94919 43.4253 4.76124 38.647 7.40455 35.4088C3.24578 34.988 0 31.4764 0 27.2066C0 22.9366 3.24617 19.4248 7.40531 19.0044C4.76194 15.7662 4.94987 10.9878 7.96911 7.96857C10.9883 4.94941 15.7665 4.76142 19.0047 7.40458C19.4255 3.24579 22.9371 0 27.2069 0C31.4765 0 34.9882 3.24571 35.409 7.40443C38.6472 4.76157 43.4252 4.94966 46.4442 7.96871C49.4634 10.9879 49.6514 15.7662 47.0081 19.0044C51.1671 19.425 54.4131 22.9368 54.4131 27.2066C54.4131 31.4762 51.1675 34.9878 47.0089 35.4087C49.6521 38.647 49.4641 43.4252 46.4449 46.4444C43.4257 49.4637 38.6473 49.6516 35.409 47.0082C34.9884 51.1671 31.4767 54.4131 27.2069 54.4131Z" fill="#53BD6F"/>
</svg>
