<svg width="1165" height="584" viewBox="0 0 1165 584" fill="none" xmlns="http://www.w3.org/2000/svg">
<path fill-rule="evenodd" clip-rule="evenodd" d="M245.207 583.413C240.937 583.413 237.425 580.167 237.005 576.008C233.766 578.652 228.988 578.464 225.968 575.445C222.949 572.425 222.761 567.647 225.405 564.409C221.246 563.988 218 560.476 218 556.207C218 551.937 221.246 548.425 225.405 548.004C222.762 544.766 222.95 539.988 225.969 536.969C228.988 533.949 233.766 533.761 237.005 536.405C237.425 532.246 240.937 529 245.207 529C249.477 529 252.988 532.246 253.409 536.404C256.647 533.762 261.425 533.95 264.444 536.969C267.463 539.988 267.651 544.766 265.008 548.004C269.167 548.425 272.413 551.937 272.413 556.207C272.413 560.476 269.167 563.988 265.009 564.409C267.652 567.647 267.464 572.425 264.445 575.444C261.426 578.464 256.647 578.652 253.409 576.008C252.988 580.167 249.477 583.413 245.207 583.413Z" fill="#53BD6F"/>
<path d="M2.60444e-07 283.207C8.46444e-07 297.19 27.2065 283.207 27.2065 283.207C27.2065 283.207 -3.25555e-07 269.223 2.60444e-07 283.207Z" fill="white"/>
<path d="M54.4141 283.207C54.4141 297.19 27.2075 283.207 27.2075 283.207C27.2075 283.207 54.4141 269.223 54.4141 283.207Z" fill="white"/>
<path d="M13.6058 307.306C25.4455 314.297 27.2091 283.206 27.2091 283.206C27.2091 283.206 1.76615 300.314 13.6058 307.306Z" fill="white"/>
<path d="M40.809 259.107C52.6486 266.099 27.2057 283.207 27.2057 283.207C27.2057 283.207 28.9693 252.116 40.809 259.107Z" fill="white"/>
<path d="M40.8082 307.306C28.9686 314.297 27.205 283.206 27.205 283.206C27.205 283.206 52.6479 300.314 40.8082 307.306Z" fill="white"/>
<path d="M13.6051 259.107C1.76543 266.099 27.2084 283.207 27.2084 283.207C27.2084 283.207 25.4448 252.116 13.6051 259.107Z" fill="white"/>
<path d="M112.145 7.03571C119.658 14.5483 119.722 27.2118 119.722 27.2118C119.722 27.2118 107.606 27.6949 100.093 20.1823C92.5798 12.6698 92.5156 0.00627537 92.5156 0.00627537C92.5156 0.00627537 104.632 -0.476879 112.145 7.03571Z" fill="#015DFF"/>
<path d="M127.299 7.03571C119.786 14.5483 119.722 27.2118 119.722 27.2118C119.722 27.2118 131.839 27.6949 139.352 20.1823C146.864 12.6698 146.929 0.00627537 146.929 0.00627537C146.929 0.00627537 134.812 -0.476879 127.299 7.03571Z" fill="#015DFF"/>
<path d="M112.145 47.3773C119.658 39.8647 119.722 27.2013 119.722 27.2013C119.722 27.2013 107.606 26.7181 100.093 34.2307C92.5798 41.7433 92.5156 54.4068 92.5156 54.4068C92.5156 54.4068 104.632 54.8899 112.145 47.3773Z" fill="#015DFF"/>
<path d="M127.299 47.3773C119.786 39.8647 119.722 27.2013 119.722 27.2013C119.722 27.2013 131.839 26.7181 139.352 34.2307C146.864 41.7433 146.929 54.4068 146.929 54.4068C146.929 54.4068 134.812 54.8899 127.299 47.3773Z" fill="#015DFF"/>
<path d="M1139.52 80.8278C1153.69 81.2792 1164.09 82.7729 1164.09 84.5459C1164.09 86.319 1153.69 87.8126 1139.52 88.264C1149.22 98.6017 1155.52 107.013 1154.27 108.266C1153.01 109.52 1144.6 103.222 1134.26 93.5223C1133.81 107.691 1132.32 118.092 1130.55 118.092C1128.77 118.092 1127.28 107.691 1126.83 93.5222C1116.49 103.222 1108.08 109.52 1106.83 108.266C1105.57 107.013 1111.87 98.6017 1121.57 88.264C1107.4 87.8126 1097 86.319 1097 84.5459C1097 82.7729 1107.4 81.2792 1121.57 80.8278C1111.87 70.4901 1105.57 62.0791 1106.83 60.8254C1108.08 59.5716 1116.49 65.8702 1126.83 75.5696C1127.28 61.4012 1128.77 51 1130.55 51C1132.32 51 1133.81 61.4012 1134.26 75.5696C1144.6 65.8702 1153.01 59.5716 1154.27 60.8254C1155.52 62.0791 1149.22 70.4901 1139.52 80.8278Z" fill="#FDC82F"/>
</svg>
