<svg width="55" height="55" viewBox="0 0 55 55" fill="none" xmlns="http://www.w3.org/2000/svg">
<path d="M20.1451 7.03571C27.6579 14.5483 27.7222 27.2118 27.7222 27.2118C27.7222 27.2118 15.6056 27.6949 8.09272 20.1823C0.579848 12.6698 0.515625 0.00627537 0.515625 0.00627537C0.515625 0.00627537 12.6322 -0.476879 20.1451 7.03571Z" fill="#015DFF"/>
<path d="M35.2992 7.03571C27.7864 14.5483 27.7222 27.2118 27.7222 27.2118C27.7222 27.2118 39.8387 27.6949 47.3516 20.1823C54.8644 12.6698 54.9287 0.00627537 54.9287 0.00627537C54.9287 0.00627537 42.8121 -0.476879 35.2992 7.03571Z" fill="#015DFF"/>
<path d="M20.1451 47.3773C27.6579 39.8647 27.7222 27.2013 27.7222 27.2013C27.7222 27.2013 15.6056 26.7181 8.09272 34.2307C0.579848 41.7433 0.515625 54.4068 0.515625 54.4068C0.515625 54.4068 12.6322 54.8899 20.1451 47.3773Z" fill="#015DFF"/>
<path d="M35.2992 47.3773C27.7864 39.8647 27.7222 27.2013 27.7222 27.2013C27.7222 27.2013 39.8387 26.7181 47.3516 34.2307C54.8644 41.7433 54.9287 54.4068 54.9287 54.4068C54.9287 54.4068 42.8121 54.8899 35.2992 47.3773Z" fill="#015DFF"/>
</svg>
