<svg width="332" height="332" viewBox="0 0 332 332" fill="none" xmlns="http://www.w3.org/2000/svg">
<rect x="82.9609" y="166.382" width="83" height="83" fill="#FAF2EE"/>
<rect x="249" width="83" height="83" fill="white"/>
<rect x="249" y="166" width="83" height="83" fill="#FAF2EE"/>
<rect y="249" width="83" height="83" fill="white"/>
<rect x="166" y="83" width="83" height="83" fill="#015DFF"/>
<rect x="166" y="249" width="83" height="83" fill="#FAF2EE"/>
<rect x="166" y="166" width="83" height="83" fill="#FAF2EE"/>
<rect x="83" y="249" width="83" height="83" fill="#FAF2EE"/>
<rect x="249" y="83" width="83" height="83" fill="#015DFF"/>
<rect x="249" y="249" width="83" height="83" fill="#FAF2EE"/>
<path d="M82.9609 166.382L82.9609 249.382L165.961 166.382L82.9609 166.382Z" fill="#53BD6F"/>
<path d="M249 249H221.333V276.667H193.667V304.333H166V332H249V249Z" fill="#53BD6F"/>
<path d="M249 124.5L207.5 83L166 124.5L249 124.5Z" fill="white"/>
<path d="M249 166L207.5 124.5L166 166H249Z" fill="white"/>
<path d="M83 249C83 271.92 64.4198 290.5 41.5 290.5C18.5802 290.5 0 271.92 0 249H25.171C25.171 258.018 32.4818 265.329 41.5 265.329C50.5182 265.329 57.8289 258.018 57.8289 249H83Z" fill="#015DFF"/>
<path d="M7.62939e-06 332C5.62568e-06 309.08 18.5802 290.5 41.5 290.5C64.4198 290.5 83 309.08 83 332L57.829 332C57.829 322.982 50.5182 315.671 41.5 315.671C32.4818 315.671 25.1711 322.982 25.1711 332L7.62939e-06 332Z" fill="#FAF2EE"/>
<path d="M275.474 83H249V166H332V140.241H275.474V83Z" fill="white"/>
<path d="M192.574 192.574L166 207.5L192.574 222.426L207.5 249L222.426 222.426L249 207.5L222.426 192.574L207.5 166L192.574 192.574Z" fill="#015DFF"/>
<path fill-rule="evenodd" clip-rule="evenodd" d="M297.557 256.058C297.557 252.16 294.397 249 290.499 249C286.601 249 283.441 252.16 283.441 256.058V263.793L279.62 257.068C277.694 253.679 273.386 252.493 269.997 254.419C266.608 256.345 265.422 260.653 267.348 264.042L271.698 271.698L264.042 267.347C260.653 265.421 256.345 266.607 254.419 269.996C252.493 273.385 253.679 277.694 257.068 279.62L263.795 283.442H256.058C252.16 283.442 249 286.602 249 290.5C249 294.398 252.16 297.558 256.058 297.558H263.795L257.068 301.381C253.679 303.306 252.493 307.615 254.419 311.004C256.345 314.393 260.653 315.579 264.042 313.653L271.696 309.304L267.346 316.958C265.421 320.347 266.607 324.655 269.996 326.581C273.385 328.507 277.693 327.321 279.619 323.932L283.441 317.205V324.942C283.441 328.84 286.601 332 290.499 332C294.397 332 297.557 328.84 297.557 324.942V317.203L301.381 323.932C303.307 327.321 307.615 328.507 311.004 326.581C314.393 324.655 315.579 320.347 313.654 316.958L309.304 309.304L316.958 313.653C320.347 315.579 324.655 314.393 326.581 311.004C328.507 307.615 327.321 303.306 323.932 301.381L317.205 297.558H324.942C328.84 297.558 332 294.398 332 290.5C332 286.602 328.84 283.442 324.942 283.442H317.205L323.932 279.62C327.321 277.694 328.507 273.385 326.581 269.996C324.655 266.607 320.347 265.421 316.958 267.347L309.302 271.698L313.652 264.042C315.578 260.653 314.392 256.345 311.003 254.419C307.614 252.493 303.306 253.679 301.38 257.068L297.557 263.795V256.058Z" fill="#015DFF"/>
<path d="M264.279 207.5C254.954 211.787 249 218.313 249 225.622C249 238.533 267.58 249 290.5 249C313.42 249 332 238.533 332 225.622C332 218.313 326.046 211.787 316.721 207.5C326.046 203.213 332 196.687 332 189.378C332 176.467 313.42 166 290.5 166C267.58 166 249 176.467 249 189.378C249 196.687 254.954 203.213 264.279 207.5Z" fill="#53BD6F"/>
<path fill-rule="evenodd" clip-rule="evenodd" d="M268.223 64.6081L249 63.8965L270.591 41.5L249 19.1035L268.222 18.3908L270.402 0L290.5 20.8476L310.598 0L312.778 18.3908L332 19.1035L310.409 41.5L332 63.8965L312.777 64.6081L310.598 82.9999L290.5 62.1523L270.402 82.9999L268.223 64.6081Z" fill="#FAF2EE"/>
<path fill-rule="evenodd" clip-rule="evenodd" d="M124.503 249C124.503 271.892 105.967 290.455 83.0859 290.5C105.967 290.545 124.503 309.108 124.503 332C124.503 309.104 143.044 290.539 165.931 290.5C143.044 290.461 124.503 271.896 124.503 249L124.503 249Z" fill="white"/>
</svg>
