<svg width="68" height="68" viewBox="0 0 68 68" fill="none" xmlns="http://www.w3.org/2000/svg">
<path d="M42.5222 29.8278C56.6906 30.2792 67.0918 31.7729 67.0918 33.5459C67.0918 35.319 56.6906 36.8126 42.5222 37.264C52.2216 47.6017 58.5202 56.0127 57.2664 57.2665C56.0127 58.5202 47.6017 52.2216 37.264 42.5223C36.8126 56.6906 35.319 67.0918 33.5459 67.0918C31.7729 67.0918 30.2792 56.6906 29.8278 42.5222C19.4901 52.2216 11.0791 58.5202 9.82537 57.2664C8.57163 56.0127 14.8702 47.6017 24.5696 37.264C10.4012 36.8126 0 35.319 0 33.5459C0 31.7729 10.4012 30.2792 24.5696 29.8278C14.8702 19.4901 8.57162 11.0791 9.82535 9.82537C11.0791 8.57163 19.4901 14.8702 29.8278 24.5696C30.2792 10.4012 31.7729 0 33.5459 0C35.319 0 36.8126 10.4012 37.264 24.5696C47.6017 14.8702 56.0127 8.57162 57.2664 9.82535C58.5202 11.0791 52.2216 19.4901 42.5222 29.8278Z" fill="#FDC82F"/>
</svg>
