<svg width="55" height="55" viewBox="0 0 55 55" fill="none" xmlns="http://www.w3.org/2000/svg">
<path d="M2.60444e-07 27.2066C8.46444e-07 41.1898 27.2065 27.2066 27.2065 27.2066C27.2065 27.2066 -3.25555e-07 13.2234 2.60444e-07 27.2066Z" fill="white"/>
<path d="M54.4141 27.2066C54.4141 41.1898 27.2075 27.2066 27.2075 27.2066C27.2075 27.2066 54.4141 13.2234 54.4141 27.2066Z" fill="white"/>
<path d="M13.6058 51.3056C25.4455 58.2972 27.2091 27.2065 27.2091 27.2065C27.2091 27.2065 1.76615 44.314 13.6058 51.3056Z" fill="white"/>
<path d="M40.809 3.10738C52.6486 10.099 27.2057 27.2065 27.2057 27.2065C27.2057 27.2065 28.9693 -3.88423 40.809 3.10738Z" fill="white"/>
<path d="M40.8082 51.3056C28.9686 58.2972 27.205 27.2065 27.205 27.2065C27.205 27.2065 52.6479 44.314 40.8082 51.3056Z" fill="white"/>
<path d="M13.6051 3.10738C1.76543 10.099 27.2084 27.2065 27.2084 27.2065C27.2084 27.2065 25.4448 -3.88423 13.6051 3.10738Z" fill="white"/>
</svg>
