<svg width="275" height="220" viewBox="0 0 275 220" fill="none" xmlns="http://www.w3.org/2000/svg">
<g opacity="0.5">
<path d="M229.656 74.4013C229.656 84.1718 228.363 93.8467 225.852 102.873C223.341 111.9 219.66 120.102 215.019 127.011C210.379 133.92 204.87 139.4 198.808 143.139C192.745 146.878 186.247 148.803 179.684 148.803L179.684 74.4013H229.656Z" fill="white"/>
<path d="M281.2 219.75C273.031 219.75 265.197 216.046 259.421 209.452C253.645 202.858 250.4 193.915 250.4 184.59C250.4 175.265 253.645 166.322 259.421 159.728C265.197 153.134 273.031 149.43 281.2 149.43L281.2 184.59L281.2 219.75Z" fill="#EC5239"/>
<ellipse rx="9.4179" ry="9.42858" transform="matrix(0 -1 -1 0 214.569 184.591)" fill="#015DFF"/>
<rect width="12.5643" height="12.5643" transform="matrix(-0.707508 -0.706706 -0.707508 0.706706 17.8296 126.738)" fill="#EC5239"/>
</g>
</svg>
