<svg width="1325" height="720" viewBox="0 0 1325 720" fill="none" xmlns="http://www.w3.org/2000/svg">
<path fill-rule="evenodd" clip-rule="evenodd" d="M245.207 583.413C240.937 583.413 237.425 580.167 237.005 576.008C233.766 578.652 228.988 578.464 225.968 575.445C222.949 572.425 222.761 567.647 225.405 564.409C221.246 563.988 218 560.476 218 556.207C218 551.937 221.246 548.425 225.405 548.004C222.762 544.766 222.95 539.988 225.969 536.969C228.988 533.949 233.766 533.761 237.005 536.405C237.425 532.246 240.937 529 245.207 529C249.477 529 252.988 532.246 253.409 536.404C256.647 533.762 261.425 533.95 264.444 536.969C267.463 539.988 267.651 544.766 265.008 548.004C269.167 548.425 272.413 551.937 272.413 556.207C272.413 560.476 269.167 563.988 265.009 564.409C267.652 567.647 267.464 572.425 264.445 575.444C261.426 578.464 256.647 578.652 253.409 576.008C252.988 580.167 249.477 583.413 245.207 583.413Z" fill="#53BD6F"/>
<path d="M2.60444e-07 283.207C8.46444e-07 297.19 27.2065 283.207 27.2065 283.207C27.2065 283.207 -3.25555e-07 269.223 2.60444e-07 283.207Z" fill="white"/>
<path d="M54.4141 283.207C54.4141 297.19 27.2075 283.207 27.2075 283.207C27.2075 283.207 54.4141 269.223 54.4141 283.207Z" fill="white"/>
<path d="M13.6058 307.306C25.4455 314.297 27.2091 283.206 27.2091 283.206C27.2091 283.206 1.76615 300.314 13.6058 307.306Z" fill="white"/>
<path d="M40.809 259.107C52.6486 266.099 27.2057 283.207 27.2057 283.207C27.2057 283.207 28.9693 252.116 40.809 259.107Z" fill="white"/>
<path d="M40.8082 307.306C28.9686 314.297 27.205 283.206 27.205 283.206C27.205 283.206 52.6479 300.314 40.8082 307.306Z" fill="white"/>
<path d="M13.6051 259.107C1.76543 266.099 27.2084 283.207 27.2084 283.207C27.2084 283.207 25.4448 252.116 13.6051 259.107Z" fill="white"/>
<rect x="1075.96" y="554.382" width="83" height="83" fill="#FAF2EE"/>
<rect x="1242" y="388" width="83" height="83" fill="white"/>
<rect x="1242" y="554" width="83" height="83" fill="#FAF2EE"/>
<rect x="993" y="637" width="83" height="83" fill="white"/>
<rect x="1159" y="471" width="83" height="83" fill="#015DFF"/>
<rect x="1159" y="637" width="83" height="83" fill="#FAF2EE"/>
<rect x="1159" y="554" width="83" height="83" fill="#FAF2EE"/>
<rect x="1076" y="637" width="83" height="83" fill="#FAF2EE"/>
<rect x="1242" y="471" width="83" height="83" fill="#015DFF"/>
<rect x="1242" y="637" width="83" height="83" fill="#FAF2EE"/>
<path d="M1075.96 554.382L1075.96 637.382L1158.96 554.382L1075.96 554.382Z" fill="#53BD6F"/>
<path d="M1242 637H1214.33V664.667H1186.67V692.333H1159V720H1242V637Z" fill="#53BD6F"/>
<path d="M1242 512.5L1200.5 471L1159 512.5H1242Z" fill="white"/>
<path d="M1242 554L1200.5 512.5L1159 554H1242Z" fill="white"/>
<path d="M1076 637C1076 659.92 1057.42 678.5 1034.5 678.5C1011.58 678.5 993 659.92 993 637H1018.17C1018.17 646.018 1025.48 653.329 1034.5 653.329C1043.52 653.329 1050.83 646.018 1050.83 637H1076Z" fill="#015DFF"/>
<path d="M993 720C993 697.08 1011.58 678.5 1034.5 678.5C1057.42 678.5 1076 697.08 1076 720L1050.83 720C1050.83 710.982 1043.52 703.671 1034.5 703.671C1025.48 703.671 1018.17 710.982 1018.17 720L993 720Z" fill="#FAF2EE"/>
<path d="M1268.47 471H1242V554H1325V528.241H1268.47V471Z" fill="white"/>
<path d="M1185.57 580.574L1159 595.5L1185.57 610.426L1200.5 637L1215.43 610.426L1242 595.5L1215.43 580.574L1200.5 554L1185.57 580.574Z" fill="#015DFF"/>
<path fill-rule="evenodd" clip-rule="evenodd" d="M1290.56 644.058C1290.56 640.16 1287.4 637 1283.5 637C1279.6 637 1276.44 640.16 1276.44 644.058V651.793L1272.62 645.068C1270.69 641.679 1266.39 640.493 1263 642.419C1259.61 644.345 1258.42 648.653 1260.35 652.042L1264.7 659.698L1257.04 655.347C1253.65 653.421 1249.34 654.607 1247.42 657.996C1245.49 661.385 1246.68 665.694 1250.07 667.62L1256.79 671.442H1249.06C1245.16 671.442 1242 674.602 1242 678.5C1242 682.398 1245.16 685.558 1249.06 685.558H1256.8L1250.07 689.381C1246.68 691.306 1245.49 695.615 1247.42 699.004C1249.34 702.393 1253.65 703.579 1257.04 701.653L1264.7 697.304L1260.35 704.958C1258.42 708.347 1259.61 712.655 1263 714.581C1266.38 716.507 1270.69 715.321 1272.62 711.932L1276.44 705.205V712.942C1276.44 716.84 1279.6 720 1283.5 720C1287.4 720 1290.56 716.84 1290.56 712.942V705.203L1294.38 711.932C1296.31 715.321 1300.62 716.507 1304 714.581C1307.39 712.655 1308.58 708.347 1306.65 704.958L1302.3 697.304L1309.96 701.653C1313.35 703.579 1317.66 702.393 1319.58 699.004C1321.51 695.615 1320.32 691.306 1316.93 689.381L1310.2 685.558H1317.94C1321.84 685.558 1325 682.398 1325 678.5C1325 674.602 1321.84 671.442 1317.94 671.442H1310.21L1316.93 667.62C1320.32 665.694 1321.51 661.385 1319.58 657.996C1317.66 654.607 1313.35 653.421 1309.96 655.347L1302.3 659.698L1306.65 652.042C1308.58 648.653 1307.39 644.345 1304 642.419C1300.61 640.493 1296.31 641.679 1294.38 645.068L1290.56 651.795V644.058Z" fill="#015DFF"/>
<path d="M1257.28 595.5C1247.95 599.787 1242 606.313 1242 613.622C1242 626.533 1260.58 637 1283.5 637C1306.42 637 1325 626.533 1325 613.622C1325 606.313 1319.05 599.787 1309.72 595.5C1319.05 591.213 1325 584.687 1325 577.378C1325 564.467 1306.42 554 1283.5 554C1260.58 554 1242 564.467 1242 577.378C1242 584.687 1247.95 591.213 1257.28 595.5Z" fill="#53BD6F"/>
<path fill-rule="evenodd" clip-rule="evenodd" d="M1261.22 452.608L1242 451.896L1263.59 429.5L1242 407.103L1261.22 406.391L1263.4 388L1283.5 408.848L1303.6 388L1305.78 406.391L1325 407.103L1303.41 429.5L1325 451.896L1305.78 452.608L1303.6 471L1283.5 450.152L1263.4 471L1261.22 452.608Z" fill="#FAF2EE"/>
<path fill-rule="evenodd" clip-rule="evenodd" d="M1117.5 637C1117.5 659.892 1098.97 678.455 1076.09 678.5C1098.97 678.545 1117.5 697.108 1117.5 720C1117.5 697.104 1136.04 678.539 1158.93 678.5C1136.04 678.461 1117.5 659.896 1117.5 637L1117.5 637Z" fill="white"/>
<path d="M112.145 7.03571C119.658 14.5483 119.722 27.2118 119.722 27.2118C119.722 27.2118 107.606 27.6949 100.093 20.1823C92.5798 12.6698 92.5156 0.00627537 92.5156 0.00627537C92.5156 0.00627537 104.632 -0.476879 112.145 7.03571Z" fill="#015DFF"/>
<path d="M127.299 7.03571C119.786 14.5483 119.722 27.2118 119.722 27.2118C119.722 27.2118 131.839 27.6949 139.352 20.1823C146.864 12.6698 146.929 0.00627537 146.929 0.00627537C146.929 0.00627537 134.812 -0.476879 127.299 7.03571Z" fill="#015DFF"/>
<path d="M112.145 47.3773C119.658 39.8647 119.722 27.2013 119.722 27.2013C119.722 27.2013 107.606 26.7181 100.093 34.2307C92.5798 41.7433 92.5156 54.4068 92.5156 54.4068C92.5156 54.4068 104.632 54.8899 112.145 47.3773Z" fill="#015DFF"/>
<path d="M127.299 47.3773C119.786 39.8647 119.722 27.2013 119.722 27.2013C119.722 27.2013 131.839 26.7181 139.352 34.2307C146.864 41.7433 146.929 54.4068 146.929 54.4068C146.929 54.4068 134.812 54.8899 127.299 47.3773Z" fill="#015DFF"/>
<path d="M1139.52 80.8278C1153.69 81.2792 1164.09 82.7729 1164.09 84.5459C1164.09 86.319 1153.69 87.8126 1139.52 88.264C1149.22 98.6017 1155.52 107.013 1154.27 108.266C1153.01 109.52 1144.6 103.222 1134.26 93.5223C1133.81 107.691 1132.32 118.092 1130.55 118.092C1128.77 118.092 1127.28 107.691 1126.83 93.5222C1116.49 103.222 1108.08 109.52 1106.83 108.266C1105.57 107.013 1111.87 98.6017 1121.57 88.264C1107.4 87.8126 1097 86.319 1097 84.5459C1097 82.7729 1107.4 81.2792 1121.57 80.8278C1111.87 70.4901 1105.57 62.0791 1106.83 60.8254C1108.08 59.5716 1116.49 65.8702 1126.83 75.5696C1127.28 61.4012 1128.77 51 1130.55 51C1132.32 51 1133.81 61.4012 1134.26 75.5696C1144.6 65.8702 1153.01 59.5716 1154.27 60.8254C1155.52 62.0791 1149.22 70.4901 1139.52 80.8278Z" fill="#FDC82F"/>
</svg>
