<svg width="411" height="307" viewBox="0 0 411 307" fill="none" xmlns="http://www.w3.org/2000/svg">
<rect opacity="0.5" x="92.4702" y="152.573" width="51.1447" height="58.4571" transform="rotate(-90 92.4702 152.573)" fill="#EC5239"/>
<rect opacity="0.5" y="100.514" width="100.463" height="91.4058" transform="rotate(-90 0 100.514)" fill="#015DFF"/>
<ellipse opacity="0.5" rx="50.6881" ry="58.9887" transform="matrix(0 -1 -1 0 105.221 255.319)" fill="#EC5239"/>
<path opacity="0.5" d="M272.089 204.631C272.089 213.746 270.522 222.772 267.478 231.194C264.433 239.615 259.971 247.267 254.345 253.712C248.719 260.157 242.041 265.27 234.69 268.758C227.34 272.247 219.462 274.042 211.506 274.042L211.506 204.631H272.089Z" fill="white"/>
<path opacity="0.5" d="M0.000747681 203.261C0.000747681 189.888 2.35129 176.646 6.91815 164.291C11.485 151.936 18.1788 140.71 26.6172 131.254C35.0557 121.798 45.0736 114.297 56.099 109.18C67.1244 104.062 78.9413 101.428 90.8751 101.428L90.8751 203.261L0.000747681 203.261Z" fill="white"/>
<ellipse opacity="0.5" rx="13.6995" ry="15.9429" transform="matrix(0 -1 -1 0 394.315 239.335)" fill="#EC5239"/>
</svg>
