<svg width="17" height="14" viewBox="0 0 17 14" fill="none" xmlns="http://www.w3.org/2000/svg">
<path d="M1.19602 5.53224H3.37784V14H1.19602C1.00314 14 0.818153 13.9257 0.681763 13.7933C0.545373 13.661 0.46875 13.4815 0.46875 13.2944V6.23789C0.46875 6.05074 0.545373 5.87125 0.681763 5.73892C0.818153 5.60658 1.00314 5.53224 1.19602 5.53224ZM5.04548 4.61984L9.70002 0.103698C9.76188 0.0435026 9.84407 0.00700148 9.93145 0.000908065C10.0188 -0.00518535 10.1056 0.0195386 10.1757 0.0705331L10.796 0.522147C10.9683 0.647643 11.0985 0.819826 11.17 1.01699C11.2416 1.21415 11.2514 1.42745 11.1982 1.63001L10.3597 4.82659H15.0142C15.4 4.82659 15.7699 4.97528 16.0427 5.23995C16.3155 5.50462 16.4687 5.86359 16.4687 6.23789V7.72257C16.4689 7.907 16.4319 8.08967 16.3597 8.26027L14.1087 13.5632C14.0538 13.6925 13.9606 13.803 13.8408 13.8808C13.721 13.9586 13.5801 14.0001 13.436 14H5.55966C5.36677 14 5.18179 13.9257 5.0454 13.7933C4.90901 13.661 4.83239 13.4815 4.83239 13.2944V5.11873C4.83243 4.9316 4.90908 4.75214 5.04548 4.61984Z" fill="#FF9B26"/>
</svg>
