<svg width="609" height="320" viewBox="0 0 609 320" fill="none" xmlns="http://www.w3.org/2000/svg">
<path fill-rule="evenodd" clip-rule="evenodd" d="M243.101 183.301L21.1436 187.701C19.5233 187.733 18.2357 189.073 18.2679 190.693C18.3 192.313 19.6396 193.601 21.2599 193.569L250.171 189.031C251.791 188.998 253.079 187.659 253.046 186.038C253.014 184.418 251.675 183.13 250.054 183.163L249.739 183.169C249.877 182.235 249.563 181.251 248.813 180.567L132.311 74.3209C131.114 73.2288 129.258 73.3144 128.166 74.5119C127.074 75.7093 127.159 77.5653 128.357 78.6574L243.101 183.301H243.101ZM94.9396 76.459L14.0471 176.099C13.0254 177.357 13.2174 179.205 14.4757 180.226C15.734 181.248 17.5819 181.056 18.6035 179.798L99.4961 80.1582C100.518 78.8999 100.326 77.052 99.0674 76.0304C97.8092 75.009 95.961 75.201 94.9396 76.459Z" fill="#FDC82F"/>
<path d="M112.693 83.8732C127.112 83.8732 138.801 71.1913 138.801 55.5474C138.801 39.9035 127.112 27.2217 112.693 27.2217C98.2747 27.2217 86.5859 39.9035 86.5859 55.5474C86.5859 71.1913 98.2747 83.8732 112.693 83.8732Z" fill="#015DFF"/>
<path fill-rule="evenodd" clip-rule="evenodd" d="M112.756 26.956L112.706 26.9551C112.18 26.952 111.653 27.1159 111.223 27.4497C99.8196 36.2882 94.5227 45.5047 94.6426 54.894C94.7614 64.1993 100.26 73.851 111.085 83.668C111.992 84.49 113.439 84.4772 114.329 83.6405C124.61 73.9813 129.651 64.4285 129.669 55.1203C129.686 45.8421 124.736 36.668 114.502 27.7399L114.259 27.5289C113.835 27.1624 113.298 26.9703 112.756 26.956ZM112.709 29.2962C112.693 29.291 112.674 29.2947 112.661 29.305C101.999 37.5695 96.8778 46.0849 96.9901 54.864C97.1023 63.6456 102.446 72.6648 112.662 81.929C112.679 81.9441 112.706 81.9448 112.722 81.9294C122.414 72.8231 127.304 63.8915 127.321 55.116C127.338 46.3417 122.48 37.7445 112.723 29.3044L112.716 29.2996L112.709 29.2962Z" fill="white"/>
<path fill-rule="evenodd" clip-rule="evenodd" d="M90.3364 65.7116L136.036 65.4788C136.684 65.4756 137.207 64.9831 137.203 64.379C137.2 63.7747 136.671 63.2879 136.023 63.291L90.3236 63.5239C89.6752 63.527 89.1527 64.0195 89.1563 64.6236C89.1597 65.2279 89.6881 65.7148 90.3364 65.7116Z" fill="white"/>
<path fill-rule="evenodd" clip-rule="evenodd" d="M111.498 31.8001L111.266 81.3621C111.263 81.9662 111.786 82.4582 112.434 82.4607C113.082 82.4634 113.61 81.9759 113.613 81.3716L113.845 31.8096C113.848 31.2055 113.325 30.7137 112.677 30.7109C112.028 30.7085 111.5 31.196 111.498 31.8001Z" fill="white"/>
<path fill-rule="evenodd" clip-rule="evenodd" d="M91.2111 44.0022L134.099 43.5316C134.747 43.5244 135.267 43.0289 135.259 42.4248C135.251 41.8208 134.72 41.3368 134.072 41.3438L91.1836 41.8144C90.5352 41.8217 90.0161 42.3171 90.0235 42.9212C90.0312 43.5253 90.563 44.0092 91.2111 44.0022Z" fill="white"/>
<path d="M13.4751 199.84C20.9172 199.84 26.9503 193.687 26.9503 186.096C26.9503 178.506 20.9172 172.353 13.4751 172.353C6.03302 172.353 0 178.506 0 186.096C0 193.687 6.03302 199.84 13.4751 199.84Z" fill="#015DFF"/>
<path d="M250.522 198.874C257.964 198.874 263.997 192.721 263.997 185.13C263.997 177.54 257.964 171.387 250.522 171.387C243.08 171.387 237.047 177.54 237.047 185.13C237.047 192.721 243.08 198.874 250.522 198.874Z" fill="#015DFF"/>
<path fill-rule="evenodd" clip-rule="evenodd" d="M501.557 106.703C491.451 101.747 469.334 104.792 468.489 109.549C467.487 115.19 479.557 135.797 479.557 135.797C487.959 125.148 499.11 123.099 511.778 125.792C511.778 125.792 506.762 109.255 501.557 106.703Z" fill="#EC5239"/>
<path fill-rule="evenodd" clip-rule="evenodd" d="M517.376 134.557C537.073 156.581 593.757 235.754 601.283 261.308C604.967 273.815 578.151 300.727 558.566 281.981C527.703 252.441 494.581 166.579 487.054 141.025C484.552 132.529 511.501 127.988 517.376 134.557Z" fill="#F9C5C5"/>
<path fill-rule="evenodd" clip-rule="evenodd" d="M582.436 250.46C582.436 250.46 576.058 249.794 571.598 251.718C570.029 252.394 568.695 253.387 567.9 254.801C567.106 256.214 566.836 258.057 567.463 260.463C567.528 260.711 567.36 260.914 567.127 261.138C566.538 261.703 565.482 262.236 564.288 262.83C562.347 263.795 560.061 264.895 558.569 266.373C557.48 267.451 556.8 268.727 556.863 270.271C556.979 273.072 557.938 274.529 559.135 275.235C560.264 275.9 561.655 275.907 562.922 275.644C564.707 275.274 566.222 274.388 566.222 274.388C566.502 274.224 566.596 273.865 566.433 273.585C566.269 273.305 565.91 273.211 565.63 273.374C565.63 273.374 564.277 274.164 562.683 274.495C561.698 274.7 560.61 274.742 559.731 274.224C558.778 273.661 558.128 272.452 558.036 270.222C557.973 268.7 558.887 267.538 560.13 266.563C561.499 265.488 563.272 264.646 564.811 263.881C566.132 263.223 567.287 262.611 567.94 261.984C568.536 261.412 568.765 260.802 568.599 260.166C568.069 258.132 568.252 256.57 568.923 255.376C569.946 253.557 572.049 252.607 574.252 252.088C578.106 251.18 582.312 251.627 582.312 251.627C582.635 251.662 582.924 251.428 582.958 251.106C582.992 250.783 582.759 250.494 582.436 250.46Z" fill="#12323E"/>
<path fill-rule="evenodd" clip-rule="evenodd" d="M601.03 260.812C612.702 293.744 582.264 320.905 568.333 297.288C568.07 296.724 570.082 295.693 569.612 295.417C566.285 293.46 565.499 289.777 568.502 286.273C564.515 283.339 564.388 280.08 568.921 276.429C567.085 274.076 566.774 268.106 569.575 266.492C573.317 264.336 583.966 265.887 591.371 263.494L601.03 260.812Z" fill="#F9C5C5"/>
<path fill-rule="evenodd" clip-rule="evenodd" d="M568.845 295.63C568.781 295.69 568.714 295.752 568.655 295.804C568.3 296.118 567.947 296.469 567.813 296.761C567.684 297.04 567.686 297.304 567.795 297.536C567.932 297.83 568.281 297.957 568.575 297.82C568.812 297.709 568.94 297.461 568.909 297.214C568.966 297.145 569.097 296.989 569.198 296.894C569.558 296.559 569.974 296.215 570.125 295.975C570.272 295.74 570.286 295.519 570.24 295.346C570.197 295.183 570.1 295.027 569.903 294.911C568.409 294.032 567.47 292.779 567.257 291.339C567.041 289.878 567.573 288.251 568.941 286.654C569.047 286.531 569.097 286.368 569.078 286.206C569.06 286.044 568.974 285.897 568.843 285.8C567.043 284.476 566.064 283.111 566.097 281.633C566.13 280.125 567.195 278.567 569.282 276.886C569.532 276.685 569.574 276.321 569.377 276.068C568.353 274.755 567.864 272.228 568.18 270.095C568.377 268.759 568.882 267.565 569.861 267C571.302 266.17 573.813 265.94 576.756 265.78C581.389 265.529 587.057 265.503 591.545 264.053C591.853 263.953 592.022 263.622 591.923 263.314C591.823 263.005 591.492 262.836 591.184 262.936C586.787 264.356 581.232 264.362 576.693 264.608C573.521 264.78 570.828 265.089 569.276 265.983C568.013 266.711 567.273 268.201 567.018 269.923C566.69 272.143 567.163 274.727 568.128 276.319C565.97 278.165 564.96 279.943 564.923 281.607C564.886 283.265 565.8 284.868 567.661 286.371C566.324 288.126 565.86 289.911 566.096 291.511C566.335 293.124 567.286 294.57 568.845 295.63Z" fill="#12323E"/>
<path fill-rule="evenodd" clip-rule="evenodd" d="M591.682 277.517C592.052 277.286 592.18 276.789 591.961 276.406C591.729 276.001 591.224 275.875 590.833 276.119C582.544 281.274 575.439 280.806 569.365 275.371C569.022 275.064 568.502 275.1 568.205 275.459C567.922 275.799 567.962 276.31 568.287 276.601C574.908 282.525 582.648 283.135 591.681 277.517H591.682ZM594.035 288.713C594.454 288.479 594.581 287.964 594.328 287.565C594.094 287.197 593.593 287.068 593.205 287.284C584.076 292.384 576.2 291.834 569.415 286.305C569.071 286.024 568.554 286.065 568.261 286.387C567.943 286.735 567.979 287.264 568.352 287.568C575.678 293.538 584.178 294.22 594.035 288.713ZM594.306 297.33C594.725 297.096 594.852 296.581 594.599 296.183C594.365 295.815 593.864 295.685 593.476 295.902C584.347 301.002 576.471 300.452 569.686 294.922C569.342 294.641 568.825 294.682 568.531 295.004C568.214 295.352 568.25 295.882 568.622 296.185C575.949 302.156 584.448 302.837 594.306 297.33Z" fill="#12323E"/>
<path fill-rule="evenodd" clip-rule="evenodd" d="M559.197 70.9168L554.469 64.7705L565.527 48.3877L574.852 50.4553L576.381 69.0711L570.647 73.7811L568.568 73.5691L564.334 106.154C564.163 107.472 562.953 108.404 561.635 108.232L556.858 107.612C555.539 107.44 554.608 106.231 554.779 104.913L559.197 70.9168Z" fill="#FDC82F"/>
<path fill-rule="evenodd" clip-rule="evenodd" d="M569.887 111.886C570.315 109.847 569.007 107.844 566.968 107.416L551.269 104.12C549.23 103.692 547.227 105 546.799 107.039L539.051 143.945C538.623 145.984 539.93 147.987 541.969 148.415L557.669 151.711C559.708 152.139 561.711 150.831 562.138 148.792L569.887 111.886ZM389.594 314.045L405.254 273.531C402.395 255.407 403.322 240.345 408.472 228.699C429.437 227.28 482.766 228.755 512.302 234.883L528.82 314.045H389.594Z" fill="#015DFF"/>
<path fill-rule="evenodd" clip-rule="evenodd" d="M392.572 137.561C391.285 109.387 415.777 110.638 428.505 110.638L469.479 107.205C480.059 103.722 486.231 137.19 496.992 169.414C505.918 196.142 517.092 221.25 516.997 222.298C515.716 261.267 404.435 250.984 405.444 217.579L392.572 137.561Z" fill="#EC5239"/>
<path fill-rule="evenodd" clip-rule="evenodd" d="M392.243 166.312C386.502 154.112 422.585 130.712 425.52 136.345C425.52 136.345 459.297 177.587 465.26 190.378C478.721 219.254 453.762 247.438 430.315 221.74C419.698 210.104 392.243 166.312 392.243 166.312Z" fill="#F9C5C5"/>
<path fill-rule="evenodd" clip-rule="evenodd" d="M395.829 173.455C389.156 161.827 384.644 141.528 385.595 132.73C387.277 117.17 412.22 105.664 418.818 113.634C424.408 120.386 434.769 147.669 434.769 147.669C415.067 143.192 392.427 158.949 395.829 173.455Z" fill="#EC5239"/>
<path fill-rule="evenodd" clip-rule="evenodd" d="M395.827 173.454C393.217 168.907 390.939 163.035 389.187 157.042C386.461 147.71 426.593 127.678 430.06 135.949C432.772 142.416 434.767 147.668 434.767 147.668C415.065 143.191 392.425 158.948 395.827 173.454ZM518.429 135.538L510.904 123.954C499.252 121.708 490.822 123.947 484.319 129.424L488.02 140.687C497.354 135.963 507.378 133.826 518.429 135.538Z" fill="white"/>
<path fill-rule="evenodd" clip-rule="evenodd" d="M482.643 125.209C486.841 137.158 491.065 153.533 496.43 169.599C496.533 169.906 496.866 170.072 497.173 169.969C497.48 169.867 497.646 169.534 497.544 169.227C492.177 153.155 487.95 136.774 483.75 124.82C483.643 124.515 483.308 124.354 483.002 124.461C482.696 124.568 482.535 124.904 482.643 125.209Z" fill="#12323E"/>
<path fill-rule="evenodd" clip-rule="evenodd" d="M437.025 190.743C450.025 181.054 516.846 154.514 516.846 154.514C516.846 154.514 518.998 138.077 522.623 131.41C525.942 125.308 536.508 113.634 538.598 114.513C542.591 116.192 539.121 131.299 534.79 137.064C546.939 129.114 595.902 107.894 575.019 128.169C580.399 128.072 581.429 130.551 575.225 137.319C578.605 137.553 578.934 140.646 575.449 147.316C580.161 148.041 559.252 179.943 544.117 187.584C519.753 199.883 474.607 230.033 461.904 232.524C428.163 239.142 417.989 204.932 437.025 190.743Z" fill="#F9C5C5"/>
<path fill-rule="evenodd" clip-rule="evenodd" d="M535.12 137.555C541.048 133.675 555.78 126.626 566.817 122.817C571.481 121.207 575.472 120.17 577.827 120.233C578.272 120.245 578.652 120.296 578.956 120.4C579.174 120.475 579.347 120.571 579.452 120.719C579.591 120.914 579.588 121.179 579.501 121.515C579.165 122.822 577.631 124.823 574.618 127.748C574.385 127.974 574.38 128.345 574.606 128.578C574.832 128.81 575.203 128.816 575.436 128.59C578.688 125.432 580.275 123.218 580.638 121.807C580.831 121.056 580.719 120.474 580.408 120.038C579.992 119.453 579.128 119.094 577.859 119.06C575.416 118.994 571.27 120.038 566.434 121.707C555.306 125.547 540.454 132.661 534.477 136.573C534.205 136.75 534.13 137.114 534.307 137.385C534.485 137.656 534.848 137.732 535.12 137.555ZM550.76 182.315C548.402 184.303 546.07 185.945 543.861 187.06C534.476 191.798 522.011 199.18 509.502 206.614C509.223 206.779 509.132 207.139 509.297 207.418C509.463 207.697 509.823 207.788 510.102 207.623C522.586 200.205 535.024 192.836 544.39 188.108C546.671 186.956 549.082 185.265 551.517 183.213C551.764 183.004 551.796 182.634 551.587 182.386C551.378 182.138 551.008 182.106 550.76 182.315ZM437.383 191.213C450.36 181.54 517.07 155.059 517.07 155.059C517.268 154.98 517.408 154.8 517.435 154.589C517.435 154.589 519.553 138.296 523.146 131.689C523.301 131.405 523.196 131.048 522.911 130.893C522.626 130.739 522.27 130.844 522.115 131.129C518.767 137.284 516.653 151.692 516.318 154.095C511.327 156.085 449.179 180.957 436.681 190.272C436.422 190.465 436.368 190.833 436.562 191.093C436.755 191.353 437.123 191.406 437.383 191.213Z" fill="#12323E"/>
<path fill-rule="evenodd" clip-rule="evenodd" d="M574.174 128.084C568.999 132.509 562.442 136.602 554.492 140.362C554.199 140.501 554.074 140.851 554.213 141.144C554.351 141.437 554.701 141.562 554.994 141.424C563.051 137.613 569.692 133.461 574.937 128.976C575.184 128.766 575.213 128.395 575.002 128.149C574.791 127.903 574.421 127.873 574.174 128.084ZM575.017 137.655C570.017 142.277 563.624 146.621 555.826 150.687C555.538 150.837 555.427 151.192 555.577 151.479C555.727 151.766 556.081 151.878 556.368 151.728C564.271 147.607 570.746 143.201 575.814 138.517C576.052 138.297 576.066 137.925 575.846 137.687C575.626 137.449 575.255 137.435 575.017 137.655ZM574.445 147.435C569.628 152.248 563.409 156.836 555.774 161.202C555.493 161.363 555.395 161.721 555.556 162.002C555.717 162.284 556.075 162.382 556.357 162.221C564.094 157.797 570.393 153.143 575.275 148.265C575.505 148.036 575.505 147.665 575.276 147.435C575.046 147.206 574.675 147.206 574.445 147.435Z" fill="#12323E"/>
<path fill-rule="evenodd" clip-rule="evenodd" d="M426.215 41.4083C400.544 43.8088 379.703 51.3222 379.703 58.1757C379.703 65.0292 400.544 68.6444 426.215 66.2437C451.886 63.8432 472.727 56.3298 472.727 49.4763C472.727 42.6228 451.886 39.0076 426.215 41.4083Z" fill="#015DFF"/>
<path d="M440.027 94.0345C454.363 94.0345 465.984 80.6604 465.984 64.1627C465.984 47.665 454.363 34.291 440.027 34.291C425.692 34.291 414.07 47.665 414.07 64.1627C414.07 80.6604 425.692 94.0345 440.027 94.0345Z" fill="#12323E"/>
<path fill-rule="evenodd" clip-rule="evenodd" d="M450.42 82.7255C450.481 82.7282 449.325 79.1936 449.386 79.199C456.297 79.8078 458.273 76.0871 458.273 67.9055C458.273 59.7239 456.785 52.351 452.552 52.351C449.966 52.351 447.191 60.246 445.802 64.0381C441.579 58.3137 435.039 50.2692 428.69 47.1878C408.75 37.5099 400.325 49.2704 400.989 65.4183C401.555 79.1667 407.578 96.9505 424.475 102.455L424.747 122.985C434.862 130.967 444.565 139.051 457.374 146.36C460.511 139.364 461.234 129.352 461.757 119.089L450.42 82.7255Z" fill="#F9C5C5"/>
<path fill-rule="evenodd" clip-rule="evenodd" d="M451.406 64.8289C451.689 62.7978 452.037 61.1631 452.492 60.1457C452.617 59.868 452.744 59.6442 452.889 59.4895C452.95 59.424 453.004 59.3668 453.074 59.3594C453.153 59.3513 453.229 59.4012 453.319 59.4646C453.52 59.6047 453.728 59.8325 453.957 60.1455C454.172 60.4398 454.585 60.5039 454.879 60.2889C455.173 60.0737 455.237 59.6609 455.022 59.3666C454.687 58.9086 454.369 58.5878 454.076 58.3829C453.673 58.1011 453.289 58.0103 452.938 58.0467C452.58 58.0837 452.235 58.256 451.925 58.5882C451.698 58.8308 451.482 59.1713 451.287 59.6067C450.313 61.7852 449.765 66.6883 449.357 72.3086C449.341 72.5231 449.431 72.7315 449.598 72.8675C449.764 73.0034 449.987 73.05 450.194 72.9919C452.769 72.2695 453.986 70.9493 454.178 69.5203C454.368 68.1114 453.551 66.4672 451.757 64.9774C451.654 64.891 451.531 64.842 451.406 64.8289ZM451.224 66.2604C451.041 67.8294 450.887 69.5752 450.747 71.417C452.044 70.9019 452.755 70.2021 452.87 69.3437C453.002 68.3659 452.379 67.3 451.224 66.2604ZM441.165 96.8665C438.782 99.4876 435.32 101.62 431.47 102.566C429.211 103.12 427.086 103.201 425.234 102.88C426.602 106.206 429.495 108.501 432.839 108.501C437.5 108.501 441.285 104.041 441.285 98.5482C441.285 97.9752 441.244 97.4136 441.165 96.8665Z" fill="#12323E"/>
<path d="M423.521 93.2394C426.13 93.2394 428.244 90.9568 428.244 88.1412C428.244 85.3255 426.13 83.043 423.521 83.043C420.912 83.043 418.797 85.3255 418.797 88.1412C418.797 90.9568 420.912 93.2394 423.521 93.2394Z" fill="white"/>
<path fill-rule="evenodd" clip-rule="evenodd" d="M436.285 57.7169C432.76 53.9854 428.685 51.5355 424.13 50.2056C423.352 49.9786 422.538 50.4251 422.31 51.2028C422.083 51.9808 422.53 52.7953 423.308 53.0225C427.372 54.2095 431.005 56.402 434.152 59.7322C434.708 60.3212 435.637 60.3476 436.226 59.7911C436.815 59.2345 436.841 58.3059 436.285 57.7169ZM403.5 62.6309C406.009 58.7977 409.198 55.9987 412.99 54.1135C413.716 53.7529 414.012 52.8721 413.651 52.1466C413.29 51.4208 412.409 51.1252 411.684 51.4858C407.435 53.5982 403.856 56.7288 401.045 61.0235C400.601 61.7014 400.791 62.6108 401.468 63.0548C402.146 63.4985 403.056 63.3088 403.5 62.6309ZM425.84 58.5999C424.902 58.6627 424.252 60.4009 424.391 62.4791C424.53 64.5576 425.405 66.1939 426.343 66.1314C427.282 66.0686 427.931 64.3304 427.792 62.2522C427.654 60.1737 426.779 58.5374 425.84 58.5999ZM410.085 60.4788C409.159 60.6454 408.707 62.445 409.076 64.495C409.445 66.5451 410.496 68.0741 411.422 67.9075C412.348 67.7408 412.8 65.9412 412.431 63.8912C412.062 61.8412 411.011 60.3121 410.085 60.4788Z" fill="#12323E"/>
<path fill-rule="evenodd" clip-rule="evenodd" d="M472.658 50.7234C473.726 47.6271 470.284 41.0547 470.284 37.6518C470.284 35.8346 461.957 37.1737 461.769 35.4161C457.811 -1.70184 385.173 -7.5107 386.646 45.8695C386.71 48.1851 381.213 46.9241 380.031 49.7422C377.92 54.776 379.59 58.9122 381.886 62.1914C395.465 57.5787 422.544 50.7342 440.792 50.1608C447.625 49.9461 466.316 50.2679 472.658 50.7234Z" fill="#EC5239"/>
<path fill-rule="evenodd" clip-rule="evenodd" d="M439.116 8.61947C440.174 -0.188108 392.312 -15.4364 401.132 42.3424L422.072 38.8119C420.38 24.4122 419.711 13.612 425.384 9.12126C429.659 5.73729 438.941 10.0783 439.116 8.61947Z" fill="#015DFF"/>
<path d="M409.164 34.0874C413.198 34.0874 416.468 30.5445 416.468 26.1741C416.468 21.8037 413.198 18.2607 409.164 18.2607C405.13 18.2607 401.859 21.8037 401.859 26.1741C401.859 30.5445 405.13 34.0874 409.164 34.0874Z" fill="white"/>
<path fill-rule="evenodd" clip-rule="evenodd" d="M415.658 57.6613L417.292 79.4549C417.316 79.776 417.594 80.0178 417.916 79.9966L421.36 79.7683C421.683 79.7469 421.928 79.4673 421.906 79.1437C421.885 78.8203 421.605 78.5755 421.282 78.597L418.419 78.7869L416.829 57.5737C416.804 57.2505 416.523 57.008 416.199 57.0322C415.876 57.0566 415.634 57.3381 415.658 57.6613Z" fill="#12323E"/>
<path fill-rule="evenodd" clip-rule="evenodd" d="M471.134 275.742C471.941 287.396 470.257 300.324 471.904 311.138C471.953 311.459 472.252 311.679 472.573 311.63C472.893 311.581 473.113 311.282 473.065 310.962C471.422 300.176 473.11 287.284 472.305 275.661C472.283 275.337 472.003 275.093 471.679 275.116C471.356 275.138 471.112 275.418 471.134 275.742Z" fill="white"/>
<path fill-rule="evenodd" clip-rule="evenodd" d="M403.633 245.256C404.511 239.631 406.116 233.763 408.494 227.638C444.444 249.491 493.329 252.946 512.316 233.214L516.996 252.245C479.515 272.355 438.93 269.167 403.633 245.256Z" fill="#FDC82F"/>
<path d="M469.132 265.387C475.941 265.387 481.46 261.039 481.46 255.675C481.46 250.31 475.941 245.962 469.132 245.962C462.324 245.962 456.805 250.31 456.805 255.675C456.805 261.039 462.324 265.387 469.132 265.387Z" fill="white"/>
<path fill-rule="evenodd" clip-rule="evenodd" d="M424.354 124.557C429.256 134.825 434.213 147.878 434.213 147.878C434.328 148.181 434.667 148.333 434.97 148.218C435.273 148.103 435.425 147.764 435.31 147.461C435.31 147.461 430.334 134.359 425.414 124.051C425.274 123.758 424.924 123.635 424.631 123.774C424.339 123.914 424.215 124.264 424.354 124.557Z" fill="#12323E"/>
<path fill-rule="evenodd" clip-rule="evenodd" d="M307.25 119.32C307.25 112.244 301.505 106.5 294.43 106.5H64.5776C57.5021 106.5 51.7578 112.244 51.7578 119.32V276.82C51.7578 283.896 57.5021 289.64 64.5776 289.64H294.43C301.505 289.64 307.25 283.896 307.25 276.82V119.32Z" fill="#015DFF"/>
<path fill-rule="evenodd" clip-rule="evenodd" d="M291.764 130.035C291.764 124.07 286.921 119.227 280.956 119.227H78.1289C72.1636 119.227 67.3203 124.07 67.3203 130.035V262.826C67.3203 268.791 72.1636 273.634 78.1289 273.634H280.956C286.921 273.634 291.764 268.791 291.764 262.826V130.035Z" fill="white"/>
<path d="M259.342 134.38H90.6719V150.763H259.342V134.38Z" fill="#015DFF"/>
<path d="M137.772 162.049H90.6719V177.612H137.772V162.049Z" fill="#015DFF"/>
<path fill-rule="evenodd" clip-rule="evenodd" d="M90.6685 223.393L110.059 222.833L137.769 316.465L149.115 316.745L114.219 211.899H84.8948L36.6641 317.586H51.7595L90.6685 223.393Z" fill="#FDC82F"/>
<path d="M291.311 308.34H237.086V314.305H291.311V308.34Z" fill="#015DFF"/>
<path fill-rule="evenodd" clip-rule="evenodd" d="M284.202 309.182H243.75L259.266 278.365H268.686L284.202 309.182Z" fill="#015DFF"/>
<path fill-rule="evenodd" clip-rule="evenodd" d="M281.969 304.747L284.202 309.182H243.75L245.983 304.747H281.969ZM278.966 298.782H248.986L252.285 292.231H275.667L278.966 298.782ZM272.664 286.266H255.288L259.266 278.365H268.686L272.664 286.266Z" fill="#EC5239"/>
<path d="M239.475 308.34H185.25V314.304H239.475V308.34Z" fill="#015DFF"/>
<path fill-rule="evenodd" clip-rule="evenodd" d="M232.358 309.182H191.906L207.422 278.365H216.842L232.358 309.182Z" fill="#015DFF"/>
<path fill-rule="evenodd" clip-rule="evenodd" d="M230.125 304.747L232.359 309.182H191.906L194.139 304.747H230.125ZM227.122 298.782H197.142L200.441 292.231H223.824L227.122 298.782ZM220.82 286.266H203.444L207.422 278.365H216.842L220.82 286.266Z" fill="#EC5239"/>
<path fill-rule="evenodd" clip-rule="evenodd" d="M264.405 43.7936C264.405 41.1316 262.244 38.9705 259.582 38.9705H165.847C163.185 38.9705 161.023 41.1316 161.023 43.7936C161.023 46.4556 163.185 48.6167 165.847 48.6167H259.582C262.244 48.6167 264.405 46.4556 264.405 43.7936Z" fill="#015DFF"/>
<path fill-rule="evenodd" clip-rule="evenodd" d="M192.031 48.6167V38.9705H165.847C163.185 38.9705 161.023 41.1316 161.023 43.7936C161.023 46.4556 163.185 48.6167 165.847 48.6167H192.031Z" fill="#FDC82F"/>
<path fill-rule="evenodd" clip-rule="evenodd" d="M297.966 34.6934L299.272 32.7588L303.556 39.6767L294.366 40.0233L295.906 37.7425C295.261 37.5126 294.585 37.3407 293.889 37.2299C287.849 36.2667 281.584 40.0003 279.906 45.5621C278.229 51.1237 281.77 56.421 287.81 57.3842C293.849 58.3473 300.115 54.6138 301.793 49.052C302.083 48.0895 302.222 47.1081 302.206 46.1377L305.991 45.7479C306.013 47.0417 305.827 48.3503 305.44 49.6337C303.203 57.0493 294.849 62.0273 286.797 60.7433C278.744 59.459 274.022 52.396 276.258 44.9804C278.495 37.5648 286.849 32.5867 294.902 33.8707C295.966 34.0403 296.993 34.3163 297.966 34.6934Z" fill="#015DFF"/>
<path fill-rule="evenodd" clip-rule="evenodd" d="M356.895 94.0352L345.711 119.838L356.085 125.23L363.509 98.1395L360.996 94.4681L356.895 94.0352Z" fill="#015DFF"/>
<path fill-rule="evenodd" clip-rule="evenodd" d="M437.199 178.013L362.09 93.4944C361.851 93.2259 361.522 93.0543 361.166 93.0121L178.361 71.3477L178.016 74.2617L360.267 95.8606L435.005 179.962L437.199 178.013Z" fill="#015DFF"/>
<path fill-rule="evenodd" clip-rule="evenodd" d="M354.831 170.224V144.431H340.414V170.224H339.896V194.968H339.852V222.756H340.044V249.376H340.227V275.216H340.062V302.802H354.831V249.376H355.023V222.55H354.831V196.764H355.25V170.224H354.831Z" fill="#015DFF"/>
<path d="M369.253 197.38H354.836V302.562H369.253V197.38Z" fill="#EC5239"/>
<path fill-rule="evenodd" clip-rule="evenodd" d="M177.655 70.9678L172.695 84.2686C258.592 115.113 344.439 145.887 434.764 182.931L436.912 178.587C408.047 153.693 376.748 133.664 344.387 115.762L177.655 70.9678Z" fill="#5090EF"/>
<path fill-rule="evenodd" clip-rule="evenodd" d="M177.655 70.9678L172.695 84.2686C258.592 115.113 344.439 145.887 434.764 182.931L436.912 178.587C408.047 153.693 376.748 133.664 344.387 115.762L177.655 70.9678Z" fill="#FDC82F"/>
<path d="M385.966 302.562H322.352V312.888H385.966V302.562Z" fill="#015DFF"/>
<path fill-rule="evenodd" clip-rule="evenodd" d="M179.898 87.5705L194.134 77.5077L198.326 92.9107C198.418 93.2479 198.655 93.5268 198.973 93.6713C199.291 93.8158 199.657 93.8111 199.971 93.6584L217.123 85.3278L222.2 100.319C222.317 100.664 222.588 100.936 222.934 101.053C223.279 101.171 223.659 101.121 223.963 100.919L239.073 90.8456L243.402 109.125C243.493 109.509 243.771 109.822 244.143 109.957C244.515 110.093 244.929 110.031 245.246 109.795L262.444 96.9573L267.521 117.265C267.612 117.631 267.874 117.931 268.225 118.07C268.575 118.21 268.971 118.173 269.29 117.97L291.108 104.086L299.269 127.339C299.387 127.675 299.652 127.94 299.988 128.058C300.324 128.176 300.696 128.134 300.999 127.945L324.645 113.158L328.311 137.6C328.372 138.004 328.639 138.348 329.016 138.507C329.393 138.666 329.825 138.617 330.157 138.379L351.977 122.688L356.626 148.382C356.695 148.758 356.941 149.077 357.288 149.238C357.635 149.399 358.039 149.38 358.37 149.189L376.855 138.486L380.481 157.826C380.554 158.212 380.815 158.537 381.177 158.69C381.539 158.844 381.954 158.805 382.282 158.589L395.582 149.801L399.894 166.81C400.053 167.438 400.692 167.819 401.321 167.659C401.949 167.5 402.329 166.861 402.17 166.233L397.451 147.622C397.358 147.254 397.092 146.953 396.737 146.816C396.383 146.679 395.984 146.722 395.667 146.931L382.463 155.655L378.857 136.423C378.786 136.048 378.539 135.731 378.193 135.573C377.846 135.414 377.444 135.433 377.115 135.623L358.639 146.32L353.956 120.441C353.884 120.044 353.615 119.713 353.241 119.562C352.868 119.411 352.443 119.462 352.116 119.697L330.348 135.35L326.701 111.039C326.642 110.648 326.391 110.313 326.031 110.147C325.672 109.982 325.253 110.008 324.918 110.218L300.998 125.177L292.834 101.913C292.715 101.574 292.449 101.309 292.11 101.192C291.772 101.075 291.398 101.119 291.096 101.311L269.403 115.116L264.293 94.6769C264.198 94.2959 263.919 93.9877 263.549 93.856C263.179 93.7242 262.767 93.786 262.452 94.0211L245.274 106.844L240.968 88.6623C240.879 88.2883 240.613 87.9815 240.256 87.8406C239.898 87.6999 239.494 87.743 239.175 87.9562L223.933 98.1171L218.919 83.3137C218.811 82.9946 218.571 82.7374 218.26 82.6073C217.949 82.4775 217.598 82.4872 217.295 82.6344L200.219 90.928L195.958 75.2728C195.858 74.9031 195.583 74.6059 195.223 74.4763C194.862 74.3469 194.461 74.4013 194.148 74.6226L178.543 85.6534C178.014 86.0276 177.888 86.7602 178.262 87.2895C178.636 87.8189 179.369 87.9447 179.898 87.5705Z" fill="white"/>
<path fill-rule="evenodd" clip-rule="evenodd" d="M347.404 285.323L342.746 276.392C342.521 275.961 341.99 275.794 341.558 276.019C341.127 276.244 340.96 276.775 341.185 277.207L346.391 287.188L341.082 296.964C340.85 297.392 341.008 297.926 341.435 298.158C341.862 298.39 342.397 298.232 342.629 297.805L347.373 289.07L351.907 297.763C352.132 298.194 352.663 298.361 353.094 298.136C353.526 297.911 353.693 297.379 353.468 296.949L348.386 287.205L353.953 276.955C354.185 276.528 354.027 275.994 353.6 275.762C353.172 275.53 352.638 275.688 352.406 276.115L347.404 285.323ZM361.518 285.294L356.859 276.362C356.635 275.932 356.103 275.764 355.672 275.989C355.241 276.214 355.074 276.746 355.298 277.177L360.505 287.159L355.195 296.935C354.963 297.362 355.121 297.896 355.548 298.128C355.976 298.36 356.51 298.202 356.742 297.775L361.486 289.04L366.02 297.733C366.245 298.164 366.777 298.331 367.208 298.106C367.639 297.881 367.806 297.35 367.581 296.919L362.499 287.175L368.066 276.926C368.298 276.498 368.14 275.964 367.713 275.732C367.286 275.5 366.751 275.658 366.519 276.085L361.518 285.294ZM347.545 260.571L342.166 250.89C341.93 250.465 341.394 250.312 340.969 250.548C340.544 250.784 340.391 251.32 340.627 251.745L346.517 262.347L340.51 272.731C340.266 273.152 340.41 273.691 340.831 273.934C341.252 274.178 341.79 274.034 342.034 273.613L347.513 264.141L352.751 273.569C352.988 273.994 353.524 274.147 353.949 273.911C354.374 273.675 354.527 273.139 354.291 272.714L348.541 262.365L354.654 251.798L354.655 251.8C354.669 251.835 354.685 251.869 354.703 251.902L360.593 262.505L354.586 272.889C354.342 273.31 354.486 273.848 354.907 274.092C355.328 274.335 355.866 274.191 356.11 273.77L361.59 264.298L366.827 273.726C367.064 274.151 367.6 274.305 368.025 274.068C368.45 273.832 368.603 273.296 368.367 272.871L362.617 262.522L368.915 251.635C369.159 251.214 369.015 250.675 368.594 250.432C368.174 250.188 367.635 250.332 367.392 250.753L361.621 260.728L356.242 251.047C356.006 250.622 355.47 250.469 355.045 250.705C355.001 250.729 354.96 250.757 354.922 250.787C354.86 250.579 354.722 250.392 354.518 250.275C354.097 250.031 353.559 250.175 353.316 250.596L347.545 260.571ZM361.828 234.313L357.112 224.828C356.896 224.393 356.368 224.215 355.932 224.431C355.497 224.648 355.319 225.176 355.536 225.612L360.825 236.251L355.431 246.67C355.207 247.102 355.376 247.633 355.808 247.857C356.24 248.08 356.771 247.911 356.994 247.48L361.796 238.204L366.386 247.436C366.603 247.871 367.131 248.049 367.566 247.832C368.002 247.616 368.179 247.088 367.963 246.652L362.799 236.267L368.454 225.344C368.678 224.912 368.509 224.381 368.077 224.157C367.645 223.934 367.114 224.103 366.891 224.534L361.828 234.313ZM347.466 234.096L342.087 224.415C341.851 223.99 341.315 223.837 340.89 224.073C340.465 224.309 340.312 224.845 340.548 225.27L346.439 235.872L340.431 246.257C340.188 246.677 340.331 247.216 340.752 247.46C341.173 247.703 341.712 247.559 341.955 247.138L347.435 237.666L352.673 247.094C352.909 247.519 353.445 247.672 353.87 247.436C354.295 247.2 354.448 246.664 354.212 246.239L348.462 235.89L354.761 225.002C355.004 224.582 354.861 224.043 354.44 223.8C354.019 223.556 353.48 223.7 353.237 224.121L347.466 234.096ZM362.092 208.523L356.714 198.842C356.478 198.417 355.942 198.264 355.517 198.5C355.092 198.736 354.939 199.272 355.175 199.697L361.065 210.3L355.058 220.684C354.814 221.105 354.958 221.643 355.379 221.887C355.8 222.13 356.338 221.986 356.582 221.565L362.061 212.093L367.299 221.521C367.535 221.946 368.071 222.099 368.496 221.863C368.922 221.627 369.075 221.091 368.838 220.666L363.089 210.317L369.387 199.43C369.631 199.009 369.487 198.47 369.066 198.227C368.645 197.983 368.107 198.127 367.863 198.548L362.092 208.523ZM347.683 208.417L342.305 198.736C342.069 198.311 341.533 198.157 341.108 198.394C340.683 198.63 340.53 199.166 340.766 199.591L346.656 210.193L340.648 220.577C340.405 220.998 340.549 221.537 340.97 221.78C341.39 222.024 341.929 221.88 342.172 221.459L347.652 211.987L352.89 221.415C353.126 221.84 353.662 221.993 354.087 221.757C354.512 221.521 354.666 220.985 354.429 220.56L348.68 210.211L354.978 199.323C355.222 198.903 355.078 198.364 354.657 198.121C354.236 197.877 353.698 198.021 353.454 198.442L347.683 208.417ZM347.702 181.118L342.323 171.437C342.087 171.012 341.551 170.859 341.126 171.095C340.701 171.331 340.548 171.867 340.784 172.292L346.674 182.894L340.667 193.279C340.423 193.699 340.567 194.238 340.988 194.482C341.409 194.725 341.948 194.581 342.191 194.16L347.671 184.688L352.909 194.116C353.145 194.541 353.681 194.694 354.106 194.458C354.531 194.222 354.684 193.686 354.448 193.261L348.698 182.912L354.997 172.025C355.24 171.604 355.096 171.065 354.676 170.822C354.255 170.578 353.716 170.722 353.473 171.143L347.702 181.118ZM347.898 156.348L342.52 146.666C342.284 146.241 341.748 146.088 341.323 146.324C340.898 146.56 340.745 147.096 340.981 147.521L346.871 158.124L340.864 168.508C340.62 168.929 340.764 169.467 341.185 169.711C341.605 169.954 342.144 169.81 342.387 169.39L347.867 159.917L353.105 169.346C353.342 169.771 353.877 169.924 354.302 169.688C354.727 169.451 354.881 168.916 354.645 168.49L348.895 158.141L355.193 147.254C355.437 146.833 355.293 146.295 354.872 146.051C354.451 145.808 353.913 145.951 353.669 146.372L347.898 156.348Z" fill="white"/>
<path d="M608.151 312.237H15.2266V320H608.151V312.237Z" fill="#015DFF"/>
<path fill-rule="evenodd" clip-rule="evenodd" d="M31.6161 64.7278C34.6539 64.7278 37.1203 67.019 37.1203 69.8414C37.1203 72.6635 34.6539 74.9549 31.6161 74.9549C28.5781 74.9549 26.1116 72.6635 26.1116 69.8414C26.1116 67.019 28.5781 64.7278 31.6161 64.7278ZM20.2219 68.668C21.4622 62.0642 25.9707 58.1202 30.7503 57.6636C35.4023 57.2192 39.93 60.2429 41.5058 66.8541C41.7511 67.8835 42.8788 68.539 44.0247 68.3186C45.1703 68.0982 45.9001 67.0852 45.6549 66.0559C43.4802 56.9324 36.7213 53.2598 30.3018 53.8729C24.011 54.474 17.6704 59.3424 16.0379 68.0336C15.843 69.0717 16.6216 70.055 17.7769 70.2302C18.9323 70.4052 20.0268 69.7058 20.2219 68.668ZM10.7319 59.7969C13.4262 49.3655 21.4877 43.9032 29.791 43.7409C38.0947 43.5785 46.4164 48.7209 49.6203 59.0472C49.9349 60.0611 51.1049 60.6542 52.2336 60.3714C53.3622 60.0889 54.0221 59.0377 53.7075 58.0238C49.8672 45.6457 39.6523 39.7352 29.6986 39.9299C19.7443 40.1245 9.82885 46.4293 6.59844 58.9354C6.33355 59.9606 7.04422 60.9848 8.18553 61.2228C9.32707 61.4608 10.467 60.8224 10.7319 59.7969ZM4.42286 46.7619C11.6558 35.0351 22.6315 29.8888 33.1086 30.9288C43.6245 31.9725 53.4535 39.2016 58.3728 51.7705C58.7615 52.7637 59.9726 53.2855 61.078 52.9364C62.1834 52.5873 62.7644 51.4993 62.3758 50.5061C56.8099 36.2855 45.4724 28.3209 33.5744 27.1399C21.6374 25.9552 8.95243 31.5534 0.711447 44.9145C0.143726 45.8352 0.514079 46.9952 1.53909 47.5053C2.56388 48.0155 3.85514 47.6826 4.42286 46.7619Z" fill="#FDC82F"/>
</svg>
