<svg width="116" height="32" viewBox="0 0 116 32" fill="none" xmlns="http://www.w3.org/2000/svg">
<path d="M81.5463 31.7793H82.9808V27.2551L87.6153 31.7793H88.9394V25.3793H87.6153V30.1241L82.9808 25.3793H81.5463V31.7793Z" fill="#12323E"/>
<path d="M100.195 31.7793H101.629V27.2551L106.264 31.7793H107.588V25.3793H106.264V30.1241L101.629 25.3793H100.195V31.7793Z" fill="#12323E"/>
<path d="M109.022 31.7793H115.312V30.6758H110.457V29.131H114.429V28.0275H110.457V26.5931H115.312V25.3793H109.022V31.7793Z" fill="#12323E"/>
<path d="M91.8084 25.3793H90.3739V31.7793H96.0015V30.6758H91.8084V25.3793Z" fill="#12323E"/>
<path d="M98.6498 25.3793H97.2153V31.7793H98.6498V25.3793Z" fill="#12323E"/>
<path fill-rule="evenodd" clip-rule="evenodd" d="M76.3601 31.7793C78.924 31.7793 80.3325 30.3466 80.3325 28.5793C80.3325 26.812 79.2005 25.3793 76.3601 25.3793C73.4441 25.3793 72.3877 26.812 72.3877 28.5793C72.3877 30.3466 73.7302 31.7793 76.3601 31.7793ZM76.3601 30.8012C78.1428 30.8012 79.1221 29.8064 79.1221 28.5793C79.1221 27.3521 78.335 26.3573 76.3601 26.3573C74.3326 26.3573 73.5981 27.3521 73.5981 28.5793C73.5981 29.8064 74.5315 30.8012 76.3601 30.8012Z" fill="#12323E"/>
<path d="M75.031 10.3724C77.2379 7.52553 80.0848 6.16724 83.4393 5.70379C85.4255 5.41689 87.4338 5.43896 89.3979 5.92448C91.9138 6.73105 93.569 7.8345 94.8048 10.3824C95.4448 9.78655 96.0407 9.14655 96.7248 8.59483C99.1524 6.69689 101.933 5.74793 105.023 5.57138C106.943 5.46103 108.797 5.61551 110.606 6.27758C113.321 7.29275 114.866 9.2569 115.241 12.1259C115.373 13.2072 115.285 14.3669 115.307 15.4483C115.329 17.1476 115.307 21.1862 115.307 21.1862H107.914C107.914 21.1862 107.936 16.3631 107.914 14.3107C107.914 13.759 107.781 13.1852 107.583 12.6555C107.031 11.4759 106.104 10.9341 104.934 10.7576C101.757 10.2721 98.689 10.7355 95.7759 12.17C95.4448 12.3245 95.2241 12.469 95.2241 12.469C95.2241 12.469 95.3345 14.4873 95.3345 15.2597C95.3345 17.0031 95.3345 21.1862 95.3345 21.1862H87.9414C87.9414 21.1862 87.9634 16.8486 87.9414 15.039C87.9414 14.4873 87.8972 13.9355 87.8089 13.4059C87.5 11.6404 86.3745 10.9783 84.8958 10.7576C81.7179 10.2721 78.6724 10.7576 75.7813 12.1479C75.2296 12.4128 75.031 12.6897 75.031 12.6897V21.1862H67.5275C67.5275 21.1862 67.5496 11.1769 67.5275 6.54241V6.06898H74.9206V6.6207C74.9206 6.6207 75.031 9.09243 75.031 10.3724Z" fill="#EC5239"/>
<path d="M53.4034 0H45.8999V4.74484H53.4034V0Z" fill="#EC5239"/>
<path d="M53.4034 7.72415H45.8999V21.1862H53.4034V7.72415Z" fill="#EC5239"/>
<path d="M64.4379 0H56.9344V21.1862H64.4379V0Z" fill="#EC5239"/>
<path d="M0 4.48861V0H12.0276C13.7931 0 15.8897 0.551725 17.4345 1.4588V6.6207C16.2207 5.40691 13.9035 4.48861 12.0276 4.48861H0Z" fill="#015DFF"/>
<path d="M0 12.8748V8.38622H12.0276C13.7931 8.38622 15.8897 8.93795 17.4345 9.84502V15.0069C16.2207 13.7931 13.9035 12.8748 12.0276 12.8748H0Z" fill="#015DFF"/>
<path d="M0 21.2611V16.7724H12.0276C13.7931 16.7724 15.8897 17.3242 17.4345 18.2312V23.3931C16.2207 22.1793 13.9035 21.2611 12.0276 21.2611H0Z" fill="#015DFF"/>
<path d="M38.8414 4.48861V0H26.8138C25.0483 0 22.9518 0.551725 21.4069 1.4588V6.6207C22.6207 5.40691 24.938 4.48861 26.8138 4.48861H38.8414Z" fill="#015DFF"/>
<path d="M38.8414 12.8748V8.38622H26.8138C25.0483 8.38622 22.9518 8.93795 21.4069 9.84502V15.0069C22.6207 13.7931 24.938 12.8748 26.8138 12.8748H38.8414Z" fill="#015DFF"/>
<path d="M38.8414 21.2611V16.7724H26.8138C25.0483 16.7724 22.9518 17.3242 21.4069 18.2312V23.3931C22.6207 22.1793 24.938 21.2611 26.8138 21.2611H38.8414Z" fill="#015DFF"/>
<path d="M0 12.8748V8.38622H12.0276C13.7931 8.38622 15.8897 8.93795 17.4345 9.84502V15.0069C16.2207 13.7931 13.9035 12.8748 12.0276 12.8748H0Z" fill="#015DFF"/>
<path d="M38.8414 4.48861V0H26.8138C25.0483 0 22.9518 0.551725 21.4069 1.4588V6.6207C22.6207 5.40691 24.938 4.48861 26.8138 4.48861H38.8414Z" fill="#015DFF"/>
<path d="M38.8414 21.2611V16.7724H26.8138C25.0483 16.7724 22.9518 17.3242 21.4069 18.2312V23.3931C22.6207 22.1793 24.938 21.2611 26.8138 21.2611H38.8414Z" fill="#015DFF"/>
</svg>
