<svg width="259" height="247" viewBox="0 0 259 247" fill="none" xmlns="http://www.w3.org/2000/svg">
<rect width="28.657" height="89.069" transform="matrix(-1 0 0 1 257.87 157.931)" fill="#CB8461"/>
<rect width="43.3727" height="85.9709" transform="matrix(-1 0 0 1 171.25 69.4014)" fill="#CB8461"/>
<rect width="43.3727" height="42.5982" transform="matrix(-1 0 0 1 128.291 68.5967)" fill="#EC5239"/>
<rect width="85.1964" height="66.6081" transform="matrix(-1 0 0 1 85.1964 0)" fill="#F3B411"/>
<circle cx="215.63" cy="79.9379" r="42.9855" transform="rotate(-180 215.63 79.9379)" fill="#EC5239"/>
<path d="M171.199 200.715C178.929 200.715 186.583 199.573 193.725 197.354C200.866 195.136 207.355 191.884 212.821 187.784C218.287 183.685 222.623 178.818 225.581 173.462C228.539 168.106 230.062 162.365 230.062 156.568L171.199 156.568V200.715Z" fill="white"/>
<path d="M171.687 2.43524C160.346 2.43524 149.116 4.14809 138.639 7.47601C128.161 10.8039 118.641 15.6817 110.622 21.8309C102.603 27.9801 96.2419 35.2802 91.902 43.3145C87.5621 51.3488 85.3284 59.9599 85.3284 68.6561L171.687 68.6561V2.43524Z" fill="white"/>
</svg>
