<svg width="373" height="200" viewBox="0 0 373 200" fill="none" xmlns="http://www.w3.org/2000/svg">
<path d="M0 0H373V200H0V0Z" fill="#ECE9FB"/>
<path d="M217.395 19.907H88V95.5271H217.395V19.907Z" fill="#4848FF"/>
<path d="M214.187 23.7563H92.0312V89.9661H214.187V23.7563Z" fill="#C0CDFD"/>
<path fill-rule="evenodd" clip-rule="evenodd" d="M101.656 49.2982L125.108 69.6395C125.163 69.6871 125.235 69.7055 125.304 69.6897C125.373 69.6738 125.432 69.6254 125.464 69.558L138.784 41.1447L147.166 62.3043L147.595 62.1119L139.016 40.4553C138.981 40.3661 138.9 40.3069 138.809 40.3038C138.718 40.3008 138.633 40.3543 138.593 40.4409L125.177 69.0597L101.951 48.9142L101.656 49.2982Z" fill="#12323E"/>
<path d="M111.035 47.0681H105.703V77.348H111.035V47.0681Z" fill="#EC5239"/>
<path d="M119.472 54.1858H114.141V75.7713H119.472V54.1858Z" fill="#015DFF"/>
<path d="M127.925 58.8396H122.594V75.7713H127.925V58.8396Z" fill="#3333DE"/>
<path d="M136.371 41.4565H131.039V75.7716H136.371V41.4565Z" fill="#FDC82F"/>
<path d="M142.585 68.094H138.406V74.6327H142.585V68.094Z" fill="#EC5239"/>
<path d="M150.291 57.197H146.195V75.7712H150.291V57.197Z" fill="#015DFF"/>
<path d="M214.183 23.7563H169.039V89.9661H214.183V23.7563Z" fill="white"/>
<path fill-rule="evenodd" clip-rule="evenodd" d="M100.308 78.1625V33.6846H99.2656V79.2708H165.909V78.1625H100.308Z" fill="#12323E"/>
<path fill-rule="evenodd" clip-rule="evenodd" d="M191.605 31.5107C181.2 31.5107 172.766 39.6354 172.766 49.6576C172.766 59.6731 181.207 67.8044 191.605 67.8044C202.009 67.8044 210.444 59.6798 210.444 49.6576H191.605V31.5107Z" fill="#0D00FF"/>
<path fill-rule="evenodd" clip-rule="evenodd" d="M195.547 31.5107C203.78 31.5107 210.454 37.7854 210.454 45.5256H195.547V31.5107Z" fill="#015DFF"/>
<path d="M171.095 111.352H141.438V116.515H171.095V111.352Z" fill="#12323E"/>
<path fill-rule="evenodd" clip-rule="evenodd" d="M144.091 84.5017H124.469L135.654 113.905H155.276L144.091 84.5017Z" fill="#015DFF"/>
<path fill-rule="evenodd" clip-rule="evenodd" d="M144.086 84.5017L145.851 85.7251L156.284 113.154L155.271 113.905L144.086 84.5017Z" fill="#12323E"/>
<path fill-rule="evenodd" clip-rule="evenodd" d="M137.626 96.2708C138.928 96.2708 140.434 97.4494 140.986 98.9013C141.539 100.353 140.929 101.532 139.627 101.532C138.324 101.532 136.819 100.353 136.266 98.9013C135.714 97.4494 136.323 96.2708 137.626 96.2708Z" fill="white"/>
<path fill-rule="evenodd" clip-rule="evenodd" d="M175.734 102.576C176.407 102.09 176.738 101.599 176.73 101.113C176.723 100.628 176.377 100.137 175.661 99.6517C175.657 99.649 175.653 99.6466 175.648 99.6447C174.963 99.3454 174.563 98.9928 174.4 98.589C174.25 98.2176 174.305 97.8062 174.514 97.3628C174.84 96.6715 175.538 95.9075 176.453 95.0986C177.552 94.1825 178.203 93.4105 178.47 92.7665C178.656 92.3183 178.66 91.9287 178.507 91.5914C178.346 91.235 178.007 90.935 177.507 90.6895L177.437 90.8309C177.897 91.0571 178.215 91.328 178.363 91.6561C178.535 92.0358 178.475 92.488 178.164 93.0256C177.84 93.5852 177.247 94.2318 176.351 94.9784C176.35 94.9789 176.349 94.9794 176.349 94.9799C175.414 95.8064 174.704 96.5895 174.371 97.2958C174.14 97.7844 174.087 98.2384 174.253 98.6479C174.427 99.0797 174.847 99.4657 175.578 99.7863C176.233 100.231 176.565 100.671 176.572 101.116C176.579 101.562 176.259 102.002 175.641 102.448L175.734 102.576ZM178.924 102.576C179.596 102.09 179.928 101.599 179.92 101.113C179.912 100.628 179.566 100.137 178.851 99.6517C178.847 99.649 178.842 99.6466 178.838 99.6447C178.153 99.3454 177.752 98.9928 177.589 98.589C177.439 98.2176 177.494 97.8062 177.703 97.3628C178.03 96.6715 178.728 95.9075 179.643 95.0986C180.742 94.1825 181.392 93.4105 181.659 92.7665C181.845 92.3183 181.849 91.9287 181.697 91.5914C181.536 91.235 181.196 90.935 180.696 90.6895L180.626 90.8309C181.087 91.0571 181.404 91.328 181.552 91.6561C181.724 92.0358 181.665 92.488 181.353 93.0256C181.029 93.5852 180.436 94.2318 179.54 94.9784C179.539 94.9789 179.539 94.9794 179.538 94.9799C178.603 95.8064 177.894 96.5895 177.56 97.2958C177.329 97.7844 177.277 98.2384 177.442 98.6479C177.616 99.0797 178.037 99.4657 178.768 99.7863C179.422 100.231 179.754 100.671 179.761 101.116C179.769 101.562 179.448 102.002 178.831 102.448L178.924 102.576ZM181.765 102.576C182.438 102.09 182.769 101.599 182.761 101.113C182.754 100.628 182.407 100.137 181.692 99.6517C181.688 99.649 181.683 99.6466 181.679 99.6447C180.994 99.3454 180.593 98.9928 180.43 98.589C180.28 98.2176 180.335 97.8062 180.545 97.3628C180.871 96.6715 181.569 95.9075 182.484 95.0986C183.583 94.1825 184.233 93.4105 184.501 92.7665C184.687 92.3183 184.691 91.9287 184.538 91.5914C184.377 91.235 184.037 90.935 183.538 90.6895L183.467 90.8309C183.928 91.0571 184.245 91.328 184.394 91.6561C184.565 92.0358 184.506 92.488 184.195 93.0256C183.871 93.5852 183.277 94.2318 182.381 94.9784C182.381 94.9789 182.38 94.9794 182.38 94.9799C181.445 95.8064 180.735 96.5895 180.401 97.2958C180.171 97.7844 180.118 98.2384 180.283 98.6479C180.458 99.0797 180.878 99.4657 181.609 99.7863C182.263 100.231 182.596 100.671 182.603 101.116C182.61 101.562 182.29 102.002 181.672 102.448L181.765 102.576Z" fill="#12323E"/>
<path fill-rule="evenodd" clip-rule="evenodd" d="M184.829 113.525C184.371 114.821 184.057 115.703 184.057 115.703C180.954 116.735 178.051 116.838 175.415 115.703C175.415 115.703 171.094 103.552 171.094 103.242C171.094 101.384 188.378 101.384 188.378 103.242C188.378 103.303 188.208 103.831 187.935 104.636C196.405 104.037 191.561 112.433 184.829 113.525ZM185.336 112.092C190.129 110.69 193.696 105.429 187.42 106.14C186.807 107.915 186.004 110.2 185.336 112.092Z" fill="#EC5239"/>
<path fill-rule="evenodd" clip-rule="evenodd" d="M276.532 162.215C276.532 161.243 275.739 160.453 274.762 160.453H271.221C270.244 160.453 269.451 161.243 269.451 162.215V166.189C269.451 167.162 270.244 167.951 271.221 167.951H274.762C275.739 167.951 276.532 167.162 276.532 166.189V162.215ZM230.784 159.531C230.784 158.671 230.083 157.974 229.219 157.974H225.267C224.404 157.974 223.703 158.671 223.703 159.531V162.645C223.703 163.504 224.404 164.202 225.267 164.202H229.219C230.083 164.202 230.784 163.504 230.784 162.645V159.531Z" fill="#EC5239"/>
<path fill-rule="evenodd" clip-rule="evenodd" d="M275.916 130.905L270.069 133.278V160.167C271.829 161.563 273.785 161.512 275.916 160.167V130.905ZM230.168 133.427L224.32 135.398V157.736C226.08 158.896 228.037 158.854 230.168 157.736V133.427Z" fill="#EC5239"/>
<path fill-rule="evenodd" clip-rule="evenodd" d="M253.587 165.92C253.587 164.948 252.794 164.158 251.817 164.158H248.276C247.299 164.158 246.506 164.948 246.506 165.92V169.894C246.506 170.866 247.299 171.656 248.276 171.656H251.817C252.794 171.656 253.587 170.866 253.587 169.894V165.92ZM207.838 163.235C207.838 162.376 207.137 161.678 206.274 161.678H202.322C201.459 161.678 200.758 162.376 200.758 163.235V166.35C200.758 167.209 201.459 167.907 202.322 167.907H206.274C207.137 167.907 207.838 167.209 207.838 166.35V163.235Z" fill="#EC5239"/>
<path fill-rule="evenodd" clip-rule="evenodd" d="M252.971 134.609L247.123 136.982V163.871C248.883 165.267 250.84 165.216 252.971 163.871V134.609ZM207.223 137.13L201.375 139.101V161.439C203.135 162.599 205.091 162.557 207.223 161.439V137.13Z" fill="#EC5239"/>
<path fill-rule="evenodd" clip-rule="evenodd" d="M263.03 63.2429C283.468 67.317 284.565 74.5146 284.565 96.6311C284.565 106.413 285.874 122.766 280.391 129.726C273.478 138.503 252.557 142.687 240.96 142.687C230.359 142.687 203.976 144.326 197.127 136.82C190.542 129.603 193.079 113.843 196.368 103.582C197.686 99.4713 203.803 98.4926 221.14 90.6476C223.441 89.6067 219.091 54.484 263.03 63.2429Z" fill="#FDC82F"/>
<path fill-rule="evenodd" clip-rule="evenodd" d="M261.009 66.079C279.742 69.8575 280.747 76.5329 280.747 97.0448C280.747 106.117 281.947 121.284 276.922 127.739C270.585 135.879 251.41 139.759 240.781 139.759C231.064 139.759 206.882 141.28 200.604 134.318C194.569 127.625 196.894 113.008 199.909 103.491C201.116 99.679 206.724 98.7713 222.614 91.4955C224.723 90.5301 220.736 57.9555 261.009 66.079Z" fill="#12323E"/>
<path fill-rule="evenodd" clip-rule="evenodd" d="M210.319 150.84L220.274 153.466C219.644 163.644 222.164 166.469 220.155 167.148C219.085 167.51 202.893 170.219 202.893 170.219C199.721 169.214 197.383 164.722 199.288 164.449C202.863 163.936 205.566 160.921 209.862 157.843L210.319 150.84Z" fill="#12323E"/>
<path fill-rule="evenodd" clip-rule="evenodd" d="M248.508 123.142C252.896 117.905 248.647 106.385 248.647 106.385C248.647 106.385 221.563 101.504 210.711 110.691C205.552 115.059 213.037 129.528 218.374 127.8C224.683 125.757 244.121 128.379 248.508 123.142Z" fill="#015DFF"/>
<path fill-rule="evenodd" clip-rule="evenodd" d="M207.113 121.563C208.088 104.66 219.137 107.806 221.937 113.197C224.604 118.332 221.439 155.548 221.439 155.548C216.883 157.8 212.384 157.182 207.241 155.566C207.241 155.566 206.726 128.28 207.113 121.563Z" fill="#015DFF"/>
<path fill-rule="evenodd" clip-rule="evenodd" d="M232.155 153.021L243.147 150.84L245.58 164.591L239.462 170.219C239.462 170.219 232.635 173.579 229.643 171.312C227.452 169.652 230.952 164.101 233.574 160.529L232.155 153.021Z" fill="#12323E"/>
<path fill-rule="evenodd" clip-rule="evenodd" d="M262.956 125.794C267.343 120.557 263.094 109.037 263.094 109.037C263.094 109.037 236.01 104.157 225.159 113.344C219.999 117.712 225.285 132.883 232.822 130.453C239.133 128.417 258.569 131.031 262.956 125.794Z" fill="#015DFF"/>
<path fill-rule="evenodd" clip-rule="evenodd" d="M238.473 121.685C234.085 107.985 227.138 108.757 223.415 116.516C220.97 121.61 229.733 154.716 229.733 154.716C234.547 155.96 239.36 156.003 244.174 153.501C244.174 153.501 240.415 127.747 238.473 121.685Z" fill="#015DFF"/>
<path fill-rule="evenodd" clip-rule="evenodd" d="M240.498 130.03C240.307 129.012 240.117 128.036 239.932 127.123C239.915 127.038 239.831 126.983 239.745 127C239.66 127.017 239.604 127.1 239.621 127.186C239.806 128.097 239.996 129.071 240.186 130.087C240.202 130.173 240.285 130.23 240.371 130.214C240.457 130.198 240.514 130.115 240.498 130.03ZM263.113 108.883C263.113 108.883 240.613 104.837 228.366 111.053C227.632 111.298 226.918 111.723 226.242 112.311C225.825 112.599 225.426 112.903 225.047 113.224C224.019 114.094 223.391 115.38 223.109 116.873C222.572 118.646 222.853 122.461 223.542 127.02C223.555 127.106 223.636 127.165 223.722 127.153C223.809 127.14 223.868 127.059 223.855 126.973C223.174 122.469 222.882 118.701 223.415 116.957C223.417 116.951 223.418 116.945 223.419 116.94C223.686 115.519 224.275 114.292 225.252 113.464C225.626 113.148 226.019 112.848 226.43 112.565C226.435 112.561 226.44 112.558 226.444 112.554C227.092 111.989 227.774 111.581 228.477 111.349C228.485 111.346 228.492 111.343 228.5 111.34C240.673 105.151 263.056 109.193 263.056 109.193C263.142 109.209 263.225 109.152 263.24 109.066C263.256 108.98 263.199 108.898 263.113 108.883Z" fill="#12323E"/>
<path fill-rule="evenodd" clip-rule="evenodd" d="M231.111 68.6495C234.358 61.775 240.058 63.7036 237.965 71.1584C236.759 75.4561 233.943 90.2367 231.98 94.1905C229.555 99.0743 223.895 97.8952 224.319 92.7226C224.685 88.2699 225.56 80.4063 231.111 68.6495Z" fill="#EC5239"/>
<path fill-rule="evenodd" clip-rule="evenodd" d="M229.338 96.9453C235.122 93.8147 231.867 86.5789 226.539 87.2307C222.827 87.6848 213.512 92.6578 206.448 96.6233C205.638 97.0778 203.061 99.1365 202.149 101.169C200.773 104.236 201.791 107.764 202.887 107.126C203.219 107.492 203.67 109.019 204.338 108.284C204.88 109.843 207.121 110.594 207.557 105.203C208.205 106.662 211.3 105.869 212.79 104.795C215.312 102.977 215.499 100.546 216.584 100.333C220.982 99.4724 227.487 97.9472 229.338 96.9453Z" fill="#F9C5C5"/>
<path fill-rule="evenodd" clip-rule="evenodd" d="M229.341 96.9452C235.124 93.8147 231.87 86.5789 226.541 87.2307C223.951 87.5475 218.633 90.0644 213.256 92.904C213.209 92.9283 213.117 92.9771 213.117 92.9771C215.615 95.0422 217.316 97.3553 217.4 100.171C217.4 100.171 217.865 100.077 218.103 100.027C222.357 99.1436 227.693 97.8372 229.341 96.9452Z" fill="#EC5239"/>
<path fill-rule="evenodd" clip-rule="evenodd" d="M228.375 87.1592C227.795 87.0299 227.172 86.9946 226.519 87.0745C226.148 87.1198 225.723 87.2092 225.25 87.3378C225.165 87.3607 225.115 87.4475 225.138 87.5315C225.162 87.6155 225.249 87.6651 225.333 87.6421C225.79 87.518 226.2 87.4313 226.558 87.3875C227.173 87.3123 227.759 87.3452 228.306 87.467C228.392 87.4861 228.476 87.4326 228.495 87.3476C228.515 87.2626 228.461 87.1782 228.375 87.1592Z" fill="#12323E"/>
<path fill-rule="evenodd" clip-rule="evenodd" d="M259.447 66.4647C253.873 64.5989 235.703 62.3931 235.179 64.7794C233.28 73.4252 229.289 75.3337 228.503 83.0618C228.086 87.1611 231.707 91.0861 231.622 94.9786C231.536 98.871 227.219 106.965 227.219 106.965L263.567 110.467C258.298 92.7456 263.582 67.8487 259.447 66.4647Z" fill="#EC5239"/>
<path fill-rule="evenodd" clip-rule="evenodd" d="M235.018 64.7454C234.073 69.0504 232.606 71.6776 231.278 74.1909C229.936 76.7312 228.736 79.1564 228.34 83.0454C228.129 85.1209 228.933 87.1537 229.786 89.1588C230.62 91.1177 231.5 93.0494 231.458 94.9747C231.373 98.8449 227.073 106.891 227.073 106.891C227.032 106.967 227.062 107.063 227.139 107.104C227.216 107.145 227.312 107.115 227.353 107.038C227.353 107.038 231.689 98.8961 231.775 94.9815C231.818 93.0144 230.93 91.0374 230.078 89.0358C229.247 87.0804 228.449 85.1011 228.655 83.0772C229.046 79.2383 230.234 76.8453 231.558 74.3378C232.897 71.8035 234.375 69.1536 235.328 64.8128C235.347 64.7277 235.293 64.6436 235.207 64.625C235.122 64.6064 235.037 64.6603 235.018 64.7454Z" fill="#12323E"/>
<path fill-rule="evenodd" clip-rule="evenodd" d="M260.39 109.075C269.195 110.489 269.473 98.7912 264.936 97.3295C259.24 95.4941 239.158 92.6657 226.68 97.1908C225.262 97.7051 219.992 98.5459 217.342 100.723C213.344 104.008 214.409 111.345 215.916 109.743C216.188 110.429 217.32 110.2 218.79 109.613C220.094 110.531 221.513 110.217 222.987 109.316C222.987 109.316 227.595 105.966 228.961 105.987C237.813 106.123 255.292 108.256 260.39 109.075Z" fill="#F9C5C5"/>
<path fill-rule="evenodd" clip-rule="evenodd" d="M263.633 71.9202C260.483 62.5266 251.295 63.9784 252.536 73.9094C253.252 79.6347 253.682 99.0862 255.64 104.506C258.059 111.201 266.989 110.703 267.693 103.996C268.3 98.2224 269.02 87.9853 263.633 71.9202Z" fill="#EC5239"/>
<path fill-rule="evenodd" clip-rule="evenodd" d="M260.382 109.075C269.187 110.489 269.464 98.7914 264.928 97.3297C259.32 95.5229 239.772 92.754 227.261 96.9847C227.063 97.0517 226.672 97.1911 226.672 97.1911C228.687 100.852 229.324 103.712 228.953 105.987C228.953 105.987 229.373 105.994 229.591 106C238.619 106.223 255.403 108.275 260.382 109.075Z" fill="#EC5239"/>
<path fill-rule="evenodd" clip-rule="evenodd" d="M227.22 96.8344C227.021 96.9017 226.628 97.0416 226.628 97.0416C226.585 97.0572 226.55 97.091 226.534 97.1341C226.517 97.1773 226.521 97.2254 226.543 97.2659C228.536 100.885 229.173 103.711 228.807 105.961C228.799 106.006 228.812 106.052 228.841 106.087C228.871 106.122 228.914 106.143 228.96 106.144C228.96 106.144 229.38 106.151 229.597 106.157C238.618 106.38 255.391 108.43 260.366 109.229C260.452 109.243 260.534 109.185 260.548 109.099C260.562 109.013 260.503 108.932 260.417 108.918C255.434 108.118 238.639 106.065 229.604 105.841C229.48 105.838 229.287 105.834 229.146 105.832C229.456 103.595 228.826 100.806 226.91 97.2767C227.039 97.2311 227.211 97.1707 227.322 97.1331C227.405 97.1051 227.449 97.0155 227.421 96.933C227.393 96.8505 227.303 96.8064 227.22 96.8344ZM258.785 95.8131C257.379 95.584 255.829 95.37 254.18 95.1875C254.093 95.1779 254.015 95.2403 254.005 95.3269C253.995 95.4135 254.058 95.4915 254.145 95.5011C255.789 95.6829 257.332 95.896 258.734 96.1244C258.821 96.1385 258.902 96.0803 258.916 95.9943C258.93 95.9083 258.872 95.8272 258.785 95.8131Z" fill="#12323E"/>
<path fill-rule="evenodd" clip-rule="evenodd" d="M255.038 66.0098C253.15 67.0993 251.87 69.7883 252.387 73.9279C252.858 77.6967 253.205 87.4149 253.947 95.1614C245.72 94.2713 235.085 94.1758 227.222 96.8347C227.023 96.9019 226.631 97.0418 226.631 97.0418C226.548 97.0712 226.505 97.1615 226.535 97.2435C226.564 97.3255 226.655 97.3682 226.738 97.3388C226.738 97.3388 227.127 97.2 227.324 97.1333C235.209 94.4672 245.895 94.5912 254.105 95.4961C254.153 95.5013 254.2 95.485 254.234 95.4516C254.268 95.4183 254.285 95.3714 254.281 95.3242C253.526 87.5437 253.177 77.6907 252.702 73.8889C252.206 69.9203 253.387 67.3273 255.197 66.2827C255.273 66.239 255.299 66.1426 255.255 66.0672C255.211 65.9918 255.114 65.9661 255.038 66.0098ZM207.257 99.8552C207.257 99.8552 204.695 101.193 204.259 107.832C204.25 107.969 204.346 108.087 204.475 108.097C204.603 108.106 204.714 108.003 204.723 107.867C205.135 101.597 207.467 100.297 207.467 100.297C207.582 100.235 207.628 100.086 207.57 99.9642C207.512 99.8422 207.372 99.7933 207.257 99.8552ZM204.89 99.8914C204.89 99.8914 202.555 102.092 202.79 106.648C202.797 106.785 202.907 106.89 203.036 106.882C203.164 106.875 203.262 106.758 203.255 106.621C203.034 102.339 205.201 100.261 205.201 100.261C205.297 100.17 205.305 100.013 205.219 99.9112C205.134 99.8091 204.986 99.8003 204.89 99.8914ZM207.901 104.757C207.901 104.757 208.858 102.431 210.539 101.802C210.66 101.757 210.724 101.615 210.681 101.486C210.639 101.357 210.506 101.289 210.384 101.335C208.542 102.024 207.475 104.557 207.475 104.557C207.423 104.682 207.476 104.828 207.594 104.884C207.712 104.939 207.849 104.882 207.901 104.757ZM216.718 98.5957C216.718 98.5957 216.524 99.493 216.163 99.9082C216.076 100.009 216.082 100.165 216.176 100.258C216.271 100.351 216.418 100.345 216.506 100.244C216.929 99.7571 217.171 98.7111 217.171 98.7111C217.201 98.578 217.124 98.4443 216.999 98.4124C216.874 98.3806 216.748 98.4626 216.718 98.5957ZM217.617 102.806C217.617 102.806 216.5 105.297 215.946 107.274C215.695 108.17 215.568 108.967 215.675 109.414C215.707 109.546 215.834 109.626 215.958 109.593C216.083 109.559 216.158 109.424 216.127 109.291C216.033 108.899 216.172 108.203 216.392 107.416C216.938 105.47 218.038 103.019 218.038 103.019C218.093 102.895 218.044 102.748 217.928 102.689C217.812 102.63 217.673 102.682 217.617 102.806ZM220.683 103.642C220.683 103.642 218.787 105.722 218.215 107.458C217.939 108.298 217.973 109.061 218.534 109.545C218.634 109.631 218.78 109.615 218.861 109.509C218.942 109.402 218.927 109.246 218.827 109.16C218.416 108.805 218.452 108.237 218.655 107.622C219.2 105.966 221.017 103.988 221.017 103.988C221.107 103.89 221.105 103.733 221.013 103.637C220.92 103.542 220.773 103.544 220.683 103.642ZM223.719 103.202C223.719 103.202 221.871 105.496 221.218 107.033C221.064 107.397 220.976 107.723 220.976 107.977C220.976 108.323 221.114 108.565 221.415 108.671C222.794 109.16 222.934 109.149 222.934 109.149C222.934 109.149 222.934 109.148 222.934 109.148C222.933 109.148 222.933 109.149 222.933 109.149L222.936 108.653L222.955 108.655C222.955 108.655 222.707 108.607 221.563 108.201C221.47 108.168 221.441 108.084 221.441 107.977C221.441 107.777 221.521 107.523 221.642 107.237C222.276 105.746 224.072 103.525 224.072 103.525C224.156 103.421 224.145 103.265 224.047 103.176C223.95 103.086 223.803 103.098 223.719 103.202Z" fill="#12323E"/>
<path fill-rule="evenodd" clip-rule="evenodd" d="M249.564 56.0065L242.767 55.9285C242.487 61.2713 240.34 62.5825 237.737 63.7374C237.062 79.0065 242.359 77.7582 251.881 64.8299C250.419 62.1611 249.893 58.9162 249.564 56.0065Z" fill="#F9C5C5"/>
<path fill-rule="evenodd" clip-rule="evenodd" d="M240.609 61.9698C243.303 61.2869 244.777 55.9516 244.777 55.9516L242.763 55.9285C242.98 59.1831 240.973 62.0684 240.609 61.9698Z" fill="#12323E"/>
<path fill-rule="evenodd" clip-rule="evenodd" d="M240.881 43.8875C244.156 43.8875 246.816 47.6278 246.816 52.2348C246.816 56.8418 242.706 61.2677 239.431 61.2677C236.156 61.2677 235.351 56.8217 234.946 52.2348C234.275 44.6288 237.606 43.8875 240.881 43.8875Z" fill="#F9C5C5"/>
<path fill-rule="evenodd" clip-rule="evenodd" d="M249.253 37.8536C253.355 36.2895 258.18 39.7674 256.439 44.5354C258.989 47.2255 259.495 49.3723 257.645 50.8925C260.237 57.4579 257.644 58.9738 252.427 57.9337C251.316 62.8978 242.86 60.3244 242.011 54.8314C244.264 57.8916 245.189 51.4067 244.782 48.4023C244.449 45.9464 241.83 44.7077 240.255 51.1845C239.565 47.8658 238.295 48.7825 237.681 46.5053C236.525 46.4788 235.754 46.8609 235.258 47.5364C234.957 48.4075 234.832 49.5689 234.849 50.9666C233.091 49.7992 232.598 48.266 234.432 46.1626C230.848 43.3851 233.265 40.6068 236.601 41.027C235.23 37.0992 237.233 36.0428 242.163 37.4771C244.423 34.284 246.774 34.0255 249.253 37.8536Z" fill="#12323E"/>
<path fill-rule="evenodd" clip-rule="evenodd" d="M242.674 49.6653C242.674 49.6653 242.933 50.8172 242.773 51.5387C242.732 51.7221 242.673 51.8784 242.543 51.9441C242.41 52.0117 242.227 51.9679 241.963 51.8229C241.862 51.7673 241.734 51.8013 241.676 51.899C241.619 51.9965 241.654 52.1207 241.755 52.1763C242.196 52.419 242.516 52.4173 242.739 52.3044C242.965 52.1897 243.113 51.9435 243.184 51.6239C243.359 50.837 243.086 49.5804 243.086 49.5804C243.061 49.4705 242.949 49.4005 242.836 49.4239C242.722 49.4474 242.649 49.5554 242.674 49.6653ZM244.094 48.4368C244.094 48.4368 243.989 48.1982 243.808 48.0224C243.68 47.8972 243.515 47.8069 243.331 47.8071C243.158 47.8073 242.951 47.8847 242.738 48.1405C242.416 48.5284 242.034 49.4049 241.653 51.1943C241.629 51.3043 241.703 51.4118 241.817 51.4344C241.931 51.457 242.042 51.3862 242.065 51.2762C242.375 49.8227 242.673 49.001 242.946 48.5647C243.09 48.3343 243.203 48.2254 243.318 48.2145C243.399 48.2069 243.462 48.2615 243.516 48.3156C243.637 48.4366 243.706 48.5956 243.706 48.5956C243.752 48.699 243.875 48.7473 243.982 48.7034C244.089 48.6596 244.139 48.5402 244.094 48.4368Z" fill="#12323E"/>
<path fill-rule="evenodd" clip-rule="evenodd" d="M272.264 96.8838C274.082 95.3636 272.72 68.8171 273.335 69.1128C282.609 73.5735 283.224 81.3614 283.224 97.9363C283.224 107.264 284.413 122.858 279.434 129.496C273.65 137.205 257.071 141.198 246.259 141.78C245.334 141.83 243.667 120.032 246.654 110.247C247.851 106.327 262.742 104.85 272.264 96.8838Z" fill="#FDC82F"/>
<path d="M234.01 116.516H136.445V122.05H234.01V116.516Z" fill="#12323E"/>
<path fill-rule="evenodd" clip-rule="evenodd" d="M117.799 177.157C118.784 177.157 119.665 176.488 120.008 175.48C123.202 166.097 138.71 120.533 138.71 120.533H129.309C129.309 120.533 117.755 154.479 112.539 169.804C111.97 171.478 112.187 173.35 113.12 174.817C114.054 176.283 115.585 177.157 117.221 177.157H117.799ZM233.091 177.157C232.106 177.157 231.262 176.488 230.976 175.48C228.31 166.097 215.364 120.533 215.364 120.533H224.765C224.765 120.533 234.41 154.479 238.764 169.804C239.239 171.478 238.917 173.35 237.901 174.817C236.885 176.283 235.304 177.157 233.669 177.157C233.467 177.157 233.273 177.157 233.091 177.157ZM210.53 173.574C211.359 173.574 211.869 172.948 211.809 172.003C211.25 163.214 208.537 120.533 208.537 120.533H200.627C200.627 120.533 202.648 152.331 203.561 166.687C203.66 168.255 204.491 170.009 205.783 171.382C207.076 172.755 208.667 173.574 210.043 173.574C210.213 173.574 210.376 173.574 210.53 173.574ZM136.503 179.162C137.488 179.162 138.333 178.47 138.622 177.426C141.309 167.711 154.356 120.532 154.356 120.532H144.955C144.955 120.532 135.235 155.682 130.847 171.549C130.367 173.282 130.685 175.221 131.698 176.739C132.711 178.257 134.29 179.162 135.925 179.162H136.503Z" fill="#12323E"/>
<path d="M136.447 116.516H124.805V122.05H136.447V116.516Z" fill="#12323E"/>
</svg>
