<svg width="295" height="120" viewBox="0 0 295 120" fill="none" xmlns="http://www.w3.org/2000/svg">
<path d="M130.984 113.677L130.993 113.677L131.002 113.676C163.046 112.905 198.67 110.128 233.697 101.785L233.699 101.785C244.648 99.16 255.357 96.0567 265.465 90.9184L265.472 90.9149C269.963 88.5888 274.483 85.9384 278.548 82.8071L278.558 82.7993C281.601 80.3936 284.142 77.2058 286.039 73.882C288.363 69.8676 289.24 65.7467 288.6 61.8419C287.96 57.9333 285.816 54.3405 282.278 51.3602C278.203 47.9085 273.669 45.0923 268.839 42.7516C255.204 35.9262 240.66 31.4373 226.007 27.8852L226.005 27.8848C213.77 24.9384 201.243 23.7012 188.765 22.9295C188.357 22.8893 187.955 22.8695 187.58 22.8528C187.53 22.8506 187.48 22.8484 187.431 22.8463C187.1 22.8318 186.793 22.8184 186.494 22.7948C185.804 22.7402 185.266 22.6371 184.824 22.4159L184.798 22.4028L184.771 22.3912C184.409 22.2359 183.95 21.8844 183.58 21.4488C183.226 21.033 183.098 20.7155 183.073 20.5809C183.137 20.2473 183.348 19.8405 183.712 19.4151C184.097 18.9659 184.584 18.5763 185.027 18.3231C185.334 18.1472 185.773 18.0699 186.396 18.0699C186.699 18.0699 187.013 18.0873 187.351 18.1068L187.385 18.1087C187.702 18.127 188.047 18.1469 188.377 18.147L188.385 18.1469C208.559 17.9939 227.987 21.9722 246.831 28.5682C256.024 31.79 265.071 35.628 273.976 39.7786C278.477 41.8818 282.85 45.049 286.479 48.5305L286.485 48.5363C294.159 55.7769 295.787 65.3258 291.341 74.9707L291.337 74.9784L291.334 74.9861C289.109 80.0369 285.536 84.0777 281.308 87.5564C273.588 93.7694 264.785 97.7292 255.602 100.947L255.601 100.948C237.683 107.235 219.135 110.921 200.243 113.535L200.238 113.536C177.816 116.765 155.39 118.457 132.653 118.919C105.61 119.38 78.6207 117.994 52.2679 111.704L52.2619 111.703C41.7225 109.256 31.6668 105.591 22.3861 100.107C16.2855 96.4421 10.8726 92.3636 6.67589 86.6608L6.67556 86.6604C3.30419 82.0845 1.46368 77.4429 1.07727 72.7079C0.690766 67.9718 1.75304 63.0691 4.30298 57.9628C7.15318 52.2551 11.2146 47.5748 15.9279 43.3122C28.4238 32.021 43.0756 24.371 58.7101 18.232C79.071 10.2612 100.371 5.96139 122.019 3.348L122.02 3.34789C149.783 -0.0308582 177.557 0.428409 205.348 3.50323L205.35 3.50339C229.307 6.11746 252.915 10.5726 275.583 19.1607L275.591 19.1637C278.455 20.2199 281.175 21.5809 283.953 22.9717L283.967 22.9787L283.982 22.9853C284.902 23.4107 285.506 23.8827 285.819 24.3923C286.1 24.8493 286.22 25.4548 285.919 26.37C285.727 26.8897 285.343 27.2305 284.784 27.3645C284.19 27.5068 283.318 27.4276 282.233 26.8843L282.215 26.8754L282.197 26.8673C267.787 20.3514 252.464 17.0968 237.264 13.8684L237.212 13.8575L237.208 13.8565C219.297 10.1461 201.09 8.13883 182.905 6.90439L182.899 6.90402C150.494 4.89544 118.387 7.36665 86.8914 15.0951C69.8835 18.9662 53.4795 25.0078 38.1504 33.8446C30.2475 38.3444 22.7754 43.6389 16.3799 50.355L16.3798 50.355L16.3741 50.3611C14.0233 52.8718 11.83 55.6954 9.94898 58.6774L9.94486 58.6839L9.94084 58.6905C7.0799 63.3852 5.84883 68.1481 6.33795 72.7599C6.82716 77.3724 9.02648 81.7324 12.8465 85.6382C16.6194 89.5724 21.1572 92.8569 25.8015 95.8021L25.8089 95.8067C36.1163 102.218 47.6416 105.482 59.3797 107.802C81.6273 112.288 104.321 113.831 130.984 113.677Z" fill="white" stroke="#ECF3FA" stroke-width="2"/>
</svg>
