<svg width="483" height="320" viewBox="0 0 483 320" fill="none" xmlns="http://www.w3.org/2000/svg">
<path d="M309.782 28.5903H144.982V180.558H309.782V28.5903Z" fill="#EC5239"/>
<path fill-rule="evenodd" clip-rule="evenodd" d="M238.314 63.4394L260.14 53.9336C252.52 29.7697 270.982 21.9423 281.066 45.1784L299.966 35.6725L309.78 62.4388C284.417 73.5772 297.292 97.1627 317.516 81.7005L325.617 102.463L304.335 113.476C314.669 136.08 293.098 147.543 283.425 124.251L266.215 132.732L258.79 114.885C283.635 103.241 278.726 74.4064 250.885 92.4571L238.314 63.4394Z" fill="#FDC82F"/>
<path fill-rule="evenodd" clip-rule="evenodd" d="M171.398 80.8096H192.844C188.409 104.511 216.147 102.188 210.774 80.4187L235.033 81.2004L235.384 106.005C261.052 106.386 252.716 133.475 234.681 131.231L234.33 152.213H210.17C217.764 127.688 187.453 127.624 193.547 152.213H171.047L171.398 80.8096Z" fill="#59C676"/>
<path fill-rule="evenodd" clip-rule="evenodd" d="M347.751 30.6706L344.772 40.4278C344.722 40.5931 344.792 40.7716 344.943 40.8573C344.943 40.8573 346.164 41.5565 347.734 41.7307C347.937 41.7533 348.121 41.6068 348.143 41.4035C348.166 41.2002 348.019 41.0173 347.816 40.9947C346.819 40.884 345.978 40.539 345.572 40.3468L348.46 30.8867C348.52 30.691 348.41 30.4842 348.214 30.4244C348.018 30.3648 347.811 30.4749 347.751 30.6706Z" fill="#12323E"/>
<path d="M68.179 275.786L98.4633 308.485C99.1634 309.239 100.115 309.655 101.109 309.643C102.104 309.631 103.059 309.191 103.766 308.419L105.86 306.133L70.2989 267.75L68.205 270.036C67.4982 270.807 67.0986 271.846 67.0938 272.925C67.0888 274.003 67.4789 275.032 68.179 275.786Z" fill="#12323E"/>
<path d="M82.4206 258.672C82.4206 258.672 92.23 266.433 94.7246 271.289C97.2185 276.145 107.142 300.586 107.14 303.252C107.139 305.167 105.383 306.683 104.17 307.337C103.903 307.479 103.604 307.527 103.313 307.474C103.022 307.42 102.754 307.269 102.546 307.04L70.4562 272.024C69.9207 271.44 69.6164 270.647 69.6095 269.815C69.6025 268.982 69.893 268.177 70.4186 267.573C72.5224 265.155 75.7548 261.5 77.1895 260.193C79.408 258.172 81.0894 257.514 82.4206 258.672Z" fill="#015DFF"/>
<path d="M1.0851 285.774L30.9598 318.842C31.6599 319.596 32.6114 320.012 33.6058 319.999C34.6001 319.987 35.5558 319.547 36.2624 318.775L38.3569 316.49L3.20518 277.738L1.11123 280.024C0.404419 280.795 0.00468057 281.834 4.75472e-05 282.913C-0.00495612 283.991 0.385144 285.02 1.0851 285.774Z" fill="#12323E"/>
<path fill-rule="evenodd" clip-rule="evenodd" d="M86.5131 53.0899C83.1552 59.2127 84.7416 63.7633 85.6383 69.5962C88.2932 86.8669 71.563 95.5104 55.8105 84.5992C61.8064 81.1047 70.7428 77.9646 64.1539 56.0687C60.5446 44.0743 77.0485 30.7431 83.5296 41.5297L86.5131 53.0899Z" fill="#12323E"/>
<path fill-rule="evenodd" clip-rule="evenodd" d="M88.5898 80.3699L94.9992 60.4204L106.576 68.0071L106.34 81.928L88.5898 80.3699Z" fill="#F9C5C5"/>
<path fill-rule="evenodd" clip-rule="evenodd" d="M106.417 77.3353C93.6863 72.8893 95.0805 65.9775 94.9984 60.4209L106.575 68.0076L106.417 77.3353Z" fill="#12323E"/>
<path fill-rule="evenodd" clip-rule="evenodd" d="M92.9416 66.7348C97.2612 71.9572 110.296 77.31 115.701 74.0092C122.943 69.5859 122.888 48.4599 120.738 42.2945C114.396 24.1101 92.843 25.6697 89.5139 41.5085C88.1535 47.9811 88.6221 61.5124 92.9416 66.7348Z" fill="#F9C5C5"/>
<path fill-rule="evenodd" clip-rule="evenodd" d="M121.908 46.2589C119.797 42.0965 106.947 41.1259 106.672 42.4059C105.566 47.5674 102.787 46.7018 102.237 51.555C97.6774 28.1578 90.221 57.8187 100.236 60.1311C98.2328 65.4137 95.7389 68.5873 92.8251 69.9562C86.5335 64.4209 81.2159 43.1516 86.0752 32.966C93.496 17.4116 128.85 20.4976 121.908 46.2589Z" fill="#12323E"/>
<path d="M118.326 54.9476C119.249 54.9476 119.998 53.464 119.998 51.6338C119.998 49.8037 119.249 48.3201 118.326 48.3201C117.403 48.3201 116.654 49.8037 116.654 51.6338C116.654 53.464 117.403 54.9476 118.326 54.9476Z" fill="#12323E"/>
<path fill-rule="evenodd" clip-rule="evenodd" d="M66.0502 164.715C66.0502 164.715 55.8147 211.197 52.0095 223.89C46.7605 241.399 59.1292 256.575 70.7827 244.561C76.9515 238.202 108.867 179.616 105.254 162.774L66.0502 164.715Z" fill="#FDC82F"/>
<path fill-rule="evenodd" clip-rule="evenodd" d="M51.001 230.454C58.5167 223.885 72.1583 241.817 66.8933 248.714C60.7249 256.795 28.5597 285.916 28.5597 285.916C24.399 279.574 19.2119 273.416 12.0859 267.605C12.0859 267.605 43.1357 237.328 51.001 230.454Z" fill="#FDC82F"/>
<path fill-rule="evenodd" clip-rule="evenodd" d="M51.2436 230.733C52.7985 229.374 54.6341 229.14 56.4962 229.658C56.6934 229.713 56.8978 229.598 56.9526 229.401C57.0077 229.204 56.8924 229 56.6952 228.945C54.5885 228.358 52.5148 228.638 50.7555 230.176C50.6015 230.311 50.5857 230.544 50.7207 230.698C50.8554 230.852 51.0894 230.868 51.2436 230.733Z" fill="#12323E"/>
<path fill-rule="evenodd" clip-rule="evenodd" d="M171.13 81.0627C173.322 81.8169 178.241 86.2127 177.614 89.1249C177.405 90.0973 175.555 91.0631 175.555 91.0631C175.435 94.0016 174.449 95.3649 172.981 95.85C172.659 98.2623 171.833 98.6968 169.795 99.3375C167.387 99.7608 165.698 99.7554 164.148 97.3168C163.945 96.1557 164.282 95.5684 165.065 95.4565C165.574 95.4336 165.301 94.8353 164.613 95.0194C164.058 95.1679 163.911 96.0702 163.057 97.0724C161.12 99.3451 158.246 103.027 156.263 106.009L143.805 92.7647C149.434 86.6991 155.142 82.0322 160.457 78.8925C168.735 74.0026 171.747 74.7458 180.632 75.8214C183.556 76.1753 185.736 77.1751 183.02 80.8255L171.13 81.0627Z" fill="#F9C5C5"/>
<path fill-rule="evenodd" clip-rule="evenodd" d="M173.159 95.6644C171.377 93.4377 169.235 91.5096 166.389 90.9384L166.316 91.3015C169.075 91.8551 171.142 93.7373 172.87 95.8956L173.159 95.6644ZM175.743 90.8158C173.961 88.5891 171.819 86.6611 168.973 86.0898L168.9 86.453C171.659 87.0066 173.726 88.8887 175.454 91.0471L175.743 90.8158Z" fill="#12323E"/>
<path fill-rule="evenodd" clip-rule="evenodd" d="M156.518 138.919C157.97 136.807 161.204 128.998 164.032 129.704C167.747 130.633 171.046 129.976 171.046 129.976V152.212H182.918C182.918 152.212 175.923 159.705 171.745 159.726C167.242 159.749 161.43 156.76 156.263 154.43C153.292 149.745 152.439 144.723 156.518 138.919Z" fill="#F9C5C5"/>
<path fill-rule="evenodd" clip-rule="evenodd" d="M157.871 136.641C155.507 144.619 155.74 150.614 157.871 156.028L100.297 150.781L110.078 114.543L157.871 136.641Z" fill="#015DFF"/>
<path fill-rule="evenodd" clip-rule="evenodd" d="M67.5127 168.314C76.533 145.008 104.467 153.942 118.574 170.186C128.057 183.605 137.591 194.831 141.723 205.675C150.036 227.488 129.288 247.066 111.56 221.964C103.305 210.274 61.3237 176.957 67.5127 168.314Z" fill="#FDC82F"/>
<path fill-rule="evenodd" clip-rule="evenodd" d="M63.2533 169.181C84.0345 169.159 101.878 164.475 120.887 171.005C131.915 64.3917 82.6944 55.4082 70.2918 111.397C67.593 123.58 62.4333 152.886 63.2533 169.181Z" fill="#015DFF"/>
<path fill-rule="evenodd" clip-rule="evenodd" d="M122.553 154.168C122.758 149.926 122.856 145.87 122.855 142C122.855 141.795 122.689 141.629 122.485 141.629C122.28 141.63 122.114 141.795 122.114 142C122.115 145.859 122.018 149.902 121.813 154.132C121.803 154.337 121.961 154.51 122.165 154.52C122.369 154.53 122.543 154.373 122.553 154.168Z" fill="#12323E"/>
<path fill-rule="evenodd" clip-rule="evenodd" d="M108.702 92.1995C95.4526 73.3381 80.1679 80.119 84.6341 101.195C86.487 109.939 94.854 130.649 98.9214 138.672C107.674 155.938 128.896 145.991 124.094 126.811C121.917 118.112 113.928 99.6382 108.702 92.1995Z" fill="#015DFF"/>
<path fill-rule="evenodd" clip-rule="evenodd" d="M117.833 66.2179C117.833 66.2179 115.39 65.7966 114.172 64.27C114.007 64.063 113.716 64.0391 113.524 64.2165C113.331 64.3939 113.309 64.7057 113.474 64.9127C114.879 66.6735 117.682 67.1916 117.682 67.1916C117.933 67.2364 118.169 67.0548 118.211 66.7859C118.253 66.5169 118.084 66.2627 117.833 66.2179Z" fill="#12323E"/>
<path fill-rule="evenodd" clip-rule="evenodd" d="M72.8965 84.0377C72.9365 84.1873 73.0416 84.3139 73.1889 84.3684C75.168 85.0992 76.9989 85.3153 78.3053 84.3643C79.1045 83.7824 79.7335 82.7627 80.0649 81.1061C80.5213 78.824 80.4212 75.2538 79.4828 69.8653C76.9795 55.4914 82.6151 49.8682 82.6151 49.8682C82.8021 49.684 82.8149 49.3718 82.6434 49.1707C82.472 48.9698 82.1812 48.9561 81.9941 49.1401C81.9941 49.1401 75.9591 55.0011 78.5793 70.0469C79.4856 75.2495 79.6069 78.6953 79.1663 80.8987C78.8994 82.2328 78.4331 83.0784 77.7895 83.547C76.6909 84.3469 75.1522 84.0494 73.4876 83.4348C73.365 83.3895 73.2367 83.4032 73.1296 83.4619C73.2061 83.2508 73.279 83.0273 73.3475 82.7918C74.7944 77.8256 74.5188 67.2175 72.3609 57.9455C70.9814 52.0184 71.9845 47.9807 73.7128 45.2726C76.2841 41.2435 80.4194 40.1718 80.4194 40.1718C80.6662 40.1081 80.8182 39.8415 80.7589 39.5763C80.6996 39.3114 80.4515 39.1481 80.2046 39.2118C80.2046 39.2118 75.7324 40.3618 72.9547 44.7145C71.1168 47.5943 70.0021 51.882 71.4691 58.1851C73.5809 67.2583 73.8861 77.6373 72.4704 82.4968C72.2503 83.2524 71.991 83.8672 71.6832 84.3071C71.433 84.6648 71.1591 84.9004 70.8383 84.9535C70.5099 85.0079 70.153 84.87 69.7534 84.5635C69.2649 84.1893 68.7377 83.5752 68.1634 82.6999C68.017 82.477 67.7303 82.4237 67.5229 82.5809C67.3155 82.7379 67.2659 83.046 67.4121 83.2687C68.199 84.4678 68.9245 85.2209 69.5698 85.6064C70.0759 85.9087 70.5475 86.0007 70.9786 85.9293C71.4152 85.8569 71.8188 85.6154 72.1787 85.2062C72.4398 84.9094 72.6804 84.5169 72.8965 84.0377ZM105.885 41.225C105.885 41.225 104.061 40.8012 102.425 39.7633C101.393 39.1094 100.422 38.2149 100.111 36.9913C100.045 36.7282 99.7918 36.5731 99.5469 36.6449C99.3021 36.7166 99.1578 36.988 99.2245 37.2511C99.597 38.7181 100.721 39.8293 101.957 40.6136C103.723 41.7332 105.691 42.19 105.691 42.19C105.939 42.2476 106.183 42.0782 106.237 41.8118C106.291 41.5453 106.133 41.2826 105.885 41.225ZM95.6426 26.5293C95.6426 26.5293 95.1598 27.0278 95.1506 27.9021C95.145 28.4207 95.3038 29.0934 95.9067 29.8694C96.7775 30.9904 98.6639 32.4015 102.572 33.9164C107.294 35.7471 109.833 36.5092 111.351 37.1767C112.734 37.7847 113.187 38.3052 113.769 39.6256C113.878 39.872 114.152 39.9772 114.382 39.8604C114.611 39.7437 114.709 39.4493 114.6 39.2031C113.901 37.6187 113.359 36.9926 111.699 36.2629C110.175 35.5928 107.626 34.8261 102.884 32.9877C99.22 31.5675 97.4289 30.2879 96.6124 29.2369C96.2028 28.7096 96.0659 28.2657 96.0696 27.9136C96.0742 27.4816 96.2925 27.2274 96.2925 27.2274C96.4719 27.0346 96.4719 26.7221 96.2925 26.5293C96.1129 26.3366 95.822 26.3366 95.6426 26.5293Z" fill="#31525F"/>
<path fill-rule="evenodd" clip-rule="evenodd" d="M82.7637 41.3944L84.7748 39.4146C84.9104 44.3679 86.3152 49.3215 88.5885 54.275L85.5585 54.3424C83.5746 49.9134 82.8043 45.6148 82.7637 41.3944Z" fill="#015DFF"/>
<path fill-rule="evenodd" clip-rule="evenodd" d="M94.6264 203.807C84.663 194.154 73.5369 183.314 69.1489 175.737C68.2308 174.152 67.6103 172.715 67.3716 171.465C67.1485 170.297 67.2612 169.303 67.8153 168.53C67.9344 168.363 67.8961 168.132 67.7297 168.013C67.5631 167.894 67.3316 167.932 67.2124 168.099C66.5497 169.024 66.3766 170.207 66.6435 171.604C66.8948 172.921 67.5399 174.438 68.5073 176.108C72.9188 183.725 84.0933 194.634 94.1105 204.339C94.2573 204.481 94.4921 204.478 94.6346 204.331C94.7771 204.184 94.7734 203.95 94.6264 203.807Z" fill="#12323E"/>
<path fill-rule="evenodd" clip-rule="evenodd" d="M106.574 217.361C129.672 195.154 155.127 201.721 138.447 230.062C133.494 238.479 97.8304 278.488 97.8304 278.488C92.9355 269.642 87.101 262.142 79.4258 257.278C79.4258 257.278 98.6851 224.946 106.574 217.361Z" fill="#FDC82F"/>
<path fill-rule="evenodd" clip-rule="evenodd" d="M106.833 217.63C110.067 214.52 113.347 211.978 116.551 209.985C116.725 209.876 116.778 209.648 116.67 209.475C116.561 209.301 116.333 209.248 116.159 209.356C112.916 211.374 109.593 213.948 106.319 217.096C106.171 217.238 106.167 217.473 106.309 217.62C106.451 217.767 106.685 217.772 106.833 217.63Z" fill="#12323E"/>
<path fill-rule="evenodd" clip-rule="evenodd" d="M106.5 118.287C113.929 111.386 144.796 91.0623 144.796 91.0623L157.868 106.005C145.688 121.425 125.025 144.107 116.575 146.632C97.8579 152.224 93.9011 129.989 106.5 118.287Z" fill="#015DFF"/>
<path fill-rule="evenodd" clip-rule="evenodd" d="M116.683 146.988L116.729 146.974L116.751 146.967L116.759 146.965L116.765 146.963C116.787 146.956 116.808 146.949 116.83 146.942L116.836 146.941L116.845 146.937L116.87 146.93L116.904 146.918L116.913 146.915L116.916 146.914C116.937 146.907 116.958 146.9 116.979 146.893L116.991 146.889L117.002 146.885C117.022 146.878 117.041 146.872 117.061 146.865L117.069 146.862L117.09 146.854L117.108 146.848L117.126 146.842C117.168 146.827 117.21 146.811 117.253 146.795L117.256 146.794C118.774 146.223 120.624 145.106 122.706 143.563C122.711 143.559 122.716 143.555 122.721 143.55C123.233 143.172 123.758 142.767 124.296 142.338C128.765 138.778 134.12 133.574 139.516 127.842C139.657 127.694 139.649 127.459 139.5 127.319C139.351 127.179 139.117 127.186 138.976 127.335C133.608 133.038 128.281 138.217 123.834 141.759C123.302 142.183 122.783 142.583 122.278 142.958L122.264 142.968C120.32 144.409 118.59 145.473 117.155 146.039L117.149 146.042L117.082 146.068L117.062 146.076L117.002 146.098L116.974 146.109L116.919 146.129C116.894 146.138 116.868 146.147 116.843 146.157L116.769 146.182L116.765 146.184L116.692 146.208L116.624 146.231L116.614 146.234L116.549 146.254L116.537 146.258L116.471 146.278C115.87 146.458 115.285 146.608 114.718 146.73C114.709 146.732 114.7 146.734 114.691 146.737C113.156 147.187 111.542 147.324 109.932 147.11C109.925 147.109 109.918 147.108 109.912 147.108C106.023 146.806 103.212 144.874 101.515 142.057C101.506 142.043 101.497 142.03 101.487 142.017C100.679 141.007 99.9282 139.839 99.2525 138.506C95.1948 130.502 86.8457 109.843 84.9971 101.12C83.6785 94.8975 84.0935 89.9407 85.6946 86.5521C86.7349 84.3507 88.2762 82.8223 90.1633 82.0657C92.0545 81.3075 94.2863 81.3264 96.6914 82.191C100.391 83.521 104.481 86.8352 108.399 92.4135C111.036 96.1662 114.376 102.74 117.314 109.437C114.426 111.516 111.776 113.484 109.655 115.157C109.495 115.283 109.467 115.516 109.594 115.677C109.721 115.837 109.954 115.865 110.115 115.738C112.286 114.025 115.014 112.003 117.985 109.867L117.988 109.865L117.994 109.861C118.538 109.469 119.091 109.074 119.65 108.676C119.817 108.557 119.856 108.326 119.737 108.16C119.618 107.993 119.387 107.954 119.22 108.073C118.786 108.382 118.355 108.69 117.93 108.995C114.984 102.295 111.643 95.7421 109.006 91.988C104.975 86.2494 100.748 82.8624 96.9423 81.4941C94.3432 80.5598 91.9311 80.5589 89.8872 81.3784C87.8388 82.1996 86.1535 83.8464 85.0243 86.236C83.3713 89.734 82.9108 94.8498 84.2719 101.273C86.1294 110.038 94.5141 130.798 98.5911 138.841C99.2874 140.214 100.061 141.418 100.893 142.461C102.707 145.459 105.702 147.521 109.846 147.845C111.551 148.071 113.262 147.926 114.889 147.451C115.469 147.326 116.068 147.172 116.683 146.988Z" fill="#12323E"/>
<path d="M14.9186 269.028C14.9186 269.028 23.3859 276.134 25.8804 280.989C28.3744 285.845 39.6401 310.942 39.6382 313.607C39.6369 315.523 37.881 317.039 36.6677 317.693C36.4012 317.835 36.1017 317.883 35.8106 317.829C35.5196 317.776 35.2517 317.624 35.0439 317.396L2.95447 282.38C2.4187 281.796 2.11459 281.002 2.10755 280.17C2.1005 279.338 2.39109 278.533 2.91684 277.929C5.02042 275.511 8.25279 271.856 9.68774 270.549C11.906 268.528 13.5876 267.87 14.9186 269.028Z" fill="#015DFF"/>
<path fill-rule="evenodd" clip-rule="evenodd" d="M361.687 58.1792L361.133 51.6823L370.485 45.7969L374.791 52.5746C369.713 53.4619 365.46 55.489 361.687 58.1792Z" fill="#F9C5C5"/>
<path fill-rule="evenodd" clip-rule="evenodd" d="M366.543 48.2778C366.543 48.2778 365.783 52.8794 361.473 55.6695L361.133 51.6822L366.543 48.2778Z" fill="#12323E"/>
<path fill-rule="evenodd" clip-rule="evenodd" d="M373.907 22.7157C371.485 7.5381 349.538 9.66038 345.218 28.6358C343.941 34.2416 345.382 57.1208 352.539 55.6693C356.475 54.8711 367.216 50.6809 370.653 47.2779C372.27 45.6768 373.257 42.1812 373.797 38.2329C374.572 32.5758 374.429 25.9893 373.907 22.7157Z" fill="#F9C5C5"/>
<path fill-rule="evenodd" clip-rule="evenodd" d="M351.608 38.4277C350.019 38.3331 346.92 39.9462 345.91 39.0839C344.717 38.0653 347.15 32.0175 347.105 30.3335C347.1 30.1291 346.769 30.1067 346.595 30.2148C346.421 30.3229 346.513 30.5238 346.476 30.7249C346.199 32.2125 344.159 38.5582 345.397 39.6206C346.468 40.54 351.39 39.179 351.573 39.0872C352.203 38.7711 351.812 38.4397 351.608 38.4277Z" fill="#12323E"/>
<path fill-rule="evenodd" clip-rule="evenodd" d="M345.604 44.1633C343.206 45.371 342.517 45.555 342.427 42.6875C337.852 40.6163 336.131 36.2478 339.246 27.9864C336.26 23.4321 336.364 18.9818 342.129 14.7222C339.491 1.15457 354.94 -4.53961 360.423 4.11099C370.011 -0.980129 375.392 2.93819 377.822 13.1747C390.02 10.5662 394.39 35.736 382.494 38.1014C383.047 46.5278 374.201 47.6436 371.79 47.4523C369.768 47.2918 370.654 42.0242 370.654 42.0242L367.979 42.9085C375.164 38.9182 372.93 19.7684 363.008 35.9449C364.437 29.202 360.304 30.0958 362.709 22.2386C348.761 19.9069 344.094 23.1699 345.604 44.1633Z" fill="#12323E"/>
<path fill-rule="evenodd" clip-rule="evenodd" d="M346.531 46.8512C346.531 46.8512 357.383 37.2082 358.406 38.102C359.43 38.9957 354.654 50.7553 352.675 52.2136C350.696 53.6717 347.406 50.407 346.531 46.8512Z" fill="white"/>
<path d="M352.673 32.5443C353.243 32.5443 353.704 31.2103 353.704 29.5648C353.704 27.9192 353.243 26.5852 352.673 26.5852C352.104 26.5852 351.643 27.9192 351.643 29.5648C351.643 31.2103 352.104 32.5443 352.673 32.5443Z" fill="#12323E"/>
<path fill-rule="evenodd" clip-rule="evenodd" d="M457.984 240.984L447.887 256.93C462.174 271.518 456.425 284.072 451.384 296.286C452.217 302.588 455.622 302.419 459.111 302.04L482.365 261.541C482.084 260.469 481.495 259.989 480.866 259.415C476.513 255.443 458.262 241.024 457.984 240.984Z" fill="#59C676"/>
<path fill-rule="evenodd" clip-rule="evenodd" d="M456.549 302.194L480.842 259.454C481.54 259.786 482.127 260.357 482.461 261.478L459.11 302.035C458.257 302.141 457.403 302.193 456.549 302.194Z" fill="#12323E"/>
<path d="M456.564 280.566L460.689 278.352C460.845 278.267 461.008 278.23 461.161 278.242C461.314 278.254 461.453 278.316 461.567 278.421C461.681 278.527 461.765 278.674 461.812 278.849C461.86 279.023 461.869 279.221 461.839 279.423C461.802 279.672 461.708 279.918 461.57 280.129C461.431 280.341 461.254 280.508 461.061 280.609L456.023 283.341L456.564 280.566ZM456.797 274.014L460.862 271.277C461.01 271.177 461.168 271.123 461.32 271.12C461.473 271.117 461.617 271.165 461.738 271.26C461.86 271.354 461.955 271.493 462.017 271.663C462.078 271.833 462.104 272.03 462.091 272.235C462.075 272.488 462.002 272.743 461.882 272.968C461.763 273.193 461.6 273.378 461.417 273.498L456.921 276.525L456.797 274.014ZM455.561 268.667L459.625 265.929C459.773 265.829 459.931 265.776 460.084 265.773C460.237 265.77 460.38 265.818 460.501 265.913C460.623 266.007 460.719 266.146 460.78 266.316C460.842 266.486 460.867 266.683 460.854 266.888C460.838 267.14 460.765 267.396 460.645 267.621C460.526 267.846 460.364 268.031 460.181 268.151L456.258 270.833L455.561 268.667Z" fill="#12323E"/>
<path fill-rule="evenodd" clip-rule="evenodd" d="M389.272 218.812L375.482 230.853C385.395 249.391 376.643 259.578 368.657 269.665C367.826 275.968 371.131 276.895 374.571 277.646L407.313 246.286C407.321 245.17 406.882 244.522 406.428 243.772C403.244 238.509 389.171 218.418 389.272 218.812Z" fill="#59C676"/>
<path fill-rule="evenodd" clip-rule="evenodd" d="M372.127 276.909L406.396 243.8C406.978 244.341 407.392 245.076 407.423 246.256L374.744 277.487L372.127 276.909Z" fill="#12323E"/>
<path d="M377.652 256.349L382.175 255.546C382.347 255.515 382.512 255.531 382.655 255.592C382.799 255.652 382.917 255.756 382.998 255.894C383.08 256.031 383.123 256.198 383.123 256.381C383.123 256.564 383.081 256.756 383 256.94C382.9 257.166 382.747 257.372 382.559 257.53C382.372 257.688 382.159 257.792 381.948 257.827L376.416 258.834L377.652 256.349ZM379.569 250.148L384.17 248.825C384.338 248.776 384.503 248.775 384.65 248.822C384.797 248.867 384.922 248.959 385.013 249.089C385.106 249.218 385.162 249.381 385.176 249.564C385.191 249.747 385.165 249.943 385.099 250.136C385.019 250.372 384.883 250.594 384.71 250.771C384.537 250.949 384.334 251.073 384.128 251.13L379.038 252.593L379.569 250.148ZM379.767 244.631L384.368 243.308C384.536 243.26 384.7 243.259 384.848 243.305C384.995 243.351 385.12 243.443 385.211 243.572C385.303 243.701 385.359 243.865 385.374 244.047C385.389 244.23 385.363 244.427 385.297 244.619C385.217 244.856 385.081 245.077 384.908 245.255C384.735 245.432 384.532 245.557 384.326 245.613L379.875 246.929L379.767 244.631Z" fill="#12323E"/>
<path fill-rule="evenodd" clip-rule="evenodd" d="M379.272 147.225L405.517 134.097C405.517 134.097 419.929 200.944 424.821 216.067C428.658 227.927 412.539 240.923 403.631 231.786C378.527 206.04 379.272 147.225 379.272 147.225Z" fill="#12323E"/>
<path fill-rule="evenodd" clip-rule="evenodd" d="M425.465 217.669C416.822 210.951 392.246 219.047 402.337 230.752C416.541 247.227 450.583 261.093 450.583 261.093L460.126 241.217C460.126 241.217 433.224 223.701 425.465 217.669ZM420.561 127.434C403.898 129.544 376.364 138.624 349.899 166.825C340.189 178.166 345.806 193.657 364.727 191.45C385.949 188.974 404.681 183.115 417.463 169.17C428.241 152.488 425.279 144.371 420.561 127.434Z" fill="#12323E"/>
<path fill-rule="evenodd" clip-rule="evenodd" d="M385.117 188.021C397.96 184.499 409.173 178.761 417.734 169.421C417.873 169.27 417.862 169.036 417.711 168.898C417.56 168.759 417.326 168.77 417.188 168.921C408.72 178.159 397.623 183.823 384.921 187.307C384.724 187.361 384.608 187.565 384.662 187.762C384.716 187.959 384.92 188.075 385.117 188.021Z" fill="white"/>
<path fill-rule="evenodd" clip-rule="evenodd" d="M372.96 61.6877C364.806 72.826 353.848 107.842 351.643 120.177C348.525 137.619 364.577 148.335 372.398 134.779C378.114 124.87 389.181 85.7258 391.523 73.4207C394.923 55.5622 383.169 47.7444 372.96 61.6877Z" fill="#59C676"/>
<path fill-rule="evenodd" clip-rule="evenodd" d="M332.078 109.472C334.689 113.741 334.689 118.011 332.078 122.28C324.132 121.423 314.393 118.916 309.892 117.413C304.428 115.588 304.745 100.192 310.814 102.253C312.75 102.91 317.583 104.406 318.648 108.319C322.598 107.683 326.191 105.279 332.078 109.472Z" fill="#F9C5C5"/>
<path fill-rule="evenodd" clip-rule="evenodd" d="M361.805 109.622C354.657 108.524 330.052 107.079 330.052 107.079C331.074 116.993 329.269 122.048 325.012 122.889C325.012 122.889 329.085 130.75 358.547 139.704C377.744 145.539 379.728 112.375 361.805 109.622Z" fill="#59C676"/>
<path fill-rule="evenodd" clip-rule="evenodd" d="M380.09 50.4125C395.801 48.0338 408.256 92.5231 421.571 127.435C404.898 130.551 389.043 136.538 373.729 146.618C373.729 146.618 349.257 71.7732 353.893 63.1975C356.239 58.8574 374.111 50.96 380.09 50.4125Z" fill="#59C676"/>
<path fill-rule="evenodd" clip-rule="evenodd" d="M374.048 146.026L357.942 91.5022C357.926 91.3241 357 90.7654 357.233 91.874L373.31 146.096C373.329 146.299 373.51 146.449 373.714 146.43C373.918 146.411 374.067 146.23 374.048 146.026Z" fill="#12323E"/>
<path fill-rule="evenodd" clip-rule="evenodd" d="M332.077 51.2062C327.922 44.0545 317.485 38.8328 310.933 38.6434C304.381 38.4538 294.735 47.9569 292.764 50.0694C289.207 53.882 294.45 56.3579 301.98 48.6735C304.356 54.2512 310.213 55.4534 313.645 54.5972C316.606 53.8586 319.981 61.6414 319.981 61.6414C325.682 62.0602 330.217 59.7554 332.077 51.2062Z" fill="#F9C5C5"/>
<path fill-rule="evenodd" clip-rule="evenodd" d="M372.953 51.9866C391.413 46.8459 394.855 68.4659 381.248 81.2354C375.409 86.7155 354.361 95.2539 348.127 94.8436C336.038 94.0481 335.847 75.8528 345.968 67.2268C352.032 62.0578 366.896 53.6732 372.953 51.9866Z" fill="#59C676"/>
<path fill-rule="evenodd" clip-rule="evenodd" d="M353.666 61.6878C370.303 69.0595 364.518 103.558 341.229 92.3347C333.417 88.5704 323.585 72.0171 317.252 59.9949C326.56 59.5377 330.684 53.8747 328.088 45.3059L353.666 61.6878Z" fill="#59C676"/>
<path fill-rule="evenodd" clip-rule="evenodd" d="M353.515 62.0264C356.308 63.2642 358.452 65.2868 359.973 67.73C360.082 67.9037 360.31 67.9568 360.484 67.8489C360.658 67.7407 360.711 67.5124 360.603 67.3388C359.004 64.7721 356.75 62.6496 353.815 61.3495C353.628 61.2665 353.409 61.3509 353.326 61.5378C353.243 61.7248 353.328 61.9436 353.515 62.0264ZM373.053 52.343C378.441 50.8428 382.516 51.6579 385.221 53.9081C387.739 56.0032 389.054 59.327 389.151 63.1097C389.298 68.8682 386.623 75.6835 380.995 80.9651C376.829 84.8749 364.869 90.3395 356.163 92.968C355.967 93.0271 355.856 93.2337 355.915 93.4296C355.974 93.6253 356.181 93.7361 356.377 93.677C365.19 91.0163 377.286 85.4626 381.503 81.5051C387.304 76.0605 390.044 69.0269 389.892 63.0909C389.79 59.0772 388.367 55.562 385.695 53.3391C382.84 50.9628 378.543 50.0455 372.854 51.6296C372.657 51.6846 372.542 51.8888 372.597 52.0858C372.651 52.2828 372.856 52.398 373.053 52.343ZM345.218 180.558C344.266 172.259 357.092 165.692 370.144 177.766C382.376 189.082 388.106 206.877 392.527 222.869C387.489 229.966 382.19 233.867 376.552 233.626C362.52 214.69 346.286 189.868 345.218 180.558Z" fill="#12323E"/>
<path fill-rule="evenodd" clip-rule="evenodd" d="M366.334 174.966C367.493 175.892 368.681 176.917 369.891 178.037C373.414 181.296 376.392 185.096 378.955 189.236C379.062 189.41 379.291 189.464 379.465 189.356C379.639 189.248 379.693 189.02 379.585 188.846C376.987 184.649 373.966 180.797 370.395 177.494C369.17 176.361 367.97 175.324 366.797 174.388C366.637 174.26 366.404 174.286 366.276 174.446C366.149 174.605 366.175 174.839 366.334 174.966Z" fill="white"/>
<path fill-rule="evenodd" clip-rule="evenodd" d="M361.75 109.986C363.333 110.229 363.534 109.511 361.863 109.254C360.176 108.995 357.521 108.717 354.447 108.442C354.243 108.424 354.063 108.575 354.044 108.778C354.026 108.982 354.177 109.162 354.381 109.18C357.436 109.453 360.074 109.729 361.75 109.986Z" fill="#12323E"/>
</svg>
