<svg width="68" height="94" viewBox="0 0 68 94" xmlns="http://www.w3.org/2000/svg">
<path d="M49.1468 72.8933C61.9816 78.4741 78.3906 69.189 83.9713 56.3542C89.5521 43.5194 83.6715 28.5907 70.8367 23.01C58.0019 17.4292 44.4422 17.0003 38.8615 29.8351C33.2808 42.6699 36.312 67.3126 49.1468 72.8933Z" fill="#FFBC47"/>
<mask id="mask0_1824_34273" style="mask-type:alpha" maskUnits="userSpaceOnUse" x="1" y="17" width="86" height="55">
<path d="M48.8397 69.6735C62.4501 75.5915 78.4451 68.9778 84.5657 54.9015C90.6862 40.8252 84.6145 24.6167 71.0041 18.6987C57.3937 12.7808 8.51933 44.8025 2.39879 58.8788C-3.72176 72.9551 35.2293 63.7555 48.8397 69.6735Z" fill="#FFCB3C"/>
</mask>
<g mask="url(#mask0_1824_34273)">
<path fill-rule="evenodd" clip-rule="evenodd" d="M38.9415 47.0436C38.8922 45.3784 39.3465 43.7603 40.4434 42.2843C44.189 37.2443 49.3851 37.0703 54.6567 39.4086C62.0655 42.6968 69.6055 51.1263 72.8016 56.8406C73.1749 57.5083 73.01 58.3357 72.435 58.689C71.8593 59.0406 71.0892 58.786 70.7159 58.1182C67.7526 52.8199 60.7788 44.9814 53.9085 41.9332C49.6595 40.0468 45.4417 40.0625 42.422 44.1245C41.7691 45.0031 41.4722 45.9562 41.4481 46.9392C42.0631 46.933 42.6748 46.9396 43.2816 46.9598C45.7108 47.0429 51.9995 48.539 56.0335 51.2736C59.2253 53.438 61.0231 56.3522 59.6885 59.7621C58.925 61.7148 57.2689 62.5918 55.1012 62.5125C52.4282 62.4143 48.8819 60.7593 45.8067 58.2717C43.2491 56.2042 41.028 53.5743 39.8639 50.8922C39.7006 50.5165 39.5571 50.1393 39.4342 49.7625C27.7083 50.5446 15.0054 56.3219 7.34156 65.0288C6.88648 65.546 6.10142 65.5198 5.58767 64.9705C5.07509 64.4218 5.02945 63.5558 5.48453 63.0386C13.4778 53.9566 26.7015 47.9073 38.9415 47.0436ZM41.9966 49.671C42.4748 49.6699 42.9515 49.6768 43.4246 49.6936C45.6051 49.7679 51.2491 51.112 54.8705 53.5666C56.7867 54.8659 58.1918 56.4523 57.3914 58.4996C56.9988 59.5038 56.0774 59.8213 54.9633 59.7798C53.486 59.7259 51.6982 59.0555 49.9109 58.021C47.139 56.4143 44.3721 53.9153 42.7586 51.1966C42.4605 50.6945 42.2027 50.1839 41.9966 49.671Z" fill="#35312B"/>
<path fill-rule="evenodd" clip-rule="evenodd" d="M24.9097 64.8683C19.2932 63.1055 12.3646 63.8707 7.05973 65.7965C6.42878 66.0253 5.70146 65.6297 5.43537 64.912C5.17043 64.1948 5.46722 63.4255 6.09817 63.1968C11.8312 61.1165 19.3221 60.3432 25.3902 62.2488C26.0617 62.4599 26.4988 63.218 26.3659 63.9408C26.2329 64.6636 25.5812 65.0795 24.9097 64.8683Z" fill="#35312B"/>
<path fill-rule="evenodd" clip-rule="evenodd" d="M5.83842 63.2962C9.53122 60.3372 12.0925 54.2001 12.6271 49.0403C12.7054 48.2914 13.3294 47.8073 14.0193 47.959C14.7092 48.1108 15.2068 48.8407 15.1297 49.5903C14.5268 55.3906 11.5869 62.2547 7.43466 65.582C6.89835 66.0124 6.10372 65.8495 5.66374 65.2186C5.22376 64.5877 5.30211 63.7266 5.83842 63.2962Z" fill="#35312B"/>
</g>
</svg>
