<svg width="20" height="18" viewBox="0 0 20 18" xmlns="http://www.w3.org/2000/svg">
<path d="M18.2609 4.28571H15.5043L13.913 2.57143H8.69565V4.28571H13.1478L14.7391 6H18.2609V16.2857H4.34783V8.57143H2.6087V18C3.5 18 3.3913 18 4.34783 18H18.2609C19.2174 18 19 18 20 18V4.28571C19.2606 4.28571 19.2174 4.28571 18.2609 4.28571ZM6.95652 11.1429C6.95652 13.5086 8.90435 15.4286 11.3043 15.4286C13.7043 15.4286 15.6522 13.5086 15.6522 11.1429C15.6522 8.77714 13.7043 6.85714 11.3043 6.85714C8.90435 6.85714 6.95652 8.77714 6.95652 11.1429ZM11.3043 8.57143C12.7391 8.57143 13.913 9.72857 13.913 11.1429C13.913 12.5571 12.7391 13.7143 11.3043 13.7143C9.86956 13.7143 8.69565 12.5571 8.69565 11.1429C8.69565 9.72857 9.86956 8.57143 11.3043 8.57143ZM4.34783 4.28571H6.95652V2.57143H4.34783V0H2.6087V2.57143H0V4.28571H2.6087V6.85714H4.34783V4.28571Z"/>
</svg>
