<svg width="53" height="53" viewBox="0 0 53 53" fill="none" xmlns="http://www.w3.org/2000/svg">
<g clip-path="url(#clip0_2686_98344)">
<path d="M52.9992 6.625L52.9993 9.9375H47.4782V50.35C47.4782 51.0528 47.4782 50.7917 47.4782 50.7917C47.4782 50.7917 45.7521 50.7917 45.0493 50.7917H7.94928C7.24645 50.7917 6.62444 50.7917 6.62444 50.7917C6.62444 50.7917 6.62444 51.0528 6.62444 50.35V9.9375H1.32443L1.32422 6.625H52.9992ZM9.9365 9.9375V47.4792H44.1657V9.9375H9.9365ZM19.874 18.55H23.1865V39.75H19.874V18.55ZM30.9157 18.55H34.2282V39.75H30.9157V18.55Z" fill="#12323E"/>
<path d="M13.2493 0V3.3125H39.7492L39.7493 0H13.2493Z" fill="#12323E"/>
</g>
<defs>
<clipPath id="clip0_2686_98344">
<rect width="53" height="53" fill="white"/>
</clipPath>
</defs>
</svg>
