<svg width="19" height="5" viewBox="0 0 19 5" fill="none" xmlns="http://www.w3.org/2000/svg">
<path d="M1.932 4.12L1.372 3.714L2.17 2.398L0.812 1.838L1.022 1.194L2.45 1.544L2.576 0.0319998H3.262L3.388 1.53L4.83 1.194L5.04 1.838L3.682 2.398L4.466 3.714L3.92 4.12L2.926 2.916L1.932 4.12ZM8.48356 4.12L7.92356 3.714L8.72156 2.398L7.36356 1.838L7.57356 1.194L9.00156 1.544L9.12756 0.0319998H9.81356L9.93956 1.53L11.3816 1.194L11.5916 1.838L10.2336 2.398L11.0176 3.714L10.4716 4.12L9.47756 2.916L8.48356 4.12ZM15.0351 4.12L14.4751 3.714L15.2731 2.398L13.9151 1.838L14.1251 1.194L15.5531 1.544L15.6791 0.0319998H16.3651L16.4911 1.53L17.9331 1.194L18.1431 1.838L16.7851 2.398L17.5691 3.714L17.0231 4.12L16.0291 2.916L15.0351 4.12Z" fill="white"/>
</svg>
