<svg width="24" height="24" viewBox="0 0 24 24" fill="none" xmlns="http://www.w3.org/2000/svg">
<path d="M23.9996 3L23.9996 4.5H21.4995V22.8C21.4995 23.1183 21.4995 23 21.4995 23C21.4995 23 20.7179 23 20.3996 23H3.59964C3.28138 23 2.99971 23 2.99971 23C2.99971 23 2.99971 23.1183 2.99971 22.8V4.5H0.599707L0.599609 3H23.9996ZM4.49951 4.5V21.5H19.9995V4.5H4.49951ZM8.99951 8.4H10.4995V18H8.99951V8.4ZM13.9995 8.4H15.4995V18H13.9995V8.4Z" fill="white"/>
<path d="M5.99964 0V1.5H17.9996L17.9996 0H5.99964Z" fill="white"/>
</svg>
