<svg width="220" height="134" viewBox="0 0 220 134" fill="none" xmlns="http://www.w3.org/2000/svg">
<rect width="219.76" height="134" rx="4.87273" fill="white"/>
<rect x="0.5" y="0.5" width="218.76" height="133" rx="4.37273" stroke="#EC5239" stroke-opacity="0.32"/>
<g opacity="0.24">
<mask id="mask0_2686_96009" style="mask-type:alpha" maskUnits="userSpaceOnUse" x="0" y="0" width="220" height="134">
<rect x="0.261719" width="219" height="134" rx="12" fill="url(#paint0_linear_2686_96009)" fill-opacity="0.1"/>
</mask>
<g mask="url(#mask0_2686_96009)">
<ellipse cx="106.946" cy="139.786" rx="118.573" ry="115.423" fill="url(#paint1_linear_2686_96009)"/>
</g>
<mask id="mask1_2686_96009" style="mask-type:alpha" maskUnits="userSpaceOnUse" x="0" y="0" width="220" height="134">
<rect x="0.261719" width="219" height="134" rx="12" fill="url(#paint2_linear_2686_96009)"/>
</mask>
<g mask="url(#mask1_2686_96009)">
<ellipse cx="164.825" cy="-16.4454" rx="81.3429" ry="79.1818" fill="#FFEFED"/>
</g>
</g>
<rect x="24.418" y="17.0547" width="17.0924" height="3.65455" rx="1.82727" fill="#FBDCD7"/>
<rect x="46.3945" y="17.0547" width="26.8595" height="3.65455" rx="1.82727" fill="#FBDCD7"/>
<rect x="24.418" y="40.2002" width="26.8595" height="19.4909" rx="2.43636" fill="#FFF2F0"/>
<rect x="24.418" y="116.945" width="20.7551" height="6.09091" rx="3.04545" fill="#FBDCD7"/>
<rect x="50.0566" y="116.945" width="31.7431" height="6.09091" rx="3.04545" fill="#FBDCD7"/>
<rect x="24.418" y="75.5273" width="31.7431" height="6.09091" rx="3.04545" fill="#FBDCD7"/>
<rect x="67.1484" y="75.5273" width="31.7431" height="6.09091" rx="3.04545" fill="#FBDCD7"/>
<rect x="109.879" y="75.5273" width="31.7431" height="6.09091" rx="3.04545" fill="#FBDCD7"/>
<rect x="152.611" y="75.5273" width="31.7431" height="6.09091" rx="3.04545" fill="#FBDCD7"/>
<defs>
<linearGradient id="paint0_linear_2686_96009" x1="0.261719" y1="67" x2="219.262" y2="67" gradientUnits="userSpaceOnUse">
<stop stop-color="#832388"/>
<stop offset="0.508333" stop-color="#932883"/>
<stop offset="1" stop-color="#A32E7E"/>
</linearGradient>
<linearGradient id="paint1_linear_2686_96009" x1="35.9273" y1="48.4226" x2="309.942" y2="256.784" gradientUnits="userSpaceOnUse">
<stop stop-color="#FF2300"/>
<stop offset="0.342546" stop-color="#FF2300" stop-opacity="0"/>
</linearGradient>
<linearGradient id="paint2_linear_2686_96009" x1="0.261719" y1="67" x2="219.262" y2="67" gradientUnits="userSpaceOnUse">
<stop stop-color="#832388"/>
<stop offset="0.508333" stop-color="#932883"/>
<stop offset="1" stop-color="#A32E7E"/>
</linearGradient>
</defs>
</svg>
