<svg width="221" height="134" viewBox="0 0 221 134" fill="none" xmlns="http://www.w3.org/2000/svg">
<rect x="0.25" width="219.76" height="134" rx="4.87273" fill="white"/>
<rect x="0.75" y="0.5" width="218.76" height="133" rx="4.37273" stroke="#015DFF" stroke-opacity="0.32"/>
<g opacity="0.24">
<mask id="mask0_182_29264" style="mask-type:alpha" maskUnits="userSpaceOnUse" x="0" y="0" width="220" height="134">
<rect x="0.511719" width="219" height="134" rx="12" fill="url(#paint0_linear_182_29264)" fill-opacity="0.1"/>
</mask>
<g mask="url(#mask0_182_29264)">
<ellipse cx="107.198" cy="139.786" rx="118.573" ry="115.423" fill="url(#paint1_linear_182_29264)"/>
</g>
<mask id="mask1_182_29264" style="mask-type:alpha" maskUnits="userSpaceOnUse" x="0" y="0" width="220" height="134">
<rect x="0.511719" width="219" height="134" rx="12" fill="url(#paint2_linear_182_29264)"/>
</mask>
<g mask="url(#mask1_182_29264)">
<ellipse cx="165.077" cy="-16.4454" rx="81.3429" ry="79.1818" fill="#EDF8FF"/>
</g>
</g>
<rect x="24.668" y="17.0547" width="17.0924" height="3.65455" rx="1.82727" fill="#D7ECFB"/>
<rect x="46.6445" y="17.0547" width="26.8595" height="3.65455" rx="1.82727" fill="#D7ECFB"/>
<rect x="24.668" y="40.2002" width="26.8595" height="19.4909" rx="2.43636" fill="#F0FBFF"/>
<rect x="24.668" y="116.945" width="20.7551" height="6.09091" rx="3.04545" fill="#D7ECFB"/>
<rect x="50.3086" y="116.945" width="31.7431" height="6.09091" rx="3.04545" fill="#D7ECFB"/>
<rect x="24.668" y="75.5273" width="31.7431" height="6.09091" rx="3.04545" fill="#D7ECFB"/>
<rect x="67.3984" y="75.5273" width="31.7431" height="6.09091" rx="3.04545" fill="#D7ECFB"/>
<rect x="110.129" y="75.5273" width="31.7431" height="6.09091" rx="3.04545" fill="#D7ECFB"/>
<rect x="152.859" y="75.5273" width="31.7431" height="6.09091" rx="3.04545" fill="#D7ECFB"/>
<defs>
<linearGradient id="paint0_linear_182_29264" x1="0.511719" y1="67" x2="219.512" y2="67" gradientUnits="userSpaceOnUse">
<stop stop-color="#832388"/>
<stop offset="0.508333" stop-color="#932883"/>
<stop offset="1" stop-color="#A32E7E"/>
</linearGradient>
<linearGradient id="paint1_linear_182_29264" x1="36.1793" y1="48.4226" x2="310.194" y2="256.784" gradientUnits="userSpaceOnUse">
<stop stop-color="#0085FF"/>
<stop offset="0.453125" stop-color="#0085FF" stop-opacity="0"/>
</linearGradient>
<linearGradient id="paint2_linear_182_29264" x1="0.511719" y1="67" x2="219.512" y2="67" gradientUnits="userSpaceOnUse">
<stop stop-color="#832388"/>
<stop offset="0.508333" stop-color="#932883"/>
<stop offset="1" stop-color="#A32E7E"/>
</linearGradient>
</defs>
</svg>
