<svg width="41" height="9" viewBox="0 0 41 9" fill="none" xmlns="http://www.w3.org/2000/svg">
<path d="M2.588 8.08L1.548 7.326L3.03 4.882L0.508 3.842L0.898 2.646L3.55 3.296L3.784 0.488H5.058L5.292 3.27L7.97 2.646L8.36 3.842L5.838 4.882L7.294 7.326L6.28 8.08L4.434 5.844L2.588 8.08ZM13.4552 8.08L12.4152 7.326L13.8972 4.882L11.3752 3.842L11.7652 2.646L14.4172 3.296L14.6512 0.488H15.9252L16.1592 3.27L18.8372 2.646L19.2272 3.842L16.7052 4.882L18.1612 7.326L17.1472 8.08L15.3012 5.844L13.4552 8.08ZM24.3224 8.08L23.2824 7.326L24.7644 4.882L22.2424 3.842L22.6324 2.646L25.2844 3.296L25.5184 0.488H26.7924L27.0264 3.27L29.7044 2.646L30.0944 3.842L27.5724 4.882L29.0284 7.326L28.0144 8.08L26.1684 5.844L24.3224 8.08ZM35.1896 8.08L34.1496 7.326L35.6316 4.882L33.1096 3.842L33.4996 2.646L36.1516 3.296L36.3856 0.488H37.6596L37.8936 3.27L40.5716 2.646L40.9616 3.842L38.4396 4.882L39.8956 7.326L38.8816 8.08L37.0356 5.844L35.1896 8.08Z" fill="white"/>
</svg>
