<svg width="41" height="25" viewBox="0 0 41 25" fill="none" xmlns="http://www.w3.org/2000/svg">
<path d="M25.8956 22.1725H15.1084V2.94653H25.8956V22.1725Z" fill="#FF5F00"/>
<path d="M15.7988 12.5596C15.7988 8.65948 17.6401 5.1854 20.5075 2.94657C18.4107 1.30942 15.7643 0.332262 12.8883 0.332262C6.07972 0.332262 0.560547 5.80652 0.560547 12.5596C0.560547 19.3126 6.07972 24.7869 12.8883 24.7869C15.7643 24.7869 18.4107 23.8097 20.5075 22.1726C17.6401 19.9337 15.7988 16.4596 15.7988 12.5596Z" fill="#EB001B"/>
<path d="M40.4428 12.5596C40.4428 19.3126 34.9237 24.7869 28.115 24.7869C25.2391 24.7869 22.5927 23.8097 20.4951 22.1726C23.3633 19.9337 25.2046 16.4596 25.2046 12.5596C25.2046 8.65948 23.3633 5.1854 20.4951 2.94657C22.5927 1.30942 25.2391 0.332262 28.115 0.332262C34.9237 0.332262 40.4428 5.80652 40.4428 12.5596Z" fill="#F79E1B"/>
</svg>
