<svg width="24" height="24" viewBox="0 0 24 24" fill="none" xmlns="http://www.w3.org/2000/svg">
<path d="M10.9535 0H13.0465C13.2326 0 13.3256 0.0888889 13.3256 0.266667V23.7333C13.3256 23.9111 13.2326 24 13.0465 24H10.9535C10.7674 24 10.6744 23.9111 10.6744 23.7333V0.266667C10.6744 0.0888889 10.7674 0 10.9535 0Z" fill="#12323E"/>
<path d="M0.27907 10.7333H23.7209C23.907 10.7333 24 10.8222 24 11V13C24 13.1778 23.907 13.2667 23.7209 13.2667H0.27907C0.0930233 13.2667 0 13.1778 0 13V11C0 10.8222 0.0930233 10.7333 0.27907 10.7333Z" fill="#12323E"/>
</svg>
