<svg width="220" height="134" viewBox="0 0 220 134" fill="none" xmlns="http://www.w3.org/2000/svg">
<rect width="219.76" height="134" rx="4.87273" fill="white"/>
<rect x="0.5" y="0.5" width="218.76" height="133" rx="4.37273" stroke="#EC5239" stroke-opacity="0.32"/>
<rect x="9.19141" y="58.0156" width="123.622" height="18.965" rx="2" fill="#FFF2F0"/>
<rect x="1.21484" y="10.1045" width="217.335" height="32.9393" fill="#FFF2F0"/>
<rect x="9.19141" y="50.0303" width="37.884" height="4.9908" rx="2.4954" fill="#FBDCD7"/>
<rect x="10.1445" y="87.9609" width="78.7589" height="4.9908" rx="2.4954" fill="#FBDCD7"/>
<rect x="10.1445" y="96.9443" width="62.8077" height="3.99264" rx="1.99632" fill="#FBDCD7"/>
<rect x="10.1445" y="105.928" width="51.8413" height="4.9908" rx="2.4954" fill="#FBDCD7"/>
<rect x="159.73" y="58.0156" width="51.8413" height="4.9908" rx="2.4954" fill="#FBDCD7"/>
<rect x="178.672" y="67.9971" width="34.8932" height="4.9908" rx="2.4954" fill="#FBDCD7"/>
<rect x="112.873" y="61.0098" width="2.5" height="12.9761" rx="1.25" fill="#FBDCD7"/>
<rect x="117.877" y="61.0098" width="2.5" height="12.9761" rx="1.25" fill="#FBDCD7"/>
<rect x="122.881" y="61.0098" width="2.5" height="12.9761" rx="1.25" fill="#FBDCD7"/>
</svg>
