<svg width="21" height="14" viewBox="0 0 21 14" fill="none" xmlns="http://www.w3.org/2000/svg">
<path fill-rule="evenodd" clip-rule="evenodd" d="M1.67188 14C1.27405 14 0.892519 13.842 0.611215 13.5607C0.32991 13.2794 0.171875 12.8978 0.171875 12.5V1.5C0.171875 1.10218 0.32991 0.720644 0.611215 0.43934C0.892519 0.158035 1.27405 0 1.67188 0H18.6719C19.0697 0 19.4512 0.158035 19.7325 0.43934C20.0138 0.720644 20.1719 1.10218 20.1719 1.5V12.5C20.1719 12.8978 20.0138 13.2794 19.7325 13.5607C19.4512 13.842 19.0697 14 18.6719 14H1.67188ZM1.17188 1.5C1.17188 1.36739 1.22455 1.24022 1.31832 1.14645C1.41209 1.05268 1.53927 1 1.67188 1H18.6719C18.8045 1 18.9317 1.05268 19.0254 1.14645C19.1192 1.24022 19.1719 1.36739 19.1719 1.5V3H1.17188V1.5ZM1.67188 13C1.53927 13 1.41209 12.9473 1.31832 12.8536C1.22455 12.7598 1.17188 12.6326 1.17188 12.5V7H19.1719V12.5C19.1719 12.6326 19.1192 12.7598 19.0254 12.8536C18.9317 12.9473 18.8045 13 18.6719 13H1.67188Z" fill="#055dff"/>
</svg>
