<svg width="565" height="440" viewBox="0 0 565 440" fill="none" xmlns="http://www.w3.org/2000/svg">
<path d="M278.775 171.408H295.521L295.809 200.828H279.062L279.404 235.792H241.271L240.93 200.828H177.225L174.734 177.519L239.665 71.3819L239.662 71.0424H277.795L278.775 171.408ZM210.997 171.408H240.642L240.147 120.716L237.809 124.564L210.997 171.408ZM426.637 168.466C426.854 190.719 422.024 207.881 412.147 219.95C402.27 232.02 388.241 238.055 370.061 238.055C351.731 238.055 337.49 231.982 327.338 219.837C317.187 207.692 312.003 190.568 311.787 168.466L311.493 138.367C311.276 116.114 316.106 98.9528 325.983 86.883C335.86 74.8135 349.926 68.7788 368.182 68.7788C386.437 68.7788 400.64 74.8512 410.792 86.9963C420.943 99.1413 426.127 116.303 426.344 138.481L426.637 168.466ZM388.163 133.502C388.047 121.659 386.414 112.814 383.265 106.968C380.115 101.122 375.183 98.1983 368.469 98.1983C361.906 98.1983 357.161 100.914 354.235 106.345C351.308 111.777 349.786 119.999 349.667 131.013L350.078 173.105C350.198 185.401 351.832 194.397 354.981 200.092C358.129 205.787 363.06 208.635 369.774 208.635C376.262 208.635 381.025 205.863 384.063 200.318C387.102 194.774 388.601 186.08 388.561 174.237L388.163 133.502ZM547.173 171.408H563.919L564.206 200.828H547.46L547.801 235.792H509.669L509.327 200.828H445.623L443.132 177.519L508.063 71.3819L508.06 71.0424H546.192L547.173 171.408ZM479.394 171.408H509.04L508.545 120.716L506.206 124.564L479.394 171.408Z" fill="#015DFF"/>
<path d="M456.848 295.26H452.237L445.419 283.289V295.26H440.781V276.022H445.419L452.224 287.993V276.022H456.848V295.26ZM459.014 287.977C459.014 286.551 459.291 285.28 459.846 284.166C460.401 283.051 461.198 282.195 462.238 281.596C463.277 280.997 464.497 280.697 465.898 280.697C468.038 280.697 469.725 281.36 470.959 282.686C472.192 284.012 472.808 285.815 472.808 288.097V288.255C472.808 290.484 472.189 292.252 470.952 293.56C469.714 294.868 468.038 295.522 465.924 295.522C463.889 295.522 462.256 294.912 461.022 293.692C459.789 292.472 459.124 290.818 459.027 288.731L459.014 287.977ZM463.467 288.255C463.467 289.576 463.674 290.545 464.088 291.162C464.502 291.778 465.114 292.087 465.924 292.087C467.51 292.087 468.32 290.867 468.355 288.427V287.977C468.355 285.414 467.536 284.133 465.898 284.133C464.409 284.133 463.603 285.238 463.48 287.449L463.467 288.255ZM479.957 277.408V280.963H482.309V284.055H479.957V290.595C479.957 291.132 480.054 291.507 480.248 291.718C480.442 291.929 480.825 292.035 481.397 292.035C481.838 292.035 482.208 292.009 482.507 291.956V295.14C481.706 295.396 480.869 295.523 479.997 295.523C478.464 295.523 477.332 295.162 476.601 294.44C475.87 293.717 475.505 292.621 475.505 291.15V284.055H473.681V280.963H475.505V277.408H479.957ZM503.12 287.594H495.641V295.258H491.004V276.02H503.873V279.601H495.641V284.027H503.12V287.594ZM504.757 287.977C504.757 286.551 505.035 285.28 505.589 284.166C506.144 283.051 506.942 282.195 507.981 281.596C509.02 280.997 510.24 280.697 511.641 280.697C513.782 280.697 515.468 281.36 516.701 282.686C517.935 284.012 518.551 285.815 518.551 288.097V288.255C518.551 290.484 517.933 292.252 516.695 293.56C515.457 294.868 513.782 295.522 511.667 295.522C509.633 295.522 507.999 294.912 506.765 293.692C505.532 292.472 504.867 290.818 504.77 288.731L504.757 287.977ZM509.21 288.255C509.21 289.576 509.417 290.545 509.831 291.162C510.245 291.778 510.857 292.087 511.667 292.087C513.253 292.087 514.063 290.867 514.099 288.427V287.977C514.099 285.414 513.279 284.133 511.641 284.133C510.152 284.133 509.346 285.238 509.223 287.449L509.21 288.255ZM529.03 293.713C528.088 294.919 526.815 295.523 525.212 295.523C523.644 295.523 522.457 295.067 521.651 294.155C520.845 293.244 520.442 291.933 520.442 290.224V280.962H524.895V290.251C524.895 291.475 525.489 292.088 526.678 292.088C527.7 292.088 528.427 291.722 528.859 290.991V280.962H533.338V295.259H529.162L529.03 293.713ZM539.866 280.962L540.011 282.639C540.998 281.345 542.358 280.697 544.094 280.697C545.582 280.697 546.695 281.142 547.43 282.032C548.166 282.921 548.546 284.26 548.573 286.049V295.258H544.107V286.233C544.107 285.511 543.962 284.98 543.671 284.641C543.38 284.302 542.852 284.133 542.085 284.133C541.213 284.133 540.566 284.476 540.143 285.163V295.258H535.69V280.962H539.866ZM550.476 288.004C550.476 285.74 550.964 283.957 551.942 282.653C552.92 281.349 554.285 280.697 556.038 280.697C557.315 280.697 558.39 281.199 559.262 282.204V274.963H563.728V295.258H559.725L559.5 293.725C558.584 294.923 557.421 295.522 556.012 295.522C554.312 295.522 552.964 294.87 551.969 293.567C550.973 292.263 550.476 290.409 550.476 288.004ZM554.928 288.282C554.928 290.818 555.668 292.087 557.148 292.087C558.135 292.087 558.839 291.673 559.262 290.845V285.401C558.857 284.556 558.161 284.133 557.175 284.133C555.8 284.133 555.056 285.243 554.942 287.462L554.928 288.282Z" fill="#015DFF"/>
<path fill-rule="evenodd" clip-rule="evenodd" d="M174.371 4.25364L176.617 0L180.347 7.75465L187.268 4.93208L185.951 11.0372C185.951 11.0372 200.625 26.3494 201.253 49.1962C201.48 57.4324 137.165 39.6101 131.447 30.0082C125.172 19.4693 158.983 1.27267 174.371 4.25364Z" fill="#12323E"/>
<path fill-rule="evenodd" clip-rule="evenodd" d="M188.105 185.393L136.13 197.515C136.13 197.515 134.458 278.52 195.44 331.928C238.19 369.367 313.575 354.503 285.349 303.184C276.008 286.2 228.567 252.539 198.318 219.717C186.428 206.816 188.105 185.393 188.105 185.393Z" fill="#EC5239"/>
<path fill-rule="evenodd" clip-rule="evenodd" d="M122.244 308.439L81.6914 297.597C72.0424 308.574 6.00237 339.19 23.4743 367.537C29.7852 377.776 53.6222 380.004 96.7668 352.82H128.567L122.244 308.439Z" fill="#12323E"/>
<path fill-rule="evenodd" clip-rule="evenodd" d="M254.854 317.033C233.349 313.957 119.957 307.485 119.957 307.485C115.4 333.996 116.6 332.184 121.922 352.822C121.922 352.822 213.598 368.742 234.945 364.711C306.004 351.293 296.394 322.975 254.854 317.033Z" fill="#EC5239"/>
<path fill-rule="evenodd" clip-rule="evenodd" d="M254.915 316.627C233.404 313.55 119.984 307.076 119.984 307.076C119.758 307.063 119.564 307.236 119.551 307.461C119.539 307.688 119.711 307.881 119.937 307.894C119.937 307.894 233.299 314.363 254.799 317.439C255.023 317.471 255.231 317.315 255.263 317.091C255.295 316.867 255.139 316.659 254.915 316.627Z" fill="#12323E"/>
<path fill-rule="evenodd" clip-rule="evenodd" d="M224.905 47.5436C213.427 50.9856 193.475 59.223 183.805 66.4425C173.456 74.1699 183.591 106.212 197.548 102.484C209.167 99.3802 238.32 82.6348 248.351 75.6774C277.946 55.1489 259.584 37.1432 224.905 47.5436Z" fill="#F9C5C5"/>
<path fill-rule="evenodd" clip-rule="evenodd" d="M162.44 82.702C159.892 97.152 167.465 114.13 178.872 113.028C187.198 112.223 205.662 98.9353 205.662 98.9353C189.05 104.192 187.689 77.9968 189.337 62.0586C189.337 62.0586 163.892 74.465 162.44 82.702Z" fill="#EC5239"/>
<path fill-rule="evenodd" clip-rule="evenodd" d="M263.16 127.575C260.507 105.755 267.988 81.2008 268.545 71.3203C269.699 50.8652 250.174 33.8088 236.053 58.435C232.542 64.5588 226.719 78.7797 223.256 90.8291C220.875 99.1131 219.74 131.931 222.386 142.274C223.513 146.681 233.208 156.988 239.132 152.89C245.04 156.327 248.3 154.636 250.055 152.061C255.009 152.771 259.291 153.173 262.741 148.962C262.741 148.962 278.239 143.763 271.769 128.733C270.141 124.952 266.16 124.307 263.16 127.575Z" fill="#F9C5C5"/>
<path fill-rule="evenodd" clip-rule="evenodd" d="M235.695 58.2317C232.174 64.3729 226.333 78.6331 222.86 90.7166C222.797 90.934 222.923 91.161 223.14 91.2235C223.358 91.286 223.585 91.1604 223.648 90.943C227.101 78.9276 232.905 64.746 236.406 58.6392C236.519 58.4429 236.451 58.1925 236.255 58.0801C236.058 57.9674 235.808 58.0354 235.695 58.2317ZM262.749 127.608L263.524 137.404C263.542 137.63 263.739 137.799 263.965 137.781C264.191 137.763 264.359 137.565 264.341 137.34L263.566 127.543C263.548 127.318 263.351 127.149 263.125 127.167C262.9 127.185 262.731 127.382 262.749 127.608ZM263.204 148.453C263.204 148.453 258.958 147.967 256.466 144.188C256.341 143.999 256.087 143.947 255.898 144.071C255.709 144.196 255.657 144.45 255.782 144.639C258.491 148.747 263.111 149.267 263.111 149.267C263.336 149.293 263.539 149.131 263.565 148.906C263.59 148.682 263.429 148.478 263.204 148.453ZM250.342 151.647C250.342 151.647 247.045 148.958 246.845 145.429C246.832 145.203 246.639 145.03 246.413 145.043C246.187 145.056 246.014 145.25 246.027 145.476C246.245 149.33 249.822 152.281 249.822 152.281C249.997 152.425 250.255 152.399 250.399 152.224C250.542 152.049 250.517 151.791 250.342 151.647ZM239.281 152.684C238.274 151.679 236.658 150.239 235.984 147.563C235.929 147.343 235.706 147.21 235.486 147.265C235.267 147.321 235.134 147.543 235.189 147.763C235.911 150.631 237.623 152.188 238.702 153.265C238.863 153.424 239.122 153.424 239.282 153.264C239.442 153.104 239.442 152.844 239.281 152.684Z" fill="#12323E"/>
<path fill-rule="evenodd" clip-rule="evenodd" d="M160.683 207.281L107.323 206.239C107.323 206.239 85.767 284.341 131.729 351.115C163.949 397.923 235.708 404.234 224.518 353.493C220.344 334.564 192.24 291.783 171 252.526C162.651 237.095 160.683 207.281 160.683 207.281Z" fill="#EC5239"/>
<path fill-rule="evenodd" clip-rule="evenodd" d="M224.919 353.406C220.741 334.458 192.622 291.628 171.36 252.332C163.043 236.959 161.092 207.255 161.092 207.255C161.077 207.029 160.882 206.859 160.656 206.873C160.43 206.888 160.259 207.084 160.274 207.309C160.274 207.309 162.259 237.233 170.64 252.722C191.859 291.94 219.949 334.672 224.119 353.582C224.167 353.803 224.386 353.943 224.607 353.894C224.828 353.846 224.968 353.627 224.919 353.406Z" fill="#12323E"/>
<path fill-rule="evenodd" clip-rule="evenodd" d="M96.766 342.099H43.2469C35.2528 354.333 -16.1818 408.949 5.1349 434.53C12.8344 443.77 34.2647 444.419 73.1164 411.389H93.0788L96.766 342.099Z" fill="#12323E"/>
<path fill-rule="evenodd" clip-rule="evenodd" d="M96.7681 341.689H43.249C43.1107 341.689 42.9816 341.759 42.906 341.875C39.9787 346.354 31.2226 356.52 22.3504 368.861C22.2185 369.045 22.2603 369.301 22.4441 369.433C22.6279 369.565 22.884 369.523 23.016 369.34C31.7771 357.153 40.4239 347.084 43.4697 342.509H96.7681C96.9945 342.509 97.1779 342.325 97.1779 342.099C97.1779 341.872 96.9945 341.689 96.7681 341.689Z" fill="#12323E"/>
<path fill-rule="evenodd" clip-rule="evenodd" d="M190.11 344.076C168.641 340.754 90.6655 342.622 90.6655 342.622C77.0282 363.492 75.3695 386.326 87.3135 411.389C87.3135 411.389 163.161 405.025 184.653 401.858C234.692 394.485 231.579 350.493 190.11 344.076Z" fill="#EC5239"/>
<path fill-rule="evenodd" clip-rule="evenodd" d="M190.175 343.671C168.69 340.346 90.6579 342.212 90.6579 342.212C90.4315 342.218 90.2526 342.406 90.2579 342.632C90.2635 342.858 90.4511 343.037 90.6776 343.032C90.6776 343.032 168.596 341.161 190.049 344.481C190.273 344.515 190.482 344.362 190.517 344.139C190.552 343.915 190.398 343.705 190.175 343.671Z" fill="#12323E"/>
<path fill-rule="evenodd" clip-rule="evenodd" d="M182.325 87.7171C168.466 71.8789 126.793 76.4588 115.936 88.8857C99.7299 107.434 104.071 207.167 104.071 207.167C143.071 213.721 169.633 213.125 190.11 205.788L185.841 168.115C213.522 144.841 193.861 100.901 182.325 87.7171Z" fill="#FDC82F"/>
<path fill-rule="evenodd" clip-rule="evenodd" d="M188.562 192.125C164.134 204.92 134.391 200.443 103.672 192.792L104.072 207.167C143.072 213.721 169.633 213.126 190.11 205.788L188.562 192.125Z" fill="#015DFF"/>
<path d="M173.259 215.547C178.51 215.547 182.767 209.445 182.767 201.919C182.767 194.393 178.51 188.291 173.259 188.291C168.007 188.291 163.75 194.393 163.75 201.919C163.75 209.445 168.007 215.547 173.259 215.547Z" fill="#12323E"/>
<path fill-rule="evenodd" clip-rule="evenodd" d="M132.565 99.7241C128.998 85.4914 124.502 81.5062 114.536 87.1657C107.263 91.2957 92.8867 118.261 92.8867 118.261C105.911 106.686 118.617 106.356 130.422 137.752C130.422 137.752 134.598 107.837 132.565 99.7241Z" fill="#EC5239"/>
<path fill-rule="evenodd" clip-rule="evenodd" d="M131.449 133.675C125.897 114.327 116.44 97.498 95.4968 114.534L54.8382 247.262C44.9831 256.612 10.0118 258.231 16.3643 277.916C7.471 279.036 5.54734 287.465 14.657 293.593C6.43827 295.45 8.40557 305.093 21.7613 304.624C21.7613 304.624 22.0533 309.607 23.47 311.146C29.7914 318.015 77.8454 301.416 90.409 283.272C120.843 239.322 131.449 133.675 131.449 133.675Z" fill="#F9C5C5"/>
<path fill-rule="evenodd" clip-rule="evenodd" d="M21.6971 305.03C21.6971 305.03 31.7946 306.613 50.0804 298.153C50.2859 298.057 50.3753 297.814 50.2804 297.609C50.1853 297.403 49.9417 297.314 49.7364 297.409C31.7459 305.733 21.8223 304.22 21.8223 304.22C21.5987 304.185 21.3893 304.338 21.3547 304.562C21.3201 304.786 21.4733 304.995 21.6971 305.03ZM14.3459 294.11C14.3459 294.11 15.9782 295.673 21.1637 296.001C26.1782 296.319 34.6203 295.488 48.325 290.859C48.5393 290.787 48.6545 290.554 48.5822 290.34C48.5096 290.125 48.2771 290.01 48.0627 290.083C34.515 294.658 26.1727 295.497 21.2156 295.183C16.4296 294.88 14.9035 293.51 14.9035 293.51C14.7377 293.355 14.4785 293.365 14.3244 293.531C14.1703 293.697 14.1799 293.956 14.3459 294.11ZM15.9546 277.962C15.9546 277.962 16.4495 279.371 19.4642 280.542C22.2823 281.637 27.4248 282.562 36.7271 281.832C36.9527 281.814 37.1214 281.617 37.1035 281.391C37.0859 281.166 36.8886 280.997 36.663 281.015C27.5564 281.729 22.5198 280.85 19.7609 279.778C17.1986 278.783 16.7193 277.666 16.7193 277.666C16.638 277.455 16.4007 277.35 16.1894 277.432C15.9784 277.513 15.8733 277.75 15.9546 277.962Z" fill="#12323E"/>
<path fill-rule="evenodd" clip-rule="evenodd" d="M166.863 68.3001L148.152 50.4958L129.773 81.0467L167.443 105.438L166.863 68.3001Z" fill="#F9C5C5"/>
<path fill-rule="evenodd" clip-rule="evenodd" d="M129.574 81.4051C129.574 81.4051 170.066 103.861 188.187 124.419C192.032 128.782 194.868 133.054 196.067 137.006C197.236 140.86 196.829 144.4 194.223 147.39C194.074 147.561 194.092 147.82 194.263 147.969C194.433 148.117 194.692 148.1 194.841 147.929C197.643 144.713 198.108 140.912 196.851 136.768C195.624 132.723 192.737 128.342 188.802 123.877C170.611 103.24 129.972 80.6884 129.972 80.6884C129.774 80.5787 129.524 80.65 129.415 80.848C129.305 81.0459 129.376 81.2953 129.574 81.4051ZM166.862 68.3002L154.57 51.311C146.972 60.0333 148.733 70.5683 167.105 83.846L166.862 68.3002Z" fill="#12323E"/>
<path fill-rule="evenodd" clip-rule="evenodd" d="M171.065 14.2006C182.098 16.601 187.784 26.2941 187.784 42.2706C187.784 58.2473 178.433 77.6504 167.444 75.5153C148.572 71.8485 147.362 51.2946 147.362 51.2946C140.441 47.2049 153.346 10.3455 171.065 14.2006Z" fill="#F9C5C5"/>
<path fill-rule="evenodd" clip-rule="evenodd" d="M162.692 40.433C162.692 40.433 170.267 38.6237 173.053 36.6113C173.512 36.28 173.615 35.6397 173.284 35.1809C172.952 34.7221 172.312 34.6188 171.853 34.9502C169.269 36.8165 162.224 38.4381 162.224 38.4381C161.673 38.5674 161.332 39.1188 161.461 39.6698C161.59 40.2206 162.142 40.5623 162.692 40.433ZM180.91 36.8333C180.91 36.8333 180.084 42.8579 185.025 46.0403C185.501 46.3466 186.135 46.2093 186.441 45.7338C186.747 45.258 186.61 44.624 186.134 44.3176C182.274 41.8311 182.94 37.1152 182.94 37.1152C183.017 36.5546 182.626 36.0372 182.066 35.9593C181.505 35.8815 180.988 36.2728 180.91 36.8333ZM163.457 66.7444C163.457 66.7444 169.907 63.8431 173.964 68.5873C174.111 68.7594 174.37 68.7795 174.542 68.6324C174.714 68.4852 174.734 68.2266 174.587 68.0545C170.157 62.8745 163.123 65.9958 163.123 65.9958C162.916 66.0882 162.823 66.3307 162.916 66.5372C163.008 66.7439 163.25 66.8366 163.457 66.7444ZM167.865 46.7292C168.863 47.1826 169.081 48.8545 168.351 50.4603C167.621 52.0661 166.218 53.0017 165.221 52.5483C164.223 52.0948 164.005 50.4228 164.735 48.817C165.465 47.2111 166.868 46.2757 167.865 46.7292ZM180.603 50.7787C181.64 51.1324 182.031 52.7427 181.475 54.3722C180.919 56.0018 179.626 57.0376 178.589 56.6837C177.551 56.33 177.16 54.7197 177.716 53.0903C178.272 51.4607 179.565 50.4249 180.603 50.7787Z" fill="#12323E"/>
<path fill-rule="evenodd" clip-rule="evenodd" d="M174.372 4.25364L176.619 0L180.349 7.75465L187.27 4.93208L185.952 11.0372L193.921 44.7981H187.783L186.351 30.5795L184.806 34.2932L173.757 32.731L172.662 25.6554L169.39 32.7636L164.329 33.2976L162.71 29.8306L155.818 40.5514C156.116 29.4124 147.921 30.8002 146.611 39.3284C146.611 39.3284 141.173 29.3142 146.97 19.5361C151.85 11.3057 167.339 2.89122 174.372 4.25364Z" fill="#12323E"/>
<path fill-rule="evenodd" clip-rule="evenodd" d="M290.705 15.5387C277.682 8.88049 259.98 9.11326 243.355 11.8865C218.311 16.0639 195.745 25.9307 195.745 25.9307C195.166 26.1837 194.902 26.8583 195.155 27.4373C195.408 28.0162 196.082 28.2803 196.661 28.0273C196.661 28.0273 218.972 18.2734 243.731 14.1435C259.265 11.5522 275.776 11.1435 288.254 16.8917C283.549 19.5981 280.767 21.8926 279.364 23.7556C278.044 25.5082 277.828 27.0044 278.214 28.1939C278.601 29.386 279.647 30.3659 281.198 31.0191C283.116 31.8271 285.857 32.1686 288.668 32.0365C292.022 31.8789 295.466 31.048 297.709 29.6573C299.486 28.5549 300.544 27.0863 300.586 25.3867C300.614 24.2769 300.208 23.0245 299.147 21.6705C298.02 20.2321 296.092 18.618 293.119 16.8673C329.225 -1.28037 356.588 23.7816 356.588 23.7816C357.053 24.2087 357.777 24.1777 358.204 23.712C358.631 23.2464 358.6 22.5227 358.135 22.0955C358.135 22.0955 328.957 -4.72279 290.705 15.5387ZM290.714 18.1334C285.594 20.9429 282.611 23.2474 281.191 25.1322C280.475 26.0833 280.181 26.8423 280.391 27.4878C280.599 28.1299 281.251 28.5586 282.087 28.9104C283.747 29.61 286.126 29.8653 288.561 29.7509C291.503 29.6126 294.536 28.9326 296.503 27.7125C297.533 27.0739 298.274 26.3147 298.299 25.3297C298.321 24.4418 297.791 23.4675 296.691 22.337C295.444 21.0547 293.503 19.6571 290.714 18.1334Z" fill="#015DFF"/>
<path fill-rule="evenodd" clip-rule="evenodd" d="M367.604 38.5458L344.996 22.4369L358.066 23.3364L361.669 15.9771L367.604 38.5458Z" fill="#015DFF"/>
<path fill-rule="evenodd" clip-rule="evenodd" d="M367.604 38.5456L344.996 22.4368L358.066 23.3363L367.604 38.5456Z" fill="#015DFF"/>
</svg>
