<svg width="12" height="10" viewBox="0 0 12 10" fill="none" xmlns="http://www.w3.org/2000/svg">
<path d="M11.8813 4.74394C11.4007 3.78313 10.8287 2.99953 10.1655 2.39316L9.46985 3.05324C10.0371 3.56764 10.5312 4.24057 10.9584 5.07865C9.82094 7.31267 8.20629 8.3739 5.99965 8.3739C5.33729 8.3739 4.72721 8.27711 4.1694 8.08355L3.41567 8.79878C4.19041 9.13825 5.05173 9.30798 5.99965 9.30798C8.62739 9.30798 10.5879 8.00934 11.8813 5.41207C11.9333 5.30761 11.9603 5.19352 11.9603 5.078C11.9603 4.96248 11.9333 4.84839 11.8813 4.74394V4.74394ZM11.0122 0.584144L10.4293 0.0304394C10.4192 0.0207896 10.4071 0.0131344 10.3938 0.00791141C10.3806 0.00268839 10.3663 0 10.352 0C10.3376 0 10.3234 0.00268839 10.3101 0.00791141C10.2968 0.0131344 10.2847 0.0207896 10.2746 0.0304394L8.77928 1.44869C7.95487 1.04911 7.02832 0.849321 5.99965 0.849321C3.37192 0.849321 1.41137 2.14796 0.118011 4.74523C0.0660243 4.84969 0.0390625 4.96378 0.0390625 5.0793C0.0390625 5.19482 0.0660243 5.30891 0.118011 5.41336C0.634717 6.44605 1.25679 7.27379 1.98422 7.8966L0.537464 9.26906C0.516968 9.28852 0.505454 9.31491 0.505454 9.34243C0.505454 9.36994 0.516968 9.39633 0.537464 9.41579L1.12112 9.96962C1.14163 9.98907 1.16944 10 1.19843 10C1.22743 10 1.25524 9.98907 1.27575 9.96962L11.0122 0.731003C11.0223 0.721364 11.0304 0.709918 11.0359 0.697318C11.0414 0.684719 11.0443 0.671213 11.0443 0.657574C11.0443 0.643935 11.0414 0.630429 11.0359 0.61783C11.0304 0.60523 11.0223 0.593783 11.0122 0.584144ZM1.04086 5.07865C2.17973 2.84463 3.79438 1.78341 5.99965 1.78341C6.74532 1.78341 7.4233 1.90484 8.0384 2.15172L7.07727 3.06375C6.62209 2.8333 6.1009 2.74777 5.5906 2.81978C5.08029 2.8918 4.60789 3.11754 4.24308 3.46371C3.87827 3.80988 3.64037 4.25815 3.56448 4.74239C3.48859 5.22662 3.57872 5.72118 3.82159 6.15311L2.68108 7.23535C2.04985 6.70668 1.50571 5.99042 1.04086 5.07865ZM4.41371 5.07865C4.41395 4.84988 4.47106 4.6244 4.58039 4.42051C4.68972 4.21662 4.84819 4.04007 5.04294 3.90522C5.23768 3.77036 5.4632 3.681 5.70118 3.64439C5.93915 3.60778 6.18287 3.62496 6.41254 3.69452L4.48631 5.52234C4.43803 5.37891 4.41354 5.22922 4.41371 5.07865V5.07865Z" fill="#EC5239"/>
<path d="M5.86228 6.39353C5.81498 6.39353 5.76836 6.39134 5.72215 6.3871L5 7.10925C5.43434 7.27559 5.90757 7.31255 6.36247 7.21567C6.81737 7.1188 7.23447 6.89222 7.56335 6.56335C7.89222 6.23447 8.1188 5.81737 8.21567 5.36247C8.31255 4.90757 8.27559 4.43434 8.10925 4L7.3871 4.72215C7.39134 4.76836 7.39353 4.81498 7.39353 4.86228C7.39364 5.0634 7.3541 5.26256 7.27719 5.44839C7.20028 5.63422 7.08749 5.80307 6.94528 5.94528C6.80307 6.08749 6.63422 6.20028 6.44839 6.27719C6.26256 6.3541 6.0634 6.39364 5.86228 6.39353Z" fill="#EC5239"/>
</svg>
