<svg width="12" height="9" viewBox="0 0 12 9" fill="none" xmlns="http://www.w3.org/2000/svg">
<path d="M11.8813 4.1043C10.5852 1.37402 8.62602 0 5.99965 0C3.37192 0 1.41411 1.37402 0.118011 4.10566C0.0660243 4.21575 0.0390625 4.33597 0.0390625 4.45771C0.0390625 4.57945 0.0660243 4.69968 0.118011 4.80977C1.41411 7.54004 3.37328 8.91406 5.99965 8.91406C8.62739 8.91406 10.5852 7.54004 11.8813 4.8084C11.9866 4.58691 11.9866 4.32988 11.8813 4.1043ZM5.99965 7.92969C3.79438 7.92969 2.17973 6.81133 1.04086 4.45703C2.17973 2.10273 3.79438 0.984375 5.99965 0.984375C8.20493 0.984375 9.81958 2.10273 10.9584 4.45703C9.82094 6.81133 8.20629 7.92969 5.99965 7.92969ZM5.94496 2.05078C4.61606 2.05078 3.53871 3.12812 3.53871 4.45703C3.53871 5.78594 4.61606 6.86328 5.94496 6.86328C7.27387 6.86328 8.35122 5.78594 8.35122 4.45703C8.35122 3.12812 7.27387 2.05078 5.94496 2.05078ZM5.94496 5.98828C5.09868 5.98828 4.41371 5.30332 4.41371 4.45703C4.41371 3.61074 5.09868 2.92578 5.94496 2.92578C6.79125 2.92578 7.47622 3.61074 7.47622 4.45703C7.47622 5.30332 6.79125 5.98828 5.94496 5.98828Z" fill="#055dff"/>
</svg>
