<svg width="25" height="25" viewBox="0 0 25 25" fill="none" xmlns="http://www.w3.org/2000/svg">
<path d="M24.5183 12.75C24.5183 19.5155 19.0338 25 12.2683 25C5.50282 25 0.0183105 19.5155 0.0183105 12.75C0.0183105 5.98451 5.50282 0.5 12.2683 0.5C19.0338 0.5 24.5183 5.98451 24.5183 12.75Z" fill="url(#paint0_linear_25_476)"/>
<path d="M16.8303 16.4964L17.3745 13.0388H13.9704V10.7961C13.9704 9.84999 14.445 8.92718 15.9697 8.92718H17.5183V5.98362C17.5183 5.98362 16.1135 5.75 14.771 5.75C11.9663 5.75 10.1348 7.40632 10.1348 10.4036V13.0388H7.01831V16.4964H10.1348V24.8552C10.7604 24.951 11.4005 25 12.0526 25C12.7046 25 13.3447 24.951 13.9704 24.8552V16.4964H16.8303Z" fill="white"/>
<defs>
<linearGradient id="paint0_linear_25_476" x1="12.2683" y1="0.5" x2="12.2683" y2="24.9273" gradientUnits="userSpaceOnUse">
<stop stop-color="#18ACFE"/>
<stop offset="1" stop-color="#0163E0"/>
</linearGradient>
</defs>
</svg>
