<svg width="98" height="16" viewBox="0 0 98 16" fill="none" xmlns="http://www.w3.org/2000/svg">
<path d="M5.10501 15.8856C3.538 15.8856 2.29542 15.4449 1.37725 14.5634C0.459083 13.6698 0 12.3843 0 10.7071V7.69555C0 6.01836 0.459083 4.73905 1.37725 3.85761C2.29542 2.96393 3.538 2.51708 5.10501 2.51708C6.64753 2.51708 7.83502 2.94556 8.66749 3.80252C9.51221 4.65947 9.93456 5.82861 9.93456 7.30992V7.42009H7.96969V7.25482C7.96969 6.38563 7.73096 5.67558 7.25352 5.12468C6.78831 4.57378 6.07214 4.29833 5.10501 4.29833C4.12563 4.29833 3.36049 4.59826 2.80959 5.19813C2.25869 5.78576 1.98324 6.60599 1.98324 7.65882V10.7439C1.98324 11.7844 2.25869 12.6047 2.80959 13.2045C3.36049 13.8044 4.12563 14.1043 5.10501 14.1043C6.07214 14.1043 6.78831 13.8289 7.25352 13.278C7.73096 12.7149 7.96969 12.0048 7.96969 11.1479V10.8357H9.93456V11.0928C9.93456 12.5741 9.51221 13.7432 8.66749 14.6002C7.83502 15.4571 6.64753 15.8856 5.10501 15.8856Z" fill="#29C5F4"/>
<path d="M16.0602 15.8856C15.1542 15.8856 14.3463 15.702 13.6362 15.3347C12.9384 14.9552 12.3875 14.4165 11.9835 13.7187C11.5795 13.0209 11.3775 12.1946 11.3775 11.2397V10.9642C11.3775 10.0093 11.5795 9.1891 11.9835 8.50353C12.3875 7.80573 12.9384 7.26707 13.6362 6.88756C14.3463 6.50805 15.1542 6.3183 16.0602 6.3183C16.9661 6.3183 17.7741 6.50805 18.4841 6.88756C19.1942 7.26707 19.7512 7.80573 20.1552 8.50353C20.5592 9.1891 20.7612 10.0093 20.7612 10.9642V11.2397C20.7612 12.1946 20.5592 13.0209 20.1552 13.7187C19.7512 14.4165 19.1942 14.9552 18.4841 15.3347C17.7741 15.702 16.9661 15.8856 16.0602 15.8856ZM16.0602 14.1962C16.8926 14.1962 17.566 13.933 18.0801 13.4065C18.6066 12.8679 18.8698 12.1272 18.8698 11.1846V11.0193C18.8698 10.0767 18.6127 9.34212 18.0985 8.81571C17.5843 8.27705 16.9049 8.00772 16.0602 8.00772C15.2399 8.00772 14.5666 8.27705 14.0402 8.81571C13.526 9.34212 13.2689 10.0767 13.2689 11.0193V11.1846C13.2689 12.1272 13.526 12.8679 14.0402 13.4065C14.5666 13.933 15.2399 14.1962 16.0602 14.1962Z" fill="#29C5F4"/>
<path d="M26.4948 15.8856C25.7481 15.8856 25.0564 15.702 24.4198 15.3347C23.7832 14.9674 23.269 14.441 22.8773 13.7554C22.4978 13.0576 22.308 12.219 22.308 11.2397V10.9642C22.308 9.99708 22.4978 9.16461 22.8773 8.46681C23.2568 7.769 23.7648 7.23646 24.4014 6.86919C25.038 6.50193 25.7358 6.3183 26.4948 6.3183C27.0825 6.3183 27.5722 6.39175 27.9639 6.53865C28.3679 6.68556 28.6984 6.87532 28.9555 7.10792C29.2126 7.32828 29.4085 7.56088 29.5432 7.80573H29.837V2.77417H31.7284V15.6285H29.8737V14.3431H29.5799C29.3473 14.7348 28.9923 15.0898 28.5148 15.4081C28.0496 15.7264 27.3763 15.8856 26.4948 15.8856ZM27.0274 14.2329C27.8476 14.2329 28.5209 13.9697 29.0473 13.4433C29.586 12.9169 29.8553 12.164 29.8553 11.1846V11.0193C29.8553 10.0522 29.5921 9.3054 29.0657 8.77898C28.5393 8.25257 27.8599 7.98936 27.0274 7.98936C26.2194 7.98936 25.5461 8.25257 25.0074 8.77898C24.481 9.3054 24.2178 10.0522 24.2178 11.0193V11.1846C24.2178 12.164 24.481 12.9169 25.0074 13.4433C25.5461 13.9697 26.2194 14.2329 27.0274 14.2329Z" fill="#29C5F4"/>
<path d="M38.2956 15.8856C37.3774 15.8856 36.5756 15.6958 35.89 15.3163C35.2044 14.9246 34.6658 14.3798 34.274 13.682C33.8945 12.9719 33.7047 12.1517 33.7047 11.2213V11.0009C33.7047 10.0583 33.8945 9.23807 34.274 8.54026C34.6535 7.83021 35.1799 7.28543 35.8533 6.90592C36.5388 6.51417 37.3284 6.3183 38.2221 6.3183C39.0913 6.3183 39.8503 6.51417 40.4992 6.90592C41.1603 7.28543 41.6744 7.81797 42.0417 8.50353C42.409 9.1891 42.5926 9.99096 42.5926 10.9091V11.6253H35.6329C35.6574 12.421 35.9206 13.0576 36.4225 13.5351C36.9367 14.0003 37.5733 14.2329 38.3323 14.2329C39.0424 14.2329 39.5749 14.0737 39.9299 13.7554C40.2972 13.4371 40.5788 13.0699 40.7746 12.6536L42.3355 13.4616C42.1641 13.8044 41.9132 14.1656 41.5826 14.5451C41.2643 14.9246 40.842 15.2429 40.3155 15.5C39.7891 15.757 39.1158 15.8856 38.2956 15.8856ZM35.6513 10.1746H40.6645C40.6155 9.48903 40.3706 8.95649 39.9299 8.57699C39.4892 8.18523 38.9138 7.98936 38.2038 7.98936C37.4937 7.98936 36.9122 8.18523 36.4592 8.57699C36.0185 8.95649 35.7492 9.48903 35.6513 10.1746Z" fill="#29C5F4"/>
<path d="M44.5588 15.6284V13.8655H44.5573V2.77403H49.7408C50.5121 2.77403 51.1854 2.9087 51.7608 3.17803C52.3361 3.43512 52.783 3.8085 53.1013 4.29819C53.4318 4.77564 53.5971 5.3449 53.5971 6.00598V6.18962C53.5971 6.77724 53.4869 7.26081 53.2666 7.64032C53.0462 8.01983 52.7769 8.31364 52.4586 8.52176C52.1525 8.72988 51.8587 8.87678 51.5771 8.96248V9.25629C51.8587 9.32974 52.1586 9.47665 52.4769 9.69701C52.8075 9.90513 53.0829 10.1989 53.3033 10.5785C53.5359 10.958 53.6522 11.4538 53.6522 12.0659V12.2495C53.6522 12.9596 53.4869 13.5656 53.1564 14.0675C52.8258 14.5694 52.3668 14.955 51.7791 15.2244C51.2037 15.4937 50.5365 15.6284 49.7775 15.6284H44.5588ZM46.462 13.7875L49.5388 13.8288C50.1999 13.8288 50.7202 13.6696 51.0997 13.3513C51.4792 13.033 51.6689 12.5923 51.6689 12.0292V11.8639C51.6689 11.3007 51.4792 10.86 51.0997 10.5417C50.7324 10.2234 50.2121 10.0643 49.5388 10.0643L46.462 10.023V13.7875ZM46.462 8.20505L49.5388 8.24631C50.1632 8.24631 50.6651 8.09328 51.0446 7.78723C51.4241 7.46893 51.6139 7.04045 51.6139 6.50179V6.31816C51.6139 5.7795 51.4241 5.35714 51.0446 5.05109C50.6773 4.73279 50.1754 4.57364 49.5388 4.57364L46.462 4.53238V8.20505Z" fill="#201E1E"/>
<path d="M55.7472 15.6284V6.57524H57.6019V7.64032H57.8957C58.0426 7.26081 58.2752 6.98536 58.5935 6.81397C58.924 6.63033 59.328 6.53852 59.8055 6.53852H61.2796V8.24631H59.732C59.1199 8.24631 58.618 8.4177 58.2262 8.76048C57.8345 9.09102 57.6386 9.6052 57.6386 10.303V15.6284H55.7472Z" fill="#201E1E"/>
<path d="M66.5841 15.8855C65.6782 15.8855 64.8702 15.7018 64.1602 15.3346C63.4624 14.955 62.9115 14.4164 62.5075 13.7186C62.1035 13.0208 61.9015 12.1944 61.9015 11.2395V10.9641C61.9015 10.0092 62.1035 9.18896 62.5075 8.5034C62.9115 7.80559 63.4624 7.26693 64.1602 6.88742C64.8702 6.50791 65.6782 6.31816 66.5841 6.31816C67.4901 6.31816 68.2981 6.50791 69.0081 6.88742C69.7181 7.26693 70.2752 7.80559 70.6792 8.5034C71.0832 9.18896 71.2851 10.0092 71.2851 10.9641V11.2395C71.2851 12.1944 71.0832 13.0208 70.6792 13.7186C70.2752 14.4164 69.7181 14.955 69.0081 15.3346C68.2981 15.7018 67.4901 15.8855 66.5841 15.8855ZM66.5841 14.196C67.4166 14.196 68.0899 13.9328 68.6041 13.4064C69.1305 12.8677 69.3937 12.1271 69.3937 11.1844V11.0192C69.3937 10.0765 69.1366 9.34199 68.6225 8.81557C68.1083 8.27691 67.4289 8.00759 66.5841 8.00759C65.7639 8.00759 65.0906 8.27691 64.5642 8.81557C64.05 9.34199 63.7929 10.0765 63.7929 11.0192V11.1844C63.7929 12.1271 64.05 12.8677 64.5642 13.4064C65.0906 13.9328 65.7639 14.196 66.5841 14.196Z" fill="#201E1E"/>
<path d="M85.1305 16H87.0585C87.0742 15.3928 87.2398 14.896 87.5552 14.5097C87.8706 14.1312 88.3004 13.8788 88.8445 13.7527C89.3807 13.6265 90.3072 13.5595 91.6241 13.5516C92.941 13.5437 93.8084 13.52 94.2263 13.4806C94.8965 13.4096 95.4288 13.2756 95.8231 13.0785C96.2252 12.8892 96.5446 12.6526 96.7812 12.3688C97.0256 12.0849 97.2109 11.7222 97.3371 11.2806C97.4238 10.9809 97.4672 10.492 97.4672 9.8139V9.15152H95.6102V9.5182C95.6102 10.3383 95.4604 10.8824 95.1607 11.1505C94.8689 11.4186 94.2066 11.5526 93.1736 11.5526C91.2022 11.5526 89.9524 11.5881 89.4241 11.6591C88.5488 11.7853 87.8509 12.0376 87.3305 12.4161C86.8022 12.7946 86.3921 13.3308 86.1004 14.0247C85.6667 13.1179 85.095 12.4792 84.3853 12.1086C83.6677 11.7379 82.4613 11.5526 80.7659 11.5526C79.2282 11.5526 78.3096 11.5329 78.0099 11.4935C77.4816 11.4383 77.115 11.2806 76.9099 11.0204C76.697 10.768 76.5906 10.2673 76.5906 9.5182V9.15152H74.7336V9.8139C74.7336 10.5867 74.7966 11.1465 74.9228 11.4935C75.0963 11.9982 75.388 12.4161 75.7981 12.7473C76.2081 13.0785 76.7246 13.2914 77.3476 13.386C77.9705 13.4885 78.9917 13.5437 80.4111 13.5516C81.8304 13.5595 82.8122 13.6265 83.3563 13.7527C83.8925 13.8788 84.3183 14.1312 84.6337 14.5097C84.9491 14.896 85.1147 15.3928 85.1305 16Z" fill="#201E1E"/>
<path d="M80.9215 3.75081L83.7346 0.9377L82.836 0L79.0852 3.75081L82.836 7.50162L83.7346 6.60298L80.9215 3.75081Z" fill="#29C5F4"/>
<path d="M89.9475 3.75081L92.7606 0.9377L91.8229 0L88.1112 3.75081L91.8229 7.50162L92.7606 6.60298L89.9475 3.75081Z" fill="#29C5F4"/>
</svg>
