<svg width="116" height="32" viewBox="0 0 116 32" fill="none" xmlns="http://www.w3.org/2000/svg">
<path d="M81.5493 31.7794H82.9837V27.2552L87.6182 31.7794H88.9424V25.3794H87.6182V30.1242L82.9837 25.3794H81.5493V31.7794Z" fill="#12323E"/>
<path d="M100.198 31.7794H101.632V27.2552L106.267 31.7794H107.591V25.3794H106.267V30.1242L101.632 25.3794H100.198V31.7794Z" fill="#12323E"/>
<path d="M109.025 31.7794H115.315V30.6759H110.46V29.1311H114.432V28.0277H110.46V26.5932H115.315V25.3794H109.025V31.7794Z" fill="#12323E"/>
<path d="M91.8113 25.3794H90.3769V31.7794H96.0045V30.6759H91.8113V25.3794Z" fill="#12323E"/>
<path d="M98.6527 25.3794H97.2183V31.7794H98.6527V25.3794Z" fill="#12323E"/>
<path fill-rule="evenodd" clip-rule="evenodd" d="M76.363 31.7794C78.927 31.7794 80.3355 30.3467 80.3355 28.5794C80.3355 26.8121 79.2034 25.3794 76.363 25.3794C73.447 25.3794 72.3906 26.8121 72.3906 28.5794C72.3906 30.3467 73.7331 31.7794 76.363 31.7794ZM76.363 30.8013C78.1457 30.8013 79.125 29.8065 79.125 28.5794C79.125 27.3522 78.3379 26.3575 76.363 26.3575C74.3355 26.3575 73.6011 27.3522 73.6011 28.5794C73.6011 29.8065 74.5345 30.8013 76.363 30.8013Z" fill="#12323E"/>
<path d="M75.0295 10.3724C77.2364 7.52553 80.0833 6.16724 83.4378 5.70379C85.424 5.41689 87.4323 5.43896 89.3964 5.92448C91.9123 6.73105 93.5675 7.8345 94.8034 10.3824C95.4434 9.78655 96.0392 9.14655 96.7234 8.59483C99.1509 6.69689 101.932 5.74793 105.021 5.57138C106.941 5.46103 108.795 5.61551 110.605 6.27758C113.319 7.29275 114.864 9.2569 115.239 12.1259C115.372 13.2072 115.283 14.3669 115.305 15.4483C115.328 17.1476 115.305 21.1862 115.305 21.1862H107.912C107.912 21.1862 107.934 16.3631 107.912 14.3107C107.912 13.759 107.78 13.1852 107.581 12.6555C107.03 11.4759 106.103 10.9341 104.933 10.7576C101.755 10.2721 98.6875 10.7355 95.7744 12.17C95.4434 12.3245 95.2227 12.469 95.2227 12.469C95.2227 12.469 95.333 14.4873 95.333 15.2597C95.333 17.0031 95.333 21.1862 95.333 21.1862H87.9399C87.9399 21.1862 87.962 16.8486 87.9399 15.039C87.9399 14.4873 87.8958 13.9355 87.8075 13.4059C87.4985 11.6404 86.373 10.9783 84.8944 10.7576C81.7164 10.2721 78.6709 10.7576 75.7799 12.1479C75.2281 12.4128 75.0295 12.6897 75.0295 12.6897V21.1862H67.5261C67.5261 21.1862 67.5481 11.1769 67.5261 6.54241V6.06898H74.9192V6.6207C74.9192 6.6207 75.0295 9.09243 75.0295 10.3724Z" fill="#59C676"/>
<path d="M53.4019 0H45.8984V4.74484H53.4019V0Z" fill="#59C676"/>
<path d="M53.4019 7.72415H45.8984V21.1862H53.4019V7.72415Z" fill="#59C676"/>
<path d="M64.4364 0H56.9329V21.1862H64.4364V0Z" fill="#59C676"/>
<path d="M0 4.48861V0H12.0276C13.7931 0 15.8897 0.551725 17.4345 1.4588V6.6207C16.2207 5.40691 13.9035 4.48861 12.0276 4.48861H0Z" fill="#015DFF"/>
<path d="M0 12.8748V8.38622H12.0276C13.7931 8.38622 15.8897 8.93795 17.4345 9.84502V15.0069C16.2207 13.7931 13.9035 12.8748 12.0276 12.8748H0Z" fill="#015DFF"/>
<path d="M0 21.2611V16.7724H12.0276C13.7931 16.7724 15.8897 17.3242 17.4345 18.2312V23.3931C16.2207 22.1793 13.9035 21.2611 12.0276 21.2611H0Z" fill="#015DFF"/>
<path d="M38.8414 4.48861V0H26.8138C25.0483 0 22.9518 0.551725 21.4069 1.4588V6.6207C22.6207 5.40691 24.938 4.48861 26.8138 4.48861H38.8414Z" fill="#015DFF"/>
<path d="M38.8414 12.8748V8.38622H26.8138C25.0483 8.38622 22.9518 8.93795 21.4069 9.84502V15.0069C22.6207 13.7931 24.938 12.8748 26.8138 12.8748H38.8414Z" fill="#015DFF"/>
<path d="M38.8414 21.2611V16.7724H26.8138C25.0483 16.7724 22.9518 17.3242 21.4069 18.2312V23.3931C22.6207 22.1793 24.938 21.2611 26.8138 21.2611H38.8414Z" fill="#015DFF"/>
</svg>
