<svg width="28" height="29" viewBox="0 0 28 29" fill="none" xmlns="http://www.w3.org/2000/svg">
<path d="M7.39288 17.8332C7.52961 16.701 7.99395 16.0671 8.86897 15.4173C10.121 14.5372 11.6849 15.0351 11.6849 15.0351V12.0818C12.0651 12.0721 12.4455 12.0946 12.8215 12.1491V15.9497C12.8215 15.9497 11.2581 15.4519 10.0061 16.3324C9.13153 16.9818 8.66624 17.6161 8.52998 18.7483C8.52571 19.363 8.64108 20.1666 9.17236 20.8615C9.041 20.7942 8.90712 20.7174 8.77069 20.6312C7.60036 19.8454 7.38718 18.6663 7.39288 17.8332ZM19.2791 6.6212C18.4178 5.67743 18.0921 4.72455 17.9743 4.05518H19.0578C19.0578 4.05518 18.8418 5.8103 20.4162 7.5363L20.438 7.55951C20.0137 7.2926 19.6245 6.97755 19.2791 6.6212ZM24.4983 9.29689V13.021C24.4983 13.021 23.1158 12.9669 22.0926 12.7066C20.664 12.3425 19.7458 11.7842 19.7458 11.7842C19.7458 11.7842 19.1115 11.386 19.0602 11.3583V19.0486C19.0602 19.4768 18.9429 20.5462 18.5854 21.438C18.1187 22.6048 17.3984 23.3706 17.266 23.5272C17.266 23.5272 16.39 24.5624 14.8446 25.2596C13.4516 25.8884 12.2285 25.8725 11.863 25.8884C11.863 25.8884 9.74875 25.9722 7.84629 24.7358C7.4349 24.4633 7.05088 24.1546 6.69922 23.8139L6.70871 23.8207C8.61164 25.0571 10.7254 24.9733 10.7254 24.9733C11.0914 24.9574 12.3145 24.9733 13.707 24.3444C15.251 23.6473 16.1284 22.6121 16.1284 22.6121C16.2594 22.4555 16.983 21.6897 17.4478 20.5225C17.8044 19.631 17.9226 18.5612 17.9226 18.133V10.4436C17.9739 10.4718 18.6077 10.87 18.6077 10.87C18.6077 10.87 19.5264 11.4288 20.955 11.7924C21.9787 12.0527 23.3608 12.1068 23.3608 12.1068V9.18858C23.8336 9.29461 24.2367 9.32328 24.4983 9.29689Z" fill="#EE1D52"/>
<path d="M23.3613 9.18858V12.1059C23.3613 12.1059 21.9792 12.0518 20.9556 11.7915C19.527 11.4274 18.6083 10.8691 18.6083 10.8691C18.6083 10.8691 17.9744 10.4709 17.9231 10.4427V18.1339C17.9231 18.5621 17.8059 19.632 17.4484 20.5234C16.9816 21.6906 16.2614 22.4564 16.1289 22.613C16.1289 22.613 15.2525 23.6482 13.7075 24.3454C12.315 24.9742 11.092 24.9583 10.7259 24.9742C10.7259 24.9742 8.61218 25.058 6.70925 23.8216L6.69976 23.8148C6.49885 23.6202 6.30974 23.4148 6.13334 23.1995C5.5261 22.4592 5.15387 21.5837 5.06034 21.3338C5.06017 21.3328 5.06017 21.3317 5.06034 21.3307C4.90983 20.8965 4.59362 19.854 4.63683 18.8443C4.71327 17.0627 5.33998 15.9693 5.50568 15.6953C5.94452 14.9483 6.51529 14.2799 7.19258 13.72C7.79025 13.2368 8.46769 12.8523 9.19711 12.5823C9.98565 12.2654 10.83 12.0955 11.685 12.0818V15.0351C11.685 15.0351 10.121 14.539 8.86951 15.4173C7.99449 16.0671 7.53015 16.701 7.39342 17.8331C7.38772 18.6663 7.6009 19.8454 8.77029 20.6317C8.90671 20.7182 9.04059 20.7949 9.17195 20.862C9.37624 21.1275 9.62489 21.3589 9.90786 21.5468C11.0502 22.2699 12.0074 22.3204 13.2313 21.8508C14.0475 21.5368 14.6619 20.8292 14.9467 20.0451C15.1257 19.5555 15.1233 19.0627 15.1233 18.553V4.05518H17.972C18.0898 4.72455 18.4155 5.67743 19.2767 6.6212C19.6222 6.97755 20.0114 7.2926 20.4357 7.55951C20.561 7.6892 21.202 8.33036 22.0248 8.72398C22.4502 8.92744 22.8987 9.08333 23.3613 9.18858Z" fill="black"/>
<path d="M3.92969 20.4268V20.429L4.00037 20.6206C3.99225 20.5983 3.96599 20.5305 3.92969 20.4268Z" fill="#69C9D0"/>
<path d="M9.19872 12.5822C8.46929 12.8522 7.79185 13.2366 7.19418 13.7198C6.51668 14.2811 5.94605 14.9509 5.50776 15.6993C5.34206 15.9723 4.71535 17.0667 4.63891 18.8482C4.5957 19.858 4.91191 20.9005 5.06241 21.3346C5.06225 21.3357 5.06225 21.3368 5.06241 21.3378C5.15737 21.5854 5.52817 22.4609 6.13542 23.2035C6.31181 23.4188 6.50093 23.6242 6.70183 23.8187C6.05812 23.392 5.48403 22.8762 4.99832 22.288C4.39629 21.554 4.02501 20.6875 3.92816 20.4318C3.92804 20.43 3.92804 20.4282 3.92816 20.4264V20.4232C3.77718 19.9895 3.46002 18.9465 3.50418 17.9354C3.58062 16.1539 4.20733 15.0604 4.37303 14.7865C4.81119 14.0379 5.38183 13.3681 6.05945 12.807C6.657 12.3236 7.33447 11.9392 8.06399 11.6694C8.51902 11.4884 8.99305 11.3549 9.47789 11.2712C10.2086 11.149 10.9548 11.1384 11.6889 11.2398V12.0817C10.8332 12.0951 9.98799 12.265 9.19872 12.5822Z" fill="#69C9D0"/>
<path d="M17.9778 4.05521H15.1291V18.5535C15.1291 19.0632 15.1291 19.5546 14.9525 20.0456C14.6647 20.8292 14.0527 21.5368 13.2371 21.8508C12.0126 22.3222 11.0554 22.2699 9.91359 21.5468C9.63014 21.3598 9.38085 21.1292 9.17578 20.8643C10.1486 21.3616 11.0194 21.353 12.0981 20.938C12.9133 20.624 13.5262 19.9164 13.813 19.1323C13.9924 18.6427 13.9901 18.1499 13.9901 17.6407V3.13965H17.9236C17.9236 3.13965 17.8795 3.50005 17.9778 4.05521ZM23.3647 8.38181V9.18861C22.9029 9.0832 22.4552 8.92731 22.0305 8.72401C21.2077 8.33039 20.5668 7.68923 20.4414 7.55954C20.5869 7.65106 20.7378 7.73433 20.8934 7.80891C21.8938 8.28762 22.8789 8.4305 23.3647 8.38181Z" fill="#69C9D0"/>
</svg>
