<svg width="18" height="18" viewBox="0 0 18 18" fill="none" xmlns="http://www.w3.org/2000/svg">
<g clip-path="url(#clip0_7095_166130)">
<path fill-rule="evenodd" clip-rule="evenodd" d="M-0.0234375 15.9058L1.00247 17.0001L17.0025 2.00007L15.9766 0.905762L13.2234 3.48687C12.0359 2.76289 10.6232 2.25007 9.00247 2.25007C6.07784 2.25007 3.83083 3.9199 2.36157 5.48711C1.6201 6.27801 1.05402 7.06605 0.673226 7.65567C0.482362 7.95121 0.336818 8.1988 0.237953 8.37456C0.188492 8.46249 0.150629 8.53259 0.124539 8.5819C0.111492 8.60655 0.101381 8.62602 0.0942276 8.63994L0.0857167 8.6566L0.0831284 8.66172L0.0822518 8.66346C0.082114 8.66374 0.0816538 8.66466 0.752474 9.00007L0.0816538 8.66466C-0.023919 8.8758 -0.023919 9.12433 0.0816538 9.33548L0.752474 9.00007C0.0816538 9.33548 0.081516 9.3352 0.0816538 9.33548L0.0822518 9.33667L0.0831284 9.33842L0.0857167 9.34354L0.0942276 9.3602C0.101381 9.37411 0.111492 9.39358 0.124539 9.41824C0.150629 9.46754 0.188492 9.53765 0.237953 9.62558C0.336818 9.80134 0.482362 10.0489 0.673226 10.3445C1.05402 10.9341 1.6201 11.7221 2.36157 12.513C2.54793 12.7118 2.74679 12.9122 2.95797 13.1107L-0.0234375 15.9058ZM4.05461 12.0826L6.19954 10.0717C6.07222 9.73891 6.00247 9.37764 6.00247 9.00007C6.00247 7.34321 7.34562 6.00007 9.00247 6.00007C9.44858 6.00007 9.87195 6.09744 10.2525 6.27209L12.0796 4.55913C11.1674 4.06744 10.1383 3.75007 9.00247 3.75007C6.6771 3.75007 4.79911 5.08024 3.45588 6.51302C2.7911 7.22212 2.27905 7.93408 1.93328 8.46946C1.79867 8.6779 1.69 8.85842 1.60803 9.00007C1.69 9.14172 1.79867 9.32223 1.93328 9.53067C2.27905 10.0661 2.7911 10.778 3.45588 11.4871C3.64494 11.6888 3.8446 11.8884 4.05461 12.0826ZM7.51064 8.84256C7.58729 8.10809 8.19393 7.53126 8.94133 7.50129L7.51064 8.84256Z" fill="#12323E"/>
<path d="M11.7894 7.88737L10.4994 9.09669C10.4496 9.88009 9.79844 10.5001 9.00247 10.5001L7.71255 11.7094C8.1033 11.8957 8.5407 12.0001 9.00247 12.0001C10.6593 12.0001 12.0025 10.6569 12.0025 9.00007C12.0025 8.60692 11.9268 8.23144 11.7894 7.88737Z" fill="#12323E"/>
<path d="M9.00247 14.2501C7.85085 14.2501 6.80896 13.9238 5.88741 13.4204L4.74538 14.4911C5.94034 15.2268 7.36523 15.7501 9.00247 15.7501C11.9271 15.7501 14.1741 14.0802 15.6434 12.513C16.3848 11.7221 16.9509 10.9341 17.3317 10.3445C17.5226 10.0489 17.6681 9.80134 17.767 9.62558C17.8165 9.53765 17.8543 9.46754 17.8804 9.41824C17.8935 9.39358 17.9036 9.37411 17.9107 9.3602L17.9192 9.34354L17.9218 9.33842L17.9227 9.33667C17.9228 9.3364 17.9233 9.33548 17.2525 9.00007L17.9233 9.33548C18.0289 9.12433 18.0289 8.8758 17.9233 8.66466L17.2525 9.00007C17.9233 8.66466 17.9234 8.66493 17.9233 8.66466L17.9227 8.66346L17.9218 8.66172L17.9192 8.6566L17.9107 8.63994C17.9036 8.62602 17.8935 8.60655 17.8804 8.5819C17.8543 8.53259 17.8165 8.46249 17.767 8.37456C17.6681 8.1988 17.5226 7.95121 17.3317 7.65567C16.9509 7.06605 16.3848 6.27801 15.6434 5.48711C15.4482 5.27897 15.2394 5.06901 15.017 4.8614L13.9202 5.88974C14.1412 6.09264 14.351 6.30172 14.5491 6.51302C15.2138 7.22212 15.7259 7.93408 16.0717 8.46946C16.2063 8.6779 16.3149 8.85842 16.3969 9.00007C16.3149 9.14172 16.2063 9.32223 16.0717 9.53067C15.7259 10.0661 15.2138 10.778 14.5491 11.4871C13.2058 12.9199 11.3278 14.2501 9.00247 14.2501Z" fill="#12323E"/>
</g>
<defs>
<clipPath id="clip0_7095_166130">
<rect width="18" height="18" fill="white"/>
</clipPath>
</defs>
</svg>
