<svg width="24" height="24" viewBox="0 0 24 24" fill="none" xmlns="http://www.w3.org/2000/svg">
<path d="M13.8337 16.7021H10.1719V20.3265C10.1719 21.2359 10.9181 21.9728 11.8369 21.9728H12.1687C13.0875 21.9728 13.8337 21.2359 13.8337 20.3265V16.7021V16.7021Z" fill="#C48E6A"/>
<path d="M17.1241 9.45215H6.87531C5.77094 9.45215 4.86719 10.4159 4.86719 11.5915C4.86719 12.769 5.77094 13.7309 6.87531 13.7309H17.1222C18.2266 13.7309 19.1303 12.7671 19.1303 11.5915C19.1322 10.4159 18.2284 9.45215 17.1241 9.45215Z" fill="#C48E6A"/>
<path d="M12.0038 2.07227C8.74125 2.07227 5.71875 5.56164 5.71875 10.5829C5.71875 15.5779 8.83313 18.0473 12.0038 18.0473C15.1744 18.0473 18.2888 15.5779 18.2888 10.5829C18.2888 5.56164 15.2663 2.07227 12.0038 2.07227V2.07227Z" fill="#E0BB95"/>
<path d="M8.91656 11.9789C9.42708 11.9789 9.84094 11.5508 9.84094 11.0227C9.84094 10.4945 9.42708 10.0664 8.91656 10.0664C8.40604 10.0664 7.99219 10.4945 7.99219 11.0227C7.99219 11.5508 8.40604 11.9789 8.91656 11.9789Z" fill="#12323E"/>
<path d="M15.0806 11.9789C15.5911 11.9789 16.005 11.5508 16.005 11.0227C16.005 10.4945 15.5911 10.0664 15.0806 10.0664C14.5701 10.0664 14.1562 10.4945 14.1562 11.0227C14.1562 11.5508 14.5701 11.9789 15.0806 11.9789Z" fill="#12323E"/>
<path d="M12.7204 12.7572C12.6998 12.7497 12.681 12.7441 12.6604 12.7422H11.3348C11.3141 12.7441 11.2935 12.7497 11.2748 12.7572C11.1548 12.8059 11.0891 12.9297 11.1454 13.0628C11.2016 13.1959 11.466 13.5672 11.9985 13.5672C12.531 13.5672 12.7954 13.1941 12.8516 13.0628C12.906 12.9297 12.8404 12.8059 12.7204 12.7572Z" fill="#C48E6A"/>
<path d="M13.5795 14.2723C12.9813 14.6267 11.0238 14.6267 10.4276 14.2723C10.0845 14.0679 9.73384 14.3811 9.87634 14.6923C10.017 14.9979 11.0857 15.7086 12.0082 15.7086C12.9307 15.7086 13.9863 14.9979 14.127 14.6923C14.2676 14.3811 13.9226 14.0679 13.5795 14.2723Z" fill="#DBA689"/>
<path d="M11.9997 0.943359H11.9922C3.47217 0.988359 5.21779 10.3446 5.21779 10.3446C5.21779 10.3446 5.60029 11.3477 5.77467 11.7902C5.79904 11.854 5.89279 11.8465 5.90779 11.7809C6.08967 10.9671 6.74404 8.08149 7.07404 7.20399C7.16832 6.95397 7.3475 6.74506 7.58023 6.61378C7.81296 6.48251 8.08443 6.43723 8.34717 6.48586C9.18342 6.63774 10.5128 6.82524 11.9809 6.82524H12.0109C13.4772 6.82524 14.8084 6.63774 15.6428 6.48586C16.1865 6.38649 16.7228 6.68836 16.9159 7.20399C17.244 8.07774 17.8947 10.9465 18.0784 11.7715C18.0934 11.839 18.1872 11.8446 18.2115 11.7809L18.7703 10.3427C18.774 10.3446 20.5178 0.988359 11.9997 0.943359V0.943359Z" fill="#AB872F"/>
<path d="M18.7755 10.3446C18.7755 10.3446 20.5212 0.988359 12.0012 0.943359H11.9937C11.8605 0.943359 11.7312 0.947109 11.6037 0.952734C11.3505 0.963984 11.1049 0.982734 10.8687 1.01086H10.8612C10.8443 1.01273 10.8293 1.01648 10.8124 1.01836C3.64054 1.92023 5.21741 10.3446 5.21741 10.3446L5.77616 11.7846C5.80054 11.8484 5.89241 11.8427 5.90741 11.7752C6.09116 10.9521 6.74366 8.07961 7.07366 7.20586C7.16815 6.95558 7.34765 6.74651 7.58074 6.61523C7.81382 6.48394 8.08566 6.43881 8.34866 6.48773C9.18491 6.63773 10.5143 6.82523 11.9824 6.82523H12.0124C13.4787 6.82523 14.8099 6.63773 15.6443 6.48586C16.188 6.38648 16.7243 6.68836 16.9174 7.20398C17.2474 8.08148 17.9018 10.9727 18.0818 11.7827C18.0968 11.8502 18.1887 11.8559 18.213 11.7921C18.3893 11.3515 18.7755 10.3446 18.7755 10.3446V10.3446Z" fill="url(#paint0_radial_6567_212043)"/>
<path d="M7.50403 9.50984C8.06466 8.71671 9.33778 8.64171 10.0672 9.23234C10.1834 9.32609 10.3372 9.45734 10.3822 9.60359C10.4572 9.84171 10.2284 10.0273 10.0053 9.97109C9.86278 9.93546 9.72966 9.85859 9.58903 9.81546C9.33216 9.73484 9.14653 9.71234 8.91591 9.71234C8.57466 9.71046 8.35528 9.75359 8.03091 9.88484C7.89778 9.93921 7.78903 10.0255 7.63716 9.96171C7.46278 9.88859 7.39903 9.66734 7.50403 9.50984V9.50984Z" fill="#AB872F"/>
<path d="M16.1408 9.95953C16.0864 9.93516 16.0339 9.90516 15.9796 9.88266C15.6458 9.74391 15.4564 9.70828 15.0946 9.71016C14.7758 9.71203 14.5864 9.75516 14.3371 9.83953C14.1852 9.89203 13.9921 10.0233 13.8233 9.97266C13.5758 9.89766 13.5833 9.62766 13.7183 9.45516C13.8796 9.25266 14.1008 9.09891 14.3352 8.99766C14.8789 8.76141 15.5427 8.79516 16.0546 9.10078C16.2214 9.20016 16.4033 9.33703 16.5046 9.50953C16.6508 9.75516 16.4296 10.0777 16.1408 9.95953V9.95953Z" fill="#AB872F"/>
<path d="M21.8438 10.1777C21.6112 10.1777 21.4219 10.3577 21.4219 10.579V12.304C21.4219 12.5252 21.6112 12.7052 21.8438 12.7052C22.0763 12.7052 22.2656 12.5252 22.2656 12.304V10.579C22.2656 10.3577 22.0763 10.1777 21.8438 10.1777Z" fill="#E8AD00"/>
<path d="M21 10.1777C20.7675 10.1777 20.5781 10.3577 20.5781 10.579V12.304C20.5781 12.5252 20.7675 12.7052 21 12.7052C21.2325 12.7052 21.4219 12.5252 21.4219 12.304V10.579C21.4219 10.3577 21.2325 10.1777 21 10.1777Z" fill="#E8AD00"/>
<path d="M21.4219 10.1777C21.1894 10.1777 21 10.3577 21 10.579V12.6771C21 12.8984 21.1894 13.0784 21.4219 13.0784C21.6544 13.0784 21.8438 12.8984 21.8438 12.6771V10.579C21.8438 10.3577 21.6544 10.1777 21.4219 10.1777Z" fill="#FFCA28"/>
<path d="M21.4237 10.4394C21.7096 10.4394 21.9412 10.2186 21.9412 9.94625C21.9412 9.6739 21.7096 9.45312 21.4237 9.45312C21.1379 9.45312 20.9062 9.6739 20.9062 9.94625C20.9062 10.2186 21.1379 10.4394 21.4237 10.4394Z" fill="#FFCA28"/>
<path d="M21.4219 9.94141C21.3187 9.94141 21.2344 9.85703 21.2344 9.75391V2.62891C21.2344 2.52578 21.3187 2.44141 21.4219 2.44141C21.525 2.44141 21.6094 2.52578 21.6094 2.62891V9.75391C21.6094 9.85891 21.525 9.94141 21.4219 9.94141Z" fill="#12323E"/>
<path d="M21.75 2.43359C15.9694 0.980469 12 0.933594 12 0.933594C12 0.933594 8.03062 0.980469 2.25 2.43359V2.57797C2.25 2.82734 2.41313 3.04672 2.65125 3.11609C3.34875 3.32234 5.11312 3.77797 6.06 3.96734C6.045 3.98234 5.85375 4.31797 5.71687 4.62922C5.71687 4.62922 7.24313 5.70172 12.0019 6.18172C16.7606 5.70172 18.3319 4.76047 18.3319 4.76047C18.1669 4.42109 17.9963 4.10609 17.9963 4.10609C18.84 3.96734 20.6644 3.34297 21.3619 3.11984C21.5963 3.04484 21.7537 2.82922 21.7537 2.58359V2.43359H21.75Z" fill="#12323E"/>
<path d="M12 0.933594C12 0.933594 8.03062 0.980469 2.25 2.43359C2.25 2.43359 8.88937 4.24672 12 4.19234C15.1106 4.24672 21.75 2.43359 21.75 2.43359C15.9694 0.980469 12 0.933594 12 0.933594V0.933594Z" fill="#12323E"/>
<path opacity="0.4" d="M21.75 2.43359C15.9694 0.980469 12 0.933594 12 0.933594C12 0.933594 8.03062 0.980469 2.25 2.43359V2.57797C2.25 2.82734 2.41313 3.04672 2.65125 3.11609C3.34875 3.32234 5.11312 3.80797 6.06 3.99922C6.06 3.99922 5.88 4.29172 5.71687 4.66109C5.71687 4.66109 7.24313 5.70172 12.0019 6.18359C16.7606 5.70359 18.3319 4.76234 18.3319 4.76234C18.1669 4.42297 17.9963 4.10797 17.9963 4.10797C18.84 3.96922 20.6644 3.34484 21.3619 3.12172C21.5963 3.04672 21.7537 2.83109 21.7537 2.58547V2.43359H21.75Z" fill="url(#paint1_linear_6567_212043)"/>
<path d="M21.4706 22.6856C21.4706 19.9462 17.3925 18.6468 13.8356 18.3543L12.2231 20.4225C12.1706 20.49 12.0881 20.5312 12.0019 20.5312C11.9156 20.5312 11.8331 20.4918 11.7806 20.4225L10.1644 18.3506C8.18625 18.5025 2.53125 19.2412 2.53125 22.6856V23.25H21.4688L21.4706 22.6856V22.6856Z" fill="#12323E"/>
<path d="M21.4706 22.6856C21.4706 19.9462 17.3925 18.6468 13.8356 18.3543L12.2231 20.4225C12.1706 20.49 12.0881 20.5312 12.0019 20.5312C11.9156 20.5312 11.8331 20.4918 11.7806 20.4225L10.1644 18.3506C8.18625 18.5025 2.53125 19.2412 2.53125 22.6856V23.25H21.4688L21.4706 22.6856V22.6856Z" fill="#12323E"/>
<defs>
<radialGradient id="paint0_radial_6567_212043" cx="0" cy="0" r="1" gradientUnits="userSpaceOnUse" gradientTransform="translate(11.9976 8.74982) scale(7.10119 8.01156)">
<stop offset="0.794" stop-color="#BFA055" stop-opacity="0"/>
<stop offset="1" stop-color="#BFA055"/>
</radialGradient>
<linearGradient id="paint1_linear_6567_212043" x1="2.60494" y1="3.55916" x2="21.5102" y2="3.55916" gradientUnits="userSpaceOnUse">
<stop offset="0.001" stop-color="#BFBEBE"/>
<stop offset="0.3" stop-color="#212121" stop-opacity="0"/>
<stop offset="0.7" stop-color="#212121" stop-opacity="0"/>
<stop offset="1" stop-color="#BFBEBE"/>
</linearGradient>
</defs>
</svg>
