<svg width="24" height="24" viewBox="0 0 24 24" fill="none" xmlns="http://www.w3.org/2000/svg">
<path d="M12 0C5.37253 0 0 5.37253 0 12C0 18.6275 5.37253 24 12 24C18.6275 24 24 18.6275 24 12C24 5.37253 18.6275 0 12 0Z" fill="#40B3E0"/>
<path d="M17.8389 6.90302L15.6955 17.7095C15.6955 17.7095 15.3957 18.4589 14.5714 18.0992L9.62533 14.3072L7.82683 13.438L4.79927 12.4187C4.79927 12.4187 4.33464 12.2539 4.28964 11.8942C4.24464 11.5345 4.81427 11.3396 4.81427 11.3396L16.8495 6.6184C16.8495 6.6184 17.8388 6.18377 17.8388 6.90321" fill="white"/>
<path d="M9.24559 17.5877C9.24559 17.5877 9.10121 17.5742 8.92121 17.0046C8.74149 16.4351 7.82715 13.4375 7.82715 13.4375L15.0963 8.82126C15.0963 8.82126 15.5161 8.56645 15.5011 8.82126C15.5011 8.82126 15.576 8.86626 15.3511 9.07607C15.1263 9.28598 9.64074 14.2169 9.64074 14.2169" fill="#D2E5F1"/>
<path d="M11.5216 15.7605L9.56537 17.5442C9.56537 17.5442 9.41237 17.6603 9.24512 17.5875L9.61974 14.2744" fill="#B5CFE4"/>
</svg>
