<svg width="25" height="26" viewBox="0 0 25 26" fill="none" xmlns="http://www.w3.org/2000/svg">
<path d="M0.125 10.35C0.125 6.98968 0.125 5.30953 0.778961 4.02606C1.3542 2.89708 2.27208 1.9792 3.40106 1.40396C4.68453 0.75 6.36468 0.75 9.725 0.75H15.025C18.3853 0.75 20.0655 0.75 21.3489 1.40396C22.4779 1.9792 23.3958 2.89708 23.971 4.02606C24.625 5.30953 24.625 6.98968 24.625 10.35V15.65C24.625 19.0103 24.625 20.6905 23.971 21.9739C23.3958 23.1029 22.4779 24.0208 21.3489 24.596C20.0655 25.25 18.3853 25.25 15.025 25.25H9.725C6.36468 25.25 4.68453 25.25 3.40106 24.596C2.27208 24.0208 1.3542 23.1029 0.778961 21.9739C0.125 20.6905 0.125 19.0103 0.125 15.65V10.35Z" fill="#C62F94"/>
<path d="M18.5 8.1875C18.5 8.91237 17.9124 9.5 17.1875 9.5C16.4626 9.5 15.875 8.91237 15.875 8.1875C15.875 7.46263 16.4626 6.875 17.1875 6.875C17.9124 6.875 18.5 7.46263 18.5 8.1875Z" fill="white"/>
<path fill-rule="evenodd" clip-rule="evenodd" d="M12.375 17.375C14.7912 17.375 16.75 15.4162 16.75 13C16.75 10.5838 14.7912 8.625 12.375 8.625C9.95875 8.625 8 10.5838 8 13C8 15.4162 9.95875 17.375 12.375 17.375ZM12.375 15.625C13.8247 15.625 15 14.4497 15 13C15 11.5503 13.8247 10.375 12.375 10.375C10.9253 10.375 9.75 11.5503 9.75 13C9.75 14.4497 10.9253 15.625 12.375 15.625Z" fill="white"/>
<path fill-rule="evenodd" clip-rule="evenodd" d="M3.625 12.65C3.625 9.70972 3.625 8.23959 4.19722 7.11655C4.70055 6.1287 5.5037 5.32555 6.49155 4.82222C7.61459 4.25 9.08472 4.25 12.025 4.25H12.725C15.6653 4.25 17.1354 4.25 18.2585 4.82222C19.2463 5.32555 20.0494 6.1287 20.5528 7.11655C21.125 8.23959 21.125 9.70972 21.125 12.65V13.35C21.125 16.2903 21.125 17.7604 20.5528 18.8835C20.0494 19.8713 19.2463 20.6744 18.2585 21.1778C17.1354 21.75 15.6653 21.75 12.725 21.75H12.025C9.08472 21.75 7.61459 21.75 6.49155 21.1778C5.5037 20.6744 4.70055 19.8713 4.19722 18.8835C3.625 17.7604 3.625 16.2903 3.625 13.35V12.65ZM12.025 6H12.725C14.224 6 15.243 6.00136 16.0307 6.06572C16.7979 6.1284 17.1903 6.24202 17.464 6.38148C18.1225 6.71703 18.658 7.25247 18.9935 7.91103C19.133 8.18473 19.2466 8.57709 19.3093 9.34432C19.3736 10.132 19.375 11.151 19.375 12.65V13.35C19.375 14.849 19.3736 15.868 19.3093 16.6557C19.2466 17.4229 19.133 17.8153 18.9935 18.089C18.658 18.7475 18.1225 19.283 17.464 19.6185C17.1903 19.758 16.7979 19.8716 16.0307 19.9343C15.243 19.9986 14.224 20 12.725 20H12.025C10.526 20 9.50697 19.9986 8.71932 19.9343C7.95209 19.8716 7.55973 19.758 7.28603 19.6185C6.62747 19.283 6.09203 18.7475 5.75648 18.089C5.61702 17.8153 5.5034 17.4229 5.44072 16.6557C5.37636 15.868 5.375 14.849 5.375 13.35V12.65C5.375 11.151 5.37636 10.132 5.44072 9.34432C5.5034 8.57709 5.61702 8.18473 5.75648 7.91103C6.09203 7.25247 6.62747 6.71703 7.28603 6.38148C7.55973 6.24202 7.95209 6.1284 8.71932 6.06572C9.50697 6.00136 10.526 6 12.025 6Z" fill="white"/>
</svg>
