<svg width="17" height="15" viewBox="0 0 17 15" fill="none" xmlns="http://www.w3.org/2000/svg">
<path d="M5.3457 14.1667H2.01237C1.57034 14.1667 1.14642 13.9911 0.833859 13.6786C0.521298 13.366 0.345703 12.9421 0.345703 12.5V2.50004C0.345703 2.05801 0.521298 1.63409 0.833859 1.32153C1.14642 1.00897 1.57034 0.833374 2.01237 0.833374H5.3457V2.50004H2.01237V12.5H5.3457V14.1667Z" fill="#53BD6F"/>
<path d="M9.78474 12.9876L10.9681 11.8143L7.70141 8.52015H15.3214C15.5424 8.52015 16.1547 8.52015 16.1547 8.52015V7.68681V6.85348C16.1547 6.85348 15.5424 6.85348 15.3214 6.85348H7.68641L11.0031 3.56431L9.82974 2.38098L4.50391 7.66181L9.78474 12.9876Z" fill="#53BD6F"/>
</svg>
