<svg width="20" height="21" viewBox="0 0 20 21" fill="none" xmlns="http://www.w3.org/2000/svg">
<path d="M5 18.8334H17.5V17.1667H5.01C4.625 17.1567 4.16667 17.0042 4.16667 16.3334C4.16667 15.6626 4.625 15.5101 5.01 15.5001H17.5V3.83341C17.5 2.91425 16.7525 2.16675 15.8333 2.16675H5C3.995 2.16675 2.5 2.83258 2.5 4.66675V16.3334C2.5 18.1676 3.995 18.8334 5 18.8334ZM4.16667 7.16675V4.66675C4.16667 3.99591 4.625 3.84341 5 3.83341H15.8333V13.8334H4.16667V7.16675Z" fill="#53BD6F"/>
<path d="M6.66797 5.5H14.168V7.16667H6.66797V5.5Z" fill="#53BD6F"/>
</svg>
