<svg width="20" height="20" viewBox="0 0 20 20" xmlns="http://www.w3.org/2000/svg">
<path d="M10 9C8.87498 9 7.94658 8.61646 7.15768 7.82987C6.36889 7.04339 5.98534 6.11908 5.98534 5C5.98534 3.88092 6.36889 2.95662 7.15768 2.17013C7.94658 1.38354 8.87498 1 10 1C11.125 1 12.0534 1.38354 12.8423 2.17013C13.6311 2.95662 14.0147 3.88092 14.0147 5C14.0147 6.11908 13.6311 7.04339 12.8423 7.82987C12.0534 8.61646 11.125 9 10 9ZM10 13.5146C11.1385 13.5146 12.4188 13.677 13.8464 14.0142C15.225 14.3397 16.4766 14.8707 17.6082 15.605C18.6932 16.309 19 16.947 19 17.4854V19H1V17.4854C1 16.947 1.3068 16.309 2.39184 15.6049C3.52336 14.8707 4.77502 14.3397 6.15358 14.0142C7.58124 13.677 8.86154 13.5146 10 13.5146Z" />
</svg>
