<svg width="16" height="16" viewBox="0 0 16 16" fill="none" xmlns="http://www.w3.org/2000/svg">
<path d="M13.6 3.6C13.6 4.26274 13.0627 4.8 12.4 4.8C11.7373 4.8 11.2 4.26274 11.2 3.6C11.2 2.93726 11.7373 2.4 12.4 2.4C13.0627 2.4 13.6 2.93726 13.6 3.6Z" fill="white"/>
<path fill-rule="evenodd" clip-rule="evenodd" d="M8 12C10.2091 12 12 10.2091 12 8C12 5.79086 10.2091 4 8 4C5.79086 4 4 5.79086 4 8C4 10.2091 5.79086 12 8 12ZM8 10.4C9.32548 10.4 10.4 9.32548 10.4 8C10.4 6.67452 9.32548 5.6 8 5.6C6.67452 5.6 5.6 6.67452 5.6 8C5.6 9.32548 6.67452 10.4 8 10.4Z" fill="white"/>
<path fill-rule="evenodd" clip-rule="evenodd" d="M0 7.68C0 4.99175 0 3.64762 0.523169 2.62085C0.983361 1.71767 1.71767 0.983361 2.62085 0.523169C3.64762 0 4.99175 0 7.68 0H8.32C11.0083 0 12.3524 0 13.3792 0.523169C14.2823 0.983361 15.0166 1.71767 15.4768 2.62085C16 3.64762 16 4.99175 16 7.68V8.32C16 11.0083 16 12.3524 15.4768 13.3792C15.0166 14.2823 14.2823 15.0166 13.3792 15.4768C12.3524 16 11.0083 16 8.32 16H7.68C4.99175 16 3.64762 16 2.62085 15.4768C1.71767 15.0166 0.983361 14.2823 0.523169 13.3792C0 12.3524 0 11.0083 0 8.32V7.68ZM7.68 1.6H8.32C9.69053 1.6 10.6222 1.60124 11.3423 1.66008C12.0438 1.71739 12.4025 1.82128 12.6528 1.94878C13.2549 2.25557 13.7444 2.74511 14.0512 3.34723C14.1787 3.59747 14.2826 3.9562 14.3399 4.65766C14.3988 5.3778 14.4 6.30947 14.4 7.68V8.32C14.4 9.69053 14.3988 10.6222 14.3399 11.3423C14.2826 12.0438 14.1787 12.4025 14.0512 12.6528C13.7444 13.2549 13.2549 13.7444 12.6528 14.0512C12.4025 14.1787 12.0438 14.2826 11.3423 14.3399C10.6222 14.3988 9.69053 14.4 8.32 14.4H7.68C6.30947 14.4 5.3778 14.3988 4.65766 14.3399C3.9562 14.2826 3.59747 14.1787 3.34723 14.0512C2.74511 13.7444 2.25557 13.2549 1.94878 12.6528C1.82128 12.4025 1.71739 12.0438 1.66008 11.3423C1.60124 10.6222 1.6 9.69053 1.6 8.32V7.68C1.6 6.30947 1.60124 5.3778 1.66008 4.65766C1.71739 3.9562 1.82128 3.59747 1.94878 3.34723C2.25557 2.74511 2.74511 2.25557 3.34723 1.94878C3.59747 1.82128 3.9562 1.71739 4.65766 1.66008C5.3778 1.60124 6.30947 1.6 7.68 1.6Z" fill="white"/>
</svg>
