<svg width="20" height="21" viewBox="0 0 20 21" fill="none" xmlns="http://www.w3.org/2000/svg">
<path d="M1.66797 3.83341V15.5001L5.83464 12.1667C5.83464 12.1667 6.30714 12.1667 6.66797 12.1667H13.3346C13.7767 12.1667 15.0013 12.1667 15.0013 12.1667C15.0013 12.1667 15.0013 10.9421 15.0013 10.5001V3.83341C15.0013 3.39139 15.0013 2.58341 15.0013 2.16679C14.5846 2.16675 13.7767 2.16675 13.3346 2.16675H3.33464C2.89261 2.16675 1.66797 2.16675 1.66797 2.16675C1.66797 2.16675 1.66797 3.39139 1.66797 3.83341ZM3.33464 12.1667V3.83341H13.3346V10.5001H6.11297C5.75219 10.4991 5.0013 10.5001 5.0013 10.5001L3.33464 12.1667Z" fill="#53BD6F"/>
<path d="M18.3359 18.8335V8.00016C18.3359 7.55814 18.3359 6.3335 18.3359 6.3335C18.3359 6.3335 17.1113 6.3335 16.6693 6.3335V15.5002L15.0026 13.8335C15.0026 13.8335 14.2517 13.8325 13.8909 13.8335H5.83594C5.83594 14.0524 5.83594 14.2502 5.83594 14.6668C5.83595 14.9125 5.83594 15.5002 5.83594 15.5002C5.83594 15.5002 6.2526 15.5002 6.66927 15.5002C7.08594 15.5002 7.28373 15.5002 7.5026 15.5002H13.3359C13.6968 15.5002 14.1693 15.5002 14.1693 15.5002L18.3359 18.8335Z" fill="#53BD6F"/>
</svg>
