<svg width="80" height="80" viewBox="0 0 80 80" fill="none" xmlns="http://www.w3.org/2000/svg">
<path d="M80.0124 23.4886L79.5679 23.933C77.7277 25.773 75.2607 27.3463 72.2026 27.3463C70.8251 27.3315 69.4646 27.0398 68.2021 26.4886L57.1965 42.5419C60.8902 50.1375 60.3079 57.813 55.014 63.0886L54.5695 63.533L42.2926 51.2397L6.49307 79.9997L4.13281 77.6397L32.896 41.8352L20.6102 29.5552L21.0547 29.1108C26.3264 23.8397 34.0028 23.2352 41.5947 26.9419L57.6632 15.9286C55.5563 10.9775 57.6232 7.15079 60.2146 4.55968L60.6591 4.11523L80.0124 23.4886Z" fill="#12323E"/>
<path d="M74.9957 19.3598C72.0576 22.302 68.3283 23.6353 63.8611 21.5598L52.3487 38.3509C56.2247 46.0753 55.3402 53.6264 50.4463 58.5198L17.3359 25.422C22.2254 20.5331 29.7818 19.6442 37.4982 23.5198L54.3089 11.9998C52.2332 7.55534 53.5666 3.81312 56.5092 0.888672L74.9957 19.3598Z" fill="#015DFF"/>
<path d="M38.2056 46.2799L2.40608 75.0399L0.828125 73.4621L29.5869 37.6621L38.2056 46.2799Z" fill="white"/>
<path d="M56.5085 0L56.064 0.444444C53.4771 3.03111 51.4102 6.86222 53.5126 11.8133L37.4575 22.8133C29.8611 19.1111 22.1847 19.7022 16.913 24.9867L16.4685 25.4311L28.7588 37.7067L0 73.5067L2.36026 75.8667L38.1598 47.1111L50.4456 59.3956L50.8901 58.9511C56.1618 53.68 56.7663 46 53.0681 38.4044L64.0782 22.3467C65.34 22.9007 66.7007 23.194 68.0787 23.2089C71.1368 23.2089 73.5993 21.6356 75.4439 19.7911L75.8884 19.3467L56.5085 0ZM2.44916 74.2222L1.65796 73.4311L29.6344 38.5867L37.2797 46.2222L2.44916 74.2222ZM50.4545 57.6489L18.2242 25.4311C22.9314 21.0978 29.5766 20.5956 36.2707 23.6222C36.7152 23.8133 37.1197 24.0178 37.5464 24.2444C40.5254 25.8271 43.2434 27.8582 45.6051 30.2667C48.0096 32.6285 50.0405 35.3425 51.628 38.3156C51.8502 38.76 52.0725 39.1689 52.2458 39.5956C55.2728 46.2844 54.7705 52.9333 50.4367 57.6356L50.4545 57.6489ZM52.4325 37.1778C50.8307 34.32 48.833 31.703 46.4985 29.4044C44.197 27.0702 41.5784 25.0713 38.7199 23.4667L54.0771 12.9422C55.1127 14.7943 56.4158 16.4836 57.9442 17.9556C59.4172 19.4829 61.1065 20.7857 62.9581 21.8222L52.4325 37.1778ZM64.7983 21.3156C64.4114 21.1627 64.0331 20.9891 63.6649 20.7956C61.8704 19.8103 60.2354 18.5591 58.8154 17.0844C57.3409 15.6662 56.0895 14.0328 55.1039 12.24C54.9037 11.874 54.7242 11.4971 54.5661 11.1111C53.2326 7.76889 53.886 4.64444 56.5174 1.77778L74.1149 19.3689C71.2524 21.9822 68.1276 22.6311 64.7805 21.3022L64.7983 21.3156Z" fill="#12323E"/>
</svg>
