<svg width="20" height="20" viewBox="0 0 20 20" fill="none" xmlns="http://www.w3.org/2000/svg">
<path d="M1.6665 3.33366V15.0003L5.83317 11.667C5.83317 11.667 6.30567 11.667 6.6665 11.667H13.3332C13.7752 11.667 14.9998 11.667 14.9998 11.667C14.9998 11.667 14.9998 10.4424 14.9998 10.0003V3.33366C14.9998 2.89163 14.9998 2.08366 14.9998 1.66703C14.5832 1.66699 13.7752 1.66699 13.3332 1.66699H3.33317C2.89114 1.66699 1.6665 1.66699 1.6665 1.66699C1.6665 1.66699 1.6665 2.89163 1.6665 3.33366ZM3.33317 11.667V3.33366H13.3332V10.0003H6.1115C5.75073 9.99936 4.99984 10.0003 4.99984 10.0003L3.33317 11.667Z" fill="#EC5239"/>
<path d="M18.333 18.334V7.50065C18.333 7.05862 18.333 5.83398 18.333 5.83398C18.333 5.83398 17.1084 5.83398 16.6663 5.83398V15.0007L14.9997 13.334C14.9997 13.334 14.2488 13.333 13.888 13.334H5.83301C5.83301 13.5529 5.83301 13.7507 5.83301 14.1673C5.83302 14.413 5.83301 15.0007 5.83301 15.0007C5.83301 15.0007 6.24967 15.0007 6.66634 15.0007C7.08301 15.0007 7.2808 15.0007 7.49967 15.0007H13.333C13.6938 15.0007 14.1663 15.0007 14.1663 15.0007L18.333 18.334Z" fill="#EC5239"/>
</svg>
