<svg width="20" height="20" viewBox="0 0 20 20" fill="none" xmlns="http://www.w3.org/2000/svg">
<path d="M11.3097 2.5C9.22584 2.5 7.22735 3.3278 5.75385 4.8013C4.28035 6.2748 3.45254 8.2733 3.45254 10.3571H0.833496L4.22953 13.7532L4.29064 13.8754L7.81762 10.3571H5.19858C5.19858 6.97857 7.93111 4.24603 11.3097 4.24603C14.6883 4.24603 17.4208 6.97857 17.4208 10.3571C17.4208 13.7357 14.6883 16.4683 11.3097 16.4683C9.62477 16.4683 8.09699 15.7786 6.99699 14.6698L5.75731 15.9095C6.48489 16.6411 7.35011 17.2214 8.30307 17.617C9.25604 18.0126 10.2779 18.2156 11.3097 18.2143C13.3935 18.2143 15.392 17.3865 16.8655 15.913C18.339 14.4395 19.1668 12.441 19.1668 10.3571C19.1668 8.2733 18.339 6.2748 16.8655 4.8013C15.392 3.3278 13.3935 2.5 11.3097 2.5ZM10.4367 6.86508V11.2302L14.147 13.4302L14.8192 12.3127L11.7462 10.4881V6.86508H10.4367Z" fill="#EC5239"/>
</svg>
