<svg width="20" height="21" viewBox="0 0 20 21" fill="none" xmlns="http://www.w3.org/2000/svg">
<path d="M11.875 9.25H14.375V10.5H11.875V9.25Z" fill="#53BD6F"/>
<path d="M11.875 6.75H16.25V8H11.875V6.75Z" fill="#53BD6F"/>
<path d="M5.625 11.75H9.375C9.87228 11.75 11.25 11.75 11.25 11.75C11.25 11.75 11.25 13.1277 11.25 13.625V14.875H10V13.625C10 13.4592 10 13 10 13C10 13 9.54076 13 9.375 13H5.625C5.45924 13 5 13 5 13C5 13 5 13.4592 5 13.625V14.875H3.75V13.625C3.75 13.1277 3.75 11.75 3.75 11.75C3.75 11.75 5.12772 11.75 5.625 11.75Z" fill="#53BD6F"/>
<path d="M10 8.625C10 8.13055 9.85338 7.6472 9.57867 7.23607C9.30397 6.82495 8.91352 6.50452 8.45671 6.3153C7.99989 6.12608 7.49723 6.07657 7.01227 6.17304C6.52732 6.2695 6.08186 6.5076 5.73223 6.85723C5.3826 7.20686 5.1445 7.65232 5.04804 8.13727C4.95157 8.62223 5.00108 9.12489 5.1903 9.58171C5.37952 10.0385 5.69995 10.429 6.11107 10.7037C6.5222 10.9784 7.00555 11.125 7.5 11.125C8.16304 11.125 8.79893 10.8616 9.26777 10.3928C9.73661 9.92393 10 9.28804 10 8.625ZM8.75 8.625C8.75 8.87223 8.67669 9.1139 8.53934 9.31946C8.40199 9.52502 8.20676 9.68524 7.97835 9.77985C7.74995 9.87446 7.49861 9.89921 7.25614 9.85098C7.01366 9.80275 6.79093 9.6837 6.61612 9.50888C6.4413 9.33407 6.32225 9.11134 6.27402 8.86886C6.22579 8.62639 6.25054 8.37505 6.34515 8.14665C6.43976 7.91824 6.59998 7.72301 6.80554 7.58566C7.0111 7.44831 7.25277 7.375 7.5 7.375C7.83152 7.375 8.14946 7.5067 8.38388 7.74112C8.6183 7.97554 8.75 8.29348 8.75 8.625Z" fill="#53BD6F"/>
<path d="M17.5 16.75H2.5V4.25H17.5V18H18.75V4.25C18.75 3.91848 18.75 3 18.75 3C18.75 3 17.8315 3 17.5 3H2.5C2.16848 3 1.25 3 1.25 3C1.25 3 1.25 3.91848 1.25 4.25V16.75C1.25 17.0815 1.25 18 1.25 18C1.25 18 2.16848 18 2.5 18H17.5V16.75Z" fill="#53BD6F"/>
</svg>
