<svg width="20" height="20" viewBox="0 0 20 20" fill="none" xmlns="http://www.w3.org/2000/svg">
<path d="M13.375 12.55C13.196 12.55 13.0243 12.6211 12.8977 12.7477C12.7711 12.8743 12.7 13.046 12.7 13.225C12.7 13.404 12.7711 13.5757 12.8977 13.7023C13.0243 13.8289 13.196 13.9 13.375 13.9H15.625C15.804 13.9 15.9757 13.8289 16.1023 13.7023C16.2289 13.5757 16.3 13.404 16.3 13.225C16.3 13.046 16.2289 12.8743 16.1023 12.7477C15.9757 12.6211 15.804 12.55 15.625 12.55H13.375Z" fill="#EC5239"/>
<path d="M3.475 4C2.81859 4 1 4 1 4C1 4 1 5.81859 1 6.475V14.125C1 14.7814 1 16.6 1 16.6C1 16.6 2.81859 16.6 3.475 16.6H16.525C17.1814 16.6 19 16.6 19 16.6C19 16.6 19 14.7814 19 14.125V6.475C19 5.81859 19 4 19 4C19 4 17.1814 4 16.525 4H3.475ZM2.35 14.125V9.4H17.65V14.125C17.65 14.4355 17.65 15.25 17.65 15.25C17.65 15.25 16.8355 15.25 16.525 15.25H3.475C3.17515 15.25 2.35 15.25 2.35 15.25C2.35 15.25 2.35 14.4462 2.35 14.125ZM2.35 8.05V6.475C2.35 6.17426 2.35 5.35 2.35 5.35C2.35 5.35 3.15474 5.35 3.475 5.35H16.525C16.8433 5.35 17.65 5.35 17.65 5.35C17.65 5.35 17.65 6.17227 17.65 6.475V8.05H2.35Z" fill="#EC5239"/>
</svg>
