<svg width="16" height="14" viewBox="0 0 16 14" fill="none" xmlns="http://www.w3.org/2000/svg">
<path d="M5.09521 13.6663H1.76188C1.31985 13.6663 0.895931 13.4907 0.58337 13.1782C0.27081 12.8656 0.0952148 12.4417 0.0952148 11.9997V1.99967C0.0952148 1.55765 0.27081 1.13372 0.58337 0.821163C0.895931 0.508602 1.31985 0.333008 1.76188 0.333008H5.09521V1.99967H1.76188V11.9997H5.09521V13.6663Z" fill="#EC5239"/>
<path d="M9.53523 12.4875L10.7186 11.3142L7.45189 8.02003H15.0719C15.2929 8.02003 15.9052 8.02003 15.9052 8.02003V7.18669V6.35336C15.9052 6.35336 15.2929 6.35336 15.0719 6.35336H7.43689L10.7536 3.06419L9.58023 1.88086L4.25439 7.16169L9.53523 12.4875Z" fill="#EC5239"/>
</svg>
