<svg width="16" height="18" viewBox="0 0 16 18" fill="none" xmlns="http://www.w3.org/2000/svg">
<path d="M15.12 7.92H13.59V2.88C13.59 1.28925 12.3008 0 10.71 0H5.13C3.53925 0 2.25 1.28925 2.25 2.88V7.92H0.72C0.32175 7.92 0 8.24175 0 8.64V17.28C0 17.6783 0.32175 18 0.72 18H15.12C15.5183 18 15.84 17.6783 15.84 17.28V8.64C15.84 8.24175 15.5183 7.92 15.12 7.92ZM3.87 2.88C3.87 2.18475 4.43475 1.62 5.13 1.62H10.71C11.4053 1.62 11.97 2.18475 11.97 2.88V7.92H3.87V2.88ZM14.22 16.38H1.62V9.54H14.22V16.38ZM7.29 13.2525V14.445C7.29 14.544 7.371 14.625 7.47 14.625H8.37C8.469 14.625 8.55 14.544 8.55 14.445V13.2525C8.73573 13.1192 8.87436 12.9303 8.94593 12.7132C9.01751 12.496 9.01833 12.2618 8.94829 12.0441C8.87825 11.8265 8.74096 11.6366 8.55617 11.502C8.37139 11.3673 8.14864 11.2948 7.92 11.2948C7.69136 11.2948 7.46861 11.3673 7.28383 11.502C7.09904 11.6366 6.96175 11.8265 6.89171 12.0441C6.82167 12.2618 6.82249 12.496 6.89407 12.7132C6.96564 12.9303 7.10427 13.1192 7.29 13.2525Z" fill="#EC5239"/>
</svg>
