<svg width="20" height="20" viewBox="0 0 20 20" xmlns="http://www.w3.org/2000/svg">
<path d="M3.61111 3.88867H14.1667C14.3877 3.88867 14.5996 3.97647 14.7559 4.13275C14.9122 4.28903 15 4.50099 15 4.72201V18.0553C15 18.2764 14.9122 18.4883 14.7559 18.6446C14.5996 18.8009 14.3877 18.8887 14.1667 18.8887H3.61111C3.3901 18.8887 3.17814 18.8009 3.02186 18.6446C2.86558 18.4883 2.77778 18.2764 2.77778 18.0553V4.72201C2.77778 4.50099 2.86558 4.28903 3.02186 4.13275C3.17814 3.97647 3.3901 3.88867 3.61111 3.88867ZM3.88889 17.7776H13.8889V4.99978H3.88889V17.7776Z" />
<path d="M5.55512 1.94466C5.55512 1.72365 5.64292 1.51169 5.7992 1.35541C5.95548 1.19913 6.16744 1.11133 6.38845 1.11133H16.944C17.165 1.11133 17.377 1.19913 17.5333 1.35541C17.6895 1.51169 17.7773 1.72365 17.7773 1.94466V15.278C17.7773 15.499 17.6895 15.711 17.5333 15.8673C17.377 16.0235 17.165 16.1113 16.944 16.1113H16.6662V2.22244H5.55512V1.94466Z" />
</svg>
