<svg width="18" height="17" viewBox="0 0 18 17" fill="none" xmlns="http://www.w3.org/2000/svg">
<path d="M16.6977 2.90705L9.19766 0.407048C9.06935 0.364317 8.93065 0.364317 8.80234 0.407048L1.31438 2.90314L1.31359 2.90338L1.30234 2.90713C1.30016 2.90791 1.2982 2.90908 1.29609 2.90986C1.269 2.91916 1.24258 2.93033 1.21703 2.9433C1.21414 2.94486 1.21109 2.94603 1.2082 2.94759C1.18294 2.96109 1.15864 2.97631 1.13547 2.99314C1.13039 2.99682 1.12536 3.00057 1.12039 3.00439C1.09782 3.02145 1.07641 3.04001 1.05633 3.05994C1.05453 3.06189 1.05289 3.06392 1.05109 3.0658C1.0326 3.08507 1.01535 3.1055 0.999453 3.12697C0.996172 3.13134 0.992813 3.13556 0.989688 3.14002C0.973285 3.1632 0.958485 3.18747 0.945391 3.21267C0.943359 3.21658 0.941641 3.22049 0.939687 3.22439C0.927466 3.24911 0.916896 3.27461 0.908047 3.30072C0.907266 3.30314 0.906172 3.30549 0.905391 3.30799C0.896568 3.33573 0.889703 3.36405 0.884844 3.39275C0.883828 3.39877 0.882969 3.40478 0.882109 3.41072C0.877614 3.44028 0.875239 3.47012 0.875 3.50002V9.75002C0.875 9.91578 0.940848 10.0747 1.05806 10.192C1.17527 10.3092 1.33424 10.375 1.5 10.375C1.66576 10.375 1.82473 10.3092 1.94194 10.192C2.05915 10.0747 2.125 9.91578 2.125 9.75002V4.3672L4.74883 5.24181C4.05326 6.36498 3.83069 7.71786 4.12979 9.00467C4.42888 10.2915 5.2253 11.4075 6.34492 12.1088C4.85402 12.6725 3.58181 13.6971 2.71328 15.0336C2.66733 15.1023 2.63548 15.1795 2.61956 15.2607C2.60365 15.3418 2.60399 15.4253 2.62057 15.5063C2.63715 15.5873 2.66963 15.6642 2.71615 15.7325C2.76266 15.8009 2.82227 15.8593 2.89153 15.9045C2.96079 15.9497 3.03832 15.9806 3.11963 15.9956C3.20094 16.0106 3.28442 16.0093 3.36522 15.9918C3.44603 15.9743 3.52255 15.9409 3.59037 15.8936C3.65819 15.8463 3.71595 15.786 3.76031 15.7163C4.32812 14.844 5.10474 14.1272 6.01971 13.631C6.93468 13.1349 7.95905 12.875 8.99988 12.875C10.0407 12.875 11.0651 13.1349 11.9801 13.631C12.895 14.1272 13.6716 14.844 14.2395 15.7163C14.2841 15.7855 14.3419 15.8452 14.4097 15.892C14.4775 15.9388 14.5538 15.9717 14.6343 15.9889C14.7149 16.0061 14.798 16.0072 14.879 15.9921C14.9599 15.9771 15.0371 15.9462 15.1061 15.9012C15.1751 15.8563 15.2345 15.7981 15.281 15.7301C15.3274 15.6621 15.3599 15.5856 15.3767 15.5049C15.3935 15.4243 15.3941 15.3412 15.3787 15.2603C15.3632 15.1794 15.3319 15.1024 15.2866 15.0336C14.418 13.6972 13.1459 12.6726 11.655 12.1088C12.7746 11.4076 13.5711 10.2915 13.8702 9.00471C14.1693 7.71789 13.9467 6.36499 13.2511 5.24181L16.6977 4.09299C16.8221 4.05152 16.9304 3.97194 17.0071 3.86551C17.0839 3.75909 17.1251 3.63122 17.1251 3.50002C17.1251 3.36882 17.0839 3.24095 17.0071 3.13452C16.9304 3.02809 16.8221 2.94851 16.6977 2.90705V2.90705ZM12.75 7.87502C12.7502 8.46786 12.6097 9.0523 12.3403 9.58037C12.0708 10.1084 11.68 10.5651 11.1999 10.9129C10.7198 11.2607 10.1641 11.4897 9.57831 11.5811C8.99255 11.6725 8.39347 11.6238 7.83021 11.4388C7.26694 11.2539 6.75555 10.9381 6.33799 10.5172C5.92043 10.0964 5.6086 9.58254 5.42808 9.01784C5.24756 8.45315 5.20349 7.8537 5.2995 7.26868C5.39551 6.68366 5.62885 6.12974 5.98039 5.65236L8.80234 6.59299C8.93065 6.63572 9.06935 6.63572 9.19766 6.59299L12.0196 5.65236C12.4946 6.29603 12.7506 7.07507 12.75 7.87502V7.87502ZM12.0236 4.33338C12.022 4.33392 12.0205 4.33431 12.0189 4.33494L9 5.34119L5.98102 4.33494C5.97945 4.33431 5.97789 4.33384 5.97633 4.33338L3.47648 3.50002L9 1.65884L14.5236 3.50002L12.0236 4.33338Z" fill="#53BD6F"/>
</svg>
