<svg width="82" height="14" viewBox="0 0 82 14" fill="none" xmlns="http://www.w3.org/2000/svg">
<path d="M31.2482 4.89591C31.7515 4.39265 32.026 3.66062 32.026 2.92859C32.026 1.32729 30.6992 0.000488281 29.0979 0.000488281H24.1109H22.9214V1.09853H24.1109V13.6802H30.0129C31.2024 13.6802 32.3462 13.2227 33.1698 12.3534C33.9933 11.5299 34.4966 10.3861 34.4966 9.19657C34.4966 8.00702 34.039 6.90899 33.1698 6.0397C32.6665 5.53644 31.9802 5.12467 31.2482 4.89591ZM25.2547 1.09853H29.0979C30.1044 1.09853 30.9279 1.92206 30.9279 2.92859C30.9279 3.84363 30.2416 4.6214 29.3724 4.75866H25.2547V1.09853ZM30.0129 12.5822H25.2547V5.8567C29.2809 5.8567 29.3266 5.8567 29.4181 5.8567H30.0586C31.9345 5.8567 33.3985 7.3665 33.3985 9.19657C33.3985 11.0724 31.8887 12.5822 30.0129 12.5822Z" fill="#14213D"/>
<path d="M44.4694 0L39.208 13.6797H40.4433L42.0904 9.37909H48.0381L49.6394 13.5425L49.6851 13.6797H50.9204L45.659 0H44.4694ZM42.5021 8.23529L45.0642 1.55556L47.6263 8.23529H42.5021Z" fill="#14213D"/>
<path d="M55.6338 1.09804H63.5031L55.6795 12.6275L55.6338 12.6732V13.6797H64.9671V12.5817H57.0978L64.9214 1.00654L64.9671 0.960784V0H55.6338V1.09804Z" fill="#14213D"/>
<path d="M80.2024 0H79.0586V8.78431C79.0586 11.0719 77.1828 12.9477 74.8952 12.9477C72.6076 12.9477 70.7776 11.0719 70.7776 8.78431V0H69.6338V8.78431C69.6338 10.2026 70.1828 11.5294 71.1893 12.4902C72.1501 13.4967 73.4769 14 74.8952 14C76.3135 14 77.6403 13.451 78.6469 12.4902C79.6076 11.4837 80.2024 10.1569 80.2024 8.78431V1.09804H81.392V0H80.2024Z" fill="#14213D"/>
<path d="M11.3922 0.000488281H2.24183C1.00654 0.000488281 0 1.00702 0 2.24232V11.3926C0 12.6279 1.00654 13.6345 2.24183 13.6345H11.3922C12.6275 13.6345 13.634 12.6279 13.634 11.3926V2.24232C13.634 1.00702 12.6275 0.000488281 11.3922 0.000488281ZM12.4902 11.3926C12.4902 12.0332 11.9869 12.5364 11.3464 12.5364H2.19608C1.55556 12.5364 1.05229 12.0332 1.05229 11.3926V2.24232C1.05229 1.6018 1.55556 1.09853 2.19608 1.09853H11.3464C11.9869 1.09853 12.4902 1.6018 12.4902 2.24232V11.3926Z" fill="#F7CD46"/>
<path d="M9.92915 3.61426H3.52393V4.66655H9.92915V3.61426Z" fill="#F7CD46"/>
<path d="M8.2821 6.26758H3.52393V7.31987H8.2821C8.73961 7.31987 9.05987 7.68588 9.05987 8.09764C9.05987 8.55516 8.69386 8.87542 8.2821 8.87542H3.52393V9.92771H8.2821C9.28863 9.92771 10.1579 9.10418 10.1579 8.05189C10.1579 7.13686 9.33438 6.26758 8.2821 6.26758Z" fill="#F7CD46"/>
</svg>
