<svg width="14" height="14" viewBox="0 0 14 14" fill="none" xmlns="http://www.w3.org/2000/svg">
<path d="M7 13C3.6862 13 1 10.3138 1 7C1 3.6862 3.6862 1 7 1C10.3138 1 13 3.6862 13 7C12.9964 10.312 10.312 12.9964 7 13ZM2.2 7.1032C2.21364 8.3717 2.72887 9.58321 3.63309 10.473C4.5373 11.3627 5.75697 11.8583 7.02552 11.8515C8.29407 11.8447 9.50835 11.336 10.4029 10.4366C11.2975 9.53716 11.7997 8.32017 11.7997 7.0516C11.7997 5.78303 11.2975 4.56604 10.4029 3.66662C9.50835 2.7672 8.29407 2.25849 7.02552 2.25167C5.75697 2.24485 4.5373 2.74048 3.63309 3.63023C2.72887 4.51999 2.21364 5.7315 2.2 7V7.1032Z" fill="#59C676"/>
<path d="M2.2 7.1032C2.21364 8.3717 2.72887 9.58321 3.63309 10.473C4.5373 11.3627 5.75697 11.8583 7.02552 11.8515C8.29407 11.8447 9.50835 11.336 10.4029 10.4366C11.2975 9.53716 11.7997 8.32017 11.7997 7.0516C11.7997 5.78303 11.2975 4.56604 10.4029 3.66662C9.50835 2.7672 8.29407 2.25849 7.02552 2.25167C5.75697 2.24485 4.5373 2.74048 3.63309 3.63023C2.72887 4.51999 2.21364 5.7315 2.2 7V7.1032Z" fill="#59C676"/>
<path d="M9.42247 3.91406L6.19073 8.17483L4.28007 6.26554L3.39844 7.14717L6.33675 10.0855L10.4515 4.7957L9.42247 3.91406Z" fill="white"/>
</svg>
