<svg width="21" height="21" viewBox="0 0 21 21" fill="none" xmlns="http://www.w3.org/2000/svg">
<path d="M13.4297 13.05C13.2507 13.05 13.079 13.1211 12.9524 13.2477C12.8258 13.3743 12.7547 13.546 12.7547 13.725C12.7547 13.904 12.8258 14.0757 12.9524 14.2023C13.079 14.3289 13.2507 14.4 13.4297 14.4H15.6797C15.8587 14.4 16.0304 14.3289 16.157 14.2023C16.2836 14.0757 16.3547 13.904 16.3547 13.725C16.3547 13.546 16.2836 13.3743 16.157 13.2477C16.0304 13.1211 15.8587 13.05 15.6797 13.05H13.4297Z" fill="#53BD6F"/>
<path d="M3.52969 4.5C2.87328 4.5 1.05469 4.5 1.05469 4.5C1.05469 4.5 1.05469 6.31859 1.05469 6.975V14.625C1.05469 15.2814 1.05469 17.1 1.05469 17.1C1.05469 17.1 2.87328 17.1 3.52969 17.1H16.5797C17.2361 17.1 19.0547 17.1 19.0547 17.1C19.0547 17.1 19.0547 15.2814 19.0547 14.625V6.975C19.0547 6.31859 19.0547 4.5 19.0547 4.5C19.0547 4.5 17.2361 4.5 16.5797 4.5H3.52969ZM2.40469 14.625V9.9H17.7047V14.625C17.7047 14.9355 17.7047 15.75 17.7047 15.75C17.7047 15.75 16.8902 15.75 16.5797 15.75H3.52969C3.22984 15.75 2.40469 15.75 2.40469 15.75C2.40469 15.75 2.40469 14.9462 2.40469 14.625ZM2.40469 8.55V6.975C2.40469 6.67426 2.40469 5.85 2.40469 5.85C2.40469 5.85 3.20942 5.85 3.52969 5.85H16.5797C16.898 5.85 17.7047 5.85 17.7047 5.85C17.7047 5.85 17.7047 6.67227 17.7047 6.975V8.55H2.40469Z" fill="#53BD6F"/>
</svg>
