<svg width="16" height="16" viewBox="0 0 16 16" fill="none" xmlns="http://www.w3.org/2000/svg">
<path d="M5.17341 5.1735C5.54392 4.80119 5.98442 4.50584 6.46954 4.30447C6.95466 4.1031 7.47483 3.99968 8.00008 4.00016V8.00016L10.8267 10.8268C9.26675 12.3868 6.73341 12.3868 5.16675 10.8268C4.79548 10.4555 4.50111 10.0145 4.30047 9.52925C4.09984 9.04398 3.99688 8.5239 3.9975 7.99878C3.99812 7.47366 4.1023 6.95383 4.30408 6.46903C4.50586 5.98423 4.80128 5.54398 5.17341 5.1735ZM8.00008 1.3335C11.6801 1.3335 14.6667 4.32016 14.6667 8.00016C14.6667 11.6802 11.6801 14.6668 8.00008 14.6668C4.32008 14.6668 1.33341 11.6802 1.33341 8.00016C1.33341 4.32016 4.32008 1.3335 8.00008 1.3335ZM8.00008 13.3335C10.9467 13.3335 13.3334 10.9468 13.3334 8.00016C13.3334 5.0535 10.9467 2.66683 8.00008 2.66683C5.05341 2.66683 2.66675 5.0535 2.66675 8.00016C2.66675 10.9468 5.05341 13.3335 8.00008 13.3335Z" fill="#EC5239"/>
</svg>
