<svg width="28" height="29" viewBox="0 0 28 29" fill="none" xmlns="http://www.w3.org/2000/svg">
<path d="M1.96394 9.21312C2.07641 7.48169 3.46845 6.12477 5.20141 6.03891C7.71084 5.91459 11.2975 5.76465 14 5.76465C16.7025 5.76465 20.2892 5.91459 22.7986 6.03891C24.5315 6.12477 25.9236 7.48169 26.0361 9.21312C26.1438 10.872 26.25 12.9131 26.25 14.5146C26.25 16.1162 26.1438 18.1573 26.0361 19.8162C25.9236 21.5476 24.5315 22.9045 22.7986 22.9904C20.2892 23.1147 16.7025 23.2646 14 23.2646C11.2975 23.2646 7.71084 23.1147 5.20141 22.9904C3.46845 22.9045 2.07641 21.5476 1.96394 19.8162C1.85619 18.1573 1.75 16.1162 1.75 14.5146C1.75 12.9131 1.85619 10.872 1.96394 9.21312Z" fill="#FC0D1B"/>
<path d="M11.375 11.0146V18.0146L18.375 14.5146L11.375 11.0146Z" fill="white"/>
</svg>
