<svg width="20" height="20" viewBox="0 0 20 20" fill="none" xmlns="http://www.w3.org/2000/svg">
<path d="M11.875 8.75H14.375V10H11.875V8.75Z" fill="#EC5239"/>
<path d="M11.875 6.25H16.25V7.5H11.875V6.25Z" fill="#EC5239"/>
<path d="M5.625 11.25H9.375C9.87228 11.25 11.25 11.25 11.25 11.25C11.25 11.25 11.25 12.6277 11.25 13.125V14.375H10V13.125C10 12.9592 10 12.5 10 12.5C10 12.5 9.54076 12.5 9.375 12.5H5.625C5.45924 12.5 5 12.5 5 12.5C5 12.5 5 12.9592 5 13.125V14.375H3.75V13.125C3.75 12.6277 3.75 11.25 3.75 11.25C3.75 11.25 5.12772 11.25 5.625 11.25Z" fill="#EC5239"/>
<path d="M10 8.125C10 7.63055 9.85338 7.1472 9.57867 6.73607C9.30397 6.32495 8.91352 6.00452 8.45671 5.8153C7.99989 5.62608 7.49723 5.57657 7.01227 5.67304C6.52732 5.7695 6.08186 6.0076 5.73223 6.35723C5.3826 6.70686 5.1445 7.15232 5.04804 7.63727C4.95157 8.12223 5.00108 8.62489 5.1903 9.08171C5.37952 9.53852 5.69995 9.92897 6.11107 10.2037C6.5222 10.4784 7.00555 10.625 7.5 10.625C8.16304 10.625 8.79893 10.3616 9.26777 9.89277C9.73661 9.42393 10 8.78804 10 8.125ZM8.75 8.125C8.75 8.37223 8.67669 8.6139 8.53934 8.81946C8.40199 9.02502 8.20676 9.18524 7.97835 9.27985C7.74995 9.37446 7.49861 9.39921 7.25614 9.35098C7.01366 9.30275 6.79093 9.1837 6.61612 9.00888C6.4413 8.83407 6.32225 8.61134 6.27402 8.36886C6.22579 8.12639 6.25054 7.87505 6.34515 7.64665C6.43976 7.41824 6.59998 7.22301 6.80554 7.08566C7.0111 6.94831 7.25277 6.875 7.5 6.875C7.83152 6.875 8.14946 7.0067 8.38388 7.24112C8.6183 7.47554 8.75 7.79348 8.75 8.125Z" fill="#EC5239"/>
<path d="M17.5 16.25H2.5V3.75H17.5V17.5H18.75V3.75C18.75 3.41848 18.75 2.5 18.75 2.5C18.75 2.5 17.8315 2.5 17.5 2.5H2.5C2.16848 2.5 1.25 2.5 1.25 2.5C1.25 2.5 1.25 3.41848 1.25 3.75V16.25C1.25 16.5815 1.25 17.5 1.25 17.5C1.25 17.5 2.16848 17.5 2.5 17.5H17.5V16.25Z" fill="#EC5239"/>
</svg>
