<svg width="47" height="54" viewBox="0 0 47 54" fill="none" xmlns="http://www.w3.org/2000/svg">
<path d="M34.0276 53.4205H34.4483V52.9999V18.3209V17.9002H34.0276H27.8427V11.7153V11.2947H27.4221H1H0.579365V11.7153V49.6971C0.579365 50.6846 0.97165 51.6317 1.66992 52.3299C2.3682 53.0282 3.31526 53.4205 4.30276 53.4205H34.0276ZM8.43122 48.4508C7.88582 48.4508 7.36275 48.2341 6.9771 47.8485C6.59144 47.4628 6.37478 46.9397 6.37478 46.3943C6.37478 45.8489 6.59144 45.3259 6.97709 44.9402L6.67966 44.6428L6.9771 44.9402C7.36275 44.5546 7.88582 44.3379 8.43122 44.3379C8.97662 44.3379 9.49968 44.5546 9.88534 44.9402C10.271 45.3259 10.4877 45.8489 10.4877 46.3943C10.4877 46.9397 10.271 47.4628 9.88534 47.8485C9.49968 48.2341 8.97662 48.4508 8.43122 48.4508ZM8.43122 39.3682C7.88582 39.3682 7.36275 39.1515 6.9771 38.7659C6.59144 38.3802 6.37478 37.8571 6.37478 37.3117C6.37478 36.7663 6.59144 36.2433 6.9771 35.8576C7.36275 35.472 7.88582 35.2553 8.43122 35.2553C8.97662 35.2553 9.49968 35.472 9.88534 35.8576C10.271 36.2433 10.4877 36.7663 10.4877 37.3117C10.4877 37.8571 10.271 38.3802 9.88534 38.7659C9.49968 39.1515 8.97662 39.3682 8.43122 39.3682ZM8.43122 30.2856C7.88582 30.2856 7.36275 30.0689 6.9771 29.6833C6.59144 29.2976 6.37478 28.7745 6.37478 28.2291C6.37478 27.6837 6.59144 27.1607 6.9771 26.775C7.36275 26.3894 7.88582 26.1727 8.43122 26.1727C8.97662 26.1727 9.49968 26.3894 9.88534 26.775C10.271 27.1607 10.4877 27.6837 10.4877 28.2291C10.4877 28.7745 10.271 29.2976 9.88534 29.6833C9.49968 30.0689 8.97662 30.2856 8.43122 30.2856Z" fill="#F0EAE8" stroke="#12323E" stroke-width="0.84127"/>
<path d="M34.4463 18.3209V17.9003H34.0256H27.8408V11.7154V11.2947H27.4201H4.72142V8.83323H36.9078V49.2765H34.4463V18.3209Z" fill="#015DFF" stroke="#12323E" stroke-width="0.84127"/>
<path d="M8.4341 30.7063C9.80215 30.7063 10.9112 29.5973 10.9112 28.2293C10.9112 26.8612 9.80215 25.7522 8.4341 25.7522C7.06605 25.7522 5.95703 26.8612 5.95703 28.2293C5.95703 29.5973 7.06605 30.7063 8.4341 30.7063Z" fill="#59C676"/>
<path d="M8.4341 39.7889C9.80215 39.7889 10.9112 38.6798 10.9112 37.3118C10.9112 35.9437 9.80215 34.8347 8.4341 34.8347C7.06605 34.8347 5.95703 35.9437 5.95703 37.3118C5.95703 38.6798 7.06605 39.7889 8.4341 39.7889Z" fill="#F6BF58"/>
<path d="M8.4341 48.8714C9.80215 48.8714 10.9112 47.7624 10.9112 46.3943C10.9112 45.0263 9.80215 43.9172 8.4341 43.9172C7.06605 43.9172 5.95703 45.0263 5.95703 46.3943C5.95703 47.7624 7.06605 48.8714 8.4341 48.8714Z" fill="#59C676"/>
<line x1="27.9693" y1="11.1703" x2="34.5748" y2="17.7759" stroke="#12323E" stroke-width="0.84127"/>
<line x1="14.2109" y1="28.2137" x2="29.0734" y2="28.2137" stroke="#12323E" stroke-width="1.68254"/>
<line x1="5.95703" y1="17.4795" x2="22.4708" y2="17.4795" stroke="#12323E" stroke-width="1.68254"/>
<line x1="5.95703" y1="21.6079" x2="22.4708" y2="21.6079" stroke="#12323E" stroke-width="1.68254"/>
<line x1="14.2109" y1="37.2962" x2="29.0734" y2="37.2962" stroke="#12323E" stroke-width="1.68254"/>
<line x1="14.2109" y1="46.3787" x2="29.0734" y2="46.3787" stroke="#12323E" stroke-width="1.68254"/>
<path d="M46.006 11.7778C46.006 18.0502 40.9212 23.1349 34.6489 23.1349C28.3765 23.1349 23.2917 18.0502 23.2917 11.7778C23.2917 5.5054 28.3765 0.420635 34.6489 0.420635C40.9212 0.420635 46.006 5.5054 46.006 11.7778Z" fill="#EC5239" stroke="#12323E" stroke-width="0.84127"/>
<path d="M35.4894 5.94769V5.04753H36.3307C36.5538 5.04753 36.7678 4.9589 36.9255 4.80113C37.0833 4.64336 37.1719 4.42938 37.1719 4.20626C37.1719 3.98314 37.0833 3.76916 36.9255 3.61139C36.7678 3.45362 36.5538 3.36499 36.3307 3.36499H32.9656C32.7425 3.36499 32.5285 3.45362 32.3707 3.61139C32.213 3.76916 32.1243 3.98314 32.1243 4.20626C32.1243 4.42938 32.213 4.64336 32.3707 4.80113C32.5285 4.9589 32.7425 5.04753 32.9656 5.04753H33.8069V5.94769C32.1083 6.16169 30.5551 7.01495 29.4635 8.33379C28.3719 9.65263 27.824 11.3379 27.9312 13.0465C28.0384 14.7552 28.7927 16.3587 30.0406 17.5307C31.2885 18.7028 32.9361 19.3552 34.6481 19.3552C36.3601 19.3552 38.0078 18.7028 39.2557 17.5307C40.5036 16.3587 41.2579 14.7552 41.3651 13.0465C41.4723 11.3379 40.9243 9.65263 39.8327 8.33379C38.7411 7.01495 37.188 6.16169 35.4894 5.94769ZM34.6481 17.6666C33.6498 17.6666 32.6739 17.3705 31.8438 16.8159C31.0138 16.2613 30.3668 15.4729 29.9847 14.5506C29.6027 13.6283 29.5027 12.6134 29.6975 11.6342C29.8923 10.6551 30.373 9.75568 31.0789 9.04975C31.7849 8.34383 32.6843 7.86309 33.6634 7.66833C34.6425 7.47357 35.6574 7.57352 36.5798 7.95557C37.5021 8.33761 38.2904 8.98457 38.8451 9.81465C39.3997 10.6447 39.6958 11.6206 39.6958 12.619C39.6958 13.9577 39.164 15.2416 38.2173 16.1882C37.2707 17.1348 35.9868 17.6666 34.6481 17.6666Z" fill="white"/>
<path d="M34.6499 9.25391C34.4267 9.25391 34.2128 9.34254 34.055 9.50031C33.8972 9.65808 33.8086 9.87206 33.8086 10.0952V12.619C33.8086 12.8421 33.8972 13.0561 34.055 13.2139C34.2128 13.3716 34.4267 13.4603 34.6499 13.4603C34.873 13.4603 35.087 13.3716 35.2447 13.2139C35.4025 13.0561 35.4911 12.8421 35.4911 12.619V10.0952C35.4911 9.87206 35.4025 9.65808 35.2447 9.50031C35.087 9.34254 34.873 9.25391 34.6499 9.25391Z" fill="white"/>
</svg>
