<svg width="50" height="55" viewBox="0 0 50 55" fill="none" xmlns="http://www.w3.org/2000/svg">
<path d="M30.1798 45.0673H4.57304C2.54832 45.0673 1 43.519 1 41.4943V22.438C1 20.4133 2.54832 18.865 4.57304 18.865H30.1798C32.2046 18.865 33.7529 20.4133 33.7529 22.438V41.4943C33.7529 43.3999 32.0855 45.0673 30.1798 45.0673Z" fill="#FDC82F"/>
<path d="M30.1798 45.0673H4.57304C2.54832 45.0673 1 43.519 1 41.4943V22.438C1 20.4133 2.54832 18.865 4.57304 18.865H30.1798C32.2046 18.865 33.7529 20.4133 33.7529 22.438V41.4943C33.7529 43.3999 32.0855 45.0673 30.1798 45.0673Z" stroke="#12323E" stroke-miterlimit="10" stroke-linecap="round" stroke-linejoin="round"/>
<path d="M17.3181 1C10.2911 1 4.57422 6.71687 4.57422 13.7439V18.7461H9.93378V13.7439C9.93378 9.5753 13.2686 6.35956 17.4372 6.35956C21.6057 6.35956 24.8215 9.6944 24.8215 13.7439V18.7461H30.181V13.7439C30.181 6.71687 24.4642 1 17.3181 1V1Z" fill="#969696"/>
<path d="M17.3181 1C10.2911 1 4.57422 6.71687 4.57422 13.7439V16.7214C4.57422 9.6944 10.2911 3.97754 17.3181 3.97754C24.3451 3.97754 30.181 9.6944 30.181 16.8405V13.7439C30.181 6.71687 24.4642 1 17.3181 1V1Z" fill="#969696"/>
<path d="M17.3181 1C10.2911 1 4.57422 6.71687 4.57422 13.7439V18.7461H9.93378V13.7439C9.93378 9.5753 13.2686 6.35956 17.4372 6.35956C21.6057 6.35956 24.8215 9.6944 24.8215 13.7439V18.7461H30.181V13.7439C30.181 6.71687 24.4642 1 17.3181 1V1Z" stroke="#12323E" stroke-miterlimit="10" stroke-linecap="round" stroke-linejoin="round"/>
<path d="M46.0207 27.9169C42.5668 24.4629 36.8499 24.4629 33.396 27.9169C30.6566 30.6562 30.0611 34.7057 31.6094 38.0405L20.2948 49.4742C20.0566 49.7124 19.9375 50.0697 19.9375 50.427L20.1757 52.69C20.2948 53.2855 20.6521 53.6428 21.2476 53.7619L23.5105 54.0001C23.8678 54.0001 24.2252 53.881 24.4634 53.6428L25.7735 52.3327C26.0117 52.0945 26.1308 51.8563 26.1308 51.499V50.3079H27.3218C27.6791 50.3079 27.9173 50.1888 28.1555 49.9506L29.2274 48.8787C29.4656 48.6405 29.5847 48.4023 29.5847 48.045V47.3304C29.5847 46.9731 29.7038 46.7349 29.942 46.4967L31.3712 45.0675C31.6094 44.8293 31.8476 44.7102 32.2049 44.7102H32.9196C33.2769 44.7102 33.5151 44.5911 33.7533 44.3529L35.778 42.3281C39.1128 43.8765 43.1623 43.281 45.9016 40.5416C49.4746 37.0877 49.4746 31.3708 46.0207 27.9169V27.9169ZM41.8522 32.0854C41.1375 31.3708 41.1375 30.2989 41.8522 29.5843C42.5668 28.8697 43.6387 28.8697 44.3533 29.5843C45.0679 30.2989 45.0679 31.3708 44.3533 32.0854C43.6387 32.8 42.5668 32.8 41.8522 32.0854Z" fill="#015DFF"/>
<path d="M46.0207 27.9169C42.5668 24.4629 36.8499 24.4629 33.396 27.9169C30.6566 30.6562 30.0611 34.7057 31.6094 38.0405L20.2948 49.4742C20.0566 49.7124 19.9375 50.0697 19.9375 50.427L20.1757 52.69C20.2948 53.2855 20.6521 53.6428 21.2476 53.7619L23.5105 54.0001C23.8678 54.0001 24.2252 53.881 24.4634 53.6428L25.7735 52.3327C26.0117 52.0945 26.1308 51.8563 26.1308 51.499V50.3079H27.3218C27.6791 50.3079 27.9173 50.1888 28.1555 49.9506L29.2274 48.8787C29.4656 48.6405 29.5847 48.4023 29.5847 48.045V47.3304C29.5847 46.9731 29.7038 46.7349 29.942 46.4967L31.3712 45.0675C31.6094 44.8293 31.8476 44.7102 32.2049 44.7102H32.9196C33.2769 44.7102 33.5151 44.5911 33.7533 44.3529L35.778 42.3281C39.1128 43.8765 43.1623 43.281 45.9016 40.5416C49.4746 37.0877 49.4746 31.3708 46.0207 27.9169V27.9169ZM41.8522 32.0854C41.1375 31.3708 41.1375 30.2989 41.8522 29.5843C42.5668 28.8697 43.6387 28.8697 44.3533 29.5843C45.0679 30.2989 45.0679 31.3708 44.3533 32.0854C43.6387 32.8 42.5668 32.8 41.8522 32.0854Z" stroke="#12323E" stroke-miterlimit="10" stroke-linecap="round" stroke-linejoin="round"/>
<path d="M20.4141 52.8089L31.2523 41.8516" stroke="#12323E" stroke-miterlimit="10" stroke-linecap="round" stroke-linejoin="round"/>
</svg>
