<svg width="175" height="164" viewBox="0 0 175 164" fill="none" xmlns="http://www.w3.org/2000/svg">
<g opacity="0.94">
<rect width="58.1594" height="103.744" transform="matrix(-1 0 0 1 174.727 60.2551)" fill="#D2ECFF"/>
<rect x="174.727" y="60.2551" width="19.3865" height="60.2552" transform="rotate(180 174.727 60.2551)" fill="#53BD6F"/>
<rect x="116.566" y="119.464" width="29.3417" height="59.2073" transform="rotate(180 116.566 119.464)" fill="#53BD6F"/>
<rect x="87.2246" y="119.464" width="29.3417" height="28.8177" transform="rotate(180 87.2246 119.464)" fill="#12323E"/>
<rect x="58.4082" y="164" width="57.6354" height="45.0604" transform="rotate(180 58.4082 164)" fill="#015DFF"/>
<circle r="29.0797" transform="matrix(-1 0 0 1 145.647 112.127)" fill="#12323E"/>
<path d="M116.569 30.3899C121.661 30.3899 126.702 31.1624 131.407 32.6633C136.111 34.1642 140.385 36.3641 143.985 39.1373C147.586 41.9106 150.442 45.203 152.39 48.8264C154.339 52.4499 155.342 56.3335 155.342 60.2555L116.569 60.2555V30.3899Z" fill="#015DFF"/>
<path d="M116.829 164C109.157 164 101.56 162.841 94.4718 160.59C87.3838 158.339 80.9435 155.039 75.5185 150.879C70.0936 146.719 65.7903 141.78 62.8544 136.345C59.9184 130.91 58.4073 125.085 58.4073 119.202H116.829L116.829 164Z" fill="#E9EEF1"/>
<circle r="7.85937" transform="matrix(-1 0 0 1 21.1094 82.8594)" fill="#12323E"/>
</g>
</svg>
