<svg width="174" height="164" viewBox="0 0 174 164" fill="none" xmlns="http://www.w3.org/2000/svg">
<g opacity="0.94">
<rect width="58.1594" height="103.744" transform="matrix(-1 0 0 1 174.477 60.2551)" fill="#F2E7DB"/>
<rect x="174.477" y="60.2551" width="19.3865" height="60.2552" transform="rotate(180 174.477 60.2551)" fill="#EC5239"/>
<rect x="116.316" y="119.464" width="29.3417" height="59.2073" transform="rotate(180 116.316 119.464)" fill="#EC5239"/>
<rect x="86.9746" y="119.464" width="29.3417" height="28.8177" transform="rotate(180 86.9746 119.464)" fill="#12323E"/>
<rect x="58.1582" y="164" width="57.6354" height="45.0604" transform="rotate(180 58.1582 164)" fill="#015DFF"/>
<circle r="29.0797" transform="matrix(-1 0 0 1 145.397 112.127)" fill="#12323E"/>
<path d="M116.319 30.3899C121.411 30.3899 126.452 31.1624 131.157 32.6633C135.861 34.1642 140.135 36.3641 143.735 39.1373C147.336 41.9106 150.192 45.203 152.14 48.8264C154.089 52.4499 155.092 56.3335 155.092 60.2555L116.319 60.2555V30.3899Z" fill="#015DFF"/>
<path d="M116.579 164C108.907 164 101.31 162.841 94.2218 160.59C87.1338 158.339 80.6935 155.039 75.2685 150.879C69.8436 146.719 65.5403 141.78 62.6044 136.345C59.6684 130.91 58.1573 125.085 58.1573 119.202H116.579L116.579 164Z" fill="#F0EAE8"/>
<circle r="7.85937" transform="matrix(-1 0 0 1 20.8594 82.8594)" fill="#12323E"/>
</g>
</svg>
