<svg width="77" height="84" viewBox="0 0 77 84" fill="none" xmlns="http://www.w3.org/2000/svg">
<g clip-path="url(#clip0_2686_97715)">
<path d="M23.7771 11.8608C23.7771 11.8608 25.1116 14.1313 25.1848 17.5949C25.2327 19.941 24.8947 24.1993 24.8947 24.1993L20.4926 24.164L21.6833 14.598L23.7771 11.8608Z" fill="#CCF0FF"/>
<path d="M28.9739 57.5923C28.9739 57.5923 35.3613 90.8338 35.3613 93.3237C35.3613 95.8136 28.4315 120.064 28.4315 120.064L16.8397 119.867L12.1854 119.759C12.1854 119.759 4.6047 78.069 3.84789 73.0892C3.09108 68.1094 4.27927 57.4964 4.27927 57.4964L17.0567 53.5989L28.9739 57.5923Z" fill="black"/>
<g opacity="0.18">
<path opacity="0.18" d="M0.600218 53.4498L1.18801 53.6138V53.1899L2.31817 53.4725L2.34088 53.9316L2.88325 54.0805L3.64258 56.1465L3.03462 55.8741L3.05731 56.3408L1.83887 55.6899L1.7758 55.314L1.44784 55.1677L0.600218 53.4498Z" fill="#CCF0FF"/>
<path opacity="0.18" d="M0.600218 56.6007L1.18801 56.7646V56.3408L2.31817 56.6234L2.34088 57.0825L2.88325 57.2313L3.64258 59.2974L3.03462 59.025L3.05731 59.4917L1.83887 58.8408L1.7758 58.4649L1.44784 58.3186L0.600218 56.6007Z" fill="#CCF0FF"/>
<path opacity="0.18" d="M0.600218 59.7518L1.18801 59.9158V59.4919L2.31817 59.7745L2.34088 60.2336L2.88325 60.3825L3.64258 62.4485L3.03462 62.1761L3.05731 62.6428L1.83887 61.9919L1.7758 61.616L1.44784 61.4697L0.600218 59.7518Z" fill="#CCF0FF"/>
<path opacity="0.18" d="M0.600218 62.9031L1.18801 63.0671V62.6433L2.31817 62.9259L2.34088 63.385L2.88325 63.5338L3.64258 65.5999L3.03462 65.3275L3.05731 65.7942L1.83887 65.1433L1.7758 64.7674L1.44784 64.6211L0.600218 62.9031Z" fill="#CCF0FF"/>
<path opacity="0.18" d="M0.600218 66.0556L1.18801 66.217V65.7932L2.31817 66.0758L2.34088 66.5349L2.88325 66.6837L3.64258 68.7498L3.03462 68.4774L3.05731 68.9441L1.83887 68.2932L1.7758 67.9173L1.44784 67.771L0.600218 66.0556Z" fill="#CCF0FF"/>
<path opacity="0.18" d="M0.600218 69.2067L1.18801 69.3681V68.9443L2.31817 69.2269L2.34088 69.686L2.88325 69.8348L3.64258 71.9009L3.03462 71.6285L3.05731 72.0952L1.83887 71.4443L1.7758 71.0684L1.44784 70.9221L0.600218 69.2067Z" fill="#CCF0FF"/>
<path opacity="0.18" d="M0.600218 72.3571L1.18801 72.5185V72.0947L2.31817 72.3773L2.34088 72.8364L2.88325 72.9852L3.64258 75.0513L3.03462 74.7789L3.05731 75.2456L1.83887 74.5947L1.7758 74.2188L1.44784 74.0725L0.600218 72.3571Z" fill="#CCF0FF"/>
<path opacity="0.18" d="M0.600218 75.5052L1.18801 75.6692V75.2454L2.31817 75.5279L2.34088 75.987L2.88325 76.1359L3.64258 78.202L3.03462 77.9295L3.05731 78.3962L1.83887 77.7454L1.7758 77.3695L1.44784 77.2232L0.600218 75.5052Z" fill="#CCF0FF"/>
<path opacity="0.18" d="M0.600218 78.6566L1.18801 78.8205V78.3967L2.31817 78.6793L2.34088 79.1384L2.88325 79.2872L3.64258 81.3533L3.03462 81.0809L3.05731 81.5476L1.83887 80.8967L1.7758 80.5208L1.44784 80.3745L0.600218 78.6566Z" fill="#CCF0FF"/>
<path opacity="0.18" d="M0.600218 81.8079L1.18801 81.9719V81.5481L2.31817 81.8306L2.34088 82.2898L2.88325 82.4386L3.64258 84.5047L3.03462 84.2322L3.05731 84.6989L1.83887 84.0481L1.7758 83.6722L1.44784 83.5259L0.600218 81.8079Z" fill="#CCF0FF"/>
<path opacity="0.18" d="M3.63927 53.4498L4.22706 53.6138V53.1899L5.35723 53.4725L5.37994 53.9316L5.92231 54.0805L6.68164 56.1465L6.07368 55.8741L6.09637 56.3408L4.87792 55.6899L4.81486 55.314L4.48691 55.1677L3.63927 53.4498Z" fill="#CCF0FF"/>
<path opacity="0.18" d="M3.63927 56.6007L4.22706 56.7646V56.3408L5.35723 56.6234L5.37994 57.0825L5.92231 57.2313L6.68164 59.2974L6.07368 59.025L6.09637 59.4917L4.87792 58.8408L4.81486 58.4649L4.48691 58.3186L3.63927 56.6007Z" fill="#CCF0FF"/>
<path opacity="0.18" d="M3.63927 59.7518L4.22706 59.9158V59.4919L5.35723 59.7745L5.37994 60.2336L5.92231 60.3825L6.68164 62.4485L6.07368 62.1761L6.09637 62.6428L4.87792 61.9919L4.81486 61.616L4.48691 61.4697L3.63927 59.7518Z" fill="#CCF0FF"/>
<path opacity="0.18" d="M3.63927 62.9031L4.22706 63.0671V62.6433L5.35723 62.9259L5.37994 63.385L5.92231 63.5338L6.68164 65.5999L6.07368 65.3275L6.09637 65.7942L4.87792 65.1433L4.81486 64.7674L4.48691 64.6211L3.63927 62.9031Z" fill="#CCF0FF"/>
<path opacity="0.18" d="M3.63927 66.0556L4.22706 66.217V65.7932L5.35723 66.0758L5.37994 66.5349L5.92231 66.6837L6.68164 68.7498L6.07368 68.4774L6.09637 68.9441L4.87792 68.2932L4.81486 67.9173L4.48691 67.771L3.63927 66.0556Z" fill="#CCF0FF"/>
<path opacity="0.18" d="M3.63927 69.2067L4.22706 69.3681V68.9443L5.35723 69.2269L5.37994 69.686L5.92231 69.8348L6.68164 71.9009L6.07368 71.6285L6.09637 72.0952L4.87792 71.4443L4.81486 71.0684L4.48691 70.9221L3.63927 69.2067Z" fill="#CCF0FF"/>
<path opacity="0.18" d="M3.63927 72.3571L4.22706 72.5185V72.0947L5.35723 72.3773L5.37994 72.8364L5.92231 72.9852L6.68164 75.0513L6.07368 74.7789L6.09637 75.2456L4.87792 74.5947L4.81486 74.2188L4.48691 74.0725L3.63927 72.3571Z" fill="#CCF0FF"/>
<path opacity="0.18" d="M3.63927 75.5052L4.22706 75.6692V75.2454L5.35723 75.5279L5.37994 75.987L5.92231 76.1359L6.68164 78.202L6.07368 77.9295L6.09637 78.3962L4.87792 77.7454L4.81486 77.3695L4.48691 77.2232L3.63927 75.5052Z" fill="#CCF0FF"/>
<path opacity="0.18" d="M3.63927 78.6566L4.22706 78.8205V78.3967L5.35723 78.6793L5.37994 79.1384L5.92231 79.2872L6.68164 81.3533L6.07368 81.0809L6.09637 81.5476L4.87792 80.8967L4.81486 80.5208L4.48691 80.3745L3.63927 78.6566Z" fill="#CCF0FF"/>
<path opacity="0.18" d="M3.63927 81.8079L4.22706 81.9719V81.5481L5.35723 81.8306L5.37994 82.2898L5.92231 82.4386L6.68164 84.5047L6.07368 84.2322L6.09637 84.6989L4.87792 84.0481L4.81486 83.6722L4.48691 83.5259L3.63927 81.8079Z" fill="#CCF0FF"/>
<path opacity="0.18" d="M6.68225 53.4498L7.27004 53.6138V53.1899L8.4002 53.4725L8.42291 53.9316L8.96529 54.0805L9.72461 56.1465L9.11665 55.8741L9.13934 56.3408L7.9209 55.6899L7.85531 55.314L7.52989 55.1677L6.68225 53.4498Z" fill="#CCF0FF"/>
<path opacity="0.18" d="M6.68225 56.6007L7.27004 56.7646V56.3408L8.4002 56.6234L8.42291 57.0825L8.96529 57.2313L9.72461 59.2974L9.11665 59.025L9.13934 59.4917L7.9209 58.8408L7.85531 58.4649L7.52989 58.3186L6.68225 56.6007Z" fill="#CCF0FF"/>
<path opacity="0.18" d="M6.68225 59.7518L7.27004 59.9158V59.4919L8.4002 59.7745L8.42291 60.2336L8.96529 60.3825L9.72461 62.4485L9.11665 62.1761L9.13934 62.6428L7.9209 61.9919L7.85531 61.616L7.52989 61.4697L6.68225 59.7518Z" fill="#CCF0FF"/>
<path opacity="0.18" d="M6.68225 62.9031L7.27004 63.0671V62.6433L8.4002 62.9259L8.42291 63.385L8.96529 63.5338L9.72461 65.5999L9.11665 65.3275L9.13934 65.7942L7.9209 65.1433L7.85531 64.7674L7.52989 64.6211L6.68225 62.9031Z" fill="#CCF0FF"/>
<path opacity="0.18" d="M6.68225 66.0556L7.27004 66.217V65.7932L8.4002 66.0758L8.42291 66.5349L8.96529 66.6837L9.72461 68.7498L9.11665 68.4774L9.13934 68.9441L7.9209 68.2932L7.85531 67.9173L7.52989 67.771L6.68225 66.0556Z" fill="#CCF0FF"/>
<path opacity="0.18" d="M6.68225 69.2067L7.27004 69.3681V68.9443L8.4002 69.2269L8.42291 69.686L8.96529 69.8348L9.72461 71.9009L9.11665 71.6285L9.13934 72.0952L7.9209 71.4443L7.85531 71.0684L7.52989 70.9221L6.68225 69.2067Z" fill="#CCF0FF"/>
<path opacity="0.18" d="M6.68225 72.3571L7.27004 72.5185V72.0947L8.4002 72.3773L8.42291 72.8364L8.96529 72.9852L9.72461 75.0513L9.11665 74.7789L9.13934 75.2456L7.9209 74.5947L7.85531 74.2188L7.52989 74.0725L6.68225 72.3571Z" fill="#CCF0FF"/>
<path opacity="0.18" d="M6.68225 75.5052L7.27004 75.6692V75.2454L8.4002 75.5279L8.42291 75.987L8.96529 76.1359L9.72461 78.202L9.11665 77.9295L9.13934 78.3962L7.9209 77.7454L7.85531 77.3695L7.52989 77.2232L6.68225 75.5052Z" fill="#CCF0FF"/>
<path opacity="0.18" d="M6.68225 78.6566L7.27004 78.8205V78.3967L8.4002 78.6793L8.42291 79.1384L8.96529 79.2872L9.72461 81.3533L9.11665 81.0809L9.13934 81.5476L7.9209 80.8967L7.85531 80.5208L7.52989 80.3745L6.68225 78.6566Z" fill="#CCF0FF"/>
<path opacity="0.18" d="M6.68225 81.8079L7.27004 81.9719V81.5481L8.4002 81.8306L8.42291 82.2898L8.96529 82.4386L9.72461 84.5047L9.11665 84.2322L9.13934 84.6989L7.9209 84.0481L7.85531 83.6722L7.52989 83.5259L6.68225 81.8079Z" fill="#CCF0FF"/>
<path opacity="0.18" d="M9.72521 53.4498L10.313 53.6138V53.1899L11.4432 53.4725L11.4659 53.9316L12.0082 54.0805L12.7676 56.1465L12.1596 55.8741L12.1798 56.3408L10.9639 55.6899L10.8983 55.314L10.5728 55.1677L9.72521 53.4498Z" fill="#CCF0FF"/>
<path opacity="0.18" d="M9.72521 56.6007L10.313 56.7646V56.3408L11.4432 56.6234L11.4659 57.0825L12.0082 57.2313L12.7676 59.2974L12.1596 59.025L12.1798 59.4917L10.9639 58.8408L10.8983 58.4649L10.5728 58.3186L9.72521 56.6007Z" fill="#CCF0FF"/>
<path opacity="0.18" d="M9.72521 59.7518L10.313 59.9158V59.4919L11.4432 59.7745L11.4659 60.2336L12.0082 60.3825L12.7676 62.4485L12.1596 62.1761L12.1798 62.6428L10.9639 61.9919L10.8983 61.616L10.5728 61.4697L9.72521 59.7518Z" fill="#CCF0FF"/>
<path opacity="0.18" d="M9.72521 62.9031L10.313 63.0671V62.6433L11.4432 62.9259L11.4659 63.385L12.0082 63.5338L12.7676 65.5999L12.1596 65.3275L12.1798 65.7942L10.9639 65.1433L10.8983 64.7674L10.5728 64.6211L9.72521 62.9031Z" fill="#CCF0FF"/>
<path opacity="0.18" d="M9.72521 66.0556L10.313 66.217V65.7932L11.4432 66.0758L11.4659 66.5349L12.0082 66.6837L12.7676 68.7498L12.1596 68.4774L12.1798 68.9441L10.9639 68.2932L10.8983 67.9173L10.5728 67.771L9.72521 66.0556Z" fill="#CCF0FF"/>
<path opacity="0.18" d="M9.72521 69.2067L10.313 69.3681V68.9443L11.4432 69.2269L11.4659 69.686L12.0082 69.8348L12.7676 71.9009L12.1596 71.6285L12.1798 72.0952L10.9639 71.4443L10.8983 71.0684L10.5728 70.9221L9.72521 69.2067Z" fill="#CCF0FF"/>
<path opacity="0.18" d="M9.72521 72.3571L10.313 72.5185V72.0947L11.4432 72.3773L11.4659 72.8364L12.0082 72.9852L12.7676 75.0513L12.1596 74.7789L12.1798 75.2456L10.9639 74.5947L10.8983 74.2188L10.5728 74.0725L9.72521 72.3571Z" fill="#CCF0FF"/>
<path opacity="0.18" d="M9.72521 75.5052L10.313 75.6692V75.2454L11.4432 75.5279L11.4659 75.987L12.0082 76.1359L12.7676 78.202L12.1596 77.9295L12.1798 78.3962L10.9639 77.7454L10.8983 77.3695L10.5728 77.2232L9.72521 75.5052Z" fill="#CCF0FF"/>
<path opacity="0.18" d="M9.72521 78.6566L10.313 78.8205V78.3967L11.4432 78.6793L11.4659 79.1384L12.0082 79.2872L12.7676 81.3533L12.1596 81.0809L12.1798 81.5476L10.9639 80.8967L10.8983 80.5208L10.5728 80.3745L9.72521 78.6566Z" fill="#CCF0FF"/>
<path opacity="0.18" d="M9.72521 81.8079L10.313 81.9719V81.5481L11.4432 81.8306L11.4659 82.2898L12.0082 82.4386L12.7676 84.5047L12.1596 84.2322L12.1798 84.6989L10.9639 84.0481L10.8983 83.6722L10.5728 83.5259L9.72521 81.8079Z" fill="#CCF0FF"/>
<path opacity="0.18" d="M12.7682 53.4498L13.356 53.6138V53.1899L14.4836 53.4725L14.5088 53.9316L15.0487 54.0805L15.8105 56.1465L15.2026 55.8741L15.2228 56.3408L14.0068 55.6899L13.9412 55.314L13.6158 55.1677L12.7682 53.4498Z" fill="#CCF0FF"/>
<path opacity="0.18" d="M12.7682 56.6007L13.356 56.7646V56.3408L14.4836 56.6234L14.5088 57.0825L15.0487 57.2313L15.8105 59.2974L15.2026 59.025L15.2228 59.4917L14.0068 58.8408L13.9412 58.4649L13.6158 58.3186L12.7682 56.6007Z" fill="#CCF0FF"/>
<path opacity="0.18" d="M12.7682 59.7518L13.356 59.9158V59.4919L14.4836 59.7745L14.5088 60.2336L15.0487 60.3825L15.8105 62.4485L15.2026 62.1761L15.2228 62.6428L14.0068 61.9919L13.9412 61.616L13.6158 61.4697L12.7682 59.7518Z" fill="#CCF0FF"/>
<path opacity="0.18" d="M12.7682 62.9031L13.356 63.0671V62.6433L14.4836 62.9259L14.5088 63.385L15.0487 63.5338L15.8105 65.5999L15.2026 65.3275L15.2228 65.7942L14.0068 65.1433L13.9412 64.7674L13.6158 64.6211L12.7682 62.9031Z" fill="#CCF0FF"/>
<path opacity="0.18" d="M12.7682 66.0556L13.356 66.217V65.7932L14.4836 66.0758L14.5088 66.5349L15.0487 66.6837L15.8105 68.7498L15.2026 68.4774L15.2228 68.9441L14.0068 68.2932L13.9412 67.9173L13.6158 67.771L12.7682 66.0556Z" fill="#CCF0FF"/>
<path opacity="0.18" d="M12.7682 69.2067L13.356 69.3681V68.9443L14.4836 69.2269L14.5088 69.686L15.0487 69.8348L15.8105 71.9009L15.2026 71.6285L15.2228 72.0952L14.0068 71.4443L13.9412 71.0684L13.6158 70.9221L12.7682 69.2067Z" fill="#CCF0FF"/>
<path opacity="0.18" d="M12.7682 72.3571L13.356 72.5185V72.0947L14.4836 72.3773L14.5088 72.8364L15.0487 72.9852L15.8105 75.0513L15.2026 74.7789L15.2228 75.2456L14.0068 74.5947L13.9412 74.2188L13.6158 74.0725L12.7682 72.3571Z" fill="#CCF0FF"/>
<path opacity="0.18" d="M12.7682 75.5052L13.356 75.6692V75.2454L14.4836 75.5279L14.5088 75.987L15.0487 76.1359L15.8105 78.202L15.2026 77.9295L15.2228 78.3962L14.0068 77.7454L13.9412 77.3695L13.6158 77.2232L12.7682 75.5052Z" fill="#CCF0FF"/>
<path opacity="0.18" d="M12.7682 78.6566L13.356 78.8205V78.3967L14.4836 78.6793L14.5088 79.1384L15.0487 79.2872L15.8105 81.3533L15.2026 81.0809L15.2228 81.5476L14.0068 80.8967L13.9412 80.5208L13.6158 80.3745L12.7682 78.6566Z" fill="#CCF0FF"/>
<path opacity="0.18" d="M12.7682 81.8079L13.356 81.9719V81.5481L14.4836 81.8306L14.5088 82.2898L15.0487 82.4386L15.8105 84.5047L15.2026 84.2322L15.2228 84.6989L14.0068 84.0481L13.9412 83.6722L13.6158 83.5259L12.7682 81.8079Z" fill="#CCF0FF"/>
<path opacity="0.18" d="M15.8072 53.4498L16.395 53.6138V53.1899L17.5227 53.4725L17.5479 53.9316L18.0878 54.0805L18.8496 56.1465L18.2416 55.8741L18.2618 56.3408L17.0459 55.6899L16.9803 55.314L16.6549 55.1677L15.8072 53.4498Z" fill="#CCF0FF"/>
<path opacity="0.18" d="M15.8072 56.6007L16.395 56.7646V56.3408L17.5227 56.6234L17.5479 57.0825L18.0878 57.2313L18.8496 59.2974L18.2416 59.025L18.2618 59.4917L17.0459 58.8408L16.9803 58.4649L16.6549 58.3186L15.8072 56.6007Z" fill="#CCF0FF"/>
<path opacity="0.18" d="M15.8072 59.7518L16.395 59.9158V59.4919L17.5227 59.7745L17.5479 60.2336L18.0878 60.3825L18.8496 62.4485L18.2416 62.1761L18.2618 62.6428L17.0459 61.9919L16.9803 61.616L16.6549 61.4697L15.8072 59.7518Z" fill="#CCF0FF"/>
<path opacity="0.18" d="M15.8072 62.9031L16.395 63.0671V62.6433L17.5227 62.9259L17.5479 63.385L18.0878 63.5338L18.8496 65.5999L18.2416 65.3275L18.2618 65.7942L17.0459 65.1433L16.9803 64.7674L16.6549 64.6211L15.8072 62.9031Z" fill="#CCF0FF"/>
<path opacity="0.18" d="M15.8072 66.0556L16.395 66.217V65.7932L17.5227 66.0758L17.5479 66.5349L18.0878 66.6837L18.8496 68.7498L18.2416 68.4774L18.2618 68.9441L17.0459 68.2932L16.9803 67.9173L16.6549 67.771L15.8072 66.0556Z" fill="#CCF0FF"/>
<path opacity="0.18" d="M15.8072 69.2067L16.395 69.3681V68.9443L17.5227 69.2269L17.5479 69.686L18.0878 69.8348L18.8496 71.9009L18.2416 71.6285L18.2618 72.0952L17.0459 71.4443L16.9803 71.0684L16.6549 70.9221L15.8072 69.2067Z" fill="#CCF0FF"/>
<path opacity="0.18" d="M15.8072 72.3571L16.395 72.5185V72.0947L17.5227 72.3773L17.5479 72.8364L18.0878 72.9852L18.8496 75.0513L18.2416 74.7789L18.2618 75.2456L17.0459 74.5947L16.9803 74.2188L16.6549 74.0725L15.8072 72.3571Z" fill="#CCF0FF"/>
<path opacity="0.18" d="M15.8072 75.5052L16.395 75.6692V75.2454L17.5227 75.5279L17.5479 75.987L18.0878 76.1359L18.8496 78.202L18.2416 77.9295L18.2618 78.3962L17.0459 77.7454L16.9803 77.3695L16.6549 77.2232L15.8072 75.5052Z" fill="#CCF0FF"/>
<path opacity="0.18" d="M15.8072 78.6566L16.395 78.8205V78.3967L17.5227 78.6793L17.5479 79.1384L18.0878 79.2872L18.8496 81.3533L18.2416 81.0809L18.2618 81.5476L17.0459 80.8967L16.9803 80.5208L16.6549 80.3745L15.8072 78.6566Z" fill="#CCF0FF"/>
<path opacity="0.18" d="M15.8072 81.8079L16.395 81.9719V81.5481L17.5227 81.8306L17.5479 82.2898L18.0878 82.4386L18.8496 84.5047L18.2416 84.2322L18.2618 84.6989L17.0459 84.0481L16.9803 83.6722L16.6549 83.5259L15.8072 81.8079Z" fill="#CCF0FF"/>
<path opacity="0.18" d="M18.8541 53.4498L19.4419 53.6138V53.1899L20.5696 53.4725L20.5948 53.9316L21.1346 54.0805L21.8965 56.1465L21.2885 55.8741L21.3087 56.3408L20.0928 55.6899L20.0272 55.314L19.7017 55.1677L18.8541 53.4498Z" fill="#CCF0FF"/>
<path opacity="0.18" d="M18.8541 56.6007L19.4419 56.7646V56.3408L20.5696 56.6234L20.5948 57.0825L21.1346 57.2313L21.8965 59.2974L21.2885 59.025L21.3087 59.4917L20.0928 58.8408L20.0272 58.4649L19.7017 58.3186L18.8541 56.6007Z" fill="#CCF0FF"/>
<path opacity="0.18" d="M18.8541 59.7518L19.4419 59.9158V59.4919L20.5696 59.7745L20.5948 60.2336L21.1346 60.3825L21.8965 62.4485L21.2885 62.1761L21.3087 62.6428L20.0928 61.9919L20.0272 61.616L19.7017 61.4697L18.8541 59.7518Z" fill="#CCF0FF"/>
<path opacity="0.18" d="M18.8541 62.9031L19.4419 63.0671V62.6433L20.5696 62.9259L20.5948 63.385L21.1346 63.5338L21.8965 65.5999L21.2885 65.3275L21.3087 65.7942L20.0928 65.1433L20.0272 64.7674L19.7017 64.6211L18.8541 62.9031Z" fill="#CCF0FF"/>
<path opacity="0.18" d="M18.8541 66.0556L19.4419 66.217V65.7932L20.5696 66.0758L20.5948 66.5349L21.1346 66.6837L21.8965 68.7498L21.2885 68.4774L21.3087 68.9441L20.0928 68.2932L20.0272 67.9173L19.7017 67.771L18.8541 66.0556Z" fill="#CCF0FF"/>
<path opacity="0.18" d="M18.8541 69.2067L19.4419 69.3681V68.9443L20.5696 69.2269L20.5948 69.686L21.1346 69.8348L21.8965 71.9009L21.2885 71.6285L21.3087 72.0952L20.0928 71.4443L20.0272 71.0684L19.7017 70.9221L18.8541 69.2067Z" fill="#CCF0FF"/>
<path opacity="0.18" d="M18.8541 72.3571L19.4419 72.5185V72.0947L20.5696 72.3773L20.5948 72.8364L21.1346 72.9852L21.8965 75.0513L21.2885 74.7789L21.3087 75.2456L20.0928 74.5947L20.0272 74.2188L19.7017 74.0725L18.8541 72.3571Z" fill="#CCF0FF"/>
<path opacity="0.18" d="M18.8541 75.5052L19.4419 75.6692V75.2454L20.5696 75.5279L20.5948 75.987L21.1346 76.1359L21.8965 78.202L21.2885 77.9295L21.3087 78.3962L20.0928 77.7454L20.0272 77.3695L19.7017 77.2232L18.8541 75.5052Z" fill="#CCF0FF"/>
<path opacity="0.18" d="M18.8541 78.6566L19.4419 78.8205V78.3967L20.5696 78.6793L20.5948 79.1384L21.1346 79.2872L21.8965 81.3533L21.2885 81.0809L21.3087 81.5476L20.0928 80.8967L20.0272 80.5208L19.7017 80.3745L18.8541 78.6566Z" fill="#CCF0FF"/>
<path opacity="0.18" d="M18.8541 81.8079L19.4419 81.9719V81.5481L20.5696 81.8306L20.5948 82.2898L21.1346 82.4386L21.8965 84.5047L21.2885 84.2322L21.3087 84.6989L20.0928 84.0481L20.0272 83.6722L19.7017 83.5259L18.8541 81.8079Z" fill="#CCF0FF"/>
<path opacity="0.18" d="M21.8951 53.4498L22.4804 53.6138V53.1899L23.6106 53.4725L23.6358 53.9316L24.1756 54.0805L24.9375 56.1465L24.327 55.8741L24.3497 56.3408L23.1338 55.6899L23.0682 55.314L22.7428 55.1677L21.8951 53.4498Z" fill="#CCF0FF"/>
<path opacity="0.18" d="M21.8951 56.6007L22.4804 56.7646V56.3408L23.6106 56.6234L23.6358 57.0825L24.1756 57.2313L24.9375 59.2974L24.327 59.025L24.3497 59.4917L23.1338 58.8408L23.0682 58.4649L22.7428 58.3186L21.8951 56.6007Z" fill="#CCF0FF"/>
<path opacity="0.18" d="M21.8951 59.7518L22.4804 59.9158V59.4919L23.6106 59.7745L23.6358 60.2336L24.1756 60.3825L24.9375 62.4485L24.327 62.1761L24.3497 62.6428L23.1338 61.9919L23.0682 61.616L22.7428 61.4697L21.8951 59.7518Z" fill="#CCF0FF"/>
<path opacity="0.18" d="M21.8951 62.9031L22.4804 63.0671V62.6433L23.6106 62.9259L23.6358 63.385L24.1756 63.5338L24.9375 65.5999L24.327 65.3275L24.3497 65.7942L23.1338 65.1433L23.0682 64.7674L22.7428 64.6211L21.8951 62.9031Z" fill="#CCF0FF"/>
<path opacity="0.18" d="M21.8951 66.0556L22.4804 66.217V65.7932L23.6106 66.0758L23.6358 66.5349L24.1756 66.6837L24.9375 68.7498L24.327 68.4774L24.3497 68.9441L23.1338 68.2932L23.0682 67.9173L22.7428 67.771L21.8951 66.0556Z" fill="#CCF0FF"/>
<path opacity="0.18" d="M21.8951 69.2067L22.4804 69.3681V68.9443L23.6106 69.2269L23.6358 69.686L24.1756 69.8348L24.9375 71.9009L24.327 71.6285L24.3497 72.0952L23.1338 71.4443L23.0682 71.0684L22.7428 70.9221L21.8951 69.2067Z" fill="#CCF0FF"/>
<path opacity="0.18" d="M21.8951 72.3571L22.4804 72.5185V72.0947L23.6106 72.3773L23.6358 72.8364L24.1756 72.9852L24.9375 75.0513L24.327 74.7789L24.3497 75.2456L23.1338 74.5947L23.0682 74.2188L22.7428 74.0725L21.8951 72.3571Z" fill="#CCF0FF"/>
<path opacity="0.18" d="M21.8951 75.5052L22.4804 75.6692V75.2454L23.6106 75.5279L23.6358 75.987L24.1756 76.1359L24.9375 78.202L24.327 77.9295L24.3497 78.3962L23.1338 77.7454L23.0682 77.3695L22.7428 77.2232L21.8951 75.5052Z" fill="#CCF0FF"/>
<path opacity="0.18" d="M21.8951 78.6566L22.4804 78.8205V78.3967L23.6106 78.6793L23.6358 79.1384L24.1756 79.2872L24.9375 81.3533L24.327 81.0809L24.3497 81.5476L23.1338 80.8967L23.0682 80.5208L22.7428 80.3745L21.8951 78.6566Z" fill="#CCF0FF"/>
<path opacity="0.18" d="M21.8951 81.8079L22.4804 81.9719V81.5481L23.6106 81.8306L23.6358 82.2898L24.1756 82.4386L24.9375 84.5047L24.327 84.2322L24.3497 84.6989L23.1338 84.0481L23.0682 83.6722L22.7428 83.5259L21.8951 81.8079Z" fill="#CCF0FF"/>
<path opacity="0.18" d="M24.9361 53.4498L25.5214 53.6138V53.1899L26.6516 53.4725L26.6768 53.9316L27.2167 54.0805L27.9785 56.1465L27.368 55.8741L27.3907 56.3408L26.1748 55.6899L26.1092 55.314L25.7838 55.1677L24.9361 53.4498Z" fill="#CCF0FF"/>
<path opacity="0.18" d="M24.9361 56.6007L25.5214 56.7646V56.3408L26.6516 56.6234L26.6768 57.0825L27.2167 57.2313L27.9785 59.2974L27.368 59.025L27.3907 59.4917L26.1748 58.8408L26.1092 58.4649L25.7838 58.3186L24.9361 56.6007Z" fill="#CCF0FF"/>
<path opacity="0.18" d="M24.9361 59.7518L25.5214 59.9158V59.4919L26.6516 59.7745L26.6768 60.2336L27.2167 60.3825L27.9785 62.4485L27.368 62.1761L27.3907 62.6428L26.1748 61.9919L26.1092 61.616L25.7838 61.4697L24.9361 59.7518Z" fill="#CCF0FF"/>
<path opacity="0.18" d="M24.9361 62.9031L25.5214 63.0671V62.6433L26.6516 62.9259L26.6768 63.385L27.2167 63.5338L27.9785 65.5999L27.368 65.3275L27.3907 65.7942L26.1748 65.1433L26.1092 64.7674L25.7838 64.6211L24.9361 62.9031Z" fill="#CCF0FF"/>
<path opacity="0.18" d="M24.9361 66.0556L25.5214 66.217V65.7932L26.6516 66.0758L26.6768 66.5349L27.2167 66.6837L27.9785 68.7498L27.368 68.4774L27.3907 68.9441L26.1748 68.2932L26.1092 67.9173L25.7838 67.771L24.9361 66.0556Z" fill="#CCF0FF"/>
<path opacity="0.18" d="M24.9361 69.2067L25.5214 69.3681V68.9443L26.6516 69.2269L26.6768 69.686L27.2167 69.8348L27.9785 71.9009L27.368 71.6285L27.3907 72.0952L26.1748 71.4443L26.1092 71.0684L25.7838 70.9221L24.9361 69.2067Z" fill="#CCF0FF"/>
<path opacity="0.18" d="M24.9361 72.3571L25.5214 72.5185V72.0947L26.6516 72.3773L26.6768 72.8364L27.2167 72.9852L27.9785 75.0513L27.368 74.7789L27.3907 75.2456L26.1748 74.5947L26.1092 74.2188L25.7838 74.0725L24.9361 72.3571Z" fill="#CCF0FF"/>
<path opacity="0.18" d="M24.9361 75.5052L25.5214 75.6692V75.2454L26.6516 75.5279L26.6768 75.987L27.2167 76.1359L27.9785 78.202L27.368 77.9295L27.3907 78.3962L26.1748 77.7454L26.1092 77.3695L25.7838 77.2232L24.9361 75.5052Z" fill="#CCF0FF"/>
<path opacity="0.18" d="M24.9361 78.6566L25.5214 78.8205V78.3967L26.6516 78.6793L26.6768 79.1384L27.2167 79.2872L27.9785 81.3533L27.368 81.0809L27.3907 81.5476L26.1748 80.8967L26.1092 80.5208L25.7838 80.3745L24.9361 78.6566Z" fill="#CCF0FF"/>
<path opacity="0.18" d="M24.9361 81.8079L25.5214 81.9719V81.5481L26.6516 81.8306L26.6768 82.2898L27.2167 82.4386L27.9785 84.5047L27.368 84.2322L27.3907 84.6989L26.1748 84.0481L26.1092 83.6722L25.7838 83.5259L24.9361 81.8079Z" fill="#CCF0FF"/>
<path opacity="0.18" d="M27.9811 53.4498L28.5663 53.6138V53.1899L29.6965 53.4725L29.7217 53.9316L30.2616 54.0805L31.0234 56.1465L30.413 55.8741L30.4357 56.3408L29.2197 55.6899L29.1541 55.314L28.8287 55.1677L27.9811 53.4498Z" fill="#CCF0FF"/>
<path opacity="0.18" d="M27.9811 56.6007L28.5663 56.7646V56.3408L29.6965 56.6234L29.7217 57.0825L30.2616 57.2313L31.0234 59.2974L30.413 59.025L30.4357 59.4917L29.2197 58.8408L29.1541 58.4649L28.8287 58.3186L27.9811 56.6007Z" fill="#CCF0FF"/>
<path opacity="0.18" d="M27.9811 59.7518L28.5663 59.9158V59.4919L29.6965 59.7745L29.7217 60.2336L30.2616 60.3825L31.0234 62.4485L30.413 62.1761L30.4357 62.6428L29.2197 61.9919L29.1541 61.616L28.8287 61.4697L27.9811 59.7518Z" fill="#CCF0FF"/>
<path opacity="0.18" d="M27.9811 62.9031L28.5663 63.0671V62.6433L29.6965 62.9259L29.7217 63.385L30.2616 63.5338L31.0234 65.5999L30.413 65.3275L30.4357 65.7942L29.2197 65.1433L29.1541 64.7674L28.8287 64.6211L27.9811 62.9031Z" fill="#CCF0FF"/>
<path opacity="0.18" d="M27.9811 66.0556L28.5663 66.217V65.7932L29.6965 66.0758L29.7217 66.5349L30.2616 66.6837L31.0234 68.7498L30.413 68.4774L30.4357 68.9441L29.2197 68.2932L29.1541 67.9173L28.8287 67.771L27.9811 66.0556Z" fill="#CCF0FF"/>
<path opacity="0.18" d="M27.9811 69.2067L28.5663 69.3681V68.9443L29.6965 69.2269L29.7217 69.686L30.2616 69.8348L31.0234 71.9009L30.413 71.6285L30.4357 72.0952L29.2197 71.4443L29.1541 71.0684L28.8287 70.9221L27.9811 69.2067Z" fill="#CCF0FF"/>
<path opacity="0.18" d="M27.9811 72.3571L28.5663 72.5185V72.0947L29.6965 72.3773L29.7217 72.8364L30.2616 72.9852L31.0234 75.0513L30.413 74.7789L30.4357 75.2456L29.2197 74.5947L29.1541 74.2188L28.8287 74.0725L27.9811 72.3571Z" fill="#CCF0FF"/>
<path opacity="0.18" d="M27.9811 75.5052L28.5663 75.6692V75.2454L29.6965 75.5279L29.7217 75.987L30.2616 76.1359L31.0234 78.202L30.413 77.9295L30.4357 78.3962L29.2197 77.7454L29.1541 77.3695L28.8287 77.2232L27.9811 75.5052Z" fill="#CCF0FF"/>
<path opacity="0.18" d="M27.9811 78.6566L28.5663 78.8205V78.3967L29.6965 78.6793L29.7217 79.1384L30.2616 79.2872L31.0234 81.3533L30.413 81.0809L30.4357 81.5476L29.2197 80.8967L29.1541 80.5208L28.8287 80.3745L27.9811 78.6566Z" fill="#CCF0FF"/>
<path opacity="0.18" d="M27.9811 81.8079L28.5663 81.9719V81.5481L29.6965 81.8306L29.7217 82.2898L30.2616 82.4386L31.0234 84.5047L30.413 84.2322L30.4357 84.6989L29.2197 84.0481L29.1541 83.6722L28.8287 83.5259L27.9811 81.8079Z" fill="#CCF0FF"/>
<path opacity="0.18" d="M31.0201 53.4498L31.6054 53.6138V53.1899L32.7356 53.4725L32.7583 53.9316L33.3007 54.0805L34.0625 56.1465L33.452 55.8741L33.4747 56.3408L32.2588 55.6899L32.1932 55.314L31.8678 55.1677L31.0201 53.4498Z" fill="#CCF0FF"/>
<path opacity="0.18" d="M31.0201 56.6007L31.6054 56.7646V56.3408L32.7356 56.6234L32.7583 57.0825L33.3007 57.2313L34.0625 59.2974L33.452 59.025L33.4747 59.4917L32.2588 58.8408L32.1932 58.4649L31.8678 58.3186L31.0201 56.6007Z" fill="#CCF0FF"/>
<path opacity="0.18" d="M31.0201 59.7518L31.6054 59.9158V59.4919L32.7356 59.7745L32.7583 60.2336L33.3007 60.3825L34.0625 62.4485L33.452 62.1761L33.4747 62.6428L32.2588 61.9919L32.1932 61.616L31.8678 61.4697L31.0201 59.7518Z" fill="#CCF0FF"/>
<path opacity="0.18" d="M31.0201 62.9031L31.6054 63.0671V62.6433L32.7356 62.9259L32.7583 63.385L33.3007 63.5338L34.0625 65.5999L33.452 65.3275L33.4747 65.7942L32.2588 65.1433L32.1932 64.7674L31.8678 64.6211L31.0201 62.9031Z" fill="#CCF0FF"/>
<path opacity="0.18" d="M31.0201 66.0556L31.6054 66.217V65.7932L32.7356 66.0758L32.7583 66.5349L33.3007 66.6837L34.0625 68.7498L33.452 68.4774L33.4747 68.9441L32.2588 68.2932L32.1932 67.9173L31.8678 67.771L31.0201 66.0556Z" fill="#CCF0FF"/>
<path opacity="0.18" d="M31.0201 69.2067L31.6054 69.3681V68.9443L32.7356 69.2269L32.7583 69.686L33.3007 69.8348L34.0625 71.9009L33.452 71.6285L33.4747 72.0952L32.2588 71.4443L32.1932 71.0684L31.8678 70.9221L31.0201 69.2067Z" fill="#CCF0FF"/>
<path opacity="0.18" d="M31.0201 72.3571L31.6054 72.5185V72.0947L32.7356 72.3773L32.7583 72.8364L33.3007 72.9852L34.0625 75.0513L33.452 74.7789L33.4747 75.2456L32.2588 74.5947L32.1932 74.2188L31.8678 74.0725L31.0201 72.3571Z" fill="#CCF0FF"/>
<path opacity="0.18" d="M31.0201 75.5052L31.6054 75.6692V75.2454L32.7356 75.5279L32.7583 75.987L33.3007 76.1359L34.0625 78.202L33.452 77.9295L33.4747 78.3962L32.2588 77.7454L32.1932 77.3695L31.8678 77.2232L31.0201 75.5052Z" fill="#CCF0FF"/>
<path opacity="0.18" d="M31.0201 78.6566L31.6054 78.8205V78.3967L32.7356 78.6793L32.7583 79.1384L33.3007 79.2872L34.0625 81.3533L33.452 81.0809L33.4747 81.5476L32.2588 80.8967L32.1932 80.5208L31.8678 80.3745L31.0201 78.6566Z" fill="#CCF0FF"/>
<path opacity="0.18" d="M31.0201 81.8079L31.6054 81.9719V81.5481L32.7356 81.8306L32.7583 82.2898L33.3007 82.4386L34.0625 84.5047L33.452 84.2322L33.4747 84.6989L32.2588 84.0481L32.1932 83.6722L31.8678 83.5259L31.0201 81.8079Z" fill="#CCF0FF"/>
<path opacity="0.18" d="M34.0637 53.4498L34.6489 53.6138V53.1899L35.7791 53.4725L35.8018 53.9316L36.3442 54.0805L37.1035 56.1465L36.4955 55.8741L36.5182 56.3408L35.3023 55.6899L35.2367 55.314L34.9088 55.1677L34.0637 53.4498Z" fill="#CCF0FF"/>
<path opacity="0.18" d="M34.0637 56.6007L34.6489 56.7646V56.3408L35.7791 56.6234L35.8018 57.0825L36.3442 57.2313L37.1035 59.2974L36.4955 59.025L36.5182 59.4917L35.3023 58.8408L35.2367 58.4649L34.9088 58.3186L34.0637 56.6007Z" fill="#CCF0FF"/>
<path opacity="0.18" d="M34.0637 59.7518L34.6489 59.9158V59.4919L35.7791 59.7745L35.8018 60.2336L36.3442 60.3825L37.1035 62.4485L36.4955 62.1761L36.5182 62.6428L35.3023 61.9919L35.2367 61.616L34.9088 61.4697L34.0637 59.7518Z" fill="#CCF0FF"/>
<path opacity="0.18" d="M34.0637 62.9031L34.6489 63.0671V62.6433L35.7791 62.9259L35.8018 63.385L36.3442 63.5338L37.1035 65.5999L36.4955 65.3275L36.5182 65.7942L35.3023 65.1433L35.2367 64.7674L34.9088 64.6211L34.0637 62.9031Z" fill="#CCF0FF"/>
<path opacity="0.18" d="M34.0637 66.0556L34.6489 66.217V65.7932L35.7791 66.0758L35.8018 66.5349L36.3442 66.6837L37.1035 68.7498L36.4955 68.4774L36.5182 68.9441L35.3023 68.2932L35.2367 67.9173L34.9088 67.771L34.0637 66.0556Z" fill="#CCF0FF"/>
<path opacity="0.18" d="M34.0637 69.2067L34.6489 69.3681V68.9443L35.7791 69.2269L35.8018 69.686L36.3442 69.8348L37.1035 71.9009L36.4955 71.6285L36.5182 72.0952L35.3023 71.4443L35.2367 71.0684L34.9088 70.9221L34.0637 69.2067Z" fill="#CCF0FF"/>
<path opacity="0.18" d="M34.0637 72.3571L34.6489 72.5185V72.0947L35.7791 72.3773L35.8018 72.8364L36.3442 72.9852L37.1035 75.0513L36.4955 74.7789L36.5182 75.2456L35.3023 74.5947L35.2367 74.2188L34.9088 74.0725L34.0637 72.3571Z" fill="#CCF0FF"/>
<path opacity="0.18" d="M34.0637 75.5052L34.6489 75.6692V75.2454L35.7791 75.5279L35.8018 75.987L36.3442 76.1359L37.1035 78.202L36.4955 77.9295L36.5182 78.3962L35.3023 77.7454L35.2367 77.3695L34.9088 77.2232L34.0637 75.5052Z" fill="#CCF0FF"/>
<path opacity="0.18" d="M34.0637 78.6566L34.6489 78.8205V78.3967L35.7791 78.6793L35.8018 79.1384L36.3442 79.2872L37.1035 81.3533L36.4955 81.0809L36.5182 81.5476L35.3023 80.8967L35.2367 80.5208L34.9088 80.3745L34.0637 78.6566Z" fill="#CCF0FF"/>
<path opacity="0.18" d="M34.0637 81.8079L34.6489 81.9719V81.5481L35.7791 81.8306L35.8018 82.2898L36.3442 82.4386L37.1035 84.5047L36.4955 84.2322L36.5182 84.6989L35.3023 84.0481L35.2367 83.6722L34.9088 83.5259L34.0637 81.8079Z" fill="#CCF0FF"/>
</g>
<path d="M28.2156 47.413C28.2156 47.413 33.5132 54.2243 37.9633 54.2243C42.4133 54.2243 58.2129 47.63 58.2129 47.63L53.9899 41.3485C46.1746 42.0912 38.3005 40.7871 31.1419 37.5645C30.1665 40.8456 29.191 44.1285 28.2156 47.413Z" fill="#1B1464"/>
<path d="M23.1242 26.8379C23.1242 26.8379 31.8956 28.6795 32.3295 36.5856C32.7634 44.4917 33.0863 60.2989 30.3794 60.7303C27.6726 61.1617 20.7428 55.0996 17.0596 55.2081C13.3765 55.3166 6.99914 59.4084 4.71611 60.0794C-0.806065 61.704 -1.8883 41.4544 1.46688 34.9585C8.82305 20.7254 23.1242 26.8379 23.1242 26.8379Z" fill="#1B1464"/>
<path d="M57.6317 45.2107C58.3885 46.5099 61.0348 45.5941 63.0101 44.4539C64.9853 43.3136 65.4571 40.8439 64.7079 39.5447C63.9586 38.2456 62.2356 38.6113 60.2603 39.7516C58.2851 40.8919 56.8825 43.9115 57.6317 45.2107Z" fill="#F7AFA1"/>
<path d="M35.6661 12.7963L36.3422 38.7801C36.3556 39.3053 36.4724 39.8227 36.6861 40.3028C36.8997 40.7828 37.2059 41.216 37.5871 41.5775C37.9683 41.9391 38.4171 42.2219 38.9078 42.4098C39.3985 42.5977 39.9214 42.687 40.4466 42.6726L65.7012 42.0116C66.2264 41.9982 66.7437 41.8815 67.2237 41.668C67.7037 41.4546 68.137 41.1487 68.4987 40.7677C68.8604 40.3868 69.1435 39.9383 69.3319 39.4479C69.5202 38.9576 69.61 38.4349 69.5963 37.9097L69.0917 18.3488L68.9252 11.9235C68.9115 11.3984 68.7944 10.8811 68.5807 10.4012C68.367 9.92131 68.0608 9.48825 67.6796 9.12676C67.2984 8.76527 66.8498 8.48244 66.3593 8.29442C65.8687 8.1064 65.346 8.01688 64.8208 8.03098L39.5586 8.69193C39.0335 8.70566 38.5162 8.82273 38.0363 9.03647C37.5564 9.2502 37.1234 9.5564 36.7619 9.93757C36.4004 10.3187 36.1176 10.7674 35.9295 11.2579C35.7415 11.7484 35.652 12.2712 35.6661 12.7963Z" fill="#A3E4FF"/>
<path d="M49.492 45.9865C48.768 43.2049 50.3758 40.3787 53.0833 39.674C55.7907 38.9693 58.5724 40.6529 59.2965 43.4345C60.0205 46.216 58.4126 49.0422 55.7052 49.747C52.9978 50.4517 50.2161 48.7681 49.492 45.9865Z" fill="#A3E4FF"/>
<path d="M47.2244 7.58903C46.5004 4.80746 48.1083 1.98125 50.8157 1.27653C53.5231 0.571801 56.3048 2.25542 57.0289 5.037C57.7529 7.81857 56.145 10.6448 53.4376 11.3495C50.7302 12.0542 47.9485 10.3706 47.2244 7.58903Z" fill="#A3E4FF"/>
<path d="M35.6668 12.7965L36.3428 38.7802C36.363 39.5161 36.5856 40.2323 36.9861 40.85C37.3866 41.4677 37.9496 41.963 38.6133 42.2817C40.8837 40.9497 39.8242 38.1975 43.2399 37.0547C47.092 35.7656 43.9816 30.3898 47.0517 26.8302C50.1218 23.2707 55.4976 27.1077 61.6152 24.6582C64.4885 23.5079 67.1146 20.8489 69.0924 18.3515L68.9259 11.9262C68.9122 11.401 68.7951 10.8837 68.5814 10.4039C68.3676 9.92399 68.0614 9.49094 67.6803 9.12945C67.2991 8.76796 66.8504 8.48512 66.3599 8.2971C65.8694 8.10908 65.3466 8.01957 64.8215 8.03367L39.5593 8.69209C39.0341 8.70582 38.5168 8.8229 38.037 9.03663C37.5571 9.25036 37.124 9.55656 36.7626 9.93773C36.4011 10.3189 36.1182 10.7676 35.9302 11.2581C35.7422 11.7486 35.6527 12.2714 35.6668 12.7965ZM70.6136 20.4125C69.3019 20.774 68.187 21.6409 67.5136 22.8232C66.8402 24.0055 66.6631 25.4066 67.0213 26.7192C67.7453 29.4942 70.5278 31.1844 73.2347 30.4806C75.9415 29.7767 77.5485 26.9488 76.8245 24.1738C76.1005 21.3989 73.3204 19.7163 70.6136 20.4125Z" fill="#A3E4FF"/>
<path d="M12.6619 26.4553C13.4464 28.1708 15.172 29.1546 16.8823 29.3665C18.9636 29.6188 21.07 28.3196 21.3223 27.3761L21.0372 25.8827L20.8404 24.8458L20.7799 24.5255L13.4237 22.0608L12.6619 26.4553Z" fill="#F7AFA1"/>
<path d="M14.482 22.5315C14.482 22.5315 15.3725 26.2121 18.7706 26.6763C20.0521 26.8529 20.708 26.3685 21.041 25.8816L20.8442 24.8448L14.482 22.5315Z" fill="#F79480"/>
<path d="M11.9862 18.6109C11.7339 21.7516 15.6592 25.4221 18.8681 25.6744C22.077 25.9267 23.1567 23.8101 23.1996 20.6517C23.2702 16.1815 23.5578 13.5882 20.3464 13.3359C17.135 13.0837 12.2435 15.4701 11.9862 18.6109ZM35.7752 25.6568C35.417 27.8868 36.9205 29.1128 38.8957 29.1128C40.871 29.1128 42.9648 26.5271 42.9648 24.2567C42.9648 21.9862 41.32 20.5811 39.3851 20.1649C37.758 19.8142 36.1157 23.5326 35.7752 25.6568Z" fill="#F7AFA1"/>
<path d="M38.0286 20.5285C37.1306 22.0825 37.5569 22.2591 37.9782 22.5038C38.3995 22.7485 39.4691 21.6864 40.3672 20.1324C41.2653 18.5785 41.6487 17.1203 41.2274 16.8756C40.8061 16.6309 38.9343 18.9745 38.0286 20.5285ZM35.3521 24.0754C35.6271 25.9069 36.1997 26.8504 36.7572 26.7595C37.3147 26.6687 37.5468 25.1223 37.2744 23.2908C37.0019 21.4594 36.3258 20.0391 35.7608 20.1223C35.1957 20.2056 35.0796 22.2389 35.3521 24.0754Z" fill="#F7AFA1"/>
<path d="M40.7593 19.2541C39.9394 20.8509 39.6266 22.3242 40.058 22.5487C40.4894 22.7732 41.5086 21.6582 42.3284 20.0613C43.1483 18.4645 43.4611 16.9937 43.0272 16.7692C42.5933 16.5447 41.5792 17.6597 40.7593 19.2541Z" fill="#F7AFA1"/>
<path d="M41.9153 20.4735C41.1585 22.1056 40.9238 23.5915 41.3653 23.7933C41.8068 23.9951 42.7755 22.8398 43.5222 21.2076C44.2689 19.5754 44.5136 18.0895 44.0696 17.8877C43.6256 17.6859 42.662 18.8362 41.9153 20.4735Z" fill="#F7AFA1"/>
<path d="M42.1847 22.9962C41.5237 24.6662 41.332 26.7651 41.7861 26.9442C42.2402 27.1233 43.166 25.3146 43.827 23.6471C44.4879 21.9796 44.9117 20.4836 44.4576 20.3045C44.0036 20.1254 42.8456 21.3312 42.1847 22.9962ZM59.1473 42.2872C59.3995 44.4164 59.7653 44.3508 60.3027 44.3811C60.84 44.4113 61.0595 43.2004 61.1679 41.3135C61.2764 39.4265 60.7214 37.5799 60.1841 37.5496C59.6468 37.5193 58.9253 40.4028 59.1473 42.2872Z" fill="#F7AFA1"/>
<path d="M60.5553 40.7351C60.7016 42.5943 61.2717 43.1821 61.7763 43.1417C62.2808 43.1014 62.5735 41.5651 62.4271 39.7058C62.2808 37.8466 61.7435 36.3658 61.239 36.4137C60.7344 36.4617 60.409 38.8885 60.5553 40.7351Z" fill="#F7AFA1"/>
<path d="M61.7931 39.2445C61.8536 41.1088 62.3153 42.6047 62.8198 42.5871C63.3244 42.5694 63.7204 41.578 63.6599 39.7238C63.5993 37.8696 63.1049 35.8263 62.5978 35.8414C62.0908 35.8565 61.73 37.3752 61.7931 39.2445Z" fill="#F7AFA1"/>
<path d="M63.2248 40.8435C63.2853 42.7053 63.7949 43.0559 64.2994 43.0408C64.804 43.0256 65.1672 41.4994 65.1067 39.6352C65.0461 37.7709 64.5845 36.2775 64.0774 36.2926C63.5704 36.3077 63.1642 38.9793 63.2248 40.8435Z" fill="#F7AFA1"/>
<path d="M40.4992 27.9178L36.3493 25.5793C35.769 25.2518 35.0852 25.1595 34.4388 25.3214C33.7925 25.4833 33.2329 25.8872 32.8756 26.4496C30.2343 30.6171 24.1975 39.4894 20.9609 39.0757C16.7379 38.5333 10.9988 33.0212 5.69107 33.0212C2.55284 33.0212 -1.34724 38.4349 3.20117 44.2825C7.74958 50.1301 17.2778 54.1362 24.644 52.4031C31.3292 50.8314 38.8266 36.8633 41.5461 31.3487C41.8441 30.7515 41.9016 30.0628 41.7068 29.4245C41.5121 28.7861 41.0798 28.2469 40.4992 27.9178Z" fill="#21187A"/>
<path d="M25.6523 16.1189C25.6523 16.1189 21.7926 16.023 18.4677 15.9751C16.0131 15.9397 14.9359 15.8969 14.9359 15.8969C14.9359 15.8969 14.7921 17.8873 14.502 18.3161C14.0681 18.9619 13.4021 17.6854 12.4839 18.0639C11.5656 18.4423 13.0439 19.3454 13.2054 21.1314C13.3668 22.9175 13.6746 24.9609 13.6746 24.9609L7.03487 23.9821C7.03487 23.9821 5.71045 15.6269 10.1756 11.5351C11.4748 10.3444 13.7831 9.4413 15.66 9.22434C18.1019 8.94433 20.2815 9.04523 22.2669 10.2713C24.8829 11.8959 25.6523 16.1189 25.6523 16.1189Z" fill="#CCF0FF"/>
<path d="M14.394 19.144C14.4167 20.2489 13.7028 21.1621 12.7997 21.1621C11.8966 21.1621 11.1624 19.9437 11.1423 18.8387C11.1221 17.7338 11.8209 17.1738 12.7215 17.1637C13.6221 17.1536 14.3738 18.039 14.394 19.144Z" fill="#F7AFA1"/>
<path d="M16.8385 120.006C16.8749 120.006 16.91 119.993 16.9374 119.969C16.9647 119.945 16.9824 119.911 16.9873 119.875L20.7713 92.996V92.9707L18.0645 79.6509C18.0554 79.612 18.0318 79.5781 17.9985 79.556C17.9652 79.534 17.9247 79.5255 17.8854 79.5324C17.8658 79.5363 17.8472 79.544 17.8306 79.5552C17.814 79.5663 17.7998 79.5806 17.7888 79.5972C17.7778 79.6139 17.7702 79.6326 17.7664 79.6522C17.7626 79.6718 17.7628 79.6919 17.7668 79.7115L20.4686 93.0035L16.6846 119.832C16.6817 119.852 16.6828 119.872 16.6877 119.891C16.6926 119.911 16.7013 119.929 16.7133 119.945C16.7252 119.961 16.7402 119.974 16.7574 119.984C16.7745 119.994 16.7935 120.001 16.8132 120.004L16.8385 120.006ZM10.1306 72.0375C10.1708 72.0375 10.2093 72.0215 10.2377 71.9931C10.266 71.9647 10.282 71.9262 10.282 71.8861V59.4316L9.98179 59.4063L8.35717 69.0455C8.35048 69.0854 8.35989 69.1262 8.3833 69.1591C8.40672 69.1919 8.44224 69.2142 8.48205 69.2209C8.52186 69.2276 8.56269 69.2182 8.59557 69.1947C8.62845 69.1713 8.65068 69.1358 8.65738 69.096L9.97926 61.2429V71.8861C9.97926 71.9262 9.9952 71.9647 10.0236 71.9931C10.052 72.0215 10.0905 72.0375 10.1306 72.0375ZM26.1573 70.0874H26.1976C26.2169 70.0822 26.2349 70.0732 26.2506 70.0609C26.2664 70.0487 26.2796 70.0335 26.2894 70.0161C26.2993 69.9988 26.3056 69.9796 26.308 69.9598C26.3105 69.94 26.3089 69.9199 26.3036 69.9007L23.6169 60.3145L27.7567 67.7489C27.7764 67.784 27.8093 67.8098 27.8481 67.8207C27.8869 67.8316 27.9284 67.8266 27.9635 67.8069C27.9986 67.7872 28.0245 67.7543 28.0354 67.7155C28.0463 67.6767 28.0413 67.6352 28.0215 67.6L22.6406 57.9129L26.0185 69.9764C26.0273 70.007 26.0454 70.0341 26.0703 70.054C26.0951 70.0738 26.1255 70.0855 26.1573 70.0874ZM18.0493 64.8554C18.4243 64.8571 18.791 64.7454 19.1013 64.535L19.1669 64.4845V64.4013L18.5085 55.7283L16.1649 55.3574V55.529C16.1649 55.5491 16.0842 57.6152 16.1371 59.7343C16.2481 64.0935 16.8107 64.4315 16.9949 64.5425C17.3113 64.741 17.6759 64.8492 18.0493 64.8554ZM18.8566 64.3357C18.5944 64.4871 18.2952 64.5623 17.9926 64.553C17.69 64.5436 17.396 64.45 17.1437 64.2827C16.4247 63.8513 16.339 58.869 16.4525 55.7056L18.2184 55.9856L18.8566 64.3357Z" fill="#4D4BC4"/>
<path d="M20.2282 20.8541C20.3355 20.8549 20.4415 20.8316 20.5385 20.786C20.9674 20.5817 20.5385 19.3531 20.4074 18.9798C20.4029 18.9674 20.396 18.9561 20.387 18.9464C20.3781 18.9368 20.3673 18.929 20.3553 18.9236C20.3433 18.9182 20.3303 18.9152 20.3172 18.9149C20.304 18.9146 20.2909 18.9169 20.2787 18.9218C20.2663 18.9262 20.255 18.9332 20.2453 18.9421C20.2357 18.951 20.2279 18.9618 20.2225 18.9738C20.2171 18.9858 20.2141 18.9988 20.2138 19.0119C20.2135 19.0251 20.2158 19.0382 20.2207 19.0504C20.4729 19.7341 20.6268 20.5212 20.4502 20.6044C20.334 20.6392 20.2118 20.6493 20.0915 20.6341C19.9712 20.6189 19.8553 20.5787 19.7515 20.5161C19.7284 20.5024 19.7008 20.4984 19.6748 20.505C19.6487 20.5117 19.6264 20.5283 19.6127 20.5514C19.599 20.5745 19.595 20.6021 19.6016 20.6281C19.6083 20.6541 19.6249 20.6765 19.648 20.6902C19.8253 20.7909 20.0244 20.8472 20.2282 20.8541ZM19.2293 21.9591C19.4581 21.9574 19.6832 21.9003 19.8852 21.7926C19.8968 21.786 19.9071 21.7772 19.9153 21.7667C19.9235 21.7561 19.9296 21.7441 19.9331 21.7311C19.9366 21.7182 19.9376 21.7047 19.9358 21.6915C19.9341 21.6782 19.9297 21.6654 19.923 21.6538C19.9098 21.6309 19.8881 21.6142 19.8626 21.6071C19.8371 21.6 19.8099 21.6032 19.7868 21.616C19.6464 21.6905 19.492 21.735 19.3335 21.7467C19.175 21.7584 19.0158 21.7371 18.866 21.6841C18.5855 21.5588 18.3603 21.3355 18.2328 21.056C18.228 21.0435 18.2209 21.0321 18.2117 21.0224C18.2025 21.0127 18.1915 21.005 18.1793 20.9996C18.1671 20.9942 18.154 20.9913 18.1406 20.991C18.1273 20.9907 18.114 20.9931 18.1016 20.9979C18.0895 21.0027 18.0784 21.0098 18.069 21.0188C18.0596 21.0279 18.0521 21.0387 18.0469 21.0507C18.0418 21.0626 18.039 21.0755 18.0389 21.0885C18.0388 21.1016 18.0412 21.1145 18.0461 21.1266C18.1874 21.4636 18.4517 21.7342 18.7853 21.8834C18.9266 21.9384 19.0777 21.9641 19.2293 21.9591ZM13.5608 18.7073C13.5762 18.7074 13.5914 18.7041 13.6054 18.6976C13.6194 18.691 13.6317 18.6814 13.6415 18.6695C13.6578 18.6484 13.6651 18.6217 13.6618 18.5952C13.6585 18.5687 13.6448 18.5447 13.6238 18.5282C13.4272 18.395 13.2059 18.3024 12.973 18.2558C12.7171 18.1906 12.4549 18.1534 12.1909 18.1448C12.1777 18.1448 12.1646 18.1474 12.1523 18.1525C12.1401 18.1575 12.129 18.165 12.1196 18.1743C12.1102 18.1837 12.1028 18.1948 12.0977 18.2071C12.0926 18.2193 12.09 18.2324 12.09 18.2457C12.09 18.2589 12.0926 18.2721 12.0977 18.2843C12.1028 18.2965 12.1102 18.3077 12.1196 18.317C12.129 18.3264 12.1401 18.3338 12.1523 18.3389C12.1646 18.344 12.1777 18.3466 12.1909 18.3466C12.4387 18.3556 12.6848 18.3911 12.925 18.4525C13.1298 18.4939 13.3249 18.5735 13.5002 18.6872C13.5179 18.6998 13.539 18.7068 13.5608 18.7073Z" fill="#EF8070"/>
<path d="M19.1506 16.9465L19.2969 17.6201L17.1324 17.9178L17.1526 17.3552L19.1506 16.9465Z" fill="#ED1E79"/>
<path d="M21.0277 16.9207L21.0479 17.5917L22.7734 17.6825L22.6246 17.0922L21.0277 16.9207Z" fill="#ED1E79"/>
<path d="M18.7781 18.7326C18.7806 18.7759 18.77 18.819 18.7478 18.8563C18.7255 18.8936 18.6926 18.9234 18.6532 18.9418C18.6139 18.9601 18.5699 18.9663 18.5271 18.9594C18.4842 18.9525 18.4443 18.9329 18.4127 18.9031C18.3811 18.8733 18.3592 18.8347 18.3497 18.7923C18.3403 18.75 18.3438 18.7057 18.3598 18.6653C18.3757 18.6249 18.4035 18.5903 18.4394 18.5658C18.4753 18.5414 18.5177 18.5283 18.5611 18.5282C18.5888 18.5272 18.6164 18.5317 18.6424 18.5415C18.6684 18.5512 18.6921 18.566 18.7123 18.585C18.7325 18.604 18.7487 18.6269 18.76 18.6522C18.7713 18.6775 18.7774 18.7048 18.7781 18.7326ZM21.8356 18.6644C21.8381 18.7078 21.8276 18.7509 21.8053 18.7882C21.783 18.8255 21.7501 18.8553 21.7108 18.8736C21.6714 18.892 21.6274 18.8982 21.5846 18.8913C21.5417 18.8844 21.5019 18.8648 21.4702 18.835C21.4386 18.8052 21.4167 18.7666 21.4072 18.7242C21.3978 18.6818 21.4013 18.6376 21.4173 18.5972C21.4332 18.5568 21.461 18.5222 21.4969 18.4977C21.5328 18.4733 21.5752 18.4602 21.6186 18.4601C21.6463 18.4591 21.674 18.4636 21.6999 18.4733C21.7259 18.4831 21.7496 18.4979 21.7698 18.5169C21.79 18.5359 21.8062 18.5588 21.8175 18.5841C21.8288 18.6094 21.8349 18.6367 21.8356 18.6644Z" fill="#ED1E79"/>
<path d="M14.8387 16.3891C14.8387 16.3891 14.2812 19.7292 14.8942 21.6414C15.3639 23.0197 15.9183 24.3677 16.5541 25.6777L14.7504 25.4254C14.7504 25.4254 13.7413 21.5657 13.6303 19.1464C13.5193 16.7272 13.7035 16.0057 13.7035 16.0057L14.8387 16.3891ZM26.2337 23.7529C26.2337 23.7327 26.3068 21.5934 26.1984 19.5173C26.1034 18.1148 25.8719 16.7249 25.5072 15.3674L25.2145 15.4507C25.576 16.7854 25.8042 18.1526 25.8956 19.5324C26.0016 21.596 25.9335 23.7226 25.931 23.7428L26.2337 23.7529Z" fill="#CCF0FF"/>
<path d="M17.9828 18.692C17.9961 18.6947 18.0098 18.6947 18.0232 18.692C18.1459 18.6445 18.2752 18.6164 18.4066 18.6088C18.6328 18.6142 18.8578 18.6438 19.0777 18.6971C19.1041 18.7032 19.1318 18.6987 19.1549 18.6845C19.1781 18.6704 19.1947 18.6477 19.2013 18.6214C19.2043 18.6085 19.2047 18.5951 19.2025 18.582C19.2003 18.5689 19.1956 18.5564 19.1885 18.5452C19.1815 18.5339 19.1723 18.5242 19.1615 18.5165C19.1507 18.5088 19.1385 18.5033 19.1256 18.5003C18.8853 18.441 18.639 18.4097 18.3915 18.407C18.2372 18.4154 18.0855 18.4495 17.9424 18.5079C17.9221 18.5177 17.9057 18.534 17.8957 18.5543C17.8858 18.5745 17.8829 18.5975 17.8876 18.6196C17.8922 18.6416 17.9041 18.6615 17.9214 18.676C17.9386 18.6905 17.9603 18.6988 17.9828 18.6996V18.692ZM21.1286 18.6567C21.1517 18.657 21.1741 18.6489 21.1917 18.634C21.2909 18.5951 21.3956 18.5721 21.502 18.5659C21.6758 18.5471 21.8516 18.5582 22.0216 18.5987C22.0344 18.6024 22.0477 18.6034 22.0609 18.6019C22.0741 18.6004 22.0868 18.5963 22.0984 18.5899C22.11 18.5834 22.1202 18.5748 22.1285 18.5644C22.1367 18.554 22.1429 18.5421 22.1465 18.5293C22.1501 18.5166 22.1512 18.5032 22.1497 18.49C22.1482 18.4769 22.1441 18.4641 22.1377 18.4525C22.1312 18.4409 22.1226 18.4307 22.1122 18.4225C22.1018 18.4142 22.0899 18.4081 22.0771 18.4045C21.8819 18.3552 21.6794 18.3415 21.4793 18.3641C21.3306 18.3667 21.1853 18.4085 21.058 18.4852C21.0485 18.4944 21.041 18.5053 21.0358 18.5175C21.0307 18.5296 21.0281 18.5426 21.0281 18.5558C21.0281 18.569 21.0307 18.582 21.0358 18.5942C21.041 18.6063 21.0485 18.6173 21.058 18.6265C21.0671 18.636 21.0781 18.6436 21.0902 18.6488C21.1023 18.654 21.1154 18.6567 21.1286 18.6567Z" fill="#ED1E79"/>
<path d="M39.5143 21.2727C39.5314 21.2723 39.5482 21.2677 39.5631 21.2593C39.578 21.251 39.5907 21.2391 39.6001 21.2248L41.0809 18.8055C41.0946 18.7825 41.0986 18.7549 41.092 18.7289C41.0854 18.7028 41.0687 18.6805 41.0456 18.6668C41.0225 18.6531 40.9949 18.6491 40.9689 18.6557C40.9429 18.6623 40.9206 18.679 40.9068 18.7021L39.4286 21.1188C39.4191 21.1341 39.4139 21.1516 39.4135 21.1696C39.4132 21.1875 39.4175 21.2053 39.4263 21.221C39.435 21.2366 39.4478 21.2497 39.4633 21.2588C39.4787 21.2679 39.4964 21.2727 39.5143 21.2727ZM40.922 21.8151C40.9391 21.8146 40.9558 21.81 40.9708 21.8017C40.9857 21.7933 40.9984 21.7815 41.0078 21.7672L42.8468 18.8434C42.861 18.822 42.8666 18.7961 42.8624 18.7708C42.8582 18.7455 42.8445 18.7227 42.8241 18.7072C42.8129 18.6999 42.8004 18.6949 42.7873 18.6926C42.7741 18.6903 42.7607 18.6907 42.7477 18.6938C42.7347 18.6969 42.7225 18.7025 42.7118 18.7105C42.7011 18.7184 42.6921 18.7284 42.6853 18.74L40.8438 21.6612C40.8294 21.6841 40.8245 21.7116 40.8302 21.738C40.8358 21.7644 40.8516 21.7876 40.874 21.8025C40.8888 21.8103 40.9052 21.8147 40.922 21.8151ZM42.3196 23.079C42.337 23.079 42.3542 23.0743 42.3693 23.0654C42.3844 23.0565 42.3968 23.0438 42.4053 23.0285L43.7878 20.7253C43.8015 20.7022 43.8055 20.6746 43.7988 20.6486C43.7922 20.6226 43.7755 20.6003 43.7524 20.5866C43.7294 20.5728 43.7018 20.5689 43.6758 20.5755C43.6497 20.5821 43.6274 20.5988 43.6137 20.6219L42.2414 22.9327C42.2345 22.9441 42.23 22.9567 42.2281 22.9699C42.2262 22.9831 42.2269 22.9965 42.2301 23.0094C42.2334 23.0223 42.2392 23.0344 42.2472 23.045C42.2552 23.0557 42.2652 23.0647 42.2767 23.0714C42.2903 23.0769 42.3049 23.0795 42.3196 23.079ZM63.6237 41.1591C63.6373 41.1588 63.6506 41.1558 63.6631 41.1503C63.6755 41.1448 63.6867 41.1369 63.6961 41.127C63.7054 41.1172 63.7128 41.1056 63.7177 41.0929C63.7226 41.0803 63.7249 41.0667 63.7246 41.0532L63.6161 37.9502C63.6158 37.937 63.6128 37.9239 63.6075 37.9118C63.6021 37.8997 63.5944 37.8888 63.5848 37.8796C63.5752 37.8705 63.5639 37.8633 63.5515 37.8586C63.5391 37.8538 63.5259 37.8515 63.5127 37.8519C63.4859 37.8538 63.4609 37.8658 63.4426 37.8854C63.4243 37.9051 63.4142 37.931 63.4143 37.9578L63.5228 41.0607C63.524 41.0868 63.5351 41.1115 63.5539 41.1298C63.5726 41.148 63.5975 41.1585 63.6237 41.1591ZM62.1807 41.2323C62.1939 41.2316 62.2069 41.2284 62.2189 41.2227C62.2309 41.217 62.2417 41.209 62.2506 41.1992C62.2595 41.1893 62.2664 41.1778 62.2708 41.1653C62.2753 41.1528 62.2772 41.1396 62.2765 41.1263L62.0596 37.5517C62.0579 37.5249 62.0457 37.4999 62.0256 37.4822C62.0055 37.4644 61.9792 37.4554 61.9524 37.4571C61.9256 37.4587 61.9006 37.471 61.8829 37.4911C61.8651 37.5112 61.8561 37.5375 61.8578 37.5643L62.0747 41.1389C62.0767 41.1653 62.0889 41.1898 62.1087 41.2072C62.1285 41.2247 62.1543 41.2337 62.1807 41.2323ZM60.773 41.4114C60.7867 41.4114 60.8003 41.4086 60.8128 41.4032C60.8254 41.3979 60.8368 41.39 60.8462 41.3801C60.8557 41.3702 60.863 41.3584 60.8678 41.3456C60.8725 41.3328 60.8746 41.3191 60.8739 41.3054L60.7655 38.2378C60.7635 38.2117 60.7518 38.1873 60.7326 38.1695C60.7134 38.1518 60.6882 38.1419 60.662 38.142C60.6488 38.1423 60.6357 38.1452 60.6236 38.1506C60.6115 38.156 60.6005 38.1637 60.5914 38.1733C60.5823 38.1829 60.5751 38.1942 60.5704 38.2066C60.5656 38.219 60.5633 38.2321 60.5636 38.2454L60.6721 41.313C60.6734 41.3391 60.6845 41.3638 60.7032 41.382C60.7219 41.4003 60.7469 41.4108 60.773 41.4114Z" fill="#EF8070"/>
</g>
<defs>
<clipPath id="clip0_2686_97715">
<rect width="76.9988" height="84" fill="white" transform="matrix(-1 0 0 1 77 0)"/>
</clipPath>
</defs>
</svg>
