<svg width="53" height="53" viewBox="0 0 53 53" fill="none" xmlns="http://www.w3.org/2000/svg">
<g clip-path="url(#clip0_2438_22036)">
<path d="M36.4737 19.8862V5.93881C36.4737 5.199 36.1798 4.48948 35.6567 3.96636C35.1335 3.44323 34.424 3.14934 33.6842 3.14934H8.57895C7.83913 3.14934 7.12962 3.44323 6.60649 3.96636C6.08336 4.48948 5.78947 5.199 5.78947 5.93881V47.7809C5.78947 48.5207 6.08336 49.2302 6.60649 49.7534C7.12962 50.2765 7.83913 50.5704 8.57895 50.5704H33.6842C34.424 50.5704 35.1335 50.2765 35.6567 49.7534C36.1798 49.2302 36.4737 48.5207 36.4737 47.7809V33.8335H39.2632V47.7809C39.2587 49.2592 38.6696 50.6757 37.6243 51.721C36.579 52.7663 35.1625 53.3554 33.6842 53.3599H8.57895C7.10068 53.3554 5.68421 52.7663 4.63891 51.721C3.59361 50.6757 3.00441 49.2592 3 47.7809V5.93881C3.00441 4.46054 3.59361 3.04408 4.63891 1.99878C5.68421 0.953476 7.10068 0.364278 8.57895 0.359863H33.6842C35.1625 0.364278 36.579 0.953476 37.6243 1.99878C38.6696 3.04408 39.2587 4.46054 39.2632 5.93881V19.8862H36.4737Z" fill="#12323E"/>
<path d="M26.0127 3.14941C26.0075 3.70012 25.7846 4.22638 25.3925 4.61318C25.0005 4.99998 24.4713 5.21586 23.9206 5.21362H18.3416C17.7909 5.21586 17.2617 4.99998 16.8697 4.61318C16.4776 4.22638 16.2547 3.70012 16.2495 3.14941H26.0127ZM15.382 29.8196C15.6435 30.081 15.9982 30.2279 16.3681 30.2279C16.7379 30.2279 17.0926 30.081 17.3542 29.8196L18.3416 28.8321L19.3291 29.8196C19.5922 30.0736 19.9445 30.2142 20.3102 30.211C20.6759 30.2079 21.0257 30.0612 21.2843 29.8026C21.5429 29.544 21.6895 29.1942 21.6927 28.8285C21.6959 28.4628 21.5553 28.1105 21.3013 27.8474L20.3138 26.8599L21.3013 25.8725C21.5553 25.6094 21.6959 25.2571 21.6927 24.8914C21.6895 24.5257 21.5429 24.1759 21.2843 23.9173C21.0257 23.6587 20.6759 23.512 20.3102 23.5088C19.9445 23.5057 19.5922 23.6462 19.3291 23.9003L18.3416 24.8878L17.3542 23.9003C17.0911 23.6462 16.7388 23.5057 16.3731 23.5088C16.0074 23.512 15.6576 23.6587 15.399 23.9173C15.1404 24.1759 14.9937 24.5257 14.9905 24.8914C14.9874 25.2571 15.1279 25.6094 15.382 25.8725L16.3695 26.8599L15.382 27.8474C15.1205 28.109 14.9736 28.4637 14.9736 28.8335C14.9736 29.2033 15.1205 29.558 15.382 29.8196ZM23.7504 29.8196C24.012 30.081 24.3667 30.2279 24.7365 30.2279C25.1063 30.2279 25.461 30.081 25.7226 29.8196L26.71 28.8321L27.6975 29.8196C27.9606 30.0736 28.3129 30.2142 28.6786 30.211C29.0443 30.2079 29.3941 30.0612 29.6527 29.8026C29.9113 29.544 30.058 29.1942 30.0611 28.8285C30.0643 28.4628 29.9237 28.1105 29.6697 27.8474L28.6822 26.8599L29.6697 25.8725C29.9237 25.6094 30.0643 25.2571 30.0611 24.8914C30.058 24.5257 29.9113 24.1759 29.6527 23.9173C29.3941 23.6587 29.0443 23.512 28.6786 23.5088C28.3129 23.5057 27.9606 23.6462 27.6975 23.9003L26.71 24.8878L25.7226 23.9003C25.4595 23.6462 25.1072 23.5057 24.7415 23.5088C24.3758 23.512 24.026 23.6587 23.7674 23.9173C23.5088 24.1759 23.3621 24.5257 23.3589 24.8914C23.3558 25.2571 23.4964 25.6094 23.7504 25.8725L24.7379 26.8599L23.7504 27.8474C23.4889 28.109 23.3421 28.4637 23.3421 28.8335C23.3421 29.2033 23.4889 29.558 23.7504 29.8196ZM32.1188 29.8196C32.3804 30.081 32.7351 30.2279 33.1049 30.2279C33.4747 30.2279 33.8294 30.081 34.091 29.8196L35.0785 28.8321L36.0659 29.8196C36.329 30.0736 36.6813 30.2142 37.047 30.211C37.4127 30.2079 37.7625 30.0612 38.0211 29.8026C38.2797 29.544 38.4264 29.1942 38.4296 28.8285C38.4327 28.4628 38.2922 28.1105 38.0381 27.8474L37.0506 26.8599L38.0381 25.8725C38.2922 25.6094 38.4327 25.2571 38.4296 24.8914C38.4264 24.5257 38.2797 24.1759 38.0211 23.9173C37.7625 23.6587 37.4127 23.512 37.047 23.5088C36.6813 23.5057 36.329 23.6462 36.0659 23.9003L35.0785 24.8878L34.091 23.9003C33.8279 23.6462 33.4756 23.5057 33.1099 23.5088C32.7442 23.512 32.3944 23.6587 32.1358 23.9173C31.8772 24.1759 31.7305 24.5257 31.7274 24.8914C31.7242 25.2571 31.8648 25.6094 32.1188 25.8725L33.1063 26.8599L32.1188 27.8474C31.8574 28.109 31.7105 28.4637 31.7105 28.8335C31.7105 29.2033 31.8574 29.558 32.1188 29.8196ZM40.4873 29.8196C40.7488 30.081 41.1035 30.2279 41.4733 30.2279C41.8432 30.2279 42.1979 30.081 42.4594 29.8196L43.4469 28.8321L44.4344 29.8196C44.6974 30.0736 45.0497 30.2142 45.4154 30.211C45.7811 30.2079 46.1309 30.0612 46.3895 29.8026C46.6481 29.544 46.7948 29.1942 46.798 28.8285C46.8012 28.4628 46.6606 28.1105 46.4065 27.8474L45.4191 26.8599L46.4065 25.8725C46.6606 25.6094 46.8012 25.2571 46.798 24.8914C46.7948 24.5257 46.6481 24.1759 46.3895 23.9173C46.1309 23.6587 45.7811 23.512 45.4154 23.5088C45.0497 23.5057 44.6974 23.6462 44.4344 23.9003L43.4469 24.8878L42.4594 23.9003C42.1964 23.6462 41.8441 23.5057 41.4784 23.5088C41.1127 23.512 40.7628 23.6587 40.5042 23.9173C40.2457 24.1759 40.099 24.5257 40.0958 24.8914C40.0926 25.2571 40.2332 25.6094 40.4873 25.8725L41.4747 26.8599L40.4873 27.8474C40.2258 28.109 40.0789 28.4637 40.0789 28.8335C40.0789 29.2033 40.2258 29.558 40.4873 29.8196Z" fill="#015DFF"/>
<path d="M49.0251 19.8867H12.7619C12.392 19.8867 12.0373 20.0337 11.7757 20.2952C11.5141 20.5568 11.3672 20.9115 11.3672 21.2815V32.4393C11.3672 32.8093 11.5141 33.164 11.7757 33.4256C12.0373 33.6871 12.392 33.8341 12.7619 33.8341H49.0251C49.395 33.8341 49.7497 33.6871 50.0113 33.4256C50.2729 33.164 50.4198 32.8093 50.4198 32.4393V21.2815C50.4198 20.9115 50.2729 20.5568 50.0113 20.2952C49.7497 20.0337 49.395 19.8867 49.0251 19.8867ZM47.6303 31.0446H14.1567V22.6762H47.6303V31.0446Z" fill="#EC5239"/>
</g>
<defs>
<clipPath id="clip0_2438_22036">
<rect width="53" height="53" fill="white" transform="matrix(1 0 0 -1 0 53)"/>
</clipPath>
</defs>
</svg>
