<svg width="24" height="24" viewBox="0 0 24 24" fill="none" xmlns="http://www.w3.org/2000/svg">
<path d="M15.6 10.6C15.6 9.94 16.14 9.4 16.8 9.4C17.46 9.4 18 9.94 18 10.6C18 11.26 17.46 11.8 16.8 11.8C16.14 11.8 15.6 11.26 15.6 10.6ZM7.2 9.4H13.2V7H7.2V9.4ZM24 7.6V15.964L20.616 17.092L18.6 23.8H12V21.4H9.6V23.8H3C3 23.8 0 13.648 0 10C0 6.352 2.952 3.4 6.6 3.4H12.6C13.692 1.948 15.432 1 17.4 1C17.6965 1.00006 17.9885 1.07349 18.2498 1.21374C18.511 1.35398 18.7336 1.55669 18.8975 1.8038C19.0615 2.0509 19.1617 2.33473 19.1894 2.62999C19.217 2.92524 19.1712 3.22275 19.056 3.496C18.888 3.904 18.744 4.372 18.672 4.876L21.396 7.6H24ZM21.6 10H20.4L16.2 5.8C16.2 5.02 16.308 4.252 16.512 3.508C15.348 3.808 14.4 4.672 14.004 5.8H6.6C4.284 5.8 2.4 7.684 2.4 10C2.4 12.256 3.864 17.98 4.812 21.4H7.2V19H14.4V21.4H16.812L18.672 15.22L21.6 14.236V10Z" fill="#53BD6F"/>
</svg>
