<svg width="826" height="600" viewBox="0 0 826 600" fill="none" xmlns="http://www.w3.org/2000/svg">
<rect width="826" height="600" fill="#ECE9FB"/>
<rect width="118" height="44" transform="translate(682 24)" fill="#DBD5FF"/>
<path d="M712.253 52.216C711.509 52.216 710.825 52.078 710.201 51.802C709.577 51.526 709.031 51.13 708.563 50.614C708.107 50.086 707.747 49.444 707.483 48.688C707.231 47.92 707.105 47.056 707.105 46.096C707.105 45.148 707.237 44.296 707.501 43.54C707.765 42.784 708.131 42.142 708.599 41.614C709.067 41.086 709.619 40.684 710.255 40.408C710.891 40.12 711.587 39.976 712.343 39.976C713.063 39.976 713.693 40.126 714.233 40.426C714.785 40.714 715.235 41.05 715.583 41.434L714.773 42.406C714.461 42.07 714.107 41.8 713.711 41.596C713.315 41.392 712.865 41.29 712.361 41.29C711.797 41.29 711.287 41.404 710.831 41.632C710.375 41.848 709.985 42.166 709.661 42.586C709.337 42.994 709.085 43.492 708.905 44.08C708.737 44.668 708.653 45.328 708.653 46.06C708.653 46.804 708.737 47.476 708.905 48.076C709.085 48.664 709.331 49.168 709.643 49.588C709.955 50.008 710.333 50.332 710.777 50.56C711.233 50.788 711.743 50.902 712.307 50.902C712.883 50.902 713.387 50.788 713.819 50.56C714.251 50.32 714.659 49.99 715.043 49.57L715.871 50.506C715.403 51.046 714.875 51.466 714.287 51.766C713.699 52.066 713.021 52.216 712.253 52.216ZM721.33 52.216C720.79 52.216 720.274 52.114 719.782 51.91C719.302 51.706 718.876 51.412 718.504 51.028C718.132 50.632 717.832 50.152 717.604 49.588C717.388 49.012 717.28 48.364 717.28 47.644C717.28 46.912 717.388 46.264 717.604 45.7C717.832 45.124 718.132 44.638 718.504 44.242C718.876 43.846 719.302 43.546 719.782 43.342C720.274 43.138 720.79 43.036 721.33 43.036C721.87 43.036 722.38 43.138 722.86 43.342C723.352 43.546 723.784 43.846 724.156 44.242C724.528 44.638 724.822 45.124 725.038 45.7C725.266 46.264 725.38 46.912 725.38 47.644C725.38 48.364 725.266 49.012 725.038 49.588C724.822 50.152 724.528 50.632 724.156 51.028C723.784 51.412 723.352 51.706 722.86 51.91C722.38 52.114 721.87 52.216 721.33 52.216ZM721.33 50.992C721.702 50.992 722.044 50.914 722.356 50.758C722.668 50.59 722.932 50.362 723.148 50.074C723.376 49.774 723.55 49.42 723.67 49.012C723.79 48.604 723.85 48.148 723.85 47.644C723.85 47.14 723.79 46.684 723.67 46.276C723.55 45.856 723.376 45.496 723.148 45.196C722.932 44.896 722.668 44.668 722.356 44.512C722.044 44.344 721.702 44.26 721.33 44.26C720.958 44.26 720.616 44.344 720.304 44.512C719.992 44.668 719.722 44.896 719.494 45.196C719.278 45.496 719.11 45.856 718.99 46.276C718.87 46.684 718.81 47.14 718.81 47.644C718.81 48.148 718.87 48.604 718.99 49.012C719.11 49.42 719.278 49.774 719.494 50.074C719.722 50.362 719.992 50.59 720.304 50.758C720.616 50.914 720.958 50.992 721.33 50.992ZM731.284 52.216C729.976 52.216 728.962 51.742 728.242 50.794C727.522 49.834 727.162 48.466 727.162 46.69C727.162 45.214 727.288 44.026 727.54 43.126C727.804 42.226 728.176 41.518 728.656 41.002C729.136 40.474 729.712 40.102 730.384 39.886C731.068 39.658 731.824 39.478 732.652 39.346C732.892 39.31 733.096 39.28 733.264 39.256C733.432 39.22 733.582 39.184 733.714 39.148C733.858 39.112 733.984 39.07 734.092 39.022C734.212 38.974 734.338 38.92 734.47 38.86L734.758 40.21C734.518 40.366 734.248 40.486 733.948 40.57C733.66 40.642 733.33 40.708 732.958 40.768C732.25 40.876 731.638 40.99 731.122 41.11C730.618 41.23 730.192 41.434 729.844 41.722C729.508 41.998 729.244 42.394 729.052 42.91C728.86 43.426 728.728 44.134 728.656 45.034C729.04 44.554 729.49 44.194 730.006 43.954C730.534 43.702 731.074 43.576 731.626 43.576C732.142 43.576 732.616 43.672 733.048 43.864C733.48 44.044 733.846 44.314 734.146 44.674C734.458 45.022 734.698 45.448 734.866 45.952C735.046 46.456 735.136 47.026 735.136 47.662C735.136 48.358 735.034 48.988 734.83 49.552C734.626 50.116 734.35 50.596 734.002 50.992C733.654 51.388 733.246 51.694 732.778 51.91C732.31 52.114 731.812 52.216 731.284 52.216ZM731.284 50.992C731.62 50.992 731.926 50.914 732.202 50.758C732.49 50.59 732.736 50.362 732.94 50.074C733.156 49.774 733.318 49.42 733.426 49.012C733.546 48.604 733.606 48.154 733.606 47.662C733.606 46.762 733.402 46.048 732.994 45.52C732.586 44.98 732.004 44.71 731.248 44.71C730.828 44.71 730.39 44.824 729.934 45.052C729.478 45.28 729.028 45.694 728.584 46.294V46.978C728.584 48.25 728.806 49.24 729.25 49.948C729.706 50.644 730.384 50.992 731.284 50.992ZM737.475 52V43.252H738.951V46.474H740.193C740.709 46.474 741.177 46.528 741.597 46.636C742.029 46.744 742.395 46.912 742.695 47.14C743.007 47.356 743.247 47.638 743.415 47.986C743.583 48.322 743.667 48.73 743.667 49.21C743.667 49.702 743.583 50.122 743.415 50.47C743.247 50.818 743.007 51.106 742.695 51.334C742.395 51.562 742.029 51.73 741.597 51.838C741.177 51.946 740.709 52 740.193 52H737.475ZM738.951 50.812H740.031C741.483 50.812 742.209 50.278 742.209 49.21C742.209 48.658 742.029 48.256 741.669 48.004C741.321 47.752 740.775 47.626 740.031 47.626H738.951V50.812ZM745.179 52V43.252H746.655V52H745.179ZM751.53 52V44.458H748.596V43.252H755.94V44.458H753.006V52H751.53ZM757.883 52V43.252H759.323V46.888C759.323 47.356 759.305 47.872 759.269 48.436C759.245 48.988 759.215 49.546 759.179 50.11H759.251C759.419 49.834 759.611 49.522 759.827 49.174C760.055 48.826 760.247 48.514 760.403 48.238L763.715 43.252H765.101V52H763.661V48.364C763.661 47.896 763.673 47.386 763.697 46.834C763.733 46.27 763.769 45.7 763.805 45.124H763.733C763.565 45.4 763.367 45.718 763.139 46.078C762.923 46.426 762.737 46.732 762.581 46.996L759.251 52H757.883ZM772.885 52V48.544H771.265H771.247L768.835 52H767.161L769.825 48.346C769.261 48.178 768.787 47.896 768.403 47.5C768.019 47.092 767.827 46.54 767.827 45.844C767.827 45.364 767.911 44.962 768.079 44.638C768.259 44.302 768.499 44.032 768.799 43.828C769.111 43.624 769.477 43.48 769.897 43.396C770.317 43.3 770.773 43.252 771.265 43.252H774.361V52H772.885ZM771.517 47.464H772.885V44.404H771.517C770.833 44.404 770.293 44.524 769.897 44.764C769.513 44.992 769.321 45.364 769.321 45.88C769.321 46.396 769.513 46.792 769.897 47.068C770.293 47.332 770.833 47.464 771.517 47.464Z" fill="#12323E"/>
<path fill-rule="evenodd" clip-rule="evenodd" d="M256.065 446.157C289.393 446.157 316.451 468.107 316.451 495.143C316.451 522.18 289.393 544.13 256.065 544.13C222.738 544.13 195.68 522.18 195.68 495.143C195.68 468.107 222.738 446.157 256.065 446.157ZM220.969 374.124C261.131 367.735 304.304 373.936 340.664 394.203C382.479 417.511 406.116 454.313 408.803 492.486L348.944 506.734C351.941 479.099 337.004 450.969 306.83 434.15C278.801 418.526 244.256 416.358 214.865 425.889L220.969 374.124ZM230.384 294.275C237.575 293.784 244.794 293.538 252.024 293.541L252.508 293.542C302.209 293.634 352.394 305.45 396.419 329.99C457.021 363.77 494.068 415.036 504.348 469.743L442.279 484.518C436.534 440.89 408.235 399.492 360.221 372.728C327.176 354.308 289.503 345.447 252.198 345.391L251.835 345.391C242.562 345.391 233.313 345.935 224.166 347.012L230.384 294.275ZM242.448 191.966C314.789 196.581 389.479 217.314 456.956 254.926C543.368 303.092 602.167 370.142 628.008 440.308L542.417 460.682C525.528 403.897 479.827 348.814 410.272 310.044C354.916 279.188 293.088 263.479 234.17 262.168L242.448 191.966Z" fill="#015DFF"/>
<path fill-rule="evenodd" clip-rule="evenodd" d="M45.4453 379.861L115.738 354.299L187.289 375.273C152.911 407.207 74.826 401.452 45.4453 379.861Z" fill="#BAC7FB"/>
<path fill-rule="evenodd" clip-rule="evenodd" d="M107.077 281.848C113.711 282.097 120.598 281.815 127.747 280.986V371.565C121.27 375.653 114.364 375.496 107.077 371.565V281.848ZM76.2344 172.087C83.6402 171.63 91.8558 174.434 97.8305 171.315L118.172 251.659C110.373 251.114 96.9406 251.645 96.9406 252.345L76.2344 172.087ZM127.709 122.468C121.586 115.118 118.915 105.963 118.97 95.3843L80.9777 155.104C88.0849 158.468 93.9576 162.829 98.1889 167.069L127.709 122.468Z" fill="#BAC7FB"/>
<path d="M87.322 179.593C94.5588 179.593 100.425 173.46 100.425 165.895C100.425 158.33 94.5588 152.197 87.322 152.197C80.0853 152.197 74.2188 158.33 74.2188 165.895C74.2188 173.46 80.0853 179.593 87.322 179.593Z" fill="#8399F0"/>
<path fill-rule="evenodd" clip-rule="evenodd" d="M90.0156 179.189C98.4103 177.974 101.011 167.632 100.287 163.892C100.287 163.892 104.816 156.661 106.116 154.937C110.269 172.193 103.47 182.752 90.0156 179.189Z" fill="#6370A4"/>
<path fill-rule="evenodd" clip-rule="evenodd" d="M98.6696 251.283C94.0678 252.513 91.9983 260.323 94.0509 268.711C96.1035 277.1 101.506 282.912 106.108 281.681C110.71 280.451 112.779 272.641 110.727 264.252C108.674 255.863 103.271 250.052 98.6696 251.283Z" fill="#8399F0"/>
<path fill-rule="evenodd" clip-rule="evenodd" d="M100.047 251.175L119.935 250.862C128.218 254.775 131.277 268.011 127.749 281.185C119.742 281.672 111.181 282.592 103.632 281.709C116.21 283.726 112.635 252.485 100.047 251.175Z" fill="#6370A4"/>
<path fill-rule="evenodd" clip-rule="evenodd" d="M215.723 71.1556C197.1 65.2916 175.273 80.4148 167.012 104.906C158.751 129.398 167.163 154.043 185.786 159.907C204.409 165.771 226.235 150.647 234.497 126.156C242.758 101.664 234.346 77.0195 215.723 71.1556Z" fill="#7A8BD1"/>
<path fill-rule="evenodd" clip-rule="evenodd" d="M194.498 72.9004C171.622 83.3099 158.123 112.09 166.288 136.76C166.288 136.76 180.571 152.261 190.599 152.863C208.56 153.942 224.265 136.847 225.341 114.786C227.662 67.1891 202.291 73.3797 194.498 72.9004Z" fill="#6370A4"/>
<path fill-rule="evenodd" clip-rule="evenodd" d="M181.63 86.7175C180.063 86.7175 178.403 86.5233 177.072 87.2541C171.777 90.1608 162.487 114.549 165.081 120.365C167.76 126.371 174.813 129.262 181.63 129.262C192.861 129.262 201.979 119.73 201.979 107.99C201.979 96.2494 192.861 86.7175 181.63 86.7175Z" fill="#E9E9E9"/>
<path fill-rule="evenodd" clip-rule="evenodd" d="M151.103 62.1359L197.625 68.1901C153.469 76.2338 154.384 124.064 168.52 150.815L130.488 127.758C106.123 104.44 119.925 60.9283 151.103 62.1359Z" fill="#8399F0"/>
<path fill-rule="evenodd" clip-rule="evenodd" d="M168.823 64.4834L211.346 70.1221C168.909 68.1025 143.715 137.976 183.927 159.245C170.248 152.389 156.571 143.521 142.892 135.298C132.639 101.598 139.737 76.9359 168.823 64.4834Z" fill="#BAC7FB"/>
<path fill-rule="evenodd" clip-rule="evenodd" d="M45.4522 379.92C82.8964 404.134 157.856 403.318 187.296 375.281L187.279 392.375C140.692 419.289 89.2875 416.154 45 393.31L45.4522 379.92Z" fill="#6370A4"/>
<path fill-rule="evenodd" clip-rule="evenodd" d="M321.955 328.012L267.626 304.865L267.008 316.097L321.411 339.304L321.955 328.012Z" fill="#C7BFBE"/>
<path fill-rule="evenodd" clip-rule="evenodd" d="M321.954 328.012L267.625 304.865L310.826 278.223L365.23 301.429L321.954 328.012Z" fill="#DCDCDC"/>
<path fill-rule="evenodd" clip-rule="evenodd" d="M321.958 328.012L365.233 301.431L364.501 312.709L321.414 339.304L321.958 328.012Z" fill="#AEACAC"/>
<path fill-rule="evenodd" clip-rule="evenodd" d="M429.088 375.648L374.685 352.44L374.141 363.732L428.544 386.939L429.088 375.648Z" fill="#C7BFBE"/>
<path fill-rule="evenodd" clip-rule="evenodd" d="M429.083 375.647L374.68 352.441L417.955 325.858L472.324 348.971L429.083 375.647Z" fill="#DCDCDC"/>
<path fill-rule="evenodd" clip-rule="evenodd" d="M429.088 375.648L472.329 348.971L471.631 360.344L428.57 386.94L429.088 375.648Z" fill="#AEACAC"/>
<path fill-rule="evenodd" clip-rule="evenodd" d="M384.076 117.261L380.274 245.87L338.32 228.945L342.122 100.335L384.076 117.261Z" fill="#D1DAFF"/>
<path fill-rule="evenodd" clip-rule="evenodd" d="M383.95 117.251L380.148 245.86L468.672 201.02L472.473 72.4102L383.95 117.251Z" fill="#2069CF"/>
<path fill-rule="evenodd" clip-rule="evenodd" d="M384.11 117.263L472.476 72.926L430.522 56L342.156 100.337L384.11 117.263Z" fill="#F0EAE8"/>
<path fill-rule="evenodd" clip-rule="evenodd" d="M470.107 157.871L466.306 286.481L424.352 269.555L428.153 140.945L470.107 157.871Z" fill="#F6C9C9"/>
<path fill-rule="evenodd" clip-rule="evenodd" d="M469.981 157.859L466.18 286.469L554.704 241.629L558.506 113.019L469.981 157.859Z" fill="#EC5239"/>
<path fill-rule="evenodd" clip-rule="evenodd" d="M470.141 157.874L558.507 113.536L516.553 96.6101L428.188 140.948L470.141 157.874Z" fill="#EC5239"/>
<path fill-rule="evenodd" clip-rule="evenodd" d="M495.357 174.939L491.556 303.549L449.602 286.623L453.403 158.013L495.357 174.939Z" fill="#F8EECC"/>
<path fill-rule="evenodd" clip-rule="evenodd" d="M495.231 174.929L491.43 303.539L579.954 258.699L583.755 130.089L495.231 174.929Z" fill="#F9BB2C"/>
<path fill-rule="evenodd" clip-rule="evenodd" d="M495.384 174.941L583.751 130.604L541.796 113.678L453.43 158.015L495.384 174.941Z" fill="#F0EAE8"/>
<path fill-rule="evenodd" clip-rule="evenodd" d="M528.633 186.968L334.305 102.432V233.574L528.633 318.11V186.968Z" fill="#C4CDF0"/>
<path fill-rule="evenodd" clip-rule="evenodd" d="M528.648 186.968L526.203 185.904V317.046L528.648 318.11V186.968Z" fill="#656770"/>
<path fill-rule="evenodd" clip-rule="evenodd" d="M335.825 103.092L334.312 102.434V233.575L335.825 234.233V103.092ZM528.641 186.968L541.352 178.926V333.932L528.641 341.975V186.968Z" fill="#737682"/>
<path fill-rule="evenodd" clip-rule="evenodd" d="M528.184 187.259L541.354 178.926L347.092 94.2222L333.922 102.555L528.184 187.259Z" fill="#808390"/>
<path fill-rule="evenodd" clip-rule="evenodd" d="M458.744 308.282L414.126 285.971L388.422 307.363L433.039 329.674L458.744 308.282Z" fill="#737682"/>
<path fill-rule="evenodd" clip-rule="evenodd" d="M528.633 341.798L334.305 257.261V233.575L528.633 318.111V341.798Z" fill="#AAADB6"/>
<path fill-rule="evenodd" clip-rule="evenodd" d="M423.924 280.93C426.715 281.54 428.98 284.404 428.98 287.321C428.98 290.238 426.715 292.112 423.924 291.502C421.133 290.892 418.867 288.028 418.867 285.111C418.867 282.193 421.133 280.32 423.924 280.93Z" fill="#545455"/>
<path fill-rule="evenodd" clip-rule="evenodd" d="M447.052 170.556L355.705 127.118V154.652L447.052 198.09V170.556ZM472.728 220.587L353.57 163.924V191.459L472.728 248.121V220.587ZM506.277 267.865L433.782 235.481V253.61L506.277 285.994V267.865ZM505.268 233.827L480.446 222.023V249.558L505.268 261.362V233.827ZM506.124 198.684L454.704 174.232V201.767L506.124 226.219V198.684Z" fill="white"/>
<path fill-rule="evenodd" clip-rule="evenodd" d="M279.991 295.598C279.991 295.598 241.647 284.084 245.318 315.64C248.989 347.195 246.542 362.972 270.609 354.017C294.675 345.063 291.004 354.444 294.268 361.693C297.531 368.942 298.755 390.69 309.36 390.69C319.966 390.69 333.835 387.705 324.045 377.471C324.045 377.471 316.295 379.603 313.44 378.324C310.584 377.044 305.689 328.859 288.557 332.27C288.557 332.27 281.16 334.26 281.378 328.347C281.378 328.347 284.641 332.441 291.82 326.982C298.999 321.524 305.526 315.157 305.526 315.157L315.969 306.287C315.969 306.287 323.583 295.371 310.747 299.237C297.912 303.103 290.95 307.424 288.122 309.016C285.294 310.608 282.955 298.327 279.991 295.598Z" fill="#EC5239"/>
<path fill-rule="evenodd" clip-rule="evenodd" d="M288.569 332.271C288.569 332.271 246.554 362.973 270.621 354.018C294.687 345.063 291.016 354.445 294.279 361.694C297.543 368.943 298.766 390.691 309.372 390.691C319.978 390.691 333.847 387.706 324.057 377.471C324.057 377.471 316.306 379.604 313.451 378.324C310.596 377.045 305.701 328.859 288.569 332.271Z" fill="#311C19"/>
<path fill-rule="evenodd" clip-rule="evenodd" d="M313.446 378.325C310.591 377.045 298.761 390.69 309.367 390.69C319.973 390.69 333.842 387.706 324.052 377.472C324.052 377.472 316.302 379.604 313.446 378.325Z" fill="#F9C5C5"/>
<path fill-rule="evenodd" clip-rule="evenodd" d="M304.877 302.078C304.877 302.078 305.799 305.536 306.277 308.206C306.471 309.296 306.599 310.246 306.535 310.741C306.503 310.996 306.675 311.23 306.918 311.265C307.162 311.299 307.386 311.119 307.419 310.864C307.489 310.312 307.369 309.25 307.152 308.035C306.669 305.331 305.736 301.828 305.736 301.828C305.67 301.58 305.424 301.436 305.187 301.504C304.95 301.573 304.811 301.83 304.877 302.078ZM273.368 314.313C273.239 314.08 273.314 313.783 273.536 313.648C273.759 313.513 274.043 313.592 274.172 313.824L281.13 326.344C281.259 326.576 281.184 326.874 280.962 327.009C280.739 327.144 280.455 327.065 280.325 326.832L273.368 314.313Z" fill="#1A1A1A"/>
<path fill-rule="evenodd" clip-rule="evenodd" d="M251.744 301.301C251.744 301.301 266.953 302.295 270.279 299.811C273.606 297.327 270.755 287.39 270.755 287.39C270.755 287.39 283.349 291.375 280.497 270.498C277.646 249.622 264.814 245.647 255.309 253.348C245.804 261.049 242.239 279.68 247.229 285.393L253.645 285.89C253.645 285.89 253.408 298.082 251.744 301.301Z" fill="#F9C5C5"/>
<path fill-rule="evenodd" clip-rule="evenodd" d="M275.466 270.496C275.466 270.496 274.285 268.835 273.025 267.984C272.423 267.577 271.797 267.362 271.257 267.505C270.851 267.613 270.476 267.913 270.192 268.517C269.947 269.041 269.765 269.814 269.69 270.911C269.496 273.75 269.658 275.858 270.116 277.253C270.49 278.393 271.068 279.079 271.792 279.352C272.509 279.622 273.393 279.49 274.415 278.914C274.563 278.831 274.618 278.639 274.538 278.484C274.459 278.329 274.274 278.271 274.126 278.355C273.295 278.823 272.582 278.973 271.998 278.754C271.419 278.536 270.991 277.958 270.692 277.047C270.252 275.708 270.111 273.682 270.297 270.957C270.364 269.968 270.517 269.269 270.739 268.797C270.922 268.407 271.144 268.191 271.407 268.121C271.659 268.055 271.934 268.118 272.215 268.245C272.54 268.391 272.87 268.626 273.183 268.892C274.162 269.725 274.977 270.875 274.977 270.875C275.077 271.016 275.267 271.046 275.402 270.941C275.537 270.837 275.566 270.637 275.466 270.496Z" fill="#EC5239"/>
<path fill-rule="evenodd" clip-rule="evenodd" d="M273.6 276.697C273.6 276.697 281.917 273.716 281.917 270.239C281.917 266.761 280.016 251.456 272.175 249.869C272.175 249.869 263.382 243.562 254.59 251.759C245.798 259.957 242.471 268.403 243.659 277.097C244.848 285.791 250.075 294.734 248.174 296.97C246.273 299.205 236.055 308.893 241.758 313.365C247.461 317.836 255.541 325.04 265.521 313.365C275.501 301.69 271.937 282.756 273.6 276.697Z" fill="#311C19"/>
<path fill-rule="evenodd" clip-rule="evenodd" d="M356.44 350.206C356.44 350.206 371.648 351.199 374.975 348.716C378.301 346.231 375.45 336.295 375.45 336.295C375.45 336.295 388.044 340.28 385.192 319.403C382.341 298.527 369.509 294.553 360.004 302.253C350.499 309.954 346.934 328.585 351.925 334.298L358.341 334.795C358.341 334.795 358.103 346.987 356.44 350.206Z" fill="#F9C5C5"/>
<path fill-rule="evenodd" clip-rule="evenodd" d="M384.693 344.502C384.693 344.502 346.35 332.989 350.021 364.544C353.692 396.099 351.245 411.877 375.312 402.922C399.378 393.967 395.707 403.348 398.971 410.597C402.234 417.847 403.457 439.594 414.063 439.594C424.669 439.594 438.538 436.609 428.748 426.375C428.748 426.375 420.998 428.507 418.142 427.228C415.287 425.949 410.392 377.763 393.26 381.174C393.26 381.174 385.863 383.164 386.08 377.251C386.08 377.251 389.344 381.345 396.523 375.887C403.702 370.429 410.229 364.061 410.229 364.061L420.671 355.191C420.671 355.191 428.286 344.275 415.45 348.141C402.614 352.007 395.653 356.328 392.825 357.92C389.996 359.512 387.658 347.231 384.693 344.502Z" fill="#2069CF"/>
<path fill-rule="evenodd" clip-rule="evenodd" d="M415.458 348.141C412.065 349.141 407.841 350.694 407.836 350.72L410.236 364.062L420.679 355.192C420.679 355.192 428.315 344.354 415.458 348.141Z" fill="#F9C5C5"/>
<path fill-rule="evenodd" clip-rule="evenodd" d="M393.264 381.175C393.264 381.175 351.249 411.878 375.316 402.923C399.383 393.968 395.712 403.349 398.975 410.598C402.238 417.848 403.462 439.595 414.068 439.595C424.674 439.595 438.543 436.61 428.753 426.376C428.753 426.376 421.002 428.508 418.147 427.229C415.292 425.95 410.397 377.763 393.264 381.175Z" fill="#311C19"/>
<path fill-rule="evenodd" clip-rule="evenodd" d="M418.149 427.227C415.294 425.948 403.464 439.593 414.07 439.593C424.676 439.593 438.545 436.608 428.755 426.375C428.755 426.375 421.005 428.507 418.149 427.227Z" fill="#F9C5C5"/>
<path fill-rule="evenodd" clip-rule="evenodd" d="M380.731 318.452C380.731 318.452 379.551 316.791 378.291 315.939C377.688 315.532 377.062 315.317 376.523 315.46C376.117 315.568 375.741 315.869 375.458 316.473C375.212 316.996 375.03 317.769 374.956 318.867C374.761 321.705 374.924 323.814 375.382 325.209C375.756 326.348 376.334 327.035 377.057 327.307C377.775 327.578 378.659 327.445 379.68 326.87C379.828 326.787 379.884 326.594 379.804 326.439C379.725 326.285 379.54 326.227 379.392 326.31C378.56 326.778 377.848 326.929 377.263 326.709C376.685 326.491 376.256 325.914 375.957 325.002C375.518 323.663 375.376 321.638 375.562 318.912C375.63 317.923 375.783 317.224 376.004 316.753C376.187 316.363 376.41 316.146 376.672 316.077C376.924 316.01 377.199 316.073 377.481 316.2C377.806 316.347 378.136 316.581 378.449 316.847C379.428 317.68 380.242 318.83 380.242 318.83C380.342 318.971 380.533 319.001 380.668 318.897C380.803 318.792 380.831 318.593 380.731 318.452Z" fill="#EC5239"/>
<path fill-rule="evenodd" clip-rule="evenodd" d="M372.645 335.284C372.645 335.284 349.705 342.737 348.992 328.826C348.279 314.915 351.022 301.004 358.15 300.755C358.15 300.755 373.596 289.825 383.101 302.743C383.101 302.743 387.616 314.17 385.953 319.386C385.953 319.386 373.358 323.609 372.645 335.284Z" fill="#311C19"/>
<path fill-rule="evenodd" clip-rule="evenodd" d="M409.574 350.983C409.574 350.983 410.496 354.441 410.974 357.112C411.168 358.2 411.296 359.151 411.232 359.646C411.2 359.901 411.371 360.135 411.615 360.169C411.859 360.203 412.083 360.024 412.116 359.769C412.186 359.217 412.066 358.155 411.849 356.94C411.366 354.236 410.432 350.733 410.432 350.733C410.367 350.485 410.121 350.34 409.884 350.409C409.647 350.478 409.508 350.735 409.574 350.983ZM378.063 363.215C377.934 362.982 378.01 362.684 378.232 362.55C378.454 362.414 378.739 362.493 378.868 362.726L385.825 375.246C385.955 375.478 385.879 375.776 385.657 375.911C385.435 376.046 385.15 375.967 385.021 375.734L378.063 363.215Z" fill="#1A1A1A"/>
<path fill-rule="evenodd" clip-rule="evenodd" d="M290.258 385.193C287.936 377.2 265.01 372.433 264.223 372.422C257.005 372.319 262.522 383.314 264.968 383.132C272.424 382.579 282.277 385.083 283.253 388.737C283.253 388.737 283.294 396.171 288.288 392.917C288.288 392.917 294.213 388.547 290.258 385.193Z" fill="#232631"/>
<path fill-rule="evenodd" clip-rule="evenodd" d="M256.524 369.101C256.524 369.101 264.551 377.493 241.252 382.405C241.252 382.405 229.112 384.043 233.028 392.844C233.028 392.844 237.335 397.961 241.839 394.073C241.839 394.073 243.711 392.26 243.309 391.107C243.309 391.107 249.625 383.981 255.039 386.077C260.452 388.173 266.266 393.203 268.171 396.137C268.171 396.137 263.56 401.796 269.374 402.739C269.374 402.739 276.592 403.473 275.69 398.233C275.69 398.233 263.66 383.166 265.464 372.977C267.269 362.788 256.524 369.101 256.524 369.101Z" fill="#343743"/>
<path fill-rule="evenodd" clip-rule="evenodd" d="M234.539 364.755L226.508 327.977C226.508 327.977 226.508 303.99 264.367 329.176L267.426 349.964C267.426 349.964 288.077 327.177 292.283 356.76L267.044 375.549L234.539 364.755Z" fill="#BAC7FB"/>
<path fill-rule="evenodd" clip-rule="evenodd" d="M394.328 431.825C392.007 423.832 369.175 419.087 368.428 419.057C361.109 418.764 366.89 429.88 369.536 429.732C376.925 429.322 386.369 431.795 387.324 435.369C387.324 435.369 387.364 442.803 392.358 439.549C392.358 439.549 398.284 435.179 394.328 431.825Z" fill="#232631"/>
<path fill-rule="evenodd" clip-rule="evenodd" d="M360.602 415.733C360.602 415.733 368.629 424.126 345.33 429.038C345.33 429.038 333.19 430.675 337.106 439.477C337.106 439.477 341.414 444.594 345.917 440.705C345.917 440.705 347.789 438.892 347.388 437.739C347.388 437.739 353.703 430.613 359.117 432.709C364.53 434.805 370.345 439.835 372.249 442.77C372.249 442.77 367.638 448.429 373.452 449.372C373.452 449.372 380.67 450.105 379.768 444.865C379.768 444.865 367.738 429.799 369.543 419.609C371.347 409.42 360.602 415.733 360.602 415.733Z" fill="#343743"/>
<path fill-rule="evenodd" clip-rule="evenodd" d="M338.624 411.386L330.594 374.607C330.594 374.607 330.594 350.621 368.453 375.807L371.512 396.595C371.512 396.595 392.163 373.808 396.369 403.391L371.13 422.18L338.624 411.386Z" fill="#BAC7FB"/>
<path fill-rule="evenodd" clip-rule="evenodd" d="M674.133 331.711L547.578 285.62V330.57L674.133 376.661V331.711Z" fill="#015DFF"/>
<path fill-rule="evenodd" clip-rule="evenodd" d="M779.344 325.028L646.048 278.133L547.617 285.617L674.159 331.829L779.344 325.028Z" fill="#2069CF"/>
<path fill-rule="evenodd" clip-rule="evenodd" d="M779.728 345.139V325.073L674.156 331.769V376.454L779.728 365.711V346.586L705.876 352.204L779.728 345.139ZM756.68 360.341L779.358 357.711L779.492 359.148L756.68 360.341Z" fill="#F0EAE8"/>
<path fill-rule="evenodd" clip-rule="evenodd" d="M650.45 323.118L649.599 367.711L669.742 374.908V330.18L669.733 330.177L771.338 322.111L751.781 315.479L650.275 323.054L650.45 323.118ZM551.603 287.113L551.549 287.104L550.227 331.502L570.18 338.797L571.534 294.375L571.539 294.377L669.73 286.459L650.968 279.827L551.603 287.113Z" fill="#12323E"/>
<path fill-rule="evenodd" clip-rule="evenodd" d="M678.239 337.031L677.296 337.041L677.023 367.734L677.966 367.724L678.239 337.031Z" fill="#655958"/>
<path fill-rule="evenodd" clip-rule="evenodd" d="M776.55 332.746C776.538 332.555 776.45 332.376 776.306 332.251C776.161 332.125 775.973 332.062 775.782 332.076C767.307 332.709 687.04 338.703 678.616 339.332C678.22 339.362 677.922 339.704 677.947 340.101C677.947 340.101 677.947 340.101 677.947 340.101C677.959 340.292 678.047 340.471 678.191 340.596C678.336 340.722 678.525 340.785 678.715 340.771C687.19 340.138 767.457 334.144 775.881 333.515C776.277 333.485 776.575 333.143 776.55 332.747C776.55 332.746 776.55 332.746 776.55 332.746ZM771.5 353.634L678.641 360.569L678.732 362.007L771.5 353.634ZM719.524 353.043L678.746 356.089L678.836 357.528L719.524 353.043ZM701.776 344.042L678.989 345.744L679.08 347.183L701.776 344.042ZM753.218 350.101L773.609 349.164L773.563 347.722L753.218 350.101ZM753.156 342.197L773.546 341.259L773.5 339.817L753.156 342.197Z" fill="#655958"/>
<path fill-rule="evenodd" clip-rule="evenodd" d="M675.075 269.744L548.078 225.81L548.481 270.743L675.478 314.677L675.075 269.744Z" fill="#59C676"/>
<path fill-rule="evenodd" clip-rule="evenodd" d="M780.249 261.286L646.503 216.663L548.117 225.808L675.101 269.863L780.249 261.286Z" fill="#59C676"/>
<path fill-rule="evenodd" clip-rule="evenodd" d="M780.817 281.379L780.637 261.32L675.102 269.799L675.502 314.467L781.002 301.943L780.83 282.825L707.011 289.689L780.817 281.379ZM757.901 296.964L780.561 293.952L780.707 295.386L757.901 296.964Z" fill="#F0EAE8"/>
<path fill-rule="evenodd" clip-rule="evenodd" d="M651.304 261.555L650.853 306.146L671.064 312.999L670.663 268.288L670.655 268.285L772.21 258.504L752.589 252.206L651.128 261.494L651.304 261.555ZM559.961 229.953L552.058 227.229L551.133 271.632L571.156 278.586L572.112 234.159L572.118 234.161L670.26 224.586L651.434 218.273L552.112 227.237L559.961 229.953Z" fill="#12323E"/>
<path fill-rule="evenodd" clip-rule="evenodd" d="M679.216 274.991L678.273 275.017L678.276 305.704L679.218 305.678L679.216 274.991Z" fill="#655958"/>
<path fill-rule="evenodd" clip-rule="evenodd" d="M777.514 269.041C777.501 268.851 777.411 268.675 777.266 268.552C777.122 268.429 776.934 268.37 776.744 268.387C768.3 269.161 688.053 276.511 679.619 277.284C679.222 277.32 678.926 277.668 678.955 278.067C678.955 278.067 678.955 278.067 678.955 278.067C678.969 278.257 679.058 278.433 679.203 278.556C679.348 278.679 679.536 278.738 679.725 278.721C688.17 277.947 768.417 270.596 776.85 269.824C777.248 269.788 777.543 269.44 777.514 269.041C777.514 269.041 777.514 269.041 777.514 269.041ZM772.651 290.01L679.833 298.513L679.937 299.949L772.651 290.01ZM720.658 290.302L679.898 294.035L680.001 295.472L720.658 290.302ZM702.823 281.603L680.046 283.689L680.149 285.126L702.823 281.603ZM754.332 286.792L774.719 285.51L774.66 284.069L754.332 286.792ZM754.199 278.887L774.586 277.605L774.527 276.164L754.199 278.887Z" fill="#655958"/>
</svg>
