<svg width="200" height="200" viewBox="0 0 200 200" fill="none" xmlns="http://www.w3.org/2000/svg">
<path d="M176.905 163.784C187.17 151.444 194.31 136.814 197.72 121.133C201.13 105.452 200.71 89.1814 196.495 73.697C192.281 58.2126 184.396 43.9702 173.507 32.1747C162.619 20.3791 149.047 11.3774 133.94 5.93109C118.834 0.484743 102.637 -1.24604 86.7188 0.885164C70.8011 3.01637 55.6313 8.94685 42.4926 18.1749C29.3539 27.403 18.6329 39.6572 11.2365 53.9009C3.84015 68.1446 -0.0140285 83.9587 3.83677e-05 100.005C0.00543632 123.333 8.23267 145.913 23.2381 163.784L23.0951 163.906C23.5955 164.506 24.1673 165.02 24.682 165.613C25.3253 166.348 26.0186 167.041 26.6834 167.755C28.6848 169.927 30.7434 172.012 32.9021 173.969C33.5597 174.569 34.2388 175.126 34.9035 175.697C37.1909 177.669 39.5426 179.54 41.98 181.283C42.2945 181.497 42.5805 181.775 42.895 181.997V181.911C59.6362 193.682 79.6076 200 100.079 200C120.55 200 140.521 193.682 157.262 181.911V181.997C157.577 181.775 157.856 181.497 158.177 181.283C160.608 179.533 162.966 177.669 165.254 175.697C165.919 175.126 166.598 174.562 167.255 173.969C169.414 172.005 171.473 169.927 173.474 167.755C174.139 167.041 174.825 166.348 175.475 165.613C175.983 165.02 176.562 164.506 177.062 163.899L176.905 163.784ZM100.072 42.8687C106.433 42.8687 112.652 44.7537 117.942 48.2852C123.232 51.8167 127.354 56.8362 129.789 62.7089C132.223 68.5816 132.86 75.0438 131.619 81.2782C130.378 87.5127 127.315 93.2394 122.816 97.7342C118.318 102.229 112.586 105.29 106.347 106.53C100.107 107.77 93.6397 107.134 87.7622 104.701C81.8846 102.269 76.861 98.1492 73.3266 92.8639C69.7922 87.5786 67.9057 81.3647 67.9057 75.0081C67.9057 66.4842 71.2946 58.3094 77.3268 52.2821C83.3591 46.2548 91.5406 42.8687 100.072 42.8687ZM42.9378 163.784C43.0618 154.407 46.876 145.455 53.5551 138.865C60.2343 132.276 69.2413 128.579 78.6276 128.574H121.515C130.902 128.579 139.909 132.276 146.588 138.865C153.267 145.455 157.081 154.407 157.205 163.784C141.529 177.9 121.174 185.711 100.072 185.711C78.9689 185.711 58.6145 177.9 42.9378 163.784Z" fill="#F2F9FF"/>
<path d="M176.521 163.465L176.179 163.875L176.325 163.981C176.192 164.124 176.055 164.267 175.913 164.413L175.856 164.471C175.607 164.727 175.345 164.997 175.098 165.285C174.684 165.753 174.261 166.197 173.832 166.648C173.592 166.9 173.351 167.154 173.108 167.415L173.106 167.417C171.113 169.579 169.066 171.646 166.92 173.598C166.461 174.012 165.993 174.41 165.521 174.812C165.324 174.979 165.126 175.148 164.928 175.318L164.927 175.319C162.653 177.279 160.308 179.132 157.892 180.872C157.848 180.901 157.805 180.932 157.762 180.963V180.948L156.975 181.502C140.318 193.214 120.447 199.5 100.079 199.5C79.7105 199.5 59.8396 193.214 43.1826 181.502L42.395 180.948V180.964C42.3529 180.933 42.3099 180.902 42.2663 180.873C39.8444 179.141 37.5061 177.28 35.2299 175.319L35.2295 175.318C35.023 175.141 34.8177 174.967 34.6137 174.794C34.1492 174.4 33.6911 174.012 33.2391 173.6L33.2379 173.599C31.0929 171.654 29.0449 169.58 27.051 167.417L27.0494 167.415C26.807 167.154 26.5663 166.902 26.328 166.653C25.8949 166.199 25.4699 165.754 25.0583 165.284C24.8105 164.998 24.5506 164.731 24.3025 164.476L24.2417 164.414C24.092 164.259 23.9468 164.109 23.8068 163.957L23.9407 163.844L23.621 163.463C8.69116 145.682 0.505409 123.215 0.500038 100.005L0.500038 100.005C0.486042 84.0387 4.32092 68.3037 11.6803 54.1313C19.0397 39.9589 29.707 27.766 42.78 18.5841C55.853 9.40215 70.947 3.5013 86.7852 1.38074C102.623 -0.739813 118.74 0.982323 133.771 6.40146C148.802 11.8206 162.306 20.7773 173.14 32.5138C183.974 44.2504 191.819 58.4215 196.013 73.8283C200.206 89.2351 200.624 105.424 197.231 121.027C193.838 136.629 186.735 151.186 176.521 163.465ZM42.4379 163.778L42.4349 164.004L42.6033 164.156C58.3718 178.354 78.8454 186.211 100.072 186.211C121.298 186.211 141.771 178.354 157.54 164.156L157.708 164.004L157.705 163.778C157.579 154.268 153.712 145.191 146.939 138.509C140.166 131.828 131.033 128.079 121.516 128.074H121.515H78.6276H78.6274C69.1098 128.079 59.9767 131.828 53.204 138.509C46.4313 145.191 42.5636 154.268 42.4379 163.778ZM118.22 47.8693C112.848 44.2829 106.532 42.3687 100.072 42.3687C91.4081 42.3687 83.0995 45.8074 76.9734 51.9284C70.8474 58.0495 67.4057 66.3515 67.4057 75.0081C67.4057 81.4637 69.3216 87.7743 72.911 93.1418C76.5004 98.5093 81.6021 102.693 87.571 105.163C93.5398 107.633 100.108 108.28 106.444 107.02C112.781 105.761 118.601 102.653 123.17 98.0879C127.738 93.5232 130.849 87.7074 132.11 81.3759C133.37 75.0444 132.723 68.4816 130.251 62.5174C127.778 56.5533 123.591 51.4558 118.22 47.8693Z" stroke="#015DFF" stroke-opacity="0.5"/>
<path d="M42.9378 163.784C43.0618 154.407 46.876 145.455 53.5551 138.865C60.2343 132.276 69.2413 128.579 78.6276 128.574H121.515C130.902 128.579 139.909 132.276 146.588 138.865C153.267 145.455 157.081 154.407 157.205 163.784C141.529 177.9 121.174 185.711 100.072 185.711C78.9689 185.711 58.6145 177.9 42.9378 163.784Z" fill="#015DFF"/>
<path d="M100.072 42.8687C106.433 42.8687 112.652 44.7537 117.942 48.2852C123.232 51.8167 127.354 56.8362 129.789 62.7089C132.223 68.5816 132.86 75.0438 131.619 81.2782C130.378 87.5127 127.315 93.2394 122.816 97.7342C118.318 102.229 112.586 105.29 106.347 106.53C100.107 107.77 93.6397 107.134 87.7622 104.701C81.8846 102.269 76.861 98.1492 73.3266 92.8639C69.7922 87.5786 67.9057 81.3647 67.9057 75.0081C67.9057 66.4842 71.2946 58.3094 77.3268 52.2821C83.3591 46.2548 91.5406 42.8687 100.072 42.8687Z" fill="#015DFF"/>
</svg>
