<svg width="24" height="24" viewBox="0 0 24 24" fill="none" xmlns="http://www.w3.org/2000/svg">
<path d="M1 5.2C1 5.2 2.65 3 6.5 3C10.35 3 12 5.2 12 5.2V18.7315C12 19.5302 11.0373 20.1289 10.2641 19.9285C9.38004 19.6995 8.1395 19.5 6.5 19.5C2.5 20 1 20.6 1 20.6V5.2Z" stroke="#EC5239" stroke-width="2" stroke-linecap="round"/>
<path d="M12 5.2C12 5.2 13.65 3 17.5 3C21.35 3 23 5.2 23 5.2V20.6C23 20.6 21.5 20 17.5 19.5C15.8605 19.5 14.62 19.6995 13.7359 19.9285C12.9627 20.1289 12 19.5302 12 18.7315V5.2Z" stroke="#EC5239" stroke-width="2" stroke-linecap="round"/>
</svg>
