<svg width="12" height="12" viewBox="0 0 12 12" xmlns="http://www.w3.org/2000/svg">
<path d="M5.99935 11.8332C2.7776 11.8332 0.166016 9.22159 0.166016 5.99984C0.166016 2.77809 2.7776 0.166504 5.99935 0.166504C9.2211 0.166504 11.8327 2.77809 11.8327 5.99984C11.8292 9.21984 9.21935 11.8297 5.99935 11.8332ZM1.33268 6.10017C1.34594 7.33343 1.84686 8.5113 2.72596 9.37633C3.60506 10.2414 4.79085 10.7232 6.02416 10.7166C7.25748 10.71 8.43802 10.2154 9.30777 9.34096C10.1775 8.46652 10.6657 7.28334 10.6657 6.05C10.6657 4.81667 10.1775 3.63349 9.30777 2.75905C8.43802 1.88462 7.25748 1.39003 6.02416 1.3834C4.79085 1.37678 3.60506 1.85864 2.72596 2.72367C1.84686 3.58871 1.34594 4.76658 1.33268 5.99984V6.10017ZM4.83268 8.62484V3.37484L8.33268 5.99984L4.83268 8.62484Z" />
</svg>
