<svg width="86" height="80" viewBox="0 0 86 80" fill="none" xmlns="http://www.w3.org/2000/svg">
<g clip-path="url(#clip0_70_10253)">
<path d="M47.7443 116.836L46.8359 116.798L49.5231 60.9727L50.4315 61.0105L47.7443 116.836Z" fill="#12323E"/>
<path d="M56.2966 116.836L53.6094 61.0105L54.4799 60.9727L57.167 116.798L56.2966 116.836Z" fill="#12323E"/>
<path d="M1.46302 116.836L0.554688 116.798L3.24187 60.9725L4.1502 61.0104L1.46302 116.836Z" fill="#12323E"/>
<path d="M10.0153 116.836L7.32812 61.0104L8.1986 60.9725L10.8858 116.798L10.0153 116.836Z" fill="#12323E"/>
<path d="M2.48306 62.2974L70.8359 62.2974L70.8359 0.000137329L2.48306 0.000137329L2.48306 62.2974Z" fill="#F7F7F7"/>
<path d="M2.48306 62.2974L70.8359 62.2974V59.648L2.48306 59.648V62.2974Z" fill="#015DFF"/>
<path d="M2.48306 2.64941L70.8359 2.64941V7.55787e-05L2.48306 7.55787e-05V2.64941Z" fill="#015DFF"/>
<path d="M6.91337 50.6024H67.129C67.1892 50.6024 67.247 50.5785 67.2895 50.5359C67.3321 50.4933 67.3561 50.4356 67.3561 50.3754C67.3561 50.3151 67.3321 50.2574 67.2895 50.2148C67.247 50.1722 67.1892 50.1483 67.129 50.1483H6.91337C6.85314 50.1483 6.79538 50.1722 6.75279 50.2148C6.71021 50.2574 6.68626 50.3151 6.68626 50.3754C6.68626 50.4356 6.71021 50.4933 6.75279 50.5359C6.79538 50.5785 6.85314 50.6024 6.91337 50.6024ZM6.91337 54.1601H67.129C67.1892 54.1601 67.247 54.1362 67.2895 54.0936C67.3321 54.051 67.3561 53.9933 67.3561 53.933C67.3561 53.8728 67.3321 53.8151 67.2895 53.7725C67.247 53.7299 67.1892 53.706 67.129 53.706H6.91337C6.85314 53.706 6.79538 53.7299 6.75279 53.7725C6.71021 53.8151 6.68626 53.8728 6.68626 53.933C6.68626 53.9933 6.71021 54.051 6.75279 54.0936C6.79538 54.1362 6.85314 54.1601 6.91337 54.1601ZM6.91337 9.12142H67.129C67.1588 9.12142 67.1883 9.11553 67.2159 9.10412C67.2434 9.09271 67.2685 9.07599 67.2895 9.0549C67.3106 9.03382 67.3274 9.00878 67.3388 8.98123C67.3502 8.95368 67.3561 8.92415 67.3561 8.89433C67.3561 8.86451 67.3502 8.83498 67.3388 8.80743C67.3274 8.77988 67.3106 8.75484 67.2895 8.73375C67.2685 8.71266 67.2434 8.69594 67.2159 8.68453C67.1883 8.67312 67.1588 8.66724 67.129 8.66724H6.91337C6.88355 8.66724 6.85401 8.67312 6.82645 8.68453C6.7989 8.69594 6.77388 8.71266 6.75279 8.73375C6.73171 8.75484 6.71497 8.77988 6.70356 8.80743C6.69215 8.83498 6.68626 8.86451 6.68626 8.89433C6.68626 8.92415 6.69215 8.95368 6.70356 8.98123C6.71497 9.00878 6.73171 9.03382 6.75279 9.0549C6.77388 9.07599 6.7989 9.09271 6.82645 9.10412C6.85401 9.11553 6.88355 9.12142 6.91337 9.12142ZM6.91337 12.6791H67.129C67.1931 12.6798 67.2554 12.6571 67.3041 12.6153C67.3528 12.5736 67.3847 12.5155 67.3939 12.452C67.3939 12.452 67.3939 12.2249 67.129 12.2249H6.91337C6.91337 12.2249 6.64844 12.2249 6.64844 12.452C6.6576 12.5155 6.68951 12.5736 6.73824 12.6153C6.78697 12.6571 6.8492 12.6798 6.91337 12.6791Z" fill="#015DFF"/>
<path d="M12.6671 20.4756H9.10938V45.3415H12.6671V20.4756Z" fill="#59C676"/>
<path d="M20.1593 28.3857H16.6016V45.3415H20.1593V28.3857Z" fill="#015DFF"/>
<path d="M27.6514 31.8678H24.0938V45.3794H27.6514V31.8678Z" fill="#EC5239"/>
<path d="M35.1514 25.5471H31.5938V45.3793H35.1514V25.5471Z" fill="#59C676"/>
<path d="M42.6436 37.1664H39.0859V45.3415H42.6436V37.1664Z" fill="#015DFF"/>
<path d="M50.1358 32.9275H46.5781V45.3415H50.1358V32.9275Z" fill="#EC5239"/>
<path d="M57.628 28.3857H54.0703V45.3415H57.628V28.3857Z" fill="#015DFF"/>
<path d="M65.1202 32.9275H61.5625V45.3415H65.1202V32.9275Z" fill="#59C676"/>
<path d="M47.2584 28.1587C45.4417 28.1587 43.4737 26.3041 41.4677 24.0333L38.8941 21.4596C35.1093 17.9398 32.0058 21.2325 29.6971 23.6169C29.3632 23.989 29.0094 24.3428 28.6374 24.6767C26.4801 26.6448 22.4304 26.4934 18.1536 21.8381C15.6485 19.1362 12.2439 17.4407 8.57812 17.0693V16.4637C12.3736 16.7898 15.9166 18.5007 18.5321 21.2704C22.5439 25.6607 26.1016 25.85 28.2211 24.109L29.2429 23.0492C31.4381 20.7784 35.0715 16.9936 39.2347 20.8919C40.1809 21.7624 41.0136 22.6329 41.8462 23.4656C44.3063 26.077 46.2744 28.1208 48.2046 27.2503C49.2917 26.5624 50.2841 25.7354 51.1567 24.7902C53.8061 22.2166 57.1367 19.0374 60.3159 20.7027C62.5843 21.8746 64.7383 23.2557 66.75 24.8281L66.3715 25.2822C64.3709 23.7568 62.2291 22.4261 59.9752 21.3082C57.1367 19.8322 53.9953 22.86 51.4974 25.2822C50.5748 26.2818 49.5176 27.148 48.356 27.8559C48.0183 28.04 47.6427 28.1436 47.2584 28.1587Z" fill="#EC5239"/>
<path d="M21.4372 45.4172C21.173 46.0145 21.1039 46.6798 21.2398 47.3186C21.3757 47.9573 21.7097 48.537 22.1941 48.9749C22.724 49.4291 23.8973 48.9749 24.2 48.9749C25.3687 49.8769 26.639 50.639 27.9848 51.2458C29.0443 50.2826 29.9618 49.1739 30.7098 47.953C29.7258 47.0447 28.7796 46.477 27.7577 45.6065C26.8261 44.6145 25.557 44.0069 24.2 43.9033C23.1426 44.1043 22.1757 44.6342 21.4372 45.4172Z" fill="#F9C5C5"/>
<path d="M17.5784 44.3954C17.3514 44.3954 17.5784 43.2221 17.8055 43.2978C18.5706 43.5192 19.2888 43.8783 19.925 44.3576C20.5928 44.871 21.4353 45.102 22.2715 45.001C23.0333 44.9398 23.7913 44.8387 24.5424 44.6982C24.9587 44.6982 24.9966 45.1902 24.5424 45.2659H24.0504C24.0504 45.2659 24.0504 45.6444 24.0504 45.7579C23.4231 46.0987 22.7292 46.2989 22.0169 46.3447C21.3045 46.3904 20.5907 46.2806 19.925 46.0229C19.1003 45.5444 18.3155 45.0002 17.5784 44.3954Z" fill="#F9C5C5"/>
<path d="M16.9369 46.6283C16.7098 46.439 16.9369 45.6064 16.9369 45.6064C17.7405 45.5978 18.5202 45.8801 19.132 46.4012C19.8221 46.8681 20.6469 47.0942 21.4786 47.0446C22.241 46.971 22.999 46.8573 23.7494 46.704C24.1657 46.704 24.2036 47.196 23.7494 47.2717H23.2574C23.2965 47.2997 23.3283 47.3367 23.3503 47.3794C23.3722 47.4222 23.3837 47.4696 23.3837 47.5177C23.3837 47.5658 23.3722 47.6132 23.3503 47.656C23.3283 47.6987 23.2965 47.7357 23.2574 47.7637C22.6328 48.112 21.9384 48.3165 21.2247 48.3623C20.511 48.4082 19.7961 48.2942 19.132 48.0286C18.3552 47.6366 17.6198 47.1675 16.9369 46.6283Z" fill="#F9C5C5"/>
<path d="M17.9962 48.3694C17.7313 48.3694 17.3906 48.0666 17.3906 47.7638C17.3906 47.461 17.3906 47.2718 17.3906 47.234C18.299 47.0069 18.9802 47.4989 19.775 47.8017C20.5803 48.1036 21.4677 48.1036 22.273 47.8017C23.0089 47.6002 23.7298 47.3473 24.4303 47.0447C24.4651 47.0323 24.502 47.0268 24.5389 47.0287C24.5758 47.0305 24.612 47.0396 24.6454 47.0554C24.6787 47.0712 24.7087 47.0935 24.7335 47.1209C24.7583 47.1482 24.7774 47.1802 24.7898 47.215C24.8023 47.2498 24.8077 47.2867 24.8059 47.3236C24.8041 47.3605 24.795 47.3967 24.7792 47.4301C24.7633 47.4635 24.7411 47.4934 24.7137 47.5182C24.6863 47.543 24.6543 47.5622 24.6195 47.5746H24.1654C24.1654 47.5746 25.0737 48.1801 24.8845 48.3315C23.4966 49.1956 21.8252 49.481 20.2292 49.1263C19.4644 48.939 18.7173 48.6858 17.9962 48.3694Z" fill="#F9C5C5"/>
<path d="M16.7469 45.5686C16.5198 45.3415 16.7468 44.471 17.1253 44.5467C17.805 44.6756 18.4498 44.9465 19.0177 45.3415C19.694 45.8375 20.5295 46.0666 21.3643 45.9849C22.1385 45.9235 22.9091 45.8225 23.673 45.6821C24.0515 45.6821 24.0893 46.1741 23.673 46.212H23.2188C23.2579 46.24 23.2897 46.277 23.3117 46.3197C23.3336 46.3625 23.3451 46.4099 23.3451 46.458C23.3451 46.5061 23.3336 46.5535 23.3117 46.5963C23.2897 46.6391 23.2579 46.676 23.2188 46.704C22.5949 47.0345 21.908 47.229 21.2034 47.2747C20.4989 47.3203 19.7926 47.2161 19.1313 46.969C18.298 46.571 17.5003 46.1025 16.7469 45.5686ZM20.5316 43.5627C20.5316 43.5627 20.5316 42.4651 20.7966 42.3894C21.8284 42.2546 22.8774 42.412 23.8244 42.8436C24.9503 43.4623 25.9721 44.2541 26.8522 45.1901C26.8522 45.1901 25.9438 45.1901 25.7924 45.1901C25.8125 45.2314 25.823 45.2767 25.823 45.3226C25.823 45.3685 25.8125 45.4138 25.7924 45.455C24.6192 45.6821 24.2029 44.6981 23.2945 44.2439C22.3862 43.7897 21.2129 44.1682 20.5316 43.5627Z" fill="#F9C5C5"/>
<path d="M21.477 45.5687C21.2155 46.1235 21.1334 46.746 21.2419 47.3496C21.3504 47.9533 21.6443 48.5081 22.0826 48.9371C21.7218 47.8488 21.5179 46.7146 21.477 45.5687ZM23.0288 45.0388C23.0211 45.4342 23.1374 45.822 23.3614 46.1478C23.5854 46.4737 23.9059 46.7211 24.2778 46.8555C24.2778 46.8555 23.1045 46.3635 22.9153 46.0229C22.8455 45.8635 22.8192 45.6884 22.8392 45.5155C22.8591 45.3426 22.9246 45.1782 23.0288 45.0388Z" fill="#EBAEAE"/>
<path d="M56.9002 45.8336C56.9002 45.8336 52.7369 57.1879 42.6316 60.5942C37.9007 62.1459 25.0703 50.5645 25.0703 50.5645L28.2495 44.9252C28.2495 44.9252 39.6038 51.5107 40.2094 51.3972C41.7611 51.1323 52.3206 37.3936 52.3206 37.3936C53.5186 40.3731 55.0552 43.205 56.9002 45.8336Z" fill="#EC5239"/>
<path d="M47.5883 69.6775L38.6562 127.357L41.0406 127.547L58.1478 88.0714L59.1697 69.6775H47.5883Z" fill="#015DFF"/>
<path d="M68.4467 69.6775C67.8716 89.22 65.822 108.691 62.3154 127.925H59.6282L54.8594 69.6775H68.4467Z" fill="#015DFF"/>
<path d="M60.0024 35.3876C55.5364 35.3876 52.4329 36.4473 51.1461 39.1724C49.8593 41.8974 45.9609 71.6456 45.9609 71.6456C53.7571 72.5417 61.6303 72.5417 69.4265 71.6456C69.4265 71.6456 71.9623 47.5746 69.1237 40.6106C68.3907 38.8571 67.0993 37.3946 65.45 36.4501C63.8007 35.5057 61.8857 35.1322 60.0024 35.3876Z" fill="#EC5239"/>
<path d="M59.1688 79.1774L54.9677 80.5778L50.3125 78.1555L54.7785 83.2271L59.1688 79.1774Z" fill="#443E90"/>
<path d="M53.9844 30.2404C54.0875 30.4441 54.1638 30.6604 54.2115 30.8838C54.3811 31.4179 54.5201 31.9613 54.6278 32.5112C54.6615 33.0153 54.6615 33.521 54.6278 34.0251C54.7112 34.8936 54.7112 35.7681 54.6278 36.6366C56.0395 37.2244 57.5696 37.4724 59.0947 37.3607C60.6199 37.2489 62.0974 36.7805 63.4084 35.9932C63.1783 35.3296 63.0135 34.6451 62.9164 33.9494C62.7326 32.8085 62.6062 31.659 62.5379 30.5053H53.9844V30.2404Z" fill="#F9C5C5"/>
<path d="M53.9844 30.2404C54.0875 30.4441 54.1638 30.6604 54.2115 30.8838C54.4216 31.4055 54.5616 31.9527 54.6278 32.5112C54.6615 33.0153 54.6615 33.521 54.6278 34.0251C56.4522 34.8955 58.4957 35.1987 60.4942 34.8956C61.3399 34.718 62.1312 34.3418 62.8029 33.798C62.619 32.6571 62.4927 31.5076 62.4244 30.3539H53.9844V30.2404Z" fill="#12323E"/>
<path d="M64.6654 34.9713C62.4066 36.436 59.7871 37.2481 57.0959 37.3179C57.5282 38.2022 57.8706 39.1279 58.1177 40.0808C58.1177 40.0808 63.6814 38.4533 64.6654 34.9713ZM54.9764 35.9932C55.4347 36.65 56.1241 37.1095 56.9066 37.28L54.825 39.2102C54.825 39.2102 54.4844 36.4474 54.4844 36.1446C54.4844 35.8418 54.9764 35.9932 54.9764 35.9932Z" fill="white"/>
<path d="M84.2285 63.2812L63.7529 54.9169C63.5582 54.8409 63.3421 54.8409 63.1474 54.9169L62.2769 55.2953L62.5797 55.7495L57.3188 68.8069C57.2758 68.9009 57.2524 69.0028 57.2502 69.1061C57.248 69.2095 57.2669 69.3122 57.3059 69.408C57.3449 69.5037 57.4032 69.5904 57.477 69.6628C57.5508 69.7352 57.6387 69.7917 57.7352 69.8288L77.4916 78.1175L77.908 78.7609L78.7785 78.4203C78.8857 78.3877 78.9832 78.3293 79.0624 78.25C79.1417 78.1708 79.2001 78.0733 79.2326 77.9661L84.6827 64.5302C84.7455 64.4204 84.7837 64.2982 84.7945 64.1722C84.8053 64.0461 84.7885 63.9193 84.7452 63.8004C84.702 63.6815 84.6334 63.5735 84.5441 63.4838C84.4549 63.3941 84.3472 63.325 84.2285 63.2812Z" fill="#D1E2EE"/>
<path d="M77.3373 78.5718L56.8617 70.056C56.6795 69.9659 56.5367 69.8122 56.46 69.624C56.3833 69.4357 56.3781 69.2259 56.4454 69.0341L61.8954 55.5604C61.9284 55.4652 61.9809 55.378 62.0497 55.3044C62.1185 55.2308 62.202 55.1725 62.2948 55.1333C62.3876 55.094 62.4876 55.0747 62.5883 55.0765C62.689 55.0784 62.7882 55.1014 62.8795 55.1441L83.355 63.6976C83.5432 63.7809 83.6918 63.934 83.7694 64.1246C83.8471 64.3151 83.8478 64.5284 83.7714 64.7195L78.3213 78.1933C78.2845 78.2852 78.2292 78.3684 78.1587 78.4379C78.0883 78.5074 78.0042 78.5617 77.9119 78.5972C77.8195 78.6327 77.7208 78.6488 77.6219 78.6444C77.523 78.64 77.4261 78.6153 77.3373 78.5718Z" fill="white"/>
<path d="M77.3428 78.5717L56.8672 70.056L76.2452 60.7076L83.3605 63.6976C83.5487 63.7809 83.6973 63.9339 83.7749 64.1245C83.8526 64.3151 83.8533 64.5284 83.7769 64.7195L78.3268 78.1933C78.29 78.2851 78.2347 78.3684 78.1642 78.4379C78.0938 78.5074 78.0097 78.5617 77.9174 78.5972C77.825 78.6327 77.7263 78.6488 77.6274 78.6444C77.5285 78.64 77.4317 78.6153 77.3428 78.5717Z" fill="#D1E2EE"/>
<path d="M65.8691 75.3548C66.0242 75.4808 66.218 75.5496 66.4179 75.5496C66.6177 75.5496 66.8115 75.4808 66.9667 75.3548C67.0374 75.566 67.1864 75.7421 67.383 75.8468C67.5222 75.7424 67.6805 75.6665 67.849 75.6233C68.0175 75.5802 68.1929 75.5706 68.3651 75.5952C68.5373 75.6198 68.703 75.6781 68.8527 75.7667C69.0024 75.8553 69.1332 75.9726 69.2375 76.1117C69.3993 76.1283 69.5626 76.1061 69.714 76.0468C69.8654 75.9876 70.0005 75.893 70.108 75.7711C70.1358 75.856 70.182 75.9338 70.2434 75.9987C70.3047 76.0637 70.3797 76.1142 70.4629 76.1468C70.5461 76.1794 70.6355 76.1931 70.7246 76.187C70.8138 76.181 70.9005 76.1553 70.9785 76.1117C71.9247 75.4683 72.0004 73.8409 71.9626 72.7812C72.0183 72.2306 71.9118 71.6757 71.6563 71.1848C71.4007 70.694 71.0073 70.2885 70.5243 70.0183C69.6804 69.7582 68.7692 69.8286 67.9751 70.215C67.1811 70.6015 66.5636 71.2753 66.2476 72.0999C65.8312 72.7812 64.658 74.7492 65.8691 75.3548Z" fill="#F9C5C5"/>
<path d="M65.5285 69.829C66.4651 69.6394 67.4303 69.6394 68.367 69.829C68.4898 69.8179 68.6131 69.8445 68.7204 69.9053C68.8276 69.9662 68.9138 70.0583 68.9673 70.1694C69.0208 70.2805 69.0391 70.4053 69.0197 70.527C69.0004 70.6488 68.9443 70.7618 68.8591 70.8509C68.4049 71.3807 67.8372 71.9863 67.1559 71.9106C66.4746 71.8349 66.4747 71.57 66.0962 71.6457C65.7177 71.7214 65.1878 72.554 64.9986 72.9703C64.8094 73.3867 63.2576 72.9703 63.5225 72.0999C63.6667 71.5959 63.9216 71.1304 64.2686 70.7375C64.6157 70.3447 65.0461 70.0342 65.5285 69.829Z" fill="#F9C5C5"/>
<path d="M68.2969 70.7752L70.3028 66.6498L73.6712 68.9206L71.2868 72.6676L68.2969 70.7752Z" fill="#F9C5C5"/>
<path d="M66.6305 37.0529C66.6305 37.0529 80.5585 44.2061 83.17 54.652C84.3811 59.5722 73.6702 71.5699 73.6702 71.5699L68.2958 68.0122C68.2958 68.0122 74.7678 58.7017 74.7678 57.9448C74.7678 56.3552 67.6146 52.911 65.8357 50.3752C65.1923 46.8176 64.0569 40.8755 66.6305 37.0529Z" fill="#EC5239"/>
<path d="M62.4637 30.9972C62.4637 30.9972 66.2485 28.1965 65.6051 26.7204C64.9617 25.2443 61.8203 28.6885 61.8203 28.6885L62.4637 30.9972Z" fill="#12323E"/>
<path d="M63.6369 27.9315C63.0757 29.9952 62.1531 31.9429 60.9118 33.6844C59.3979 35.1226 52.6989 35.1605 51.4121 32.6247C50.1253 30.0889 51.677 18.3183 52.2069 17.4856C52.7368 16.653 61.2146 13.2467 63.7883 17.4856C64.4639 19.1482 64.7987 20.9295 64.7727 22.7239C64.7467 24.5184 64.3604 26.2893 63.6369 27.9315Z" fill="#F9C5C5"/>
<path d="M50.6225 11.9978C51.8677 11.0642 53.3033 10.4163 54.8272 10.1002C56.3511 9.78406 57.9259 9.80748 59.4398 10.1688C60.9536 10.5301 62.3693 11.2204 63.5862 12.1906C64.8031 13.1608 65.7913 14.3872 66.4807 15.7826C67.0078 15.0609 67.2625 14.176 67.1998 13.2846C67.1998 12.8304 67.9189 12.8683 67.9567 13.2846C67.9956 14.3316 67.7044 15.3643 67.1241 16.2367C67.8285 16.3816 68.5055 16.6371 69.13 16.9937C69.5464 17.2208 69.13 17.8642 68.7516 17.5992C68.2563 17.3637 67.7356 17.1859 67.1998 17.0694C67.8328 18.6452 68.0707 20.352 67.8925 22.0408C67.7144 23.7297 67.1258 25.3493 66.1779 26.7584C65.7724 27.1621 65.2736 27.4596 64.7257 27.6246C64.1777 27.7897 63.5976 27.8171 63.0366 27.7046C60.5008 26.8341 60.5008 21.876 62.1282 18.167C59.0551 16.8077 55.6094 16.5406 52.3635 17.41C50.3954 17.7506 48.6545 14.4579 50.6225 11.9978Z" fill="#12323E"/>
<path d="M54.4821 24.6389C54.5213 25.0442 54.4666 25.4531 54.3222 25.8338C54.1778 26.2145 53.9476 26.5568 53.6495 26.8341V26.4556C53.716 26.5447 53.8014 26.618 53.8996 26.6703C53.9977 26.7227 54.1061 26.7527 54.2172 26.7584C54.519 26.725 54.8237 26.725 55.1255 26.7584C54.835 26.8843 54.5299 26.9734 54.2172 27.0233C54.0286 27.0733 53.8292 27.0637 53.6463 26.996C53.4634 26.9282 53.3059 26.8056 53.1953 26.6448V26.4556C53.6996 25.9071 54.132 25.2966 54.4821 24.6389Z" fill="#12323E"/>
<path d="M59.0623 22.5195C59.0623 21.8761 57.2457 21.3841 56.1481 22.0275C55.6939 22.2924 56.1481 23.8063 57.4349 23.882C57.8306 23.9136 58.223 23.7886 58.5274 23.5337C58.8318 23.2789 59.0239 22.9146 59.0623 22.5195Z" fill="white"/>
<path d="M56.6341 22.8979C56.6433 23.011 56.6755 23.121 56.7288 23.2212C56.782 23.3214 56.8552 23.4097 56.9438 23.4806C57.0324 23.5515 57.1346 23.6035 57.244 23.6335C57.3535 23.6634 57.4679 23.6707 57.5803 23.6549C57.8111 23.6248 58.0206 23.5042 58.1625 23.3196C58.3045 23.1351 58.3673 22.9017 58.3372 22.6708C58.3071 22.44 58.1865 22.2305 58.002 22.0886C57.8174 21.9466 57.584 21.8838 57.3532 21.9139C57.1284 21.9511 56.9271 22.0751 56.7927 22.259C56.6582 22.443 56.6013 22.6724 56.6341 22.8979Z" fill="#12323E"/>
<path d="M56.559 22.3301C56.5682 22.4037 56.6042 22.4713 56.66 22.5202C56.7158 22.569 56.7876 22.5957 56.8617 22.5951C56.9384 22.5776 57.0067 22.5342 57.055 22.4721C57.1033 22.41 57.1286 22.3331 57.1266 22.2545C57.1092 22.1778 57.0657 22.1095 57.0036 22.0612C56.9415 22.0129 56.8647 21.9876 56.786 21.9895C56.7124 22.0076 56.6482 22.0526 56.6062 22.1156C56.5642 22.1787 56.5473 22.2553 56.559 22.3301ZM54.4773 22.4058C54.4773 21.7624 52.812 21.2704 51.828 21.9138C51.4117 22.2166 51.828 23.7305 53.077 23.7684C53.259 23.7734 53.4403 23.7419 53.61 23.6757C53.7797 23.6095 53.9344 23.5099 54.065 23.3829C54.1955 23.2559 54.2993 23.104 54.3701 22.9362C54.4409 22.7683 54.4774 22.588 54.4773 22.4058Z" fill="white"/>
<path d="M52.0619 22.8221C52.0758 22.9319 52.1115 23.0378 52.1668 23.1336C52.2221 23.2294 52.296 23.3132 52.384 23.3802C52.4721 23.4471 52.5727 23.4959 52.6798 23.5235C52.787 23.5512 52.8986 23.5572 53.008 23.5412C53.2329 23.5039 53.4341 23.38 53.5685 23.196C53.703 23.012 53.7599 22.7827 53.7272 22.5572C53.7132 22.4474 53.6775 22.3415 53.6222 22.2457C53.5669 22.1499 53.493 22.066 53.4049 21.9991C53.3168 21.9321 53.2163 21.8834 53.1092 21.8558C53.002 21.8281 52.8905 21.8221 52.781 21.8381C52.6674 21.8516 52.5579 21.8884 52.4592 21.9461C52.3605 22.0038 52.2747 22.0813 52.2072 22.1736C52.1398 22.2659 52.0921 22.3711 52.067 22.4827C52.042 22.5943 52.0403 22.7098 52.0619 22.8221Z" fill="#12323E"/>
<path d="M52.0547 22.2545C52.0727 22.3281 52.1177 22.3923 52.1808 22.4343C52.2439 22.4764 52.3204 22.4932 52.3953 22.4816C52.4327 22.4837 52.4701 22.4766 52.5041 22.4608C52.5381 22.445 52.5676 22.4211 52.5901 22.3911C52.6126 22.3611 52.6273 22.3261 52.6329 22.289C52.6386 22.252 52.635 22.2141 52.6224 22.1788C52.6228 22.1406 52.6149 22.1027 52.5993 22.0678C52.5837 22.0329 52.5607 22.0019 52.5319 21.9767C52.5032 21.9515 52.4693 21.9329 52.4327 21.922C52.396 21.9112 52.3574 21.9084 52.3196 21.9139C52.246 21.9369 52.1812 21.9818 52.1339 22.0427C52.0865 22.1036 52.0589 22.1775 52.0547 22.2545Z" fill="white"/>
<path d="M59.9655 19.7187C58.8016 19.0952 57.5012 18.7701 56.1808 18.7725C55.9158 18.7725 55.8401 19.6808 55.9158 20.4378C55.92 20.4864 55.9346 20.5336 55.9586 20.5761C55.9826 20.6186 56.0154 20.6555 56.0549 20.6842C56.0944 20.7129 56.1396 20.7328 56.1874 20.7425C56.2353 20.7523 56.2846 20.7516 56.3322 20.7406C57.3211 20.565 58.3332 20.565 59.3221 20.7406L59.6249 20.8541C59.6249 20.8541 60.0412 19.9079 59.9655 19.7187ZM50.6172 19.9836C51.653 19.2723 52.8497 18.8301 54.0992 18.6968C54.3641 18.6968 54.4398 19.5673 54.402 20.3621C54.4023 20.4052 54.3934 20.448 54.3759 20.4874C54.3584 20.5268 54.3326 20.5621 54.3003 20.5907C54.2681 20.6194 54.23 20.6409 54.1888 20.6537C54.1476 20.6664 54.1041 20.6703 54.0613 20.6649C53.0981 20.6376 52.1375 20.7785 51.2227 21.0812C51.1783 21.1121 51.1255 21.1287 51.0713 21.1287C51.0172 21.1287 50.9644 21.1121 50.9199 21.0812C50.753 20.7368 50.6504 20.3648 50.6172 19.9836Z" fill="#12323E"/>
<path d="M57.0554 29.1049C56.6043 29.4235 56.0809 29.6249 55.5326 29.6909C54.9842 29.757 54.428 29.6857 53.9141 29.4833C53.9141 29.4833 54.4061 31.1865 55.3523 31.1865C56.2985 31.1865 57.0554 29.1049 57.0554 29.1049Z" fill="white"/>
<path d="M55.8427 31.9812C55.6303 32.023 55.4118 32.023 55.1993 31.9812L54.5938 31.792C54.7015 31.7461 54.8173 31.7225 54.9344 31.7225C55.0514 31.7225 55.1673 31.7461 55.275 31.792C55.4774 31.8049 55.673 31.8701 55.8427 31.9812Z" fill="#12323E"/>
<path d="M62.621 25.4336C63.113 24.7145 64.9676 23.8819 65.5731 24.7145C65.8555 25.1398 66.0008 25.6414 65.9894 26.1517C65.9781 26.6621 65.8106 27.1567 65.5097 27.569C65.2087 27.9813 64.7886 28.2915 64.306 28.4578C63.8233 28.6241 63.3013 28.6386 62.8102 28.4993C61.864 28.4236 62.2047 26.077 62.621 25.4336Z" fill="#F9C5C5"/>
<path d="M63.4141 26.0013C63.4141 26.0013 64.663 24.8659 65.0794 25.2444C65.4957 25.6228 64.7766 27.5531 64.3603 27.7802C64.4106 27.2801 64.3459 26.7752 64.171 26.3041C63.963 26.1159 63.6945 26.0085 63.4141 26.0013Z" fill="#12323E"/>
</g>
<defs>
<clipPath id="clip0_70_10253">
<rect width="84.8979" height="80" fill="white" transform="translate(0.554688)"/>
</clipPath>
</defs>
</svg>
