<svg width="14" height="14" viewBox="0 0 14 14" fill="none" xmlns="http://www.w3.org/2000/svg">
<path fill-rule="evenodd" clip-rule="evenodd" d="M7 1C5.4087 1 3.88258 1.63214 2.75736 2.75736C1.63214 3.88258 1 5.4087 1 7C1 8.5913 1.63214 10.1174 2.75736 11.2426C3.88258 12.3679 5.4087 13 7 13C8.5913 13 10.1174 12.3679 11.2426 11.2426C12.3679 10.1174 13 8.5913 13 7C13 5.4087 12.3679 3.88258 11.2426 2.75736C10.1174 1.63214 8.5913 1 7 1ZM7 12.0769C5.65352 12.0769 4.36218 11.542 3.41007 10.5899C2.45797 9.63782 1.92308 8.34648 1.92308 7C1.92308 5.65352 2.45797 4.36218 3.41007 3.41007C4.36218 2.45797 5.65352 1.92308 7 1.92308C8.34648 1.92308 9.63782 2.45797 10.5899 3.41007C11.542 4.36218 12.0769 5.65352 12.0769 7C12.0769 8.34648 11.542 9.63782 10.5899 10.5899C9.63782 11.542 8.34648 12.0769 7 12.0769Z" fill="#12323E"/>
<path d="M5.1349 5.73328C5.06417 5.73328 4.99634 5.70519 4.94633 5.65518C4.89632 5.60517 4.86823 5.53734 4.86823 5.46662C4.86823 5.39589 4.89632 5.32807 4.94633 5.27806C4.99634 5.22805 5.06417 5.19995 5.1349 5.19995C5.20562 5.19995 5.27345 5.22805 5.32346 5.27806C5.37347 5.32807 5.40156 5.39589 5.40156 5.46662C5.40156 5.53734 5.37347 5.60517 5.32346 5.65518C5.27345 5.70519 5.20562 5.73328 5.1349 5.73328ZM8.86823 5.73328C8.79751 5.73328 8.72968 5.70519 8.67967 5.65518C8.62966 5.60517 8.60156 5.53734 8.60156 5.46662C8.60156 5.39589 8.62966 5.32807 8.67967 5.27806C8.72968 5.22805 8.79751 5.19995 8.86823 5.19995C8.93895 5.19995 9.00678 5.22805 9.05679 5.27806C9.1068 5.32807 9.1349 5.39589 9.1349 5.46662C9.1349 5.53734 9.1068 5.60517 9.05679 5.65518C9.00678 5.70519 8.93895 5.73328 8.86823 5.73328Z" fill="#12323E"/>
<path d="M9.40156 8.13328C9.40156 8.13328 8.60156 9.19995 7.00156 9.19995C5.40156 9.19995 4.60156 8.13328 4.60156 8.13328M5.1349 5.73328C5.06417 5.73328 4.99634 5.70519 4.94633 5.65518C4.89632 5.60517 4.86823 5.53734 4.86823 5.46662C4.86823 5.39589 4.89632 5.32807 4.94633 5.27806C4.99634 5.22805 5.06417 5.19995 5.1349 5.19995C5.20562 5.19995 5.27345 5.22805 5.32346 5.27806C5.37347 5.32807 5.40156 5.39589 5.40156 5.46662C5.40156 5.53734 5.37347 5.60517 5.32346 5.65518C5.27345 5.70519 5.20562 5.73328 5.1349 5.73328ZM8.86823 5.73328C8.79751 5.73328 8.72968 5.70519 8.67967 5.65518C8.62966 5.60517 8.60156 5.53734 8.60156 5.46662C8.60156 5.39589 8.62966 5.32807 8.67967 5.27806C8.72968 5.22805 8.79751 5.19995 8.86823 5.19995C8.93895 5.19995 9.00678 5.22805 9.05679 5.27806C9.1068 5.32807 9.1349 5.39589 9.1349 5.46662C9.1349 5.53734 9.1068 5.60517 9.05679 5.65518C9.00678 5.70519 8.93895 5.73328 8.86823 5.73328Z" stroke="#12323E" stroke-linecap="round" stroke-linejoin="round"/>
</svg>
