<svg width="14" height="14" viewBox="0 0 14 14" fill="none" xmlns="http://www.w3.org/2000/svg">
<path d="M7 1C3.68661 1 1 3.68661 1 7C1 10.3134 3.68661 13 7 13C10.3134 13 13 10.3134 13 7C13 3.68661 10.3134 1 7 1ZM7 11.9821C4.24911 11.9821 2.01786 9.75089 2.01786 7C2.01786 4.24911 4.24911 2.01786 7 2.01786C9.75089 2.01786 11.9821 4.24911 11.9821 7C11.9821 9.75089 9.75089 11.9821 7 11.9821Z" fill="#EBB20E"/>
<path d="M9.12674 8.73083L7.17714 7.32127V3.9375C7.17714 3.87734 7.12793 3.82812 7.06777 3.82812H6.41016C6.35 3.82812 6.30078 3.87734 6.30078 3.9375V7.70271C6.30078 7.73826 6.31719 7.77107 6.3459 7.79158L8.60721 9.4404C8.65643 9.47595 8.72479 9.46501 8.76034 9.41716L9.15135 8.88396C9.1869 8.83337 9.17596 8.76501 9.12674 8.73083Z" fill="#EBB20E"/>
</svg>
