<svg width="13" height="13" viewBox="0 0 13 13" fill="none" xmlns="http://www.w3.org/2000/svg">
<path d="M6.16797 12.1667C2.85417 12.1667 0.167969 9.48055 0.167969 6.16675C0.167969 2.85295 2.85417 0.166748 6.16797 0.166748C9.48177 0.166748 12.168 2.85295 12.168 6.16675C12.1644 9.47875 9.47997 12.1631 6.16797 12.1667ZM1.36797 6.26995C1.38161 7.53844 1.89684 8.74996 2.80105 9.63972C3.70527 10.5295 4.92494 11.0251 6.19349 11.0183C7.46204 11.0115 8.67631 10.5027 9.57091 9.60333C10.4655 8.70391 10.9677 7.48692 10.9677 6.21835C10.9677 4.94978 10.4655 3.73279 9.57091 2.83337C8.67631 1.93395 7.46204 1.42524 6.19349 1.41842C4.92494 1.4116 3.70527 1.90723 2.80105 2.79698C1.89684 3.68673 1.38161 4.89825 1.36797 6.16675V6.26995Z" fill="#EC5239"/>
<path d="M8.27028 8.73835L6.16683 6.63295L4.06339 8.73835L3.59375 8.26901L5.7005 6.16692L3.59375 4.06482L4.06339 3.59549L6.16683 5.70089L8.27028 3.59879L8.73661 4.06482L6.63316 6.16692L8.73661 8.26901L8.27028 8.73835Z" fill="#EC5239"/>
</svg>
