<svg width="12" height="12" viewBox="0 0 12 12" fill="none" xmlns="http://www.w3.org/2000/svg">
<path d="M6 12C2.6862 12 0 9.3138 0 6C0 2.6862 2.6862 0 6 0C9.3138 0 12 2.6862 12 6C11.9964 9.312 9.312 11.9964 6 12ZM1.2 6.1032C1.21364 7.3717 1.72887 8.58321 2.63309 9.47297C3.5373 10.3627 4.75697 10.8583 6.02552 10.8515C7.29407 10.8447 8.50835 10.336 9.40295 9.43658C10.2975 8.53716 10.7997 7.32017 10.7997 6.0516C10.7997 4.78303 10.2975 3.56604 9.40295 2.66662C8.50835 1.7672 7.29407 1.25849 6.02552 1.25167C4.75697 1.24485 3.5373 1.74048 2.63309 2.63023C1.72887 3.51999 1.21364 4.7315 1.2 6V6.1032Z" fill="#59C676"/>
<path d="M1.2 6.1032C1.21364 7.3717 1.72887 8.58321 2.63309 9.47297C3.5373 10.3627 4.75697 10.8583 6.02552 10.8515C7.29407 10.8447 8.50835 10.336 9.40295 9.43658C10.2975 8.53716 10.7997 7.32017 10.7997 6.0516C10.7997 4.78303 10.2975 3.56604 9.40295 2.66662C8.50835 1.7672 7.29407 1.25849 6.02552 1.25167C4.75697 1.24485 3.5373 1.74048 2.63309 2.63023C1.72887 3.51999 1.21364 4.7315 1.2 6V6.1032Z" fill="#59C676"/>
<path d="M8.42247 2.91426L5.19073 7.17503L3.28007 5.26574L2.39844 6.14737L5.33675 9.08569L9.4515 3.79589L8.42247 2.91426Z" fill="white"/>
</svg>
