<svg width="56" height="56" viewBox="0 0 56 56" fill="none" xmlns="http://www.w3.org/2000/svg">
<circle cx="28" cy="28" r="26.0909" stroke="#59C676" stroke-width="3.81818"/>
<path d="M15.1537 33.5454V31.8808H17.6683V24.4786H15.5964V23.2036C16.1631 23.0974 16.6471 22.9734 17.0485 22.8317C17.4617 22.6783 17.8454 22.4953 18.1996 22.2828H19.7225V31.8808H21.9361V33.5454H15.1537ZM27.4558 33.7579C26.2752 33.7579 25.3425 33.2562 24.6578 32.2527C23.9731 31.2374 23.6307 29.7735 23.6307 27.861C23.6307 25.9484 23.9731 24.5081 24.6578 23.5401C25.3425 22.5602 26.2752 22.0703 27.4558 22.0703C28.6363 22.0703 29.569 22.5602 30.2537 23.5401C30.9384 24.52 31.2808 25.9603 31.2808 27.861C31.2808 29.7735 30.9384 31.2374 30.2537 32.2527C29.569 33.2562 28.6363 33.7579 27.4558 33.7579ZM27.4558 32.1641C27.7273 32.1641 27.9752 32.0933 28.1995 31.9516C28.4356 31.7982 28.6363 31.5502 28.8016 31.2079C28.9669 30.8655 29.0967 30.4228 29.1912 29.8797C29.2856 29.3367 29.3329 28.6638 29.3329 27.861C29.3329 27.07 29.2856 26.4089 29.1912 25.8776C29.0967 25.3345 28.9669 24.8977 28.8016 24.5672C28.6363 24.2366 28.4356 24.0064 28.1995 23.8765C27.9752 23.7349 27.7273 23.664 27.4558 23.664C27.1842 23.664 26.9304 23.7349 26.6943 23.8765C26.47 24.0064 26.2752 24.2366 26.1099 24.5672C25.9446 24.8977 25.8148 25.3345 25.7203 25.8776C25.6259 26.4089 25.5786 27.07 25.5786 27.861C25.5786 28.6638 25.6259 29.3367 25.7203 29.8797C25.8148 30.4228 25.9446 30.8655 26.1099 31.2079C26.2752 31.5502 26.47 31.7982 26.6943 31.9516C26.9304 32.0933 27.1842 32.1641 27.4558 32.1641ZM36.5348 33.7579C35.3543 33.7579 34.4216 33.2562 33.7369 32.2527C33.0522 31.2374 32.7098 29.7735 32.7098 27.861C32.7098 25.9484 33.0522 24.5081 33.7369 23.5401C34.4216 22.5602 35.3543 22.0703 36.5348 22.0703C37.7154 22.0703 38.6481 22.5602 39.3328 23.5401C40.0175 24.52 40.3599 25.9603 40.3599 27.861C40.3599 29.7735 40.0175 31.2374 39.3328 32.2527C38.6481 33.2562 37.7154 33.7579 36.5348 33.7579ZM36.5348 32.1641C36.8064 32.1641 37.0543 32.0933 37.2786 31.9516C37.5147 31.7982 37.7154 31.5502 37.8807 31.2079C38.046 30.8655 38.1758 30.4228 38.2703 29.8797C38.3647 29.3367 38.4119 28.6638 38.4119 27.861C38.4119 27.07 38.3647 26.4089 38.2703 25.8776C38.1758 25.3345 38.046 24.8977 37.8807 24.5672C37.7154 24.2366 37.5147 24.0064 37.2786 23.8765C37.0543 23.7349 36.8064 23.664 36.5348 23.664C36.2633 23.664 36.0095 23.7349 35.7734 23.8765C35.5491 24.0064 35.3543 24.2366 35.189 24.5672C35.0237 24.8977 34.8939 25.3345 34.7994 25.8776C34.705 26.4089 34.6577 27.07 34.6577 27.861C34.6577 28.6638 34.705 29.3367 34.7994 29.8797C34.8939 30.4228 35.0237 30.8655 35.189 31.2079C35.3543 31.5502 35.5491 31.7982 35.7734 31.9516C36.0095 32.0933 36.2633 32.1641 36.5348 32.1641Z" fill="#12323E"/>
</svg>
