<svg width="53" height="37" viewBox="0 0 53 37" fill="none" xmlns="http://www.w3.org/2000/svg">
<path fill-rule="evenodd" clip-rule="evenodd" d="M3.975 37C2.92076 37 1.90971 36.5823 1.16425 35.8389C0.418794 35.0954 0 34.0871 0 33.0357V3.96429C0 2.91289 0.418794 1.90456 1.16425 1.16111C1.90971 0.417664 2.92076 0 3.975 0H49.025C50.0792 0 51.0903 0.417664 51.8358 1.16111C52.5812 1.90456 53 2.91289 53 3.96429V33.0357C53 34.0871 52.5812 35.0954 51.8358 35.8389C51.0903 36.5823 50.0792 37 49.025 37H3.975ZM2.65 3.96429C2.65 3.61382 2.7896 3.27771 3.03808 3.02989C3.28657 2.78208 3.62359 2.64286 3.975 2.64286H49.025C49.3764 2.64286 49.7134 2.78208 49.9619 3.02989C50.2104 3.27771 50.35 3.61382 50.35 3.96429V7.92857H2.65V3.96429ZM3.975 34.3571C3.62359 34.3571 3.28657 34.2179 3.03808 33.9701C2.7896 33.7223 2.65 33.3862 2.65 33.0357V18.5H50.35V33.0357C50.35 33.3862 50.2104 33.7223 49.9619 33.9701C49.7134 34.2179 49.3764 34.3571 49.025 34.3571H3.975Z" fill="#015DFF"/>
</svg>
