<svg width="44" height="44" viewBox="0 0 44 44" fill="none" xmlns="http://www.w3.org/2000/svg">
<rect width="44" height="44" rx="22" fill="#1877F2"/>
<path d="M32.1514 22.062C32.1514 16.4199 27.6054 11.8461 21.9976 11.8461C16.3898 11.8461 11.8438 16.4199 11.8438 22.062C11.8438 27.1611 15.5569 31.3874 20.4111 32.1538V25.015H17.8329V22.062H20.4111V19.8113C20.4111 17.251 21.927 15.8367 24.2463 15.8367C25.3572 15.8367 26.5192 16.0362 26.5192 16.0362V18.5503H25.2389C23.9775 18.5503 23.5841 19.3378 23.5841 20.1457V22.062H26.4002L25.9501 25.015H23.5841V32.1538C28.4383 31.3874 32.1514 27.1611 32.1514 22.062Z" fill="white"/>
</svg>
