<svg width="44" height="52" viewBox="0 0 44 52" fill="none" xmlns="http://www.w3.org/2000/svg">
<path d="M22.0001 8.00195C9.86056 8.00198 0 17.8619 0 30.0008C0 42.1396 9.86056 51.9996 22.0001 51.9996C34.1396 51.9997 43.9999 42.1396 43.9999 30.0008C43.9999 17.8619 34.1396 8.00193 22.0001 8.00195Z" fill="#12323E"/>
<path d="M21.9998 10.0105C33.0584 10.0105 42.0063 18.9434 42.0063 30.0014C42.0063 41.0593 33.0584 50.007 21.9998 50.007C10.9414 50.007 2.00781 41.0593 2.00781 30.0014C2.00781 18.9434 10.9414 10.0105 21.9998 10.0105Z" fill="#59C676"/>
<path d="M21.9989 12.0034C12.0687 12.0034 4 20.0715 4 30.0011C4.00008 39.9308 12.0687 47.9989 21.9989 47.9989C31.929 47.9989 39.9975 39.9308 39.9975 30.0011C39.9975 20.0715 31.929 12.0034 21.9989 12.0034Z" fill="#12323E"/>
<path d="M21.9984 14.0112C30.8475 14.0112 38.0037 21.1522 38.0037 30.001C38.0037 38.8497 30.8475 46.0055 21.9984 46.0055C13.1491 46.0055 6.00781 38.8497 6.00781 30.001C6.00781 21.1522 13.1491 14.0112 21.9984 14.0112Z" fill="white"/>
<path d="M22.0014 25.9998C19.804 25.9998 18 27.8035 18 30.0008C18 32.1982 19.804 34.002 22.0014 34.002C24.1989 34.002 26.0027 32.1982 26.0027 30.0008C26.0027 27.8035 24.1989 25.9997 22.0014 25.9998Z" fill="#12323E"/>
<path d="M22.0012 28.0081C23.1177 28.008 24.0093 28.8848 24.0093 30.0012C24.0093 31.1177 23.1177 32.0092 22.0012 32.0092C20.8846 32.0091 20.0078 31.1177 20.0078 30.0012C20.0078 28.8848 20.8846 28.0081 22.0012 28.0081Z" fill="#EC5239"/>
<path d="M21.8842 16.0046C21.6387 16.0364 21.4135 16.1582 21.2526 16.3464C21.0917 16.5346 21.0063 16.7758 21.0129 17.0233V17.983C21.0013 18.1209 21.0186 18.2597 21.0635 18.3907C21.1083 18.5216 21.1797 18.6419 21.2734 18.7437C21.3671 18.8456 21.4809 18.927 21.6076 18.9827C21.7344 19.0383 21.8713 19.0671 22.0097 19.0671C22.1481 19.0671 22.2851 19.0383 22.4118 18.9827C22.5385 18.927 22.6524 18.8456 22.7461 18.7437C22.8397 18.6419 22.9112 18.5216 22.956 18.3907C23.0008 18.2597 23.0179 18.1209 23.0063 17.983V17.0233C23.01 16.8795 22.9828 16.7366 22.9262 16.6043C22.8697 16.472 22.7852 16.3534 22.6787 16.2567C22.5722 16.16 22.4461 16.0874 22.3089 16.0439C22.1718 16.0004 22.027 15.987 21.8842 16.0046ZM21.9876 41.0005C21.7235 41.0073 21.4728 41.1181 21.2902 41.309C21.1076 41.4999 21.0079 41.7552 21.0129 42.0193V42.9937C21.0013 43.1317 21.0186 43.2705 21.0635 43.4014C21.1083 43.5324 21.1797 43.6526 21.2734 43.7545C21.3671 43.8564 21.4809 43.9378 21.6076 43.9934C21.7344 44.0491 21.8713 44.0778 22.0097 44.0778C22.1481 44.0778 22.2851 44.0491 22.4118 43.9934C22.5385 43.9378 22.6524 43.8564 22.7461 43.7545C22.8397 43.6526 22.9112 43.5324 22.956 43.4014C23.0008 43.2705 23.0179 43.1317 23.0063 42.9937V42.0193C23.0088 41.8848 22.9841 41.7512 22.9338 41.6264C22.8835 41.5017 22.8087 41.3884 22.7135 41.2933C22.6184 41.1982 22.5052 41.1233 22.3804 41.073C22.2557 41.0227 22.1221 40.998 21.9876 41.0005ZM15.4613 17.7467C15.2895 17.7553 15.1228 17.8081 14.9773 17.8999C14.8319 17.9917 14.7127 18.1196 14.6311 18.271C14.5494 18.4224 14.5081 18.5922 14.5113 18.7642C14.5145 18.9362 14.5621 19.1044 14.6493 19.2527L15.136 20.0943C15.1932 20.2217 15.2765 20.3356 15.3803 20.4289C15.4842 20.5222 15.6065 20.5926 15.7393 20.6358C15.872 20.679 16.0124 20.6939 16.1513 20.6796C16.2902 20.6653 16.4244 20.622 16.5455 20.5527C16.6667 20.4833 16.772 20.3893 16.8546 20.2768C16.9373 20.1642 16.9956 20.0357 17.0256 19.8993C17.0555 19.7629 17.0564 19.6218 17.0286 19.4851C17.0007 19.3483 16.9446 19.2188 16.8636 19.1051L16.376 18.2635C16.2864 18.1009 16.1533 17.9664 15.9916 17.8752C15.83 17.7839 15.6461 17.7394 15.4606 17.7467H15.4613ZM27.9674 39.3912C27.7921 39.3959 27.6211 39.4467 27.4716 39.5383C27.3221 39.6299 27.1994 39.7592 27.1157 39.9133C27.0319 40.0673 26.99 40.2407 26.9943 40.416C26.9987 40.5913 27.0493 40.7623 27.1406 40.9119L27.628 41.7535C27.6938 41.8682 27.7817 41.9688 27.8864 42.0496C27.9911 42.1303 28.1105 42.1896 28.2382 42.2241C28.3658 42.2585 28.499 42.2675 28.6301 42.2504C28.7612 42.2333 28.8879 42.1905 29.0024 42.1245C29.117 42.0585 29.2174 41.9706 29.2979 41.8657C29.3785 41.7608 29.4375 41.6411 29.4717 41.5134C29.5058 41.3857 29.5144 41.2525 29.497 41.1214C29.4797 40.9903 29.4366 40.8639 29.3704 40.7495L28.8836 39.9079C28.794 39.7453 28.661 39.6109 28.4993 39.5196C28.3376 39.4284 28.1538 39.3839 27.9683 39.3912H27.9674ZM10.6774 22.5008C10.4615 22.5153 10.2562 22.5994 10.0921 22.7405C9.92811 22.8816 9.81439 23.0721 9.7678 23.2834C9.72121 23.4947 9.7443 23.7153 9.83377 23.9123C9.92325 24.1093 10.0742 24.272 10.264 24.3759L11.1055 24.8631C11.2193 24.944 11.3489 25.0003 11.4857 25.0282C11.6225 25.056 11.7636 25.055 11.9 25.025C12.0364 24.9951 12.1649 24.9369 12.2774 24.8543C12.3899 24.7716 12.4839 24.6663 12.5533 24.5452C12.6227 24.424 12.6661 24.2897 12.6804 24.1508C12.6947 24.0119 12.6798 23.8716 12.6366 23.7388C12.5934 23.606 12.523 23.4837 12.4297 23.3799C12.3364 23.276 12.2223 23.1928 12.0949 23.1357L11.2532 22.6485C11.0806 22.542 10.8797 22.4905 10.6772 22.5008H10.6774ZM32.3379 35.0062C32.1209 35.018 31.9135 35.1001 31.7473 35.2401C31.5812 35.3802 31.4651 35.5705 31.4168 35.7824C31.3684 35.9943 31.3903 36.2161 31.4793 36.4144C31.5683 36.6127 31.7195 36.7766 31.91 36.8813L32.7515 37.3685C32.8659 37.4347 32.9923 37.4778 33.1234 37.4952C33.2544 37.5125 33.3878 37.5039 33.5155 37.4697C33.6433 37.4355 33.7629 37.3765 33.8678 37.296C33.9727 37.2155 34.0606 37.115 34.1266 37.0005C34.1926 36.8859 34.2355 36.7595 34.2526 36.6284C34.2697 36.4973 34.2607 36.3641 34.2263 36.2364C34.1918 36.1088 34.1324 35.9892 34.0516 35.8845C33.9709 35.7798 33.8704 35.6921 33.7557 35.6263L32.9141 35.1391C32.7399 35.0378 32.5391 34.9915 32.3381 35.0062H32.3379ZM8.9205 29.0119C8.66848 29.0418 8.43722 29.1665 8.27366 29.3605C8.1101 29.5546 8.02635 29.8035 8.03951 30.0569C8.05268 30.3104 8.16169 30.5494 8.34448 30.7254C8.52726 30.9015 8.77031 31.0014 9.02407 31.0051H9.98372C10.1217 31.0168 10.2606 30.9996 10.3916 30.9548C10.5226 30.91 10.6428 30.8385 10.7447 30.7448C10.8467 30.6512 10.9281 30.5373 10.9837 30.4106C11.0394 30.2838 11.0679 30.1469 11.0679 30.0085C11.0679 29.8701 11.0394 29.7332 10.9837 29.6064C10.9281 29.4797 10.8467 29.3658 10.7447 29.2722C10.6428 29.1785 10.5226 29.107 10.3916 29.0622C10.2606 29.0174 10.1217 29.0002 9.98372 29.0119H9.02407C8.98958 29.0101 8.95499 29.0101 8.9205 29.0119ZM33.9179 29.0119C33.6658 29.0418 33.4346 29.1665 33.271 29.3605C33.1075 29.5546 33.0237 29.8035 33.0369 30.0569C33.05 30.3104 33.159 30.5494 33.3418 30.7254C33.5246 30.9015 33.7674 31.0014 34.0212 31.0051H34.9958C35.1338 31.0168 35.2725 30.9996 35.4035 30.9548C35.5344 30.91 35.6547 30.8385 35.7566 30.7448C35.8586 30.6512 35.94 30.5373 35.9956 30.4106C36.0513 30.2838 36.08 30.1469 36.08 30.0085C36.08 29.8701 36.0513 29.7332 35.9956 29.6064C35.94 29.4797 35.8586 29.3658 35.7566 29.2722C35.6547 29.1785 35.5344 29.107 35.4035 29.0622C35.2725 29.0174 35.1338 29.0002 34.9958 29.0119H34.0212C33.9867 29.0101 33.9523 29.0101 33.9179 29.0119ZM11.5487 35.0062C11.3927 35.0153 11.2408 35.0608 11.1055 35.1391L10.264 35.6263C10.1491 35.691 10.0481 35.7777 9.96688 35.8815C9.88561 35.9853 9.82565 36.1042 9.7904 36.2312C9.75515 36.3582 9.74541 36.491 9.76157 36.6218C9.77773 36.7526 9.81943 36.879 9.88452 36.9937C9.94962 37.1083 10.0367 37.2089 10.1408 37.2899C10.2449 37.3708 10.3638 37.4304 10.491 37.4652C10.6181 37.5 10.751 37.5094 10.8818 37.4928C11.0126 37.4762 11.1387 37.4339 11.2532 37.3685L12.0949 36.8813C12.2947 36.7719 12.4511 36.5976 12.5383 36.3872C12.6255 36.1768 12.6383 35.943 12.5745 35.7243C12.5108 35.5057 12.3743 35.3154 12.1877 35.1848C12.0011 35.0542 11.7757 34.9913 11.5484 35.0063L11.5487 35.0062ZM33.1942 22.5008C33.037 22.5144 32.8852 22.565 32.7513 22.6485L31.9095 23.1357C31.7894 23.1981 31.6833 23.2841 31.5974 23.3887C31.5115 23.4934 31.4478 23.6143 31.4101 23.7443C31.3723 23.8742 31.3613 24.0105 31.3778 24.1449C31.3943 24.2792 31.4378 24.4088 31.5058 24.5258C31.5738 24.6428 31.6648 24.7448 31.7734 24.8256C31.882 24.9064 32.0058 24.9643 32.1374 24.9959C32.2691 25.0274 32.4059 25.0319 32.5393 25.0091C32.6727 24.9862 32.8 24.9366 32.9137 24.8631L33.7552 24.3759C33.9567 24.2662 34.1144 24.0906 34.2018 23.8785C34.2892 23.6664 34.301 23.4307 34.2353 23.2109C34.1695 22.9912 34.0303 22.8007 33.8408 22.6714C33.6513 22.5421 33.423 22.4819 33.1944 22.5008H33.1942ZM16.0078 39.3912C15.8297 39.392 15.6551 39.4403 15.5019 39.5312C15.3488 39.622 15.2226 39.7521 15.1365 39.9079L14.6498 40.7495C14.5762 40.8632 14.5264 40.9906 14.5035 41.1241C14.4806 41.2575 14.4849 41.3942 14.5164 41.5259C14.5479 41.6576 14.6059 41.7815 14.6867 41.8902C14.7675 41.9988 14.8695 42.0899 14.9866 42.1579C15.1036 42.226 15.2335 42.2695 15.3679 42.2859C15.5023 42.3024 15.6386 42.2914 15.7686 42.2535C15.8986 42.2157 16.0197 42.1519 16.1243 42.066C16.2289 41.98 16.3148 41.8737 16.3771 41.7535L16.8648 40.9119C16.9573 40.7601 17.0077 40.5864 17.0108 40.4086C17.0139 40.2309 16.9696 40.0555 16.8823 39.9006C16.7951 39.7457 16.668 39.6169 16.5144 39.5273C16.3608 39.4378 16.1863 39.3908 16.0085 39.3912H16.0078ZM28.4103 17.7467C28.2475 17.7623 28.0911 17.8176 27.9547 17.9077C27.8182 17.9978 27.7061 18.1199 27.6278 18.2635L27.1401 19.1051C27.0748 19.2195 27.0327 19.3456 27.0163 19.4763C26.9998 19.607 27.0093 19.7396 27.0442 19.8667C27.079 19.9937 27.1386 20.1126 27.2195 20.2166C27.3004 20.3206 27.4011 20.4076 27.5157 20.4726C27.6302 20.5376 27.7563 20.5794 27.8871 20.5956C28.0178 20.6118 28.1504 20.602 28.2774 20.5669C28.4044 20.5318 28.5233 20.4719 28.6271 20.3908C28.7309 20.3097 28.8177 20.2089 28.8825 20.0942L29.3692 19.2527C29.4638 19.0936 29.5124 18.9113 29.5095 18.7262C29.5066 18.5411 29.4523 18.3605 29.3528 18.2044C29.2534 18.0483 29.1125 17.9229 28.9459 17.8421C28.7794 17.7613 28.5938 17.7283 28.4096 17.7467H28.4103ZM5.87893 9.00624C5.6544 9.03502 5.44608 9.13913 5.28838 9.30152L1.30193 13.2879C1.20876 13.3809 1.13485 13.4914 1.0844 13.6131C1.03395 13.7347 1.00785 13.8651 1.00781 13.9967C1.00777 14.1284 1.03357 14.2588 1.08394 14.3804C1.13431 14.5021 1.20836 14.6126 1.30147 14.7057C1.39458 14.7988 1.50507 14.8727 1.62674 14.923C1.7484 14.9734 1.87869 14.9993 2.01036 14.9993C2.14204 14.9992 2.27259 14.9733 2.39422 14.9228C2.51585 14.8724 2.62621 14.7984 2.71926 14.7053L6.70593 10.7189C6.8582 10.5728 6.96036 10.3822 6.99775 10.1745C7.03513 9.96678 7.00576 9.75259 6.91401 9.56253C6.82226 9.37248 6.67268 9.21631 6.48678 9.11639C6.30089 9.01647 6.0883 8.97792 5.87916 9.00624H5.87893ZM37.9043 9.00624C37.7152 9.02635 37.5358 9.09994 37.3871 9.21835C37.2384 9.33677 37.1266 9.49514 37.0646 9.67488C37.0027 9.85461 36.9932 10.0483 37.0374 10.2332C37.0816 10.4181 37.1775 10.5866 37.314 10.7189L41.2859 14.7053C41.3788 14.7993 41.4891 14.874 41.6109 14.9251C41.7328 14.9762 41.8636 15.0028 41.9957 15.0032C42.1278 15.0036 42.2588 14.9778 42.3809 14.9274C42.5031 14.8771 42.6142 14.803 42.7076 14.7096C42.801 14.6162 42.875 14.5052 42.9254 14.383C42.9757 14.2609 43.0014 14.13 43.001 13.9978C43.0006 13.8657 42.9742 13.7349 42.923 13.6131C42.8719 13.4913 42.7972 13.3808 42.7032 13.2879L38.7315 9.30152C38.6252 9.19265 38.4953 9.10948 38.3521 9.05832C38.2088 9.00715 38.0557 8.98938 37.9045 9.0063L37.9043 9.00624ZM17.4989 0C15.8541 0 14.5017 1.35241 14.5017 2.99716C14.5017 4.6419 15.8541 6.00908 17.4989 6.00908H26.5057C28.1506 6.00908 29.503 4.6419 29.503 2.99716C29.503 1.35241 28.1506 0 26.5057 0H17.4989Z" fill="#12323E"/>
<path d="M17.497 2.00781H26.5038C27.0753 2.00781 27.5077 2.42564 27.5077 2.99698C27.5077 3.5683 27.0754 4.00098 26.5038 4.00098H17.497C16.9255 4.00098 16.5078 3.56835 16.5078 2.99698C16.5078 2.42567 16.9257 2.00781 17.497 2.00781Z" fill="#FDC82F"/>
<path d="M21.0113 5.00488V9.00598H23.0047V5.00488H21.0113ZM21.8826 21.0094C21.6396 21.041 21.4167 21.1606 21.2561 21.3457C21.0955 21.5308 21.0083 21.7684 21.0113 22.0134V26.9889C20.9997 27.1269 21.017 27.2657 21.0618 27.3967C21.1067 27.5276 21.1781 27.6478 21.2718 27.7497C21.3654 27.8516 21.4793 27.933 21.606 27.9887C21.7328 28.0443 21.8697 28.073 22.0081 28.073C22.1465 28.073 22.2834 28.0443 22.4102 27.9887C22.5369 27.933 22.6508 27.8516 22.7444 27.7497C22.8381 27.6478 22.9096 27.5276 22.9544 27.3967C22.9992 27.2657 23.0163 27.1269 23.0047 26.9889V22.0134C23.0063 21.8708 22.9775 21.7295 22.92 21.599C22.8625 21.4685 22.7778 21.3518 22.6716 21.2567C22.5653 21.1616 22.4399 21.0904 22.3038 21.0477C22.1678 21.0051 22.0241 20.992 21.8826 21.0094Z" fill="#12323E"/>
</svg>
