<svg width="464" height="400" viewBox="0 0 464 400" fill="none" xmlns="http://www.w3.org/2000/svg">
<path fill-rule="evenodd" clip-rule="evenodd" d="M375.972 238.022C362.407 236.895 340.531 254.962 341.351 265.589C342.17 276.215 350.222 302.443 380.888 301.78L377.589 293.256L412.466 306.876L405.8 284.569L414.829 289.104C410.07 259.253 391.649 239.326 375.972 238.022Z" fill="#EC5239"/>
<path fill-rule="evenodd" clip-rule="evenodd" d="M351.006 215.874L320.047 241.072L333.093 263.797L338.516 272.414C364.143 282.46 388.691 252.798 370.352 227.037L364.993 224.098L351.006 215.874Z" fill="#F0EAE8"/>
<path fill-rule="evenodd" clip-rule="evenodd" d="M351.006 215.874L320.047 241.072L333.093 263.797C357.057 271.901 372.409 255.904 364.993 224.098L351.006 215.874Z" fill="#FDC82F"/>
<path fill-rule="evenodd" clip-rule="evenodd" d="M28.96 49.0655L15.9002 62.6671L0 0L63.2613 13.3415L48.2894 28.9344C128.683 121.313 219.646 196.759 292.542 265.584C367.91 336.745 401.599 377.188 463.769 364.365C426.497 398.338 363.043 353.223 274.993 280.109C203.441 220.695 112.919 146.883 28.9607 49.0646L28.96 49.0655Z" fill="#EC5239"/>
<path fill-rule="evenodd" clip-rule="evenodd" d="M221.629 22.6278C221.629 22.6278 150.919 6.09787 143.361 17.1459C139.766 22.4006 144.294 89.0909 158.066 110.983C181.522 148.272 253.98 222.051 284.1 240.878C316.357 261.04 362.191 229.803 355.725 186.396C355.725 186.396 283.21 68.2412 257.281 38.8403C248.645 29.0491 221.629 22.6278 221.629 22.6278Z" fill="#F0EAE8"/>
<path fill-rule="evenodd" clip-rule="evenodd" d="M291.905 86.5389L315.372 122.314C315.372 122.314 344.614 106.127 340.703 100.165C336.792 94.2024 291.905 86.5389 291.905 86.5389ZM221.629 22.6278C221.629 22.6278 150.919 6.09787 143.361 17.1459C140.728 20.9952 142.453 57.8111 148.978 85.8354C150.135 90.8059 182.278 93.3013 199.835 77.0028C232.954 46.2592 221.629 22.6278 221.629 22.6278Z" fill="#FDC82F"/>
<path fill-rule="evenodd" clip-rule="evenodd" d="M161.602 335.966L144.267 352.259C140.751 379.58 134.167 398.687 155.634 400L181.967 366.278L161.602 335.966Z" fill="#12323E"/>
<path d="M263.309 145.88C276.44 145.88 287.086 134.313 287.086 120.046C287.086 105.778 276.44 94.2119 263.309 94.2119C250.177 94.2119 239.531 105.778 239.531 120.046C239.531 134.313 250.177 145.88 263.309 145.88Z" fill="#12323E"/>
<path d="M265.206 138.386C273.427 138.386 280.092 130.737 280.092 121.302C280.092 111.867 273.427 104.219 265.206 104.219C256.985 104.219 250.32 111.867 250.32 121.302C250.32 130.737 256.985 138.386 265.206 138.386Z" fill="white"/>
<path fill-rule="evenodd" clip-rule="evenodd" d="M117.837 252.478C115.85 247.787 106.81 241.033 97.4013 244.325C87.6933 247.723 88.2849 260.931 88.2849 260.931C87.9811 267.287 91.2855 275.375 96.4814 276.291C106.717 278.094 120.415 258.566 117.837 252.478Z" fill="#F9C5C5"/>
<path fill-rule="evenodd" clip-rule="evenodd" d="M152.032 281.293C135.785 260.434 99.7399 257.485 99.5162 278.224C99.3792 290.913 125.632 337.362 133.084 350.049C144.249 369.056 158.788 364.491 166.333 335.929C166.333 335.929 161.073 292.902 152.032 281.293Z" fill="#015DFF"/>
<path fill-rule="evenodd" clip-rule="evenodd" d="M203.21 228.576C200.643 216.972 167.105 222.801 143.518 235.772C126.911 244.904 101.392 265.545 99.8286 275.129C96.1518 297.665 135.154 294.67 155.646 289.857C160.502 288.717 183.943 290.004 193.273 277.103C205.399 260.335 205.539 239.101 203.21 228.576Z" fill="#015DFF"/>
<path fill-rule="evenodd" clip-rule="evenodd" d="M141.251 219.795C143.562 192.509 117.43 187.193 104.308 211.26C100.054 219.063 94.6641 245.258 94.6641 245.258C106.53 246.483 110.743 248.958 118.727 255.477C118.727 255.477 140.541 228.193 141.251 219.795Z" fill="#015DFF"/>
<path fill-rule="evenodd" clip-rule="evenodd" d="M105.669 258.73C107.012 258.097 109.347 258.162 109.347 258.162C109.707 258.169 110.004 257.883 110.012 257.523C110.019 257.164 109.733 256.866 109.374 256.858C109.374 256.858 106.62 256.818 105.066 257.574C104.957 257.627 104.82 257.725 104.674 257.881C104.476 258.091 104.217 258.448 103.913 258.903C103.007 260.255 101.627 262.551 100.075 263.93C99.3312 264.591 98.5653 265.057 97.7826 264.93C97.2779 264.848 96.7933 264.509 96.308 263.881C96.1488 263.675 96.0808 263.353 96.0415 262.959C95.9652 262.192 96.0492 261.193 96.2227 260.088C96.9287 255.595 99.1369 249.44 99.1369 249.44C99.2583 249.101 99.0822 248.728 98.7433 248.606C98.4044 248.485 98.0313 248.661 97.9098 249C97.9098 249 95.6565 255.293 94.9351 259.886C94.7415 261.118 94.6592 262.233 94.7445 263.089C94.8131 263.777 94.9985 264.318 95.2765 264.678C96.018 265.638 96.8027 266.092 97.5739 266.217C98.7049 266.4 99.866 265.86 100.941 264.904C102.573 263.453 104.043 261.051 104.996 259.628C105.274 259.214 105.621 258.789 105.669 258.73Z" fill="#12323E"/>
<path fill-rule="evenodd" clip-rule="evenodd" d="M88.3681 262.56C88.3681 262.56 90.5387 266.136 92.4839 268.547C93.3961 269.678 94.2895 270.547 94.9051 270.8C95.6419 271.104 96.4883 270.831 97.2742 270.168C98.6839 268.978 99.9619 266.554 99.9619 266.554C100.129 266.235 100.005 265.841 99.6863 265.675C99.3674 265.508 98.9736 265.631 98.8067 265.95C98.8067 265.95 97.9697 267.555 96.9325 268.686C96.6231 269.024 96.2987 269.32 95.9712 269.495C95.7748 269.6 95.5842 269.67 95.4021 269.595C94.9059 269.391 94.2337 268.64 93.4984 267.729C91.5998 265.375 89.4827 261.884 89.4827 261.884C89.2959 261.576 88.895 261.478 88.5873 261.664C88.2794 261.851 88.1813 262.252 88.3681 262.56Z" fill="#12323E"/>
<path fill-rule="evenodd" clip-rule="evenodd" d="M349.052 319.194L309.46 318.49L302.594 333.584C302.594 333.584 330.205 358.318 337.229 366.805C348.308 380.191 361.779 379.179 362.413 361.516C362.701 353.503 349.052 319.194 349.052 319.194Z" fill="#12323E"/>
<path fill-rule="evenodd" clip-rule="evenodd" d="M214.278 218.802C177.163 205.179 143.595 242.058 170.453 268.131C195.674 292.613 291.667 335.579 306.067 344.714C321.672 341.469 330.227 330.233 333.094 312.553C333.094 312.553 244.122 229.755 214.278 218.802Z" fill="#015DFF"/>
<path fill-rule="evenodd" clip-rule="evenodd" d="M169.995 268.6C174.283 272.763 180.056 276.949 187.673 281.92C187.974 282.117 188.378 282.032 188.575 281.731C188.771 281.429 188.686 281.025 188.385 280.829C180.855 275.914 175.142 271.781 170.903 267.665C170.644 267.414 170.232 267.42 169.981 267.679C169.73 267.937 169.736 268.35 169.995 268.6Z" fill="#12323E"/>
<path fill-rule="evenodd" clip-rule="evenodd" d="M111.841 155.874C103.152 144.467 83.6613 146.518 85.8774 160.53C87.614 171.512 103.564 211.045 108.931 218.803C122.542 238.477 146.467 229.822 140.238 207.915C137.88 199.622 119.416 165.819 111.841 155.874Z" fill="#015DFF"/>
<path fill-rule="evenodd" clip-rule="evenodd" d="M109.754 217.541C114.289 224.097 119.953 227.572 125.299 228.53C125.654 228.594 125.993 228.358 126.056 228.004C126.12 227.649 125.884 227.311 125.53 227.247C120.464 226.339 115.123 223.011 110.826 216.799C108.824 213.906 104.961 207.983 101.299 199.362C101.158 199.031 100.775 198.876 100.444 199.017C100.113 199.158 99.9582 199.54 100.099 199.872C103.807 208.602 107.727 214.611 109.754 217.541Z" fill="#12323E"/>
<path fill-rule="evenodd" clip-rule="evenodd" d="M187.834 136.73C158.892 113.348 73.2559 119.935 93.697 172.459C100.542 190.046 120.858 200.957 123.221 211.716C131.356 248.754 195.857 244.793 212.715 211.646C219.986 197.349 201.459 147.738 187.834 136.73Z" fill="#59C676"/>
<path fill-rule="evenodd" clip-rule="evenodd" d="M158.351 124.328C171.573 121.988 187.813 136.666 190.75 153.264C193.688 169.862 187.78 178.61 174.558 180.95C161.336 183.29 148.218 171.714 145.28 155.116C142.343 138.518 145.129 126.668 158.351 124.328Z" fill="#12323E"/>
<path fill-rule="evenodd" clip-rule="evenodd" d="M254.004 204.639C252.633 187.024 231.259 181.857 220.686 203.297C215.267 214.285 204.627 247.14 209.378 263.052C210.019 265.2 215.479 265.881 215.479 265.881C215.479 265.881 218.257 275.079 223.011 275.339C227.232 275.57 230.604 268.466 230.604 268.466C239.892 269.658 247.403 263.79 247.974 257.145C248.269 253.707 243.69 250.633 243.69 250.633L244.469 228.575C244.469 228.575 254.529 211.389 254.004 204.639Z" fill="#F9C5C5"/>
<path fill-rule="evenodd" clip-rule="evenodd" d="M254.004 204.639C252.633 187.024 231.259 181.857 220.686 203.297C215.267 214.285 204.627 247.14 209.378 263.052C210.019 265.2 215.479 265.881 215.479 265.881L230.604 268.466C239.892 269.658 247.403 263.79 247.974 257.145C248.269 253.707 243.69 250.633 243.69 250.633L244.469 228.575C244.469 228.575 254.529 211.389 254.004 204.639Z" fill="#F9C5C5"/>
<path fill-rule="evenodd" clip-rule="evenodd" d="M219.209 253.53C220.498 257.757 221.283 261.809 221.532 266.644C221.551 267.003 221.857 267.28 222.216 267.261C222.576 267.243 222.853 266.936 222.834 266.577C222.579 261.626 221.776 257.478 220.456 253.149C220.351 252.805 219.986 252.611 219.642 252.716C219.298 252.821 219.104 253.185 219.209 253.53ZM227.632 258.136C228.857 261.216 229.84 263.974 230.459 268.006C230.514 268.362 230.847 268.606 231.202 268.551C231.558 268.497 231.802 268.164 231.748 267.808C231.111 263.661 230.104 260.823 228.844 257.655C228.71 257.32 228.331 257.157 227.997 257.29C227.663 257.423 227.499 257.802 227.632 258.136ZM235.393 260.619C237.044 262.506 237.894 264.418 238.699 267.066C238.804 267.41 239.167 267.604 239.512 267.5C239.856 267.395 240.051 267.031 239.946 266.687C239.081 263.838 238.15 261.791 236.374 259.761C236.137 259.49 235.725 259.463 235.455 259.7C235.184 259.937 235.156 260.349 235.393 260.619ZM99.557 151.543C95.9022 165.214 101.944 179.072 110.366 192.956C110.552 193.264 110.953 193.362 111.261 193.175C111.569 192.988 111.667 192.588 111.48 192.28C103.259 178.726 97.2484 165.226 100.816 151.879C100.909 151.532 100.703 151.174 100.355 151.082C100.007 150.989 99.6499 151.195 99.557 151.543ZM108.144 160.086C108.144 160.086 121.019 187.684 130.316 196.398C134.03 199.879 136.599 205.521 138.839 211.128C141.136 216.879 143.087 222.6 145.471 226.069C149.94 232.569 158.494 237.923 158.494 237.923C158.799 238.114 159.202 238.021 159.392 237.716C159.583 237.41 159.49 237.008 159.185 236.817C159.185 236.817 150.88 231.635 146.545 225.33C144.203 221.923 142.306 216.294 140.049 210.645C137.735 204.851 135.044 199.043 131.207 195.447C122.018 186.834 109.326 159.536 109.326 159.536C109.174 159.209 108.786 159.068 108.46 159.22C108.133 159.372 107.992 159.76 108.144 160.086ZM275.2 142.444C275.2 142.444 327.128 208.366 336.881 224.181C337.687 225.489 337.925 227.357 337.947 229.122C337.982 231.878 337.459 234.406 337.459 234.406C337.386 234.758 337.613 235.103 337.965 235.176C338.318 235.249 338.663 235.022 338.736 234.67C338.736 234.67 339.287 232.009 339.251 229.106C339.225 227.098 338.907 224.984 337.99 223.497C328.223 207.658 276.224 141.638 276.224 141.638C276.002 141.355 275.592 141.306 275.309 141.529C275.026 141.751 274.977 142.161 275.2 142.444Z" fill="#12323E"/>
<path fill-rule="evenodd" clip-rule="evenodd" d="M211.463 213.919C211.907 213.177 213.667 240.011 178.802 246.332C151.113 251.352 143.672 234.589 143.92 234.685C165.978 243.203 198.776 235.112 211.463 213.919Z" fill="#12323E"/>
<path d="M293.209 181.697C302.437 181.697 309.918 173.679 309.918 163.789C309.918 153.899 302.437 145.881 293.209 145.881C283.981 145.881 276.5 153.899 276.5 163.789C276.5 173.679 283.981 181.697 293.209 181.697Z" fill="#12323E"/>
<path d="M294.856 177.2C300.36 177.2 304.822 172.034 304.822 165.661C304.822 159.288 300.36 154.122 294.856 154.122C289.352 154.122 284.891 159.288 284.891 165.661C284.891 172.034 289.352 177.2 294.856 177.2Z" fill="white"/>
<path fill-rule="evenodd" clip-rule="evenodd" d="M159.017 238.976L162.607 246.303C162.753 246.632 163.138 246.78 163.467 246.633C163.796 246.487 163.944 246.102 163.798 245.773L160.208 238.446C160.062 238.117 159.677 237.969 159.348 238.115C159.019 238.261 158.871 238.647 159.017 238.976Z" fill="#12323E"/>
<path fill-rule="evenodd" clip-rule="evenodd" d="M108.09 115.287L109.485 104.086L75.6641 121.565L103.229 155.55L121.039 126.56L108.09 115.287Z" fill="#F9C5C5"/>
<path fill-rule="evenodd" clip-rule="evenodd" d="M88.8094 137.767L109.488 104.086L75.6679 121.564L88.8094 137.767ZM175.09 238.166L179.495 245.545C179.672 245.858 180.069 245.968 180.383 245.791C180.696 245.614 180.807 245.216 180.629 244.903L176.225 237.524C176.048 237.21 175.65 237.1 175.337 237.277C175.024 237.454 174.913 237.852 175.09 238.166ZM113.705 70.3841C104.914 56.0554 87.2393 58.4867 67.9422 63.9773L68.9497 66.781L63.5735 65.7464C62.6839 72.7774 63.9478 79.5304 70.4425 85.6084C84.6174 99.6002 99.7496 103.063 115.166 103.398C123.042 89.9878 124.372 78.4603 113.705 70.3841Z" fill="#12323E"/>
<path fill-rule="evenodd" clip-rule="evenodd" d="M89.3705 65.7463C100.074 65.7463 112.81 82.7643 112.81 99.4292C112.81 116.094 96.7975 134.8 73.2885 128.592C66.8528 126.892 65.1673 119.505 64.7798 107.519C64.7004 105.06 58.8984 105.028 58.8984 102.191C58.8984 99.4984 65.0408 94.1713 65.698 91.5278C69.1103 77.8079 80.3962 65.7463 89.3705 65.7463Z" fill="#F9C5C5"/>
<path fill-rule="evenodd" clip-rule="evenodd" d="M64.9297 110.894C64.9135 110.627 73.4559 108.522 73.4559 108.522C73.4559 108.522 65.6184 117.344 65.5676 117.03C65.269 115.183 65.0658 113.135 64.9297 110.894Z" fill="white"/>
<path fill-rule="evenodd" clip-rule="evenodd" d="M71.1727 85.596C72.0259 85.7524 72.4389 87.4029 72.0947 89.2793C71.7505 91.1556 70.7784 92.5521 69.9254 92.3954C69.0724 92.239 68.6593 90.5885 69.0033 88.7122C69.3476 86.8358 70.3196 85.4396 71.1727 85.596ZM113.7 70.3841C104.91 56.0554 87.2346 58.4867 67.9375 63.9773L89.3678 72.5957L88.74 86.6702L94.9284 86.7653C103.651 72.4325 113.444 84.2054 105.491 101.727C105.491 101.727 114.058 103.374 115.161 103.398C123.037 89.9878 124.367 78.4603 113.7 70.3841Z" fill="#12323E"/>
<path fill-rule="evenodd" clip-rule="evenodd" d="M256.214 169.565C245.994 158.18 171.848 121.325 161.673 125.348C151.498 129.371 149.691 157.556 159.865 168.984C170.04 180.412 233.598 205.266 245.178 206.107C259.211 207.126 270.806 185.82 256.214 169.565Z" fill="#015DFF"/>
<path fill-rule="evenodd" clip-rule="evenodd" d="M266.393 178.764C260.584 165.431 227.55 155.422 215.342 173.364C208.534 183.371 206.05 218.803 206.05 218.803C215.871 226.127 227.846 241.022 251.2 226.479C251.2 226.479 270.763 188.794 266.393 178.764ZM117.574 127.629L106.106 133.217L104.494 153.9L93.1388 139.536L83.2188 142.975L105.047 162.931L117.574 127.629Z" fill="#015DFF"/>
<path fill-rule="evenodd" clip-rule="evenodd" d="M127.031 123.022L106.108 133.217L119.761 156.336L138.846 129.547L127.031 123.022ZM93.1412 152.047C89.871 148.858 86.5906 145.715 83.2201 142.977L78.8125 155.46L93.1412 152.047Z" fill="#12323E"/>
</svg>
