<svg width="400" height="260" viewBox="0 0 400 260" fill="none" xmlns="http://www.w3.org/2000/svg">
<path d="M48.1633 259.212C48.1633 259.212 -19.4763 217.368 5.55925 172.5C30.5948 127.632 53.8985 175.623 116.189 138.765C178.48 101.907 159.697 -2.35021 253.276 52.8601C346.855 108.07 271.886 139.82 302.086 165.199C332.287 190.577 352.558 175.523 380.8 202.444C409.042 229.366 397.785 258.64 397.785 258.64L48.1633 259.212Z" fill="#F0EAE8"/>
<path d="M116.272 90.0562H30.5063C30.4036 90.0562 30.3203 89.9725 30.3203 89.8694C30.3203 89.7663 30.4036 89.6826 30.5063 89.6826H116.272C116.374 89.6826 116.458 89.7663 116.458 89.8694C116.458 89.9725 116.374 90.0562 116.272 90.0562ZM128.79 100.872H68.2769C68.1743 100.872 68.0909 100.788 68.0909 100.685C68.0909 100.582 68.1743 100.498 68.2769 100.498H128.79C128.893 100.498 128.976 100.582 128.976 100.685C128.976 100.788 128.892 100.872 128.79 100.872Z" fill="#12323E"/>
<path d="M100.549 100.872C100.446 100.872 100.363 100.788 100.363 100.685V89.8689C100.363 89.7658 100.446 89.6821 100.549 89.6821C100.651 89.6821 100.734 89.7658 100.734 89.8689V100.685C100.734 100.788 100.65 100.872 100.549 100.872ZM71.811 100.872C71.7083 100.872 71.625 100.788 71.625 100.685V89.8689C71.625 89.7658 71.7083 89.6821 71.811 89.6821C71.9137 89.6821 71.997 89.7658 71.997 89.8689V100.685C71.997 100.788 71.9129 100.872 71.811 100.872ZM85.7014 111.835C85.5987 111.835 85.5154 111.751 85.5154 111.648V100.685C85.5154 100.582 85.5987 100.498 85.7014 100.498C85.804 100.498 85.8874 100.582 85.8874 100.685V111.648C85.8874 111.751 85.8033 111.835 85.7014 111.835ZM112.338 111.835C112.235 111.835 112.152 111.751 112.152 111.648V100.685C112.152 100.582 112.235 100.498 112.338 100.498C112.441 100.498 112.524 100.582 112.524 100.685V111.648C112.524 111.751 112.441 111.835 112.338 111.835Z" fill="#12323E"/>
<path d="M138.005 111.833H54.5532C54.4505 111.833 54.3672 111.75 54.3672 111.647C54.3672 111.544 54.4505 111.46 54.5532 111.46H138.006C138.108 111.46 138.192 111.544 138.192 111.647C138.192 111.75 138.108 111.833 138.005 111.833Z" fill="#12323E"/>
<path d="M310.595 257.899H64.75V260H310.595V257.899Z" fill="#12323E"/>
<path fill-rule="evenodd" clip-rule="evenodd" d="M167.725 148.92H165.034C161.386 148.92 158.43 145.951 158.43 142.288V137.901H174.33V142.288C174.33 145.95 171.373 148.92 167.725 148.92Z" fill="#EC5239"/>
<path d="M176.139 145.825C173.999 145.825 172.258 144.077 172.258 141.928C172.258 139.779 173.999 138.03 176.139 138.03C178.279 138.03 180.02 139.778 180.02 141.928C180.02 144.077 178.279 145.825 176.139 145.825ZM176.139 139.306C174.699 139.306 173.528 140.483 173.528 141.929C173.528 143.374 174.699 144.551 176.139 144.551C177.579 144.551 178.75 143.374 178.75 141.929C178.75 140.483 177.579 139.306 176.139 139.306Z" fill="#EC5239"/>
<path d="M162.088 135.251C162.063 135.251 162.037 135.245 162.014 135.231C161.945 135.189 161.924 135.1 161.964 135.033C161.973 135.018 162.792 133.641 162.618 132.85C162.529 132.451 162.301 132.058 162.06 131.641C161.803 131.198 161.512 130.694 161.338 130.096C160.989 128.897 162.165 127.319 162.216 127.252C162.264 127.188 162.354 127.175 162.418 127.224C162.481 127.272 162.493 127.363 162.445 127.426C162.433 127.441 161.307 128.954 161.614 130.015C161.778 130.58 162.048 131.045 162.309 131.495C162.562 131.932 162.801 132.344 162.898 132.787C163.098 133.691 162.248 135.121 162.211 135.18C162.184 135.227 162.137 135.251 162.088 135.251ZM167.047 130.675C167.022 130.675 166.997 130.668 166.973 130.655C166.904 130.613 166.883 130.524 166.924 130.456C166.933 130.442 167.751 129.065 167.577 128.274C167.488 127.875 167.261 127.481 167.019 127.065C166.762 126.621 166.471 126.118 166.297 125.519C165.948 124.32 167.125 122.741 167.175 122.674C167.223 122.611 167.313 122.597 167.377 122.647C167.44 122.694 167.453 122.786 167.404 122.849C167.392 122.864 166.266 124.378 166.573 125.438C166.738 126.003 167.007 126.469 167.268 126.918C167.521 127.355 167.76 127.768 167.857 128.21C168.057 129.114 167.207 130.544 167.171 130.604C167.143 130.65 167.096 130.675 167.047 130.675Z" fill="#12323E"/>
<path d="M170.775 136.441C170.75 136.441 170.724 136.435 170.701 136.421C170.632 136.379 170.611 136.29 170.651 136.222C170.66 136.208 171.479 134.832 171.305 134.04C171.216 133.641 170.988 133.247 170.747 132.831C170.491 132.387 170.2 131.884 170.026 131.285C169.676 130.087 170.852 128.508 170.903 128.441C170.951 128.376 171.041 128.365 171.105 128.413C171.168 128.461 171.18 128.552 171.132 128.616C171.12 128.63 169.994 130.144 170.302 131.203C170.466 131.77 170.736 132.235 170.996 132.685C171.249 133.121 171.488 133.534 171.585 133.977C171.786 134.881 170.935 136.311 170.898 136.37C170.871 136.417 170.824 136.441 170.775 136.441Z" fill="#12323E"/>
<path d="M156.511 52.0335H121.531V51.3857C121.531 41.6856 129.362 33.8218 139.022 33.8218C148.681 33.8218 156.512 41.6856 156.512 51.3857V52.0335H156.511Z" fill="#0C4A61"/>
<path d="M139.023 58.874C135.396 58.874 132.445 55.9104 132.445 52.2683V52.0337C132.445 51.9097 132.546 51.8089 132.669 51.8089H145.377C145.5 51.8089 145.601 51.9097 145.601 52.0337V52.2683C145.601 55.9104 142.649 58.874 139.023 58.874ZM132.892 52.2579V52.2683C132.892 55.6631 135.642 58.4243 139.022 58.4243C142.402 58.4243 145.152 55.6631 145.152 52.2683V52.2579H132.892ZM139.023 34.0462C138.899 34.0462 138.799 33.9453 138.799 33.8213V0.224873C138.799 0.100857 138.899 0 139.023 0C139.146 0 139.247 0.100857 139.247 0.224873V33.8213C139.247 33.9453 139.146 34.0462 139.023 34.0462Z" fill="#12323E"/>
<path d="M128.931 246.911C128.931 246.911 123.178 239.612 124.235 235.136C125.292 230.66 126.224 227.575 123.424 222.607C120.624 217.639 120.154 214.909 122.489 210.953C124.823 206.996 125.269 200.88 121.719 196.871C118.169 192.861 122.818 185.158 122.818 185.158C122.818 185.158 123.55 193.72 126.534 196.045C129.516 198.37 133.249 203.615 131.694 207.459C130.138 211.305 129.201 219.288 132.736 223.777C136.271 228.265 138.109 237.793 132.345 245.541L128.931 246.911Z" fill="#12323E"/>
<path d="M135.539 244.257C135.539 244.257 139.699 239.044 138.206 235.292C136.713 231.542 135.445 227.666 139.189 224.666C142.932 221.666 143.171 218.129 141.114 212.96C139.056 207.791 145.054 207.009 144.981 201.655C144.922 197.273 149.624 194.022 149.624 194.022C149.624 194.022 146.325 198.484 149.432 204.566C151.547 208.706 151.117 213.282 148.333 216.278C145.547 219.275 150.013 226.014 149.377 229.585C148.741 233.156 144.59 237.435 145.685 240.186L135.539 244.257Z" fill="#12323E"/>
<path d="M131.104 246.121C131.102 246.121 131.099 246.121 131.096 246.121C131.051 246.117 131.018 246.076 131.021 246.031C131.031 245.928 131.874 235.53 128.641 227.137C125.466 218.897 126.009 214.694 126.907 207.731L127.004 206.984C127.6 202.34 126.017 199.546 124.487 196.843C123.556 195.199 122.676 193.646 122.252 191.711C122.242 191.666 122.27 191.623 122.315 191.613C122.359 191.598 122.402 191.631 122.412 191.676C122.831 193.586 123.704 195.129 124.629 196.762C126.172 199.488 127.769 202.308 127.166 207.004L127.069 207.752C126.174 214.69 125.633 218.877 128.793 227.077C132.041 235.507 131.194 245.942 131.185 246.046C131.181 246.089 131.146 246.121 131.104 246.121ZM140.513 242.345C140.503 242.345 140.492 242.343 140.482 242.339C140.44 242.322 140.42 242.274 140.437 242.231C140.478 242.131 144.535 232.165 144.545 225.224C144.556 218.256 145.437 212.627 146.252 210.346C146.821 208.749 146.703 206.241 146.608 204.225C146.569 203.395 146.532 202.611 146.548 201.998C146.55 201.953 146.586 201.918 146.63 201.918C146.631 201.918 146.632 201.918 146.632 201.918C146.678 201.92 146.713 201.958 146.712 202.003C146.696 202.61 146.733 203.391 146.771 204.218C146.867 206.248 146.986 208.776 146.405 210.402C145.595 212.67 144.719 218.276 144.708 225.225C144.698 232.198 140.629 242.194 140.588 242.295C140.576 242.326 140.545 242.345 140.513 242.345Z" fill="white"/>
<path fill-rule="evenodd" clip-rule="evenodd" d="M145.573 258.343H126.009L121.602 238.013H149.551L145.573 258.343Z" fill="#FEB91E"/>
<path fill-rule="evenodd" clip-rule="evenodd" d="M128.032 143.117C128.032 143.117 127.322 144.138 127.258 145.37C127.193 146.602 128.032 147.704 128.032 147.704H104.141V143.117H128.032Z" fill="#12323E"/>
<path fill-rule="evenodd" clip-rule="evenodd" d="M129.15 143.117V142.194H104.686C102.939 142.194 101.523 143.615 101.523 145.369C101.523 147.124 102.939 148.545 104.686 148.545H129.15V147.703H104.42V143.116H129.15V143.117Z" fill="#12323E"/>
<path fill-rule="evenodd" clip-rule="evenodd" d="M144.424 143.117V142.193H119.96C118.213 142.193 116.797 143.615 116.797 145.369C116.797 147.123 118.213 148.545 119.96 148.545H144.424V147.702H119.694V143.116H144.424V143.117Z" fill="#EC5239"/>
<path fill-rule="evenodd" clip-rule="evenodd" d="M143.586 143.117C143.586 143.117 142.876 144.138 142.811 145.37C142.747 146.602 143.586 147.704 143.586 147.704H119.695V143.117H143.586Z" fill="#F7EBD2"/>
<path fill-rule="evenodd" clip-rule="evenodd" d="M108.702 142.193H112.746V148.546H108.702C106.955 148.546 105.539 147.123 105.539 145.37C105.539 143.615 106.955 142.193 108.702 142.193Z" fill="#EC5239"/>
<path fill-rule="evenodd" clip-rule="evenodd" d="M112.303 142.193H116.347V148.546H112.303C110.556 148.546 109.141 147.123 109.141 145.37C109.141 143.615 110.556 142.193 112.303 142.193Z" fill="#12323E"/>
<path fill-rule="evenodd" clip-rule="evenodd" d="M130.672 130.453C130.672 130.453 129.962 131.474 129.897 132.705C129.833 133.936 130.672 135.039 130.672 135.039H106.781V130.453H130.672Z" fill="#12323E"/>
<path fill-rule="evenodd" clip-rule="evenodd" d="M131.791 130.452V129.529H107.327C105.58 129.529 104.164 130.951 104.164 132.705C104.164 134.459 105.58 135.881 107.327 135.881H131.791V135.038H107.061V130.452H131.791V130.452Z" fill="#12323E"/>
<path fill-rule="evenodd" clip-rule="evenodd" d="M147.064 130.452V129.529H122.6C120.853 129.529 119.438 130.951 119.438 132.705C119.438 134.459 120.853 135.881 122.6 135.881H147.064V135.038H122.334V130.451H147.064V130.452Z" fill="#FEB91E"/>
<path fill-rule="evenodd" clip-rule="evenodd" d="M146.219 130.453C146.219 130.453 145.509 131.474 145.444 132.705C145.38 133.936 146.219 135.039 146.219 135.039H122.328V130.453H146.219Z" fill="#F7EBD2"/>
<path fill-rule="evenodd" clip-rule="evenodd" d="M111.342 129.529H115.386V135.881H111.342C109.595 135.881 108.18 134.46 108.18 132.705C108.18 130.951 109.595 129.529 111.342 129.529Z" fill="#FEB91E"/>
<path fill-rule="evenodd" clip-rule="evenodd" d="M114.944 129.529H118.988V135.881H114.944C113.197 135.881 111.781 134.46 111.781 132.705C111.781 130.951 113.197 129.529 114.944 129.529Z" fill="#12323E"/>
<path fill-rule="evenodd" clip-rule="evenodd" d="M128.313 136.764C128.313 136.764 127.603 137.786 127.538 139.017C127.473 140.248 128.313 141.351 128.313 141.351H104.422V136.764H128.313Z" fill="#12323E"/>
<path fill-rule="evenodd" clip-rule="evenodd" d="M129.431 136.765V135.841H104.968C103.221 135.841 101.805 137.263 101.805 139.017C101.805 140.771 103.221 142.193 104.968 142.193H129.431V141.35H104.702V136.764H129.431V136.765Z" fill="#12323E"/>
<path fill-rule="evenodd" clip-rule="evenodd" d="M144.705 136.764V135.841H120.241C118.494 135.841 117.078 137.263 117.078 139.017C117.078 140.771 118.494 142.193 120.241 142.193H144.705V141.35H119.974V136.764H144.705V136.764Z" fill="#015DFF"/>
<path fill-rule="evenodd" clip-rule="evenodd" d="M143.859 136.764C143.859 136.764 143.15 137.786 143.085 139.017C143.02 140.248 143.859 141.351 143.859 141.351H119.969V136.764H143.859Z" fill="#F7EBD2"/>
<path fill-rule="evenodd" clip-rule="evenodd" d="M108.983 135.841H113.027V142.194H108.983C107.236 142.194 105.82 140.772 105.82 139.018C105.82 137.263 107.237 135.841 108.983 135.841Z" fill="#12323E"/>
<path fill-rule="evenodd" clip-rule="evenodd" d="M112.584 135.841H116.629V142.194H112.584C110.838 142.194 109.422 140.772 109.422 139.018C109.422 137.263 110.838 135.841 112.584 135.841Z" fill="#12323E"/>
<path d="M297.248 161.394L301.923 125.412C302.033 124.568 302.812 123.925 303.8 123.866L307.4 123.645C308.758 123.562 309.907 124.587 309.756 125.747L305.08 161.729C304.971 162.573 304.191 163.215 303.203 163.275L299.602 163.495C298.246 163.579 297.097 162.554 297.248 161.394Z" fill="#EC5239"/>
<path d="M289.283 200.195C288.876 200.195 288.547 199.864 288.547 199.456C288.547 199.047 288.876 198.716 289.283 198.716C295.776 198.716 302.474 171.064 304.508 160.409L309.608 122.368C309.661 121.963 310.029 121.674 310.436 121.733C310.839 121.787 311.122 122.159 311.068 122.564L305.963 160.647C305.184 164.731 298.16 200.195 289.283 200.195Z" fill="#12323E"/>
<path fill-rule="evenodd" clip-rule="evenodd" d="M224.684 116.771C224.684 116.771 227.291 121.893 224.086 134.58C224.086 134.58 206.268 136.283 200.799 128.21C195.33 120.137 193.555 96.557 191.904 92.4413C190.251 88.3256 185.361 86.1046 183.568 85.7587C181.776 85.4143 181.034 85.4068 181.034 85.4068C181.034 85.4068 181.351 84.4311 181.963 84.393C181.963 84.393 178.53 83.4158 178.968 83.0916C179.407 82.7688 181.018 82.8069 181.018 82.8069L179.94 82.1316C179.94 82.1316 180.179 81.2926 183.413 82.0979C186.646 82.9018 191.648 85.3388 193.739 85.3351C194.745 85.3336 194.856 84.8218 194.475 82.4028C194.095 79.9837 194.374 78.8616 195.074 79.5362C195.774 80.2101 197.069 83.0086 197.492 87.093C197.916 91.178 202.512 100.137 208.358 108.017C214.203 115.898 224.684 116.771 224.684 116.771Z" fill="#F9C5C5"/>
<path d="M257.984 113.328L219.898 116.219L222.249 132.307L239.861 133.092L257.984 113.328Z" fill="#0C4A61"/>
<path d="M225.242 129.741C225.242 129.741 234.619 122.702 241.242 119.207C247.865 115.712 257.981 113.328 257.981 113.328L228.069 136.907L225.242 129.741Z" fill="#12323E"/>
<path d="M272.017 48.2949L270.258 48.9937L288.835 96.1584L290.595 95.4596L272.017 48.2949Z" fill="#12323E"/>
<path d="M290.371 90.0993C300.243 84.5608 303.774 72.0346 298.259 62.1211C292.744 52.2076 280.27 48.6609 270.398 54.1993C260.526 59.7378 256.994 72.264 262.51 82.1775C268.025 92.091 280.499 95.6377 290.371 90.0993Z" fill="#6696F8"/>
<path d="M280.035 51.6063C280.03 51.616 278.359 54.8314 278.064 54.9973C277.767 55.1639 277.667 54.8845 277.58 55.8266C277.492 56.7686 276.788 58.0006 276.745 59.4208C276.701 60.8403 278.055 61.476 278.235 62.1006C278.416 62.7251 279.189 64.9141 280.028 65.2249C280.868 65.5349 281.742 68.5054 283.382 68.7571C285.023 69.0089 290.31 66.8244 291.762 67.2375C293.214 67.6507 292.558 68.9678 294.039 69.5318C295.52 70.0966 296.735 70.0839 297.748 71.8045C298.76 73.525 297.365 75.312 298.877 75.1335C300.39 74.9549 300.851 72.9206 300.851 72.9206L300.852 72.9191C300.988 69.2778 300.163 65.5536 298.263 62.1394C294.457 55.2939 287.331 51.486 280.035 51.6063ZM288.7 84.8613C286.338 84.5117 286.804 78.3064 284.34 79.2701C281.875 80.2338 277.173 82.8718 275.439 82.0022C273.705 81.1333 275.669 77.7707 275.818 77.4367C275.966 77.1028 274.739 69.5027 273.952 68.6884C273.166 67.8741 271.49 67.558 271.148 66.4942C270.806 65.4303 269.876 63.6082 267.417 63.9825C264.971 64.3553 260.107 69.75 260.052 69.8113C259.573 73.9516 260.334 78.2757 262.513 82.1919C263.397 83.7825 264.463 85.2064 265.666 86.4586C265.684 86.463 266.934 86.7753 268.182 86.4899C269.44 86.203 270.915 84.9577 273.099 84.9875C275.283 85.0182 275.242 85.5434 276.517 86.3353C277.791 87.1272 276.625 90.126 277.792 90.7267C278.96 91.3273 283.23 91.3602 285.136 90.2911C287.042 89.222 293.004 87.6165 292.492 86.3965C291.98 85.178 291.062 85.2102 288.7 84.8613Z" fill="#0B9E2A"/>
<path d="M270.094 48.5633L271.32 51.6951C282.958 47.102 296.099 52.8531 300.673 64.5397C305.247 76.2264 299.521 89.4237 287.882 94.0167L289.109 97.1485C302.469 91.8756 309.043 76.7247 303.792 63.3085C298.542 49.8924 283.454 43.2904 270.094 48.5633Z" fill="#12323E"/>
<path d="M301.864 83.7421L299.195 85.2393L308.211 101.445L310.88 99.948L301.864 83.7421Z" fill="#12323E"/>
<path d="M295.805 110.094L324.715 93.8774L307.42 96.8815L295.805 110.094Z" fill="#12323E"/>
<path fill-rule="evenodd" clip-rule="evenodd" d="M319.73 112.245C321.978 111.058 312.951 97.4486 311.168 96.0359C309.387 94.6231 309.299 95.7445 308.524 97.3253C307.751 98.9047 305.952 98.7455 304.758 97.9477C303.564 97.152 298.158 93.6452 298.964 93.0684C299.772 92.4924 303.102 89.7626 304.102 87.9584C305.103 86.1549 304.973 85.1561 309.509 86.8281C314.045 88.5008 319.093 90.751 325.953 97.604C332.813 104.458 337.913 119.739 334.576 125.766C331.239 131.793 323.638 131.007 319.524 130.236C319.524 130.236 314.256 115.137 319.73 112.245Z" fill="#F9C5C5"/>
<path fill-rule="evenodd" clip-rule="evenodd" d="M258.394 92.2537C253.785 94.1095 254.069 99.7806 255.888 102.916C255.888 102.916 254.748 98.2812 256.069 96.7788C256.069 96.7788 254.623 106.067 264.469 108.567C274.314 111.068 286.127 129.74 286.127 129.74C286.127 129.74 293.219 121.989 291.431 114.596C289.645 107.203 281.263 104.535 281.263 104.535C281.263 104.535 287.048 104.089 292.311 112.895C292.311 112.895 291.131 108.338 286.157 105.022C281.182 101.705 276.263 100.869 276.263 100.869C276.263 100.869 273.583 93.2033 267.879 91.3191C262.174 89.4342 261.487 91.0076 258.394 92.2537Z" fill="#12323E"/>
<path d="M281.93 111.601C281.93 111.601 298.371 113.812 304.412 114.251C310.453 114.689 320.048 110.989 320.048 110.989C320.048 110.989 319.55 119.147 320.351 123.386C321.151 127.625 323.116 131.242 323.116 131.242C323.116 131.242 312.854 132.229 307.905 132.302C302.957 132.375 295.751 131.571 295.751 131.571L281.93 111.601Z" fill="#0C4A61"/>
<path fill-rule="evenodd" clip-rule="evenodd" d="M305.986 132.292C305.986 132.292 305.358 124.506 299.487 119.293C293.616 114.08 281.93 111.601 281.93 111.601L302.268 132.127L305.986 132.292Z" fill="#12323E"/>
<path d="M232.465 76.9639L234.492 85.9573L214.633 82.0844L232.465 76.9639Z" fill="#F7EBD2"/>
<path d="M212.492 81.8408L214.633 82.0851L220.103 116.99L218.491 117.204L212.492 81.8408Z" fill="#12323E"/>
<path d="M232.464 76.9644L230.918 76.7881L212.492 81.8406L214.633 82.0849L232.464 76.9644Z" fill="#12323E"/>
<path d="M244.077 87.8266L247.88 122.21C247.88 122.21 220.652 117.675 220.103 116.989C219.554 116.302 214.633 82.0845 214.633 82.0845L244.077 87.8266Z" fill="#EC5239"/>
<path d="M191.15 250.656L191.055 251.933L219.541 249.399L219.227 248.108L191.15 250.656Z" fill="white"/>
<path d="M212.258 251.735L212.478 253.029L240.092 251.807L240.002 250.32L212.258 251.735Z" fill="white"/>
<path d="M218.033 230.644L219.202 248.649L191.152 250.656C191.152 250.656 190.594 246.22 197.229 242.556C203.864 238.892 205.851 233.683 205.638 231.292L218.033 230.644Z" fill="#EC5239"/>
<path d="M287.716 160.129C289.141 169.13 283.939 190.453 279.74 190.238C275.541 190.024 241.812 189.199 238.643 191.645C235.473 194.091 238.179 214.919 238.179 214.919L219.383 216.387L218.609 212.21L202.498 213.725C202.498 213.725 200.189 193.907 202.918 184.241C205.648 174.575 211.746 167.646 240.984 164.891C270.223 162.136 287.716 160.129 287.716 160.129Z" fill="#015DFF"/>
<path d="M220.463 216.303C221.061 221.285 224.484 235.92 224.484 235.92L237.612 234.073C237.612 234.073 236.928 218.372 236.493 215.051L220.463 216.303ZM203.773 213.605C204.581 219.027 205.639 231.292 205.639 231.292L218.033 230.643L218.609 212.209L203.773 213.605Z" fill="#F9C5C5"/>
<path d="M224.48 235.921C224.907 239.428 223.706 242.807 219.008 244.928C214.309 247.049 213.078 248.808 212.258 251.734L240.002 250.319L237.608 234.072L224.48 235.921Z" fill="#EC5239"/>
<path d="M218.23 245.294C219.335 246.475 221.674 246.279 224.119 243.976C226.564 241.672 227.561 236.011 226.972 234.452C226.383 232.893 224.229 234.104 224.393 235.54C224.558 236.976 224.621 239.013 223.289 241.235C222.033 243.331 220.291 244.388 218.23 245.294ZM196.273 243.119C198.54 244.063 200.489 243.6 203.866 240.613C207.242 237.626 208.75 233.115 208.681 231.133C208.612 229.15 205.475 229.476 205.475 229.476C205.475 229.476 205.615 229.941 205.637 231.292C205.658 232.642 204.433 236.479 201.898 238.785C199.362 241.091 197.785 242.047 196.273 243.119Z" fill="white"/>
<path d="M220.461 216.303L236.688 217.133L236.49 215.051L220.461 216.303Z" fill="#12323E"/>
<path d="M203.773 213.605L218.542 214.36L218.609 212.209L203.773 213.605Z" fill="#12323E"/>
<path d="M218.323 210.933C218.214 210.933 218.123 210.85 218.115 210.739C217.937 208.387 217.708 205.88 217.487 203.457C216.551 193.196 215.583 182.585 217.687 176.928C220.285 169.942 227.677 167.305 227.751 167.279C227.86 167.243 227.979 167.299 228.016 167.409C228.053 167.519 227.996 167.638 227.887 167.676C227.814 167.701 220.605 170.277 218.077 177.074C216.008 182.642 216.971 193.204 217.902 203.418C218.124 205.843 218.353 208.352 218.53 210.707C218.539 210.823 218.453 210.924 218.338 210.933C218.333 210.933 218.328 210.933 218.323 210.933ZM218.605 212.42C218.497 212.42 218.406 212.337 218.398 212.227C218.388 212.112 218.475 212.01 218.589 212.001L229.72 211.098C229.851 211.081 229.935 211.176 229.945 211.29C229.955 211.405 229.868 211.507 229.754 211.516L218.623 212.419C218.617 212.42 218.611 212.42 218.605 212.42ZM231.661 211.108C231.558 211.108 231.468 211.031 231.454 210.927C231.439 210.813 231.519 210.706 231.633 210.691L237.622 209.865C237.73 209.856 237.841 209.929 237.857 210.045C237.872 210.159 237.792 210.265 237.678 210.281L231.689 211.106C231.68 211.107 231.671 211.108 231.661 211.108Z" fill="#12323E"/>
<path d="M201.998 208.458C201.894 208.458 201.805 208.382 201.791 208.277C201.775 208.163 201.856 208.056 201.97 208.042L217.907 205.882C218.034 205.874 218.125 205.948 218.141 206.063C218.157 206.177 218.076 206.283 217.962 206.298L202.025 208.457C202.016 208.458 202.007 208.458 201.998 208.458ZM223.169 245.621C223.141 245.621 223.113 245.615 223.086 245.603L220.29 244.373C220.184 244.326 220.136 244.203 220.182 244.097C220.229 243.99 220.355 243.943 220.457 243.989L223.253 245.219C223.359 245.267 223.407 245.39 223.361 245.495C223.326 245.574 223.249 245.621 223.169 245.621ZM225.408 243.869C225.392 243.869 225.374 243.867 225.358 243.863L222.012 243.033C221.9 243.006 221.832 242.892 221.859 242.779C221.887 242.667 222 242.595 222.112 242.626L225.458 243.456C225.57 243.483 225.638 243.597 225.611 243.71C225.587 243.805 225.502 243.869 225.408 243.869ZM226.608 241.771C226.601 241.771 226.594 241.771 226.588 241.77L223.266 241.443C223.151 241.431 223.067 241.329 223.079 241.214C223.09 241.099 223.186 241.011 223.307 241.025L226.629 241.353C226.743 241.364 226.827 241.466 226.816 241.582C226.805 241.69 226.714 241.771 226.608 241.771ZM224.473 237.344C224.363 237.344 224.271 237.257 224.265 237.145C224.259 237.029 224.348 236.931 224.463 236.925L227.954 236.744C228.057 236.749 228.168 236.827 228.174 236.942C228.18 237.058 228.091 237.157 227.976 237.163L224.485 237.344C224.481 237.344 224.477 237.344 224.473 237.344Z" fill="#12323E"/>
<path d="M223.341 239.236C223.305 239.236 223.269 239.233 223.234 239.227C223.058 239.197 222.821 239.078 222.694 238.682C222.583 238.329 222.623 238.004 222.815 237.741C223.056 237.408 223.504 237.216 223.945 237.106C222.817 236.815 221.513 236.365 221.429 235.82C221.406 235.667 221.452 235.442 221.81 235.244C223.39 234.37 225.582 236.835 225.674 236.941C225.725 236.998 225.739 237.076 225.717 237.144C225.729 237.201 225.717 237.262 225.68 237.313C225.432 237.645 224.195 239.235 223.341 239.236ZM225.096 237.381C224.611 237.392 223.497 237.515 223.152 237.989C223.04 238.143 223.02 238.329 223.093 238.554C223.168 238.79 223.271 238.808 223.304 238.814C223.681 238.874 224.508 238.093 225.096 237.381ZM222.565 235.476C222.372 235.476 222.185 235.517 222.013 235.614C221.866 235.694 221.842 235.751 221.842 235.757C221.887 236.046 223.394 236.593 225.096 236.942C224.601 236.45 223.502 235.476 222.565 235.476ZM202.164 243.692C202.133 243.692 202.101 243.685 202.072 243.67L198.327 241.809C198.223 241.758 198.182 241.632 198.233 241.528C198.284 241.424 198.411 241.381 198.512 241.434L202.256 243.295C202.36 243.346 202.402 243.472 202.351 243.575C202.314 243.65 202.241 243.692 202.164 243.692ZM204.517 242.142C204.496 242.142 204.472 242.139 204.451 242.131L199.936 240.613C199.826 240.577 199.767 240.458 199.804 240.349C199.841 240.239 199.958 240.176 200.067 240.217L204.583 241.734C204.692 241.771 204.751 241.889 204.714 241.998C204.685 242.087 204.604 242.142 204.517 242.142ZM206.339 239.768C206.33 239.768 206.322 239.768 206.312 239.766L201.68 239.165C201.567 239.151 201.485 239.046 201.5 238.931C201.515 238.817 201.614 238.729 201.734 238.75L206.366 239.351C206.48 239.366 206.561 239.47 206.546 239.585C206.532 239.691 206.443 239.768 206.339 239.768ZM203.506 237.623C203.252 237.623 202.992 237.55 202.729 237.403C202.261 237.143 202.029 236.808 202.035 236.409C202.051 235.497 203.405 234.53 204.283 233.998C202.55 233.978 199.123 233.81 198.755 232.797C198.637 232.47 198.802 232.12 199.248 231.754C201.645 229.795 205.466 232.991 206.043 233.497L210.316 233.136C210.429 233.125 210.532 233.213 210.542 233.328C210.552 233.443 210.466 233.544 210.351 233.554L206.14 233.91C205.986 234.546 205.332 236.925 204.078 237.496C203.892 237.581 203.701 237.623 203.506 237.623ZM205.142 233.994C204.365 234.398 202.468 235.564 202.453 236.417C202.45 236.652 202.606 236.855 202.932 237.037C203.278 237.229 203.597 237.255 203.908 237.114C204.907 236.659 205.507 234.683 205.701 233.947L205.142 233.994ZM201.07 231.55C200.51 231.55 199.975 231.701 199.513 232.079C199.347 232.215 199.081 232.469 199.148 232.654C199.4 233.348 202.775 233.609 205.076 233.579C205.077 233.579 205.079 233.579 205.081 233.579L205.448 233.547C204.651 232.912 202.751 231.55 201.07 231.55Z" fill="#12323E"/>
<path fill-rule="evenodd" clip-rule="evenodd" d="M227.294 131.176C225.048 132.369 218.964 117.201 218.808 114.926C218.653 112.652 219.625 113.213 221.361 113.464C223.095 113.715 223.981 112.134 223.999 110.694C224.019 109.255 224.191 102.795 223.262 103.138C222.333 103.483 218.208 104.7 216.161 104.51C214.114 104.321 213.367 103.649 212.179 108.352C210.991 113.056 209.989 118.51 211.746 128.066C213.504 137.622 223.181 150.479 230.019 151.118C236.856 151.756 240.504 145.013 242.194 141.169C242.194 141.167 232.762 128.274 227.294 131.176Z" fill="#F9C5C5"/>
<path fill-rule="evenodd" clip-rule="evenodd" d="M273.262 108.935C276.783 110.201 287.822 112.058 296.048 119.937C304.273 127.817 310.101 147.404 311.464 151.627C311.464 151.627 305.512 148.31 300.343 148.167C295.176 148.026 291.304 149.905 291.304 149.905L292.852 153.89L288.318 167.18C288.318 167.18 279.752 162.429 268.544 163.936C250.079 168.185 241.407 164.851 241.407 164.851C241.407 164.851 245.105 152.128 247.429 143.013C247.429 143.013 241.621 145.855 238.298 148.254C238.298 148.254 236.963 141.4 227.148 131.063C227.148 131.063 233.439 125.311 246.756 118.46C260.074 111.608 264.309 111.538 264.309 111.538C264.309 111.538 269.74 107.669 273.262 108.935Z" fill="#0C4A61"/>
<path d="M271.339 145.956L268.375 142.993L253.621 157.831L256.585 160.794L271.339 145.956Z" fill="#12323E"/>
<path fill-rule="evenodd" clip-rule="evenodd" d="M253.008 161.441L253.621 157.849L256.583 160.814L253.008 161.441Z" fill="black"/>
<path fill-rule="evenodd" clip-rule="evenodd" d="M252.937 162.314L251.867 161.75L253.183 160.424L254.001 161.243L252.937 162.314Z" fill="#FC2222"/>
<path fill-rule="evenodd" clip-rule="evenodd" d="M263.594 147.802L267.881 149.433L261.143 156.221L256.742 154.704L263.594 147.802Z" fill="#015DFF"/>
<path fill-rule="evenodd" clip-rule="evenodd" d="M291.184 149.885C291.184 149.885 299.174 144.909 310.599 151.162C310.599 151.162 314.204 161.925 308.039 167.174C301.873 172.423 293.137 169.712 286.164 166.456C279.19 163.2 274.087 160.444 269.204 159.346C264.322 158.248 262.052 159.931 261.409 157.977C260.766 156.023 261.088 154.865 259.635 154.201C258.182 153.538 254.245 153.43 255.407 152.7C256.568 151.968 264.826 153.267 265.317 152.321C265.808 151.376 265.684 151.475 267.3 150.018C267.3 150.018 267.043 150.859 269.719 152.019C272.393 153.178 286.902 153.777 292.41 153.358L291.184 149.885Z" fill="#F9C5C5"/>
<path fill-rule="evenodd" clip-rule="evenodd" d="M291.192 149.916C290.422 147.935 288.164 142.64 288.164 142.64L289.773 153.466C289.773 153.466 291.585 153.441 292.427 153.359C292.427 153.359 291.962 151.899 291.192 149.916ZM247.428 143.01C249.213 142.071 251.388 141.043 251.388 141.043C251.388 141.043 248.361 142.962 246.906 145.155L247.428 143.01ZM299.27 148.028C303.349 148.733 309.257 151.147 311.064 152.865C311.064 152.865 310.806 151.801 310.625 151.209C310.625 151.209 308.439 149.673 304.663 148.698C300.887 147.726 299.27 148.028 299.27 148.028Z" fill="#12323E"/>
<path d="M298.129 133.187C296.322 133.187 294.521 132.791 293.428 131.509C293.063 131.082 292.783 130.672 292.575 130.284C292.332 130.397 292.074 130.486 291.807 130.543C291.057 130.699 289.962 130.653 288.992 129.544C287.992 128.398 287.181 126.76 286.689 125.238C286.685 125.239 286.682 125.242 286.678 125.243C286.119 125.487 285.202 125.515 284.007 124.272C280.734 120.863 281.486 118.95 281.52 118.87C281.537 118.829 281.588 118.806 281.629 118.826C281.671 118.844 281.691 118.893 281.674 118.935C281.666 118.954 280.941 120.838 284.127 124.155C285.021 125.086 285.882 125.408 286.612 125.09C286.621 125.085 286.63 125.082 286.639 125.077C286.146 123.486 286.012 122.046 286.391 121.465C286.516 121.273 286.76 121.071 287.21 121.216C287.719 121.378 288.032 121.881 288.068 122.596C288.115 123.518 287.672 124.684 286.844 125.159C287.332 126.673 288.14 128.314 289.117 129.433C290.034 130.483 291.069 130.529 291.773 130.38C292.026 130.327 292.269 130.243 292.498 130.136C291.732 128.6 292.082 127.429 292.637 126.932C293.14 126.482 293.806 126.536 294.294 127.063C294.577 127.369 294.648 127.804 294.494 128.29C294.282 128.962 293.613 129.746 292.729 130.209C292.931 130.586 293.201 130.985 293.556 131.401C296.29 134.604 303.877 132.016 303.954 131.991C303.997 131.972 304.045 131.998 304.06 132.042C304.075 132.086 304.051 132.133 304.008 132.148C303.813 132.214 300.961 133.187 298.129 133.187ZM293.389 126.793C293.165 126.793 292.943 126.88 292.746 127.057C292.254 127.499 291.937 128.609 292.652 130.061C293.495 129.62 294.132 128.876 294.335 128.24C294.43 127.938 294.479 127.508 294.171 127.177C293.935 126.922 293.661 126.793 293.389 126.793ZM286.921 121.335C286.754 121.335 286.625 121.409 286.528 121.558C286.179 122.095 286.318 123.469 286.792 124.997C287.544 124.545 287.945 123.464 287.901 122.606C287.868 121.965 287.597 121.516 287.158 121.376C287.071 121.349 286.993 121.335 286.921 121.335Z" fill="white"/>
<path d="M238.471 139.17C238.447 139.17 238.423 139.159 238.406 139.14C238.377 139.104 238.383 139.052 238.418 139.022C239.086 138.472 239.236 137.811 239.198 137.25C238.449 137.362 237.815 137.236 237.346 136.975C236.584 136.547 236.239 135.776 236.468 135.007C236.608 134.539 236.904 134.432 237.126 134.425C237.818 134.391 238.772 135.314 239.172 136.379C239.242 136.564 239.311 136.797 239.346 137.057C240.466 136.837 241.841 136.071 243.306 134.414C244.808 132.716 244.758 131.306 244.401 130.375C243.005 131.604 241.864 131.187 241.383 130.904C240.418 130.336 239.904 129.088 240.283 128.232C240.417 127.928 240.733 127.76 241.174 127.759C241.175 127.759 241.178 127.759 241.179 127.759C242.249 127.759 243.811 128.693 244.462 130.091C244.694 129.869 244.931 129.598 245.174 129.27C247.977 125.502 245.539 119.3 245.515 119.238C245.498 119.195 245.519 119.146 245.561 119.129C245.603 119.111 245.652 119.133 245.67 119.176C245.695 119.239 248.166 125.527 245.309 129.37C245.045 129.725 244.786 130.016 244.534 130.254C244.929 131.229 245.021 132.728 243.433 134.524C241.937 136.216 240.524 136.999 239.365 137.221C239.411 137.828 239.256 138.549 238.525 139.151C238.508 139.164 238.49 139.17 238.471 139.17ZM237.154 134.591C237.146 134.591 237.139 134.591 237.132 134.592C236.887 134.6 236.718 134.756 236.628 135.055C236.422 135.744 236.736 136.44 237.427 136.828C237.869 137.076 238.467 137.19 239.181 137.085C239.148 136.837 239.082 136.614 239.016 136.438C238.65 135.462 237.768 134.591 237.154 134.591ZM241.179 127.925C241.178 127.925 241.176 127.925 241.174 127.925C240.912 127.926 240.571 127.992 240.435 128.3C240.094 129.068 240.586 130.241 241.468 130.76C241.919 131.024 242.997 131.413 244.334 130.211C244.333 130.208 244.331 130.205 244.33 130.202C243.717 128.839 242.208 127.925 241.179 127.925Z" fill="white"/>
<path d="M269.435 146.431C269.394 146.431 269.358 146.402 269.353 146.36C269.347 146.316 268.671 142.027 265.016 141.04C263.484 140.624 262.071 141.15 261.04 141.96C261.234 142.18 261.376 142.443 261.463 142.745C261.786 143.872 261.262 145.231 260.577 145.694C260.234 145.926 259.877 145.92 259.57 145.678C259.057 145.272 259.023 144.482 259.481 143.566C259.752 143.022 260.209 142.44 260.799 141.944C260.452 141.617 259.909 141.367 259.058 141.341C259.011 141.339 258.976 141.3 258.977 141.255C258.978 141.209 259.015 141.173 259.06 141.173C259.061 141.173 259.061 141.173 259.062 141.173C259.862 141.198 260.496 141.429 260.926 141.841C261.993 140.995 263.46 140.446 265.06 140.878C268.821 141.894 269.511 146.292 269.518 146.336C269.525 146.382 269.493 146.424 269.448 146.431C269.443 146.431 269.439 146.431 269.435 146.431ZM260.913 142.064C260.338 142.545 259.894 143.112 259.63 143.64C259.21 144.481 259.227 145.193 259.674 145.547C259.988 145.794 260.288 145.689 260.484 145.556C261.109 145.134 261.603 143.834 261.304 142.792C261.234 142.553 261.115 142.296 260.913 142.064Z" fill="white"/>
<path fill-rule="evenodd" clip-rule="evenodd" d="M258.775 94.5073C258.503 98.3122 259.334 103.23 262.18 104.326C266.755 106.092 264.217 110.458 264.217 110.458C264.217 110.458 268.426 124.719 272.725 108.367L269.079 103.363C269.079 103.363 272.206 102.41 270.964 99.9409C269.726 97.4837 267.198 99.6264 267.198 99.6264C267.198 99.6264 264.683 99.4388 262.412 97.7758C260.142 96.1151 258.775 94.5073 258.775 94.5073Z" fill="#F9C5C5"/>
<path fill-rule="evenodd" clip-rule="evenodd" d="M262.493 104.461C264.117 105.14 265.799 105.151 265.799 105.151C265.799 105.151 264.712 106.445 263.927 106.409C263.141 106.373 260.87 103.784 262.493 104.461Z" fill="#12323E"/>
<path d="M268.435 102.692C268.297 102.692 268.176 102.593 268.151 102.452C267.691 99.8397 269.557 99.2279 269.575 99.2219C269.732 99.1748 269.89 99.2607 269.937 99.4131C269.984 99.5655 269.899 99.7276 269.748 99.7755C269.685 99.7956 268.351 100.262 268.719 102.351C268.747 102.509 268.641 102.659 268.485 102.687C268.469 102.691 268.452 102.692 268.435 102.692Z" fill="#12323E"/>
<path d="M270.226 101.871C270.17 101.871 270.113 101.855 270.063 101.821C269.803 101.644 269.022 101.191 268.534 101.254C268.38 101.269 268.232 101.16 268.213 101C268.194 100.841 268.307 100.697 268.466 100.677C269.245 100.593 270.275 101.264 270.388 101.342C270.52 101.433 270.554 101.613 270.464 101.745C270.408 101.828 270.318 101.871 270.226 101.871Z" fill="#12323E"/>
<path d="M261.04 98.8371C261.232 98.797 261.356 98.608 261.316 98.4149C261.276 98.2217 261.088 98.0977 260.895 98.1378C260.703 98.1779 260.579 98.367 260.619 98.5601C260.659 98.7532 260.847 98.8773 261.04 98.8371Z" fill="#12323E"/>
<path d="M261.774 102.66C261.623 102.66 261.495 102.542 261.485 102.389C261.475 102.229 261.595 102.092 261.754 102.081C262.566 102.028 263.11 101.183 263.116 101.174C263.201 101.038 263.381 101 263.514 101.085C263.648 101.17 263.688 101.349 263.602 101.484C263.574 101.53 262.893 102.589 261.791 102.66C261.786 102.66 261.78 102.66 261.774 102.66Z" fill="#12323E"/>
<path fill-rule="evenodd" clip-rule="evenodd" d="M273.237 108.915L272.727 108.367C272.727 108.367 271.912 111.219 270.939 113.203C269.967 115.186 267.883 116.204 266.449 114.724C265.014 113.241 264.219 110.459 264.219 110.459L264.317 111.535C264.317 111.535 264.911 114.914 266.696 115.985C268.482 117.057 270.776 115.645 271.802 113.308C272.824 110.971 273.237 108.915 273.237 108.915Z" fill="white"/>
<path fill-rule="evenodd" clip-rule="evenodd" d="M213.273 105.248C213.327 105.161 215.175 98.943 215.175 98.943C215.175 98.943 215.748 98.8384 216.359 99.9762C216.969 101.114 216.501 105.081 216.501 105.081L213.273 105.248Z" fill="#F9C5C5"/>
<path d="M236.214 258.915C236.204 258.915 236.194 258.915 236.183 258.915C235.776 258.898 235.46 258.553 235.477 258.145L237.893 199.424C237.909 199.015 238.238 198.712 238.66 198.715C239.067 198.732 239.383 199.076 239.366 199.485L236.95 258.206C236.934 258.603 236.607 258.915 236.214 258.915Z" fill="#12323E"/>
<path d="M289.285 199.456H236.181C234.935 199.456 233.855 198.59 233.579 197.37L232.575 192.924C232.196 191.247 233.466 189.652 235.177 189.652H288.281C289.527 189.652 290.607 190.518 290.883 191.739L291.887 196.185C292.266 197.86 290.996 199.456 289.285 199.456ZM281.612 165.659H235.685C234.607 165.659 233.673 164.966 233.434 163.99L232.566 160.434C232.239 159.093 233.336 157.816 234.817 157.816H280.744C281.822 157.816 282.756 158.509 282.994 159.485L283.863 163.042C284.189 164.383 283.092 165.659 281.612 165.659Z" fill="#EC5239"/>
<path d="M290.945 258.917C290.56 258.917 290.237 258.617 290.211 258.226L286.26 199.505C286.232 199.097 286.539 198.744 286.945 198.717C287.353 198.689 287.703 198.997 287.73 199.405L291.681 258.126C291.709 258.534 291.402 258.887 290.996 258.914C290.978 258.916 290.961 258.917 290.945 258.917Z" fill="#12323E"/>
<path d="M284.288 190.393C283.947 190.393 283.641 190.154 283.567 189.806L278.524 165.812C278.44 165.412 278.694 165.019 279.093 164.934C279.494 164.852 279.884 165.106 279.967 165.506L285.01 189.499C285.094 189.9 284.84 190.293 284.441 190.377C284.39 190.388 284.338 190.393 284.288 190.393Z" fill="#12323E"/>
<path d="M240.443 190.393C240.077 190.393 239.759 190.119 239.713 189.745L236.693 165.751C236.642 165.346 236.928 164.976 237.332 164.925C237.741 164.865 238.104 165.161 238.155 165.566L241.174 189.56C241.226 189.965 240.94 190.335 240.536 190.386C240.505 190.39 240.473 190.393 240.443 190.393Z" fill="#12323E"/>
<path d="M213.782 134.546C213.707 134.546 213.637 134.506 213.598 134.437C213.53 134.31 211.917 131.276 211.063 125.147C210.211 119.026 211.284 111.372 211.295 111.296C211.311 111.182 211.414 111.099 211.531 111.119C211.645 111.134 211.725 111.241 211.707 111.355C211.696 111.432 210.632 119.028 211.477 125.088C212.319 131.134 213.948 134.206 213.965 134.236C214.02 134.339 213.982 134.466 213.881 134.521C213.849 134.537 213.815 134.546 213.782 134.546Z" fill="#12323E"/>
<path fill-rule="evenodd" clip-rule="evenodd" d="M197.525 85.7052H169.595C168.827 85.7052 168.203 85.0791 168.203 84.3074V42.4422C168.203 41.6705 168.827 41.0444 169.595 41.0444H197.525V85.7052Z" fill="#12323E"/>
<path fill-rule="evenodd" clip-rule="evenodd" d="M205.355 85.7049H174.115C173.301 85.7049 172.641 85.0422 172.641 84.2249V42.5249C172.641 41.7076 173.301 41.0449 174.115 41.0449H205.355C206.248 41.0449 206.971 41.7711 206.971 42.6676V84.0822C206.971 84.978 206.248 85.7049 205.355 85.7049Z" fill="#0C4A61"/>
<path d="M204.233 43.8042H175.383V50.3711H204.233V43.8042Z" fill="white"/>
<path d="M180.758 52.0469H174.984V53.6882H180.758V52.0469Z" fill="#FC2222"/>
<path d="M187.922 52.0469H182.148V53.6882H187.922V52.0469Z" fill="white"/>
<path d="M180.758 56.9023H174.984V62.7005H180.758V56.9023Z" fill="#12323E"/>
<path d="M188.727 56.9023H182.953V62.7005H188.727V56.9023Z" fill="#12323E"/>
<path d="M196.688 56.9023H190.914V62.7005H196.688V56.9023Z" fill="#12323E"/>
<path d="M180.758 64.2378H174.984V70.0359H180.758V64.2378Z" fill="#12323E"/>
<path d="M188.727 64.2378H182.953V70.0359H188.727V64.2378Z" fill="#12323E"/>
<path d="M196.688 64.2378H190.914V70.0359H196.688V64.2378Z" fill="#12323E"/>
<path d="M180.758 71.5728H174.984V77.3709H180.758V71.5728Z" fill="#12323E"/>
<path d="M188.727 71.5728H182.953V77.3709H188.727V71.5728Z" fill="#12323E"/>
<path d="M180.758 78.6973H174.984V84.4954H180.758V78.6973Z" fill="#12323E"/>
<path d="M196.688 71.5728H190.914V77.3709H196.688V71.5728Z" fill="#12323E"/>
<path d="M196.692 78.6973H182.953V84.4954H196.692V78.6973Z" fill="#12323E"/>
<path d="M204.698 56.9023H198.258V70.0353H204.698V56.9023Z" fill="#12323E"/>
<path d="M204.698 71.5728H198.258V84.4966H204.698V71.5728Z" fill="#12323E"/>
<path d="M97.0673 157.422L219.75 157.422V148.523H97.0673V157.422Z" fill="#FEB91E"/>
<path d="M210.416 153.177C206.526 153.177 205.033 148.526 205.018 148.477C204.965 148.308 205.059 148.128 205.227 148.075C205.395 148.02 205.576 148.117 205.628 148.285C205.643 148.331 207.069 152.777 210.699 152.524C214.41 152.285 216.71 148.232 216.733 148.191C216.819 148.037 217.015 147.98 217.169 148.068C217.323 148.154 217.378 148.35 217.291 148.505C217.192 148.684 214.795 152.903 210.739 153.166C210.631 153.173 210.523 153.177 210.416 153.177ZM215.241 156.418C215.187 156.418 215.133 156.404 215.084 156.376C214.93 156.29 214.876 156.093 214.962 155.939C216.661 152.906 219.586 152.469 219.709 152.453C219.874 152.431 220.045 152.551 220.069 152.726C220.094 152.902 219.972 153.064 219.797 153.088C219.77 153.093 217.058 153.509 215.52 156.253C215.461 156.359 215.353 156.418 215.241 156.418ZM207.823 157.596C207.691 157.596 207.569 157.515 207.522 157.383C207.511 157.352 206.37 154.256 203.425 153.289C200.224 152.235 197.701 148.74 197.594 148.592C197.491 148.448 197.524 148.247 197.668 148.143C197.812 148.039 198.012 148.072 198.115 148.217C198.14 148.252 200.625 151.691 203.624 152.678C206.873 153.747 208.075 157.028 208.125 157.168C208.185 157.335 208.098 157.518 207.932 157.578C207.896 157.59 207.859 157.596 207.823 157.596ZM187.112 157.656C187.018 157.656 186.924 157.614 186.861 157.534C186.751 157.395 186.775 157.192 186.913 157.082C187.066 156.961 190.704 154.101 194.717 153.499C198.846 152.88 201.753 156.934 201.875 157.106C201.977 157.251 201.943 157.451 201.798 157.555C201.656 157.657 201.455 157.624 201.352 157.478C201.325 157.439 198.55 153.579 194.811 154.135C190.964 154.711 187.346 157.558 187.309 157.587C187.252 157.634 187.182 157.656 187.112 157.656ZM189.107 151.791C188.865 151.791 188.623 151.755 188.383 151.676C186.019 150.899 184.905 148.677 184.859 148.583C184.781 148.424 184.846 148.231 185.004 148.152C185.159 148.074 185.354 148.139 185.433 148.298C185.443 148.318 186.48 150.374 188.581 151.065C190.599 151.726 193.108 148.264 193.131 148.229C193.235 148.084 193.434 148.052 193.578 148.155C193.723 148.258 193.755 148.459 193.652 148.604C193.549 148.747 191.343 151.791 189.107 151.791ZM178.284 157.681C178.168 157.681 178.055 157.617 177.999 157.505C176.984 155.497 177.104 153.676 178.321 152.633C179.53 151.596 181.465 151.668 183.025 152.805C185.739 154.781 188.559 153.007 188.588 152.989C188.737 152.893 188.935 152.937 189.031 153.086C189.126 153.236 189.083 153.434 188.934 153.531C188.902 153.551 185.715 155.557 182.65 153.326C181.329 152.363 179.719 152.28 178.737 153.123C177.76 153.96 177.698 155.49 178.57 157.214C178.65 157.372 178.587 157.566 178.43 157.646C178.383 157.67 178.333 157.681 178.284 157.681ZM173.252 152.432C170.524 152.432 167.181 148.876 167.027 148.711C166.907 148.581 166.914 148.378 167.043 148.257C167.173 148.137 167.375 148.143 167.495 148.273C167.534 148.314 171.364 152.4 173.818 151.717C176.343 151.018 178.219 148.306 178.237 148.278C178.337 148.131 178.536 148.093 178.682 148.195C178.828 148.295 178.865 148.495 178.765 148.642C178.684 148.761 176.735 151.576 173.988 152.337C173.751 152.402 173.504 152.432 173.252 152.432ZM174.598 157.691C174.489 157.691 174.381 157.634 174.322 157.532C174.249 157.408 172.469 154.51 168.583 154.603C164.284 154.75 159.965 148.95 159.783 148.704C159.676 148.562 159.706 148.36 159.848 148.254C159.989 148.148 160.191 148.177 160.296 148.32C160.339 148.377 164.534 153.961 168.46 153.961C168.495 153.961 168.531 153.961 168.567 153.96C172.909 153.833 174.796 157.07 174.875 157.208C174.964 157.361 174.913 157.557 174.76 157.647C174.708 157.677 174.653 157.691 174.598 157.691ZM164.853 157.72C164.745 157.72 164.64 157.664 164.58 157.565C164.545 157.508 161.079 151.897 157.14 154.156C156.987 154.244 156.791 154.192 156.703 154.037C156.615 153.883 156.668 153.686 156.821 153.599C161.302 151.023 165.089 157.17 165.127 157.231C165.218 157.383 165.171 157.581 165.019 157.673C164.967 157.705 164.909 157.72 164.853 157.72ZM144.477 157.778C144.452 157.778 144.426 157.775 144.4 157.768C144.229 157.726 144.123 157.552 144.166 157.379C144.615 155.54 146.77 152.68 150.864 152.332C154.391 152.034 154.649 148.65 154.658 148.507C154.67 148.329 154.824 148.179 154.997 148.206C155.173 148.217 155.308 148.369 155.297 148.546C155.294 148.587 155.003 152.627 150.918 152.973C147.185 153.29 145.177 155.938 144.788 157.533C144.752 157.679 144.621 157.778 144.477 157.778ZM139.542 154.035C135.256 154.035 130.684 149.05 130.468 148.813C130.349 148.681 130.359 148.478 130.489 148.359C130.621 148.239 130.823 148.25 130.941 148.38C130.998 148.442 136.661 154.617 140.928 153.171C145.233 151.711 146.171 148.497 146.18 148.465C146.227 148.294 146.407 148.194 146.574 148.241C146.744 148.288 146.844 148.466 146.796 148.637C146.756 148.782 145.756 152.212 141.133 153.779C140.613 153.957 140.079 154.035 139.542 154.035ZM123.717 157.838C123.639 157.838 123.563 157.81 123.501 157.754C123.37 157.634 123.361 157.43 123.48 157.3C123.628 157.137 127.147 153.302 130.952 153.218C130.992 153.217 131.033 153.217 131.074 153.217C134.871 153.217 136.644 157.181 136.719 157.351C136.789 157.513 136.716 157.702 136.554 157.773C136.392 157.849 136.202 157.771 136.132 157.608C136.116 157.569 134.399 153.782 130.966 153.859C127.433 153.938 123.988 157.694 123.954 157.732C123.891 157.802 123.804 157.838 123.717 157.838ZM117.19 155.945C117.142 155.945 117.092 155.934 117.046 155.91C116.889 155.83 116.826 155.64 116.905 155.482C116.947 155.399 117.968 153.443 122.327 152.807C126.251 152.234 126.516 148.737 126.526 148.589C126.538 148.412 126.693 148.259 126.865 148.288C127.041 148.3 127.175 148.451 127.165 148.628C127.162 148.669 126.869 152.794 122.418 153.443C118.431 154.026 117.485 155.756 117.476 155.773C117.418 155.882 117.306 155.945 117.19 155.945ZM114.498 152.593C111.817 152.593 109.105 149.017 108.982 148.852C108.875 148.71 108.904 148.508 109.045 148.401C109.185 148.295 109.387 148.323 109.494 148.465C109.525 148.506 112.56 152.524 115.038 151.883C117.61 151.229 119.632 148.466 119.651 148.439C119.757 148.294 119.956 148.264 120.099 148.367C120.242 148.471 120.274 148.672 120.17 148.817C120.082 148.938 117.99 151.796 115.195 152.506C114.964 152.566 114.73 152.593 114.498 152.593ZM113.143 157.868C112.967 157.868 112.824 157.724 112.822 157.547C112.822 157.445 112.772 155.032 109.738 154.518C106.254 153.927 104.054 149.012 103.962 148.802C103.89 148.64 103.963 148.451 104.125 148.379C104.286 148.306 104.476 148.38 104.547 148.543C104.568 148.591 106.701 153.351 109.844 153.885C113.425 154.491 113.462 157.516 113.462 157.547C113.463 157.724 113.321 157.867 113.143 157.868ZM104.157 157.894C103.999 157.894 103.861 157.776 103.84 157.614C103.811 157.379 103.041 151.843 96.9937 150.515C96.8211 150.477 96.7118 150.307 96.7497 150.133C96.7869 149.96 96.9536 149.845 97.1306 149.888C103.629 151.313 104.468 157.471 104.476 157.533C104.497 157.709 104.373 157.869 104.198 157.891C104.184 157.894 104.171 157.894 104.157 157.894ZM98.5955 155.366C97.3999 155.366 96.8784 154.865 96.8487 154.835C96.7237 154.71 96.7229 154.506 96.8479 154.381C96.9722 154.258 97.173 154.255 97.2973 154.376C97.3196 154.395 98.1439 155.112 100.243 154.429C100.411 154.375 100.592 154.468 100.647 154.635C100.701 154.804 100.609 154.985 100.441 155.04C99.701 155.28 99.0909 155.366 98.5955 155.366Z" fill="#FE891E"/>
<path d="M97.0807 157.807C96.9632 157.807 96.8679 157.711 96.8672 157.593C96.8672 157.475 96.9624 157.379 97.08 157.378L219.762 157.025H219.763C219.88 157.025 219.975 157.121 219.976 157.239C219.976 157.357 219.881 157.453 219.763 157.454L97.0807 157.807Z" fill="#12323E"/>
<path d="M116.043 157.593H126.559L90.7802 259.302H88.1719L116.043 157.593Z" fill="#12323E"/>
<path d="M196.602 157.24H186.086L221.866 258.949H224.474L196.602 157.24Z" fill="#12323E"/>
</svg>
