<svg width="16" height="16" viewBox="0 0 16 16" fill="none" xmlns="http://www.w3.org/2000/svg">
<path d="M7.60938 0.5C3.47375 0.5 0.109375 3.86437 0.109375 8C0.109375 12.1356 3.47375 15.5 7.60938 15.5C11.745 15.5 15.1094 12.1356 15.1094 8C15.1094 3.86437 11.745 0.5 7.60938 0.5ZM7.60938 1.75C11.0688 1.75 13.8594 4.54063 13.8594 8C13.8594 11.4594 11.0688 14.25 7.60938 14.25C4.15 14.25 1.35938 11.4594 1.35938 8C1.35938 4.54063 4.15 1.75 7.60938 1.75ZM7.60938 4.25C6.23438 4.25 5.10938 5.375 5.10938 6.75H6.35938C6.35938 6.05188 6.91125 5.5 7.60938 5.5C8.3075 5.5 8.85938 6.05188 8.85938 6.75C8.85921 6.98357 8.78553 7.21116 8.64878 7.40052C8.51204 7.58987 8.31917 7.73139 8.0975 7.805L7.84375 7.8825C7.59394 7.96667 7.37674 8.12693 7.22262 8.34079C7.0685 8.55465 6.98519 8.81139 6.98438 9.075V9.875H8.23438V9.07438L8.48812 8.99625C8.95904 8.83796 9.3686 8.53623 9.65935 8.13339C9.95011 7.73055 10.1075 7.2468 10.1094 6.75C10.1094 5.375 8.98438 4.25 7.60938 4.25ZM6.98438 10.5V11.75H8.23438V10.5H6.98438Z" fill="#969696"/>
</svg>
