<svg width="350" height="360" viewBox="0 0 350 360" fill="none" xmlns="http://www.w3.org/2000/svg">
<path fill-rule="evenodd" clip-rule="evenodd" d="M194.077 146.617C204.339 152.556 206.798 146.785 208.747 150.585C211.101 155.172 213.112 158.666 213.869 162.895C214.285 165.219 213.162 167.226 210.52 167.982C209.092 168.39 206.321 163.169 202.469 159.708C200.494 157.935 191.806 155.767 191.806 155.767L194.077 146.617ZM164.659 177.33C168.799 181.915 176.207 184.331 178.206 186.982C179.291 188.42 177.89 190.54 176.655 193.237C174.325 198.327 170.465 204.81 167.601 199.804C166.979 198.717 167.607 194.905 166.635 192.043C164.843 186.764 158.229 181.573 158.229 181.573L164.659 177.33Z" fill="#F9C5C5"/>
<path fill-rule="evenodd" clip-rule="evenodd" d="M198.935 145.558C198.935 145.558 201.189 108.773 165.573 91.079C141.592 79.1658 99.8814 67.2165 84.817 55.3396C75.4473 47.9523 60.1678 27.9442 60.1678 27.9442C59.9967 27.72 60.0398 27.3994 60.264 27.2283C60.4883 27.0571 60.8087 27.1002 60.9799 27.3246C60.9799 27.3246 76.1468 47.2029 85.4495 54.5373C100.478 66.3862 142.104 78.2791 166.028 90.1642C202.273 108.171 199.955 145.62 199.955 145.62C199.937 145.902 199.695 146.116 199.413 146.099C199.132 146.081 198.918 145.839 198.935 145.558Z" fill="#EC5239"/>
<path fill-rule="evenodd" clip-rule="evenodd" d="M54.7679 12.7019L53.8438 35.33C53.8438 35.33 57.1266 29.3471 60.7083 26.8095C63.5882 24.7692 72.4141 25.152 72.4141 25.152L54.7679 12.7019Z" fill="#12323E"/>
<path fill-rule="evenodd" clip-rule="evenodd" d="M54.7705 12.7019L53.8464 35.33C56.0636 31.5176 58.3 28.4793 60.7109 26.8095L54.7705 12.7019Z" fill="#FDC82F"/>
<path fill-rule="evenodd" clip-rule="evenodd" d="M11.0862 0L5.56805 24.127L15.843 17.3532L27.0312 17.7338L11.0862 0Z" fill="#12323E"/>
<path fill-rule="evenodd" clip-rule="evenodd" d="M11.0862 0L15.843 17.3532L27.0312 17.7338L11.0862 0Z" fill="#FDC82F"/>
<path fill-rule="evenodd" clip-rule="evenodd" d="M16.0757 18.118C16.0757 18.118 22.9669 34.7475 18.2768 52.7523C13.658 70.4831 1.42563 102.351 1.52408 120.454C1.70035 152.886 28.5888 167.887 28.5888 167.887C28.8351 168.025 28.9235 168.336 28.7861 168.582C28.6488 168.829 28.3376 168.917 28.0913 168.78C28.0913 168.78 0.681946 153.503 0.502441 120.46C0.403687 102.288 12.6521 70.2924 17.2882 52.4948C21.8906 34.8273 15.1318 18.5089 15.1318 18.5089C15.0239 18.2483 15.1476 17.9494 15.4082 17.8415C15.6688 17.7335 15.9676 17.8574 16.0757 18.118ZM79.6142 233.035C76.4158 231.068 68.717 236.45 70.1294 239.875C72.7014 246.111 95.0458 270.45 95.0458 270.45C95.0458 270.45 87.6773 237.994 79.6142 233.035ZM146.404 201.903C141.872 197.304 133.323 201.272 135.946 207.136C138.722 213.342 156.931 243.193 156.931 243.193C156.931 243.193 153.009 208.608 146.404 201.903ZM206.201 290.967C211.691 277.975 220.694 272.351 229.53 272.745C238.232 273.134 246.834 279.379 251.831 290.341C265.432 280.94 276.244 278.321 285.276 279.934C294.434 281.569 308.385 295.369 308.385 295.369C337.465 285.777 351.201 314.467 349.918 359.999C349.918 359.999 161.071 359.69 160.952 359.825C160.766 360.037 160.443 360.059 160.231 359.873C153.875 354.303 150.434 346.711 150.888 336.427C140.884 333.32 135.87 328.924 134.248 323.723C132.657 318.621 134.327 312.684 137.903 306.289C128.384 304.335 122.982 300.533 120.524 296.05C116.475 288.666 120.354 279.312 127.318 272.843C133.559 267.045 142.239 263.594 149.706 265.906C154.562 267.41 158.933 271.339 161.785 278.688C171.002 272.027 178.328 270.07 183.844 272.357C189.365 274.647 193.161 281.236 195.225 291.895C199.984 290.295 203.586 290.072 206.201 290.967H206.201Z" fill="#EC5239"/>
<path fill-rule="evenodd" clip-rule="evenodd" d="M125.026 214.978C125.802 215.317 145.898 248.154 145.898 248.154L136.67 242.946L141.587 292.57L108.482 258.743L105.917 264.87C105.917 264.87 100.771 256.853 97.2589 247.8C93.9466 239.261 92.283 229.692 92.2976 229.652C98.0168 213.803 111.774 209.182 125.026 214.978Z" fill="#EC5239"/>
<path fill-rule="evenodd" clip-rule="evenodd" d="M32.8896 48.2466C80.168 72.5159 118.952 115.897 145.148 187.601C117.496 207.433 86.4992 218.19 51.4676 217.994C20.1349 156.384 11.5184 99.3165 32.8896 48.2467V48.2466Z" fill="#FDC82F"/>
<path fill-rule="evenodd" clip-rule="evenodd" d="M34.4329 52.49C34.5439 120.599 50.3775 172.3 73.4474 216.451C73.5781 216.701 73.4812 217.009 73.2313 217.14C72.9812 217.271 72.6726 217.174 72.5419 216.924C49.4057 172.645 33.5227 120.796 33.4113 52.4903C33.4108 52.2082 33.6392 51.979 33.9213 51.9786C34.2033 51.9781 34.4324 52.2065 34.4329 52.4886V52.49ZM36.5009 51.6225C81.6796 97.7113 112.502 146.314 130.572 197.147C130.666 197.412 130.528 197.705 130.262 197.799C129.996 197.893 129.704 197.755 129.609 197.489C111.585 146.785 80.8354 98.3095 35.7715 52.3376C35.574 52.1361 35.5773 51.8127 35.7787 51.6152C35.9802 51.4179 36.3036 51.421 36.5009 51.6225Z" fill="#12323E"/>
<path fill-rule="evenodd" clip-rule="evenodd" d="M79.4918 215.707C77.8679 215.988 82.914 228.027 88.6105 229.396C96.7134 231.344 122.245 222.799 127.674 211.013C129.169 207.769 127.768 198.666 124.178 200.533C110.116 207.851 95.2454 212.978 79.4918 215.707ZM21.1714 103.484C49.385 103.412 65.9947 93.541 75.197 77.4148C83.4556 84.9535 90.7948 92.706 97.2597 100.542C79.3355 124.468 54.2534 134.526 22.8106 132.259C21.4081 123.589 20.9742 113.877 21.1714 103.484Z" fill="#015DFF"/>
<path fill-rule="evenodd" clip-rule="evenodd" d="M56.2326 101.175C51.6744 101.175 48.8657 105.586 49.9644 111.019C51.063 116.452 55.6556 120.863 60.2138 120.863C64.772 120.863 67.5808 116.452 66.4821 111.019C65.3835 105.586 60.7908 101.175 56.2326 101.175ZM141.782 137.363C149.252 153.729 171.766 181.018 171.766 181.018L162.236 189.977C162.236 189.977 126.829 155.998 120.417 146.099C111.05 131.637 132.985 118.093 141.782 137.363Z" fill="#12323E"/>
<path fill-rule="evenodd" clip-rule="evenodd" d="M127.684 106.419C127.684 106.419 105.437 99.8625 101.25 88.741C94.7549 71.4875 104.026 67.8686 106.758 68.0819C116.713 68.8591 130.883 79.0049 136.926 80.6894C137.899 80.9605 138.695 82.8929 138.102 84.196C137.296 85.9694 134.795 87.194 134.795 87.194C142.72 93.6136 143.344 97.6305 137.523 99.5263C135.773 103.623 132.392 105.802 127.684 106.419Z" fill="#12323E"/>
<path fill-rule="evenodd" clip-rule="evenodd" d="M67.5657 83.5131C67.5657 83.5131 88.2112 86.8494 93.2858 88.2451C102.258 90.7128 99.8756 102.344 91.0481 101.866C83.8751 101.478 54.882 86.1684 50.8567 82.6636C49.1314 81.1613 53.4048 77.0429 57.1945 77.4667C62.2465 78.0315 67.5657 83.5131 67.5657 83.5131Z" fill="#F9C5C5"/>
<path fill-rule="evenodd" clip-rule="evenodd" d="M155.211 121.582C166.768 135.37 201.188 148.696 201.188 148.696L195.482 160.466C195.482 160.466 144.808 150.735 135.454 143.552C121.798 133.065 141.405 105.11 155.211 121.582Z" fill="#12323E"/>
<path fill-rule="evenodd" clip-rule="evenodd" d="M107.799 69.5879C102.738 70.3747 99.5333 76.8223 100.646 83.9773C101.758 91.1323 106.77 96.3027 111.83 95.516C116.89 94.7292 120.095 88.2814 118.983 81.1264C117.87 73.9714 112.859 68.8012 107.799 69.5879Z" fill="#F9C5C5"/>
<path fill-rule="evenodd" clip-rule="evenodd" d="M112.383 86.1696C112.383 86.1696 111.657 87.0856 110.452 87.1513C109.681 87.1935 108.694 86.8946 107.585 85.7099C107.468 85.5848 107.474 85.3887 107.599 85.2716C107.724 85.1546 107.921 85.1611 108.038 85.2861C108.966 86.2781 109.772 86.5675 110.419 86.5322C111.341 86.4819 111.898 85.7837 111.898 85.7837C112.004 85.6496 112.199 85.6273 112.333 85.7339C112.467 85.8404 112.489 86.0355 112.383 86.1696ZM111.057 83.2072C111.026 82.5697 110.943 81.3504 110.761 80.8257C110.669 80.5592 110.81 80.2682 111.077 80.1758C111.343 80.0834 111.634 80.2246 111.727 80.4913C112.006 81.2968 112.095 83.5766 112.095 83.5766C112.102 83.7797 111.989 83.9676 111.805 84.0552C111.805 84.0552 110.933 84.4447 110.266 84.0231C110.028 83.8722 109.957 83.5568 110.108 83.3183C110.259 83.0799 110.574 83.0089 110.812 83.1597C110.89 83.209 110.979 83.2124 111.057 83.2072ZM108.017 77.5835C107.506 77.6995 107.204 78.2935 107.344 78.9094C107.483 79.5253 108.012 79.9313 108.523 79.8154C109.035 79.6994 109.337 79.1054 109.197 78.4895C109.057 77.8735 108.529 77.4675 108.017 77.5835ZM114.518 79.425C114.017 79.5384 113.722 80.1194 113.859 80.7217C113.995 81.3239 114.512 81.7208 115.012 81.6075C115.512 81.4941 115.808 80.9131 115.671 80.3108C115.535 79.7086 115.018 79.3117 114.518 79.425ZM148.13 149.556C142.217 147.661 137.444 145.727 135.141 143.958C134.917 143.786 134.875 143.466 135.047 143.242C135.219 143.018 135.54 142.976 135.763 143.148C138.01 144.873 142.675 146.735 148.442 148.583C148.711 148.669 148.858 148.957 148.772 149.225C148.686 149.494 148.399 149.642 148.13 149.556Z" fill="#12323E"/>
<path fill-rule="evenodd" clip-rule="evenodd" d="M97.6342 104.427L90.4257 101.616L93.075 88.0793L99.1873 89.0521C99.5755 88.7726 99.9906 88.5384 100.432 88.3573C104.87 86.539 116.598 90.7707 125.559 100.153C129.741 104.532 128.14 108.644 135.274 116.564L147.289 116.502C146.262 127.171 136.427 137.588 119.539 144.48C119.539 144.48 103.593 116.687 97.6342 104.427Z" fill="#59C676"/>
<path fill-rule="evenodd" clip-rule="evenodd" d="M105.258 107.733L97.9363 104.434C97.7802 104.363 97.7106 104.18 97.781 104.023C97.8513 103.867 98.0349 103.798 98.191 103.868L105.513 107.168C105.669 107.238 105.738 107.422 105.668 107.578C105.597 107.734 105.414 107.803 105.258 107.733Z" fill="#12323E"/>
<path fill-rule="evenodd" clip-rule="evenodd" d="M134.706 206.157C138.002 207.93 144.622 205.431 145.899 202.772C150.143 193.937 149.694 151.573 129.265 147.598C116.392 145.093 125.894 201.416 134.706 206.157ZM79.6148 233.035C80.1366 236.728 73.8232 240.607 70.1301 239.875C57.654 237.402 23.677 200.469 35.5297 183.362C43.8009 171.424 77.0022 214.551 79.6148 233.035Z" fill="#015DFF"/>
<path fill-rule="evenodd" clip-rule="evenodd" d="M125.365 75.028C125.603 75.177 123.52 78.4996 118.588 77.6949C113.173 76.8111 106.15 72.5352 106.15 72.5352C106.15 72.5352 106.312 76.4796 104.693 78.8607C102.941 81.4366 99.3914 82.4255 99.2272 81.3144C97.6159 70.4044 104.465 68.1195 106.756 68.0819C111.724 68.0006 123.007 73.5546 125.365 75.028Z" fill="#12323E"/>
<path fill-rule="evenodd" clip-rule="evenodd" d="M307.607 296.028C301.174 288.415 294.029 282.533 285.099 280.939C276.155 279.342 265.449 282.055 251.911 291.531C251.786 291.619 251.628 291.646 251.481 291.604C251.333 291.563 251.212 291.458 251.151 291.318C246.379 280.425 238.009 274.146 229.487 273.766C220.973 273.386 212.371 278.913 207.1 291.472C206.99 291.732 206.691 291.854 206.431 291.745C206.171 291.636 206.048 291.336 206.158 291.076C211.643 278.006 220.672 272.35 229.532 272.745C238.235 273.133 246.836 279.379 251.833 290.341C265.435 280.94 276.247 278.321 285.278 279.933C294.436 281.568 301.79 287.561 308.387 295.369C308.569 295.584 308.542 295.906 308.327 296.089C308.111 296.271 307.789 296.243 307.607 296.028Z" fill="#12323E"/>
<path fill-rule="evenodd" clip-rule="evenodd" d="M210.829 304.661C211.21 299.217 210.423 295.181 207.913 293.073C205.404 290.966 201.239 290.855 194.999 293.052C194.858 293.102 194.702 293.088 194.573 293.013C194.444 292.938 194.354 292.81 194.327 292.664C192.374 282.119 188.837 275.536 183.448 273.301C178.061 271.067 170.918 273.222 161.843 279.908C161.714 280.003 161.547 280.032 161.393 279.985C161.239 279.939 161.116 279.823 161.061 279.672C158.358 272.3 154.146 268.352 149.4 266.883C142.259 264.671 133.979 268.046 128.009 273.592C121.404 279.728 117.575 288.556 121.416 295.559C123.829 299.96 129.248 303.594 138.789 305.425C138.951 305.456 139.088 305.563 139.157 305.713C139.225 305.864 139.217 306.038 139.135 306.181C135.487 312.52 133.65 318.385 135.22 323.419C136.789 328.452 141.76 332.592 151.562 335.567C151.787 335.635 151.936 335.848 151.924 336.083C151.382 346.204 154.687 353.66 160.9 359.105C161.113 359.291 161.134 359.613 160.948 359.826C160.762 360.038 160.439 360.059 160.227 359.873C153.871 354.303 150.431 346.712 150.884 336.427C140.88 333.32 135.866 328.925 134.244 323.723C132.654 318.621 134.323 312.684 137.899 306.289C128.38 304.335 122.978 300.534 120.52 296.051C116.471 288.667 120.35 279.313 127.314 272.844C133.556 267.046 142.236 263.595 149.702 265.907C154.558 267.41 158.929 271.339 161.781 278.688C170.998 272.028 178.325 270.07 183.84 272.358C189.362 274.648 193.158 281.236 195.221 291.896C201.633 289.74 205.943 290.084 208.57 292.291C211.273 294.561 212.259 298.871 211.848 304.733C211.828 305.014 211.584 305.226 211.303 305.207C211.021 305.187 210.809 304.943 210.829 304.661Z" fill="#12323E"/>
</svg>
