<svg width="96" height="118" viewBox="0 0 96 118" fill="none" xmlns="http://www.w3.org/2000/svg">
<path d="M50.4314 23.9396L72 2.42578L93.5686 23.9396L72 45.4534L50.4314 23.9396Z" fill="#59C676"/>
<path d="M96 47.8779C83.2698 47.8779 71.061 52.9221 62.0594 61.9009C53.0577 70.8796 48.0007 83.0574 48.0007 95.7552H96V47.8779Z" fill="#FDC82F"/>
<path d="M48 0H0.000694275V47.8773C12.7309 47.8773 24.9397 42.8331 33.9413 33.8544C42.9429 24.8756 48 12.6979 48 0Z" fill="#F34A0D"/>
<path d="M48 95.7549C35.2698 95.7549 23.061 90.7107 14.0594 81.7319C5.05775 72.7532 0.000694275 60.5754 0.000694275 47.8776H48V95.7549Z" fill="#015DFF"/>
<path d="M12.8271 118C19.9027 118 25.6386 112.278 25.6386 105.221C25.6386 98.1632 19.9027 92.4419 12.8271 92.4419C5.75153 92.4419 0.015625 98.1632 0.015625 105.221C0.015625 112.278 5.75153 118 12.8271 118Z" fill="#9642F4"/>
</svg>
