<svg width="92" height="92" viewBox="0 0 92 92" fill="none" xmlns="http://www.w3.org/2000/svg">
<path d="M45.7178 82.309C65.7108 82.309 81.9766 66.0221 81.9766 46.0234H71.963C71.963 51.2189 70.4236 56.2978 67.5394 60.6177C64.6553 64.9377 60.556 68.3047 55.7598 70.2929C50.9637 72.2812 45.6861 72.8014 40.5945 71.7878C35.5029 70.7742 30.8261 68.2723 27.1553 64.5985C23.4844 60.9247 20.9846 56.2439 19.9718 51.1482C18.959 46.0525 19.4788 40.7706 21.4654 35.9706C23.452 31.1705 26.8163 27.0678 31.1327 24.1813C35.4492 21.2948 40.5239 19.7542 45.7152 19.7542V9.74561C25.7222 9.74561 9.4565 26.0325 9.4565 46.0339C9.4565 66.0352 25.7249 82.309 45.7178 82.309Z" fill="#FDC82F"/>
<path d="M45.6293 72.3296C52.6067 72.3296 59.2983 69.5556 64.232 64.6179C69.1658 59.6801 71.9375 52.9831 71.9375 46C71.9375 39.017 69.1658 32.3199 64.232 27.3822C59.2983 22.4444 52.6067 19.6704 45.6293 19.6704V29.6921C49.9509 29.6921 54.0955 31.4102 57.1514 34.4686C60.2072 37.5269 61.9239 41.6749 61.9239 46C61.9239 50.3251 60.2072 54.4731 57.1514 57.5315C54.0955 60.5898 49.9509 62.308 45.6293 62.308V72.3296Z" fill="#015DFF"/>
<path d="M45.9906 92V81.9862C26.1682 81.9862 10.0311 65.8464 10.0311 45.9974C10.0311 26.1483 26.1577 10.0086 45.9906 10.0086C65.8234 10.0086 81.9501 26.1483 81.9501 45.9974H91.9531C91.9531 20.6344 71.3328 0 45.9906 0C20.6483 0 0.0280685 20.6344 0.0280685 45.9974C0.0280685 71.3603 20.6483 92 45.9906 92Z" fill="#59C676"/>
</svg>
