<svg width="16" height="16" viewBox="0 0 16 16" fill="none" xmlns="http://www.w3.org/2000/svg">
<path d="M8.42188 4.64583V3.89583H6.92188V4.64583H8.42188ZM7.67188 8.02842H6.92188C6.92188 8.32273 7.094 8.58983 7.36202 8.71142L7.67188 8.02842ZM9.54952 9.70383L10.2325 10.0137L10.8522 8.64769L10.1692 8.33784L9.54952 9.70383ZM14.3594 8C14.3594 11.4518 11.5612 14.25 8.10938 14.25V15.75C12.3896 15.75 15.8594 12.2802 15.8594 8H14.3594ZM8.10938 14.25C4.6576 14.25 1.85938 11.4518 1.85938 8H0.359375C0.359375 12.2802 3.82917 15.75 8.10938 15.75V14.25ZM1.85938 8C1.85938 4.54822 4.6576 1.75 8.10938 1.75V0.25C3.82917 0.25 0.359375 3.71979 0.359375 8H1.85938ZM8.10938 1.75C11.5612 1.75 14.3594 4.54822 14.3594 8H15.8594C15.8594 3.71979 12.3896 0.25 8.10938 0.25V1.75ZM6.92188 4.64583V8.02842H8.42188V4.64583H6.92188ZM7.36202 8.71142L9.54952 9.70383L10.1692 8.33784L7.98173 7.34542L7.36202 8.71142Z" fill="#969696"/>
</svg>
