<svg width="61" height="80" viewBox="0 0 61 80" fill="none" xmlns="http://www.w3.org/2000/svg">
<g clip-path="url(#clip0_70_10313)">
<path d="M49.7698 61.3472C49.7698 61.3472 59.1697 71.7891 51.7766 74.7511C44.3837 77.713 47.9571 73.2101 47.9571 73.2101C47.9571 73.2101 52.9759 72.4538 52.6234 70.5157C52.2709 68.5777 47.6013 61.6184 47.6013 61.6184L49.7698 61.3472Z" fill="#C01E22"/>
<path d="M41.1733 29.8983C41.1733 29.8983 49.1946 30.9261 52.573 33.7102C55.9512 36.4942 60.4922 53.2315 60.7417 55.8745C60.9913 58.5175 59.6775 68.286 55.6682 69.3611C51.659 70.436 39.7109 66.5668 39.7109 66.5668L41.1733 29.8983Z" fill="#EC5239"/>
<path d="M48.9362 32.3153C48.9362 32.3153 51.0569 26.699 50.2241 26.0758C49.3913 25.4527 40.4805 25.6284 39.9947 26.6841C39.5089 27.7397 40.7625 29.9906 40.7625 29.9906L42.6051 29.8925C42.6051 29.8925 41.7668 27.1075 42.3233 26.8797C42.8798 26.6518 47.3181 26.5269 47.5529 26.8667C47.7877 27.2065 47.1394 32.3408 47.1394 32.3408L48.9362 32.3153Z" fill="#EC5239"/>
<path d="M49.2433 66.8675C49.2574 66.8679 49.2719 66.8673 49.2864 66.8655C49.438 66.8465 49.5469 66.7073 49.5301 66.5548C49.0219 61.9748 48.3668 54.4325 48.7725 53.6909C49.1929 53.1265 54.7888 53.3144 59.7313 53.8139C59.8826 53.8289 60.0195 53.7174 60.0366 53.5645C60.0537 53.4115 59.9449 53.275 59.7932 53.2596C59.7666 53.2569 57.0969 52.9888 54.3884 52.8584C48.7484 52.5873 48.4391 53.1539 48.2898 53.4266C47.6782 54.5446 48.7586 64.6161 48.9814 66.6238C48.9967 66.7615 49.1097 66.8632 49.2433 66.8675ZM54.6949 51.6707C54.724 51.6738 54.754 51.6723 54.7841 51.6653C54.9333 51.6316 55.0285 51.4825 54.9969 51.3324C54.6218 49.5514 51.2722 33.8886 49.205 32.3486C47.1319 30.8045 41.1258 29.7972 40.8711 29.755C40.7237 29.7312 40.5778 29.8331 40.5511 29.985C40.5246 30.1368 40.6248 30.2799 40.7749 30.3048C40.836 30.3149 46.9054 31.3323 48.8733 32.7983C50.482 33.9967 53.4492 46.672 54.4568 51.4548C54.4821 51.5745 54.5803 51.6587 54.6949 51.6707Z" fill="#C01E22"/>
<path d="M44.9778 42.7231C45.8929 48.5817 45.7788 60.9272 45.7788 60.9272L41.7564 60.1236L36.6562 43.6058L44.9778 42.7231Z" fill="#621406"/>
<path d="M42.7796 48.0503C42.7796 48.0503 42.7208 50.7124 42.3757 53.4733C42.0306 56.234 43.263 55.6425 42.7796 57.9595C42.2961 60.2765 44.4038 62.1993 43.2302 64.3684C42.0565 66.5376 21.1195 65.8495 19.7883 65.3433C18.4573 64.8371 18.2188 62.4456 19.2541 61.7554C20.2894 61.0652 18.4653 59.4876 19.3526 57.3225C20.2401 55.1574 20.0385 42.0847 20.01 41.5917C19.9815 41.0988 19.3526 41.0989 18.8925 42.5779C18.4325 44.0569 17.43 43.8596 16.5427 44.5993C15.6553 45.3387 15.8032 46.2261 14.9158 48.1489C14.0285 50.0715 10.676 50.5152 7.91909 49.3504C5.16201 48.1856 5.05592 43.3667 6.97856 40.606C8.90121 37.8453 18.1175 29.1215 19.9652 28.7248C22.2615 28.2319 25.0023 27.9415 28.1788 27.0839C28.1788 27.0839 36.3279 27.9974 38.2673 28.1147C40.2065 28.2318 43.411 29.3893 44.89 30.3141C46.369 31.2391 55.095 40.5074 57.6586 43.071C60.2222 45.6346 59.5074 48.1326 58.9159 49.3813C58.3243 50.63 51.9975 51.5422 50.3623 48.5925C48.6862 45.569 46.4675 45.8318 45.7273 44.057C45.0644 42.4679 42.7797 43.1203 42.7797 43.1203V48.0503H42.7796Z" fill="#FAF2EE"/>
<path d="M30.6764 33.244C26.2597 32.4122 26.5093 27.9855 27.0667 27.8785C27.5735 27.7813 27.973 27.4555 28.1799 27.0838C28.329 26.816 28.3397 26.6346 28.4179 26.0983C28.5418 25.2709 28.5624 24.287 28.5638 23.7452C28.5636 23.4913 28.5588 23.335 28.5588 23.335L36.5793 23.2449C36.5793 23.2449 36.1234 26.212 36.6611 26.9993C36.8766 27.3149 37.2708 27.594 37.6658 27.815C38.2563 28.1458 34.4307 33.9511 30.6764 33.244Z" fill="#F9C5C5"/>
<path d="M35.6632 24.4452C33.4104 27.9084 29.56 26.4972 28.4141 26.0983C28.5378 25.2709 28.5586 24.287 28.5599 23.7452L35.6632 24.4452Z" fill="#12323E"/>
<path d="M24.2182 15.9736C24.2182 15.9736 21.2045 8.63774 22.1416 7.21739C22.9098 6.05292 25.0275 5.57881 25.0275 5.57881C25.0275 5.57881 29.2144 0.284681 33.6122 0.0135694C37.9669 -0.254829 37.2964 3.54736 37.2964 3.54736C37.2964 3.54736 39.342 4.19522 39.9206 5.44589C40.4991 6.69656 39.3504 14.06 39.3504 14.06L24.2182 15.9736Z" fill="#12323E"/>
<path d="M24.6953 12.4123C24.6953 12.4123 25.4538 21.4522 27.5436 23.5384C29.2114 25.2033 32.6724 26.3604 36.1341 24.5048C39.2365 22.842 38.918 16.0814 38.7482 14.5658C38.6347 13.5523 38.4813 12.102 38.3106 11.0962C38.2646 10.8254 38.25 10.3306 38.0664 10.1067C37.9126 9.91876 37.5153 9.79127 37.3087 9.64931C37.0674 9.48339 36.8376 9.30074 36.6218 9.10287C36.1742 8.69296 35.742 8.19414 35.1449 8.08533C34.7866 8.02008 34.4205 8.10824 34.0621 8.17379C33.3224 8.30942 32.5126 8.33821 31.866 7.95407C31.572 7.77941 31.292 7.51598 30.9506 7.53301C30.5309 7.55396 29.4649 9.13481 29.1152 9.55195C28.7751 9.95779 28.3902 10.3323 27.9859 10.6733C27.0282 11.4812 25.908 12.0892 24.6953 12.4123Z" fill="#F9C5C5"/>
<path d="M25.1917 15.2069C25.1917 15.2069 23.9466 14.9079 23.5927 16.2628C23.2389 17.6179 24.7029 20.304 26.0021 20.1585C27.2689 20.0168 25.1917 15.2069 25.1917 15.2069Z" fill="#F9C5C5"/>
<path d="M28.9754 15.348C28.8015 15.2206 28.6072 15.1588 28.4029 15.1959C28.3787 15.197 28.3555 15.1989 28.3326 15.2015C28.3239 15.2015 28.3156 15.1998 28.3066 15.2013C28.298 15.2028 28.2919 15.2063 28.2837 15.208C27.577 15.3264 27.4747 16.2052 27.8694 16.66C27.9254 16.7725 28.0058 16.8719 28.1293 16.9294C28.2516 16.9864 28.3949 17.0033 28.5329 16.9865C28.5453 16.9905 28.5567 16.9957 28.5715 16.9971C28.9107 17.0272 29.124 16.8407 29.224 16.5789C29.4906 16.2042 29.3839 15.6471 28.9754 15.348ZM36.3938 14.7244C36.066 14.3627 35.4979 14.3502 35.1612 14.7073C35.1314 14.739 35.1056 14.7741 35.0824 14.811C35.0009 14.9283 34.9621 15.0716 34.9817 15.2224C34.9834 15.2401 34.9861 15.2574 34.9893 15.2747C34.9905 15.2801 34.9902 15.2853 34.9915 15.2907C35.0563 15.5501 35.1282 15.8126 35.3072 16.0195C35.6526 16.4185 36.2553 16.29 36.5235 15.8768C36.7568 15.5175 36.6736 15.0331 36.3938 14.7244Z" fill="#12323E"/>
<path opacity="0.5" d="M33.6426 18.7966C33.5985 18.6189 33.4086 18.5025 33.23 18.5486C33.0543 18.5941 32.8786 18.6397 32.7029 18.6853C32.525 18.7314 32.4104 18.9184 32.455 19.0979C32.4991 19.2756 32.689 19.392 32.8676 19.3458C33.0433 19.3003 33.219 19.2548 33.3947 19.2091C33.5726 19.1633 33.6872 18.9763 33.6426 18.7966Z" fill="#D15C48"/>
<path d="M35.1021 11.9222C35.003 11.8228 34.9561 11.6792 34.9936 11.5505C35.0455 11.3721 35.2394 11.2903 35.427 11.3679C35.4715 11.3863 36.5246 11.8241 37.3569 12.7102C37.4996 12.8613 37.5078 13.0833 37.3753 13.206C37.243 13.3288 37.0183 13.3116 36.8772 13.1543C36.168 12.4061 35.2486 12.0183 35.2396 12.0144C35.187 11.9927 35.1405 11.9606 35.1021 11.9222ZM29.0822 13.1969C29.1811 13.0975 29.2275 12.9537 29.1898 12.825C29.1375 12.6467 28.9433 12.5654 28.7559 12.6436C28.7115 12.6621 27.6597 13.1026 26.8297 13.991C26.6874 14.1424 26.6797 14.3646 26.8127 14.4868C26.9453 14.6092 27.17 14.5914 27.3104 14.4339C28.0175 13.6837 28.936 13.2935 28.9449 13.2896C28.9977 13.2678 29.0439 13.2357 29.0822 13.1969ZM24.9446 6.79289C24.7875 6.81053 24.6373 6.71272 24.5942 6.55569C24.5693 6.46557 24.0185 4.31823 26.6996 1.73295C26.8297 1.60772 27.0366 1.61164 27.1617 1.74124C27.2871 1.87115 27.2831 2.07821 27.1534 2.20329C24.7722 4.49938 25.2054 6.30884 25.225 6.3848C25.2699 6.55856 25.1664 6.73744 24.9931 6.78355C24.977 6.78822 24.9608 6.79109 24.9446 6.79289Z" fill="#12323E"/>
<path d="M31.0427 21.2451C31.1107 21.3278 31.251 21.4152 31.3628 21.4879C31.7207 21.7205 32.0918 21.9347 32.4843 22.1038C32.8394 22.2566 33.3742 22.4411 33.7676 22.4067C34.4707 22.3452 34.8011 21.5013 34.7155 20.9015C34.7188 20.9248 34.5871 20.9306 34.5752 20.9324C33.9137 21.0362 33.2433 21.0727 32.5743 21.0819C32.2388 21.0865 31.9032 21.0835 31.5678 21.0775C31.4775 21.076 30.8298 20.986 31.0427 21.2451Z" fill="white"/>
<path opacity="0.5" d="M25.1825 16.7428C24.9659 16.7671 24.8222 17.4409 24.8464 17.6574C24.8707 17.874 25.593 18.4507 25.593 18.4507C25.593 18.4507 25.3989 16.7185 25.1825 16.7428Z" fill="#D15C48"/>
<path d="M38.4748 13.7195C38.4748 13.7195 39.623 13.1524 40.2677 14.3957C40.9125 15.639 40.0787 18.5823 38.7797 18.7278C37.5127 18.8696 38.4748 13.7195 38.4748 13.7195Z" fill="#F9C5C5"/>
<path opacity="0.5" d="M38.8212 15.2149C39.0378 15.1907 39.327 15.8159 39.3512 16.0325C39.3755 16.249 38.7986 16.9713 38.7986 16.9713C38.7986 16.9713 38.6047 15.2392 38.8212 15.2149Z" fill="#D15C48"/>
<path d="M8.6875 39.5215C7.58768 40.0827 7.0527 41.1094 6.71558 41.7564C5.99749 43.1344 5.9892 44.4349 5.99251 45.1416C5.99643 45.9524 5.99914 46.5145 6.28819 47.1792C7.0096 48.838 8.76376 49.4091 9.08189 49.5127C9.46135 49.6362 11.3677 50.257 12.9272 49.184C14.0104 48.4388 14.3225 47.2916 14.6034 46.2589C14.9931 44.8268 15.6101 42.559 14.1762 40.803C12.8826 39.219 10.4047 38.6453 8.6875 39.5215Z" fill="#12323E"/>
<path d="M15.9888 42.5739C15.8983 42.5739 15.8175 42.51 15.7996 42.4178C15.7958 42.3994 15.4171 40.5561 13.7821 40.1021C13.6793 40.0734 13.6192 39.9671 13.6477 39.8643C13.6762 39.7615 13.7824 39.7014 13.8855 39.7298C15.754 40.249 16.1623 42.2592 16.1787 42.3442C16.1988 42.4489 16.1303 42.5501 16.0258 42.5704C16.0133 42.573 16.001 42.5739 15.9888 42.5739Z" fill="#C2CFD4"/>
<path d="M58.9125 49.3814C59.1663 48.8458 59.4409 48.0795 59.4715 47.1776C59.3193 47.0355 59.1561 46.9104 58.9864 46.8178C58.3992 46.4979 57.8225 46.5718 56.6693 46.7193C55.4512 46.8751 54.3814 47.0171 53.6996 47.3126C52.5092 47.8284 51.3297 48.583 51.3204 49.3569C51.3189 49.4714 51.3476 49.5791 51.3926 49.68C53.7836 51.2564 58.4107 50.4407 58.9125 49.3814Z" fill="#12323E"/>
<path d="M50.8059 48.4902C50.7833 48.4902 50.7606 48.4861 50.7381 48.4777C50.6382 48.4403 50.5877 48.3289 50.6251 48.2293C51.6841 45.405 54.7698 44.1678 56.193 44.265C56.2993 44.2725 56.3796 44.3646 56.3722 44.4711C56.3648 44.5772 56.2741 44.6573 56.1662 44.6502C54.84 44.5604 51.9784 45.72 50.9868 48.3647C50.9575 48.4423 50.884 48.4902 50.8059 48.4902ZM19.9649 42.5743C19.8617 42.5743 19.7761 42.4926 19.7722 42.3885C19.6539 39.3117 19.7708 34.8774 19.772 34.8331C19.7749 34.7265 19.867 34.6263 19.9704 34.6453C20.0769 34.648 20.161 34.7368 20.1581 34.8433C20.1569 34.8879 20.0403 39.3096 20.158 42.3735C20.162 42.4801 20.079 42.5697 19.9726 42.574C19.9701 42.5738 19.9675 42.5743 19.9649 42.5743ZM19.912 32.714C19.8064 32.714 19.7203 32.629 19.719 32.5233C19.7184 32.4685 19.7053 31.1546 20.0002 29.335C20.0174 29.2298 20.1158 29.1591 20.2219 29.1754C20.3272 29.1925 20.3986 29.2915 20.3816 29.397C20.0923 31.1813 20.1051 32.5053 20.1052 32.5186C20.1066 32.6251 20.0211 32.7128 19.9146 32.7139C19.9137 32.714 19.9129 32.714 19.912 32.714ZM42.7794 43.5602C42.68 43.5602 42.5956 43.4836 42.5871 43.3829C42.2848 39.7232 42.1349 35.5275 42.1335 35.4857C42.1296 35.3792 42.2129 35.2898 42.3196 35.2861C42.4275 35.2871 42.5156 35.3656 42.5193 35.4722C42.5208 35.5141 42.6705 39.7008 42.9719 43.351C42.9808 43.4574 42.9016 43.5507 42.7953 43.5595C42.7901 43.5599 42.7845 43.5602 42.7794 43.5602ZM42.3264 32.714C42.2197 32.714 42.1334 32.6272 42.1334 32.5208C42.1334 32.0793 42.3772 30.7412 43.1019 29.6435C43.1607 29.5547 43.2808 29.5306 43.3693 29.5888C43.4583 29.6477 43.4829 29.7674 43.424 29.8564C42.7847 30.8247 42.5195 32.0698 42.5195 32.5208C42.5195 32.6274 42.4331 32.714 42.3264 32.714Z" fill="#C2CFD4"/>
<path d="M35.9091 118.478C35.5515 116.968 35.4477 115.399 35.2189 113.855C33.6822 103.478 32.6924 95.3936 31.529 87.639C30.0521 97.0119 29.6081 108.765 28.5624 118.802C28.4006 120.355 15.2515 116.856 15.2181 115.343C15.1234 111.039 15.3422 91.789 15.5349 88.6662C16.4125 74.4498 18.1883 55.755 18.1883 55.755L44.6747 57.7518C44.6747 57.7518 48.2457 89.9898 49.5446 116.496C49.6696 119.042 36.4485 120.755 35.9091 118.478Z" fill="#015DFF"/>
<path d="M29.4227 72.5215L31.6532 88.2658C31.6805 88.4577 31.5468 88.6353 31.355 88.6626C31.3382 88.665 31.3217 88.6662 31.3054 88.6662C31.1331 88.6662 30.983 88.5395 30.9582 88.3644L28.7188 72.5579C28.949 72.5275 29.1843 72.5171 29.4227 72.5215Z" fill="#12323E"/>
<path d="M29.2641 80.1771C27.5609 87.9273 26.1321 95.7376 24.9758 103.588C24.6551 105.765 24.3556 107.945 24.0797 110.128C24.0521 110.346 24.3933 110.343 24.421 110.128C25.4342 102.301 26.6893 94.5077 28.2222 86.7653C28.6523 84.5934 29.1005 82.4251 29.5695 80.2613C29.6126 80.0626 29.308 79.9777 29.2641 80.1771Z" fill="#12323E"/>
<path d="M41.8778 40.1756C37.2087 40.1756 21.8179 39.5991 21.5296 39.7721C21.2413 39.9451 18.215 55.4686 18.1881 55.755C18.1611 56.0415 19.1085 60.9274 19.6273 60.9274C20.1461 60.9274 45.7707 58.6689 44.6744 57.752C41.3887 55.0041 41.8778 40.1756 41.8778 40.1756Z" fill="#015DFF"/>
<path d="M39.1797 42.0202C39.1797 41.5161 39.5882 41.1075 40.0923 41.1075C40.5964 41.1075 41.005 41.5161 41.005 42.0202C41.005 42.5243 40.5963 42.9328 40.0923 42.9328C39.5884 42.9328 39.1797 42.5243 39.1797 42.0202Z" fill="#ADBED0"/>
<path d="M40.1015 41.7174C40.0147 41.7174 39.9291 41.7102 39.8456 41.6956C39.1829 41.5814 38.6898 41.0438 38.6186 40.3586C38.5645 39.8402 38.7399 39.4874 38.8678 39.2298C38.9249 39.1148 38.984 38.9961 38.9708 38.945C38.964 38.9372 38.8615 38.8184 38.0777 38.8121C37.8373 38.81 37.6465 38.6059 37.5802 38.2786C37.5089 37.9279 37.5873 37.5078 37.8753 37.3828C38.3024 37.1984 42.097 37.3604 42.6344 37.4913L42.6349 37.4916C42.7844 37.5284 42.8115 37.7025 42.8203 37.7597C42.867 38.0601 42.7913 38.7218 42.3983 38.9629C42.1674 39.1052 41.8841 39.0904 41.6569 39.0796C41.5869 39.0761 41.4885 39.0711 41.4337 39.0775C41.4531 39.1995 41.4879 39.3034 41.528 39.4221C41.6163 39.6843 41.7165 39.9817 41.6755 40.4651C41.6466 40.8054 41.4634 41.122 41.1595 41.3564C40.8601 41.5881 40.4725 41.7174 40.1015 41.7174ZM39.0925 37.6387C38.5364 37.6387 38.1103 37.6554 38.0088 37.6942C37.9253 37.7302 37.8628 37.9694 37.9121 38.2112C37.9431 38.3649 38.0124 38.4729 38.0804 38.4732C38.8656 38.4799 39.23 38.5957 39.2987 38.86C39.3436 39.0335 39.2637 39.1941 39.1712 39.3805C39.0554 39.6132 38.9118 39.9027 38.9555 40.3236C39.011 40.8563 39.3918 41.2738 39.9034 41.3622C40.2535 41.4224 40.6562 41.3176 40.9529 41.0887C41.1805 40.9129 41.3175 40.6815 41.3381 40.4369C41.3731 40.0236 41.2888 39.773 41.2072 39.5306C41.1624 39.398 41.1163 39.2609 41.0947 39.1075C41.0762 38.9751 41.1225 38.8924 41.1647 38.8466C41.2784 38.7221 41.4617 38.7302 41.6737 38.7419C41.8639 38.7516 42.0794 38.7616 42.2211 38.6748C42.4699 38.522 42.5163 37.9849 42.4859 37.8066C41.9641 37.7109 40.2481 37.6387 39.0925 37.6387ZM21.8047 41.3277C21.8047 40.8236 22.2134 40.4151 22.7173 40.4151C23.2214 40.4151 23.63 40.8236 23.63 41.3277C23.63 41.8318 23.2214 42.2404 22.7173 42.2404C22.2132 42.2404 21.8047 41.8318 21.8047 41.3277Z" fill="#ADBED0"/>
<path d="M22.7732 41.0369C22.7203 41.0369 22.668 41.0342 22.6162 41.0287C21.9477 40.957 21.4211 40.4525 21.3062 39.7734C21.2191 39.2594 21.3713 38.896 21.4826 38.6306C21.5322 38.5122 21.5836 38.3894 21.5672 38.3395C21.5654 38.3395 21.4599 38.218 20.6675 38.2643C20.4298 38.2745 20.2238 38.086 20.1366 37.7635C20.043 37.4179 20.0945 36.9937 20.3738 36.8512C20.7883 36.6388 24.5848 36.5582 25.1302 36.6549H25.1305C25.2821 36.6822 25.3202 36.8536 25.3327 36.9101C25.3987 37.2071 25.3657 37.8725 24.9885 38.1384C24.7669 38.295 24.4835 38.2991 24.256 38.3024C24.1859 38.3035 24.0873 38.3048 24.0332 38.3146C24.0605 38.435 24.102 38.5364 24.1494 38.652C24.2545 38.9082 24.3735 39.1988 24.3634 39.6839C24.3565 40.0255 24.1939 40.353 23.9058 40.6065C23.5961 40.8791 23.1741 41.0369 22.7732 41.0369ZM20.9918 37.9157C21.5431 37.9157 21.8167 38.0153 21.8888 38.2338C21.9447 38.4043 21.8754 38.5699 21.7949 38.7617C21.6945 39.0012 21.5696 39.2996 21.6401 39.717C21.7296 40.2446 22.1365 40.6366 22.6525 40.6921C23.008 40.7299 23.4008 40.5998 23.6823 40.3522C23.8982 40.1625 24.02 39.9226 24.0251 39.6774C24.0335 39.2624 23.9332 39.0178 23.8363 38.781C23.7832 38.6514 23.7282 38.5178 23.697 38.366C23.6702 38.235 23.711 38.1496 23.7499 38.1009C23.8556 37.9697 24.039 37.9669 24.2512 37.9638C24.4416 37.9611 24.6576 37.9581 24.7934 37.8621C25.0316 37.6936 25.0437 37.1545 25.0021 36.9785C24.2213 36.886 20.8304 37.0139 20.527 37.153C20.446 37.1944 20.3989 37.4371 20.4634 37.6752C20.5044 37.8269 20.5801 37.9198 20.6483 37.9263C20.7731 37.919 20.8875 37.9157 20.9918 37.9157Z" fill="#ADBED0"/>
<path d="M42.5125 28.9247C42.4096 31.2414 42.2242 37.4087 42.1091 38.1581C41.9938 38.9076 38.8233 38.2734 38.4775 37.8698C38.1316 37.4663 38.3622 28.1856 38.8233 28.1856C39.2845 28.1856 42.5565 27.9361 42.5125 28.9247ZM25.7958 28.1576C25.6249 31.1834 25.2914 36.2846 24.8303 36.9763C24.3691 37.668 21.6455 37.4087 21.2996 37.4087C20.9538 37.4087 21.7032 28.6483 22.1067 28.1576C22.5101 27.6669 25.8204 27.724 25.7958 28.1576Z" fill="#015DFF"/>
<path d="M30.8581 56.8603C29.4601 56.8603 28.2484 56.8267 27.7733 56.8041C23.6246 56.6085 23.4765 56.1269 23.413 55.921C23.1365 55.0222 23.4222 46.3743 23.8992 45.7629C24.3997 45.1206 34.1565 45.3156 36.8901 45.6779C37.026 45.6959 37.1396 45.7826 37.2276 45.9354C37.9908 47.2587 37.3294 55.5547 37.069 56.1831C36.8391 56.7383 33.5129 56.8603 30.8581 56.8603ZM24.2478 46.0561C23.9653 46.7025 23.5208 54.7358 23.8448 55.7884C23.8546 55.7962 24.0422 55.9997 25.5087 56.1759C29.1333 56.612 36.0356 56.4185 36.6622 55.9833C36.9939 55.0369 37.4534 46.6939 36.8123 46.1232C33.4449 45.6813 24.9869 45.7085 24.2478 46.0561ZM36.6765 55.9724C36.6765 55.9724 36.6764 55.9724 36.6765 55.9724V55.9724Z" fill="#12323E"/>
<path d="M42.7524 28.8451C42.7524 28.8451 39.4898 30.9197 39.3054 34.9784C39.1209 39.0372 40.9658 46.6013 41.8882 50.1067C42.8107 53.612 43.6135 57.6756 45.9471 61.1761C46.6851 62.283 45.5782 67.4487 45.5782 67.4487C45.5782 67.4487 40.5969 58.0397 38.5675 48.9996C36.5382 39.9595 35.6158 34.2402 37.0916 30.7349C38.5675 27.2296 40.1473 27.0837 40.1473 27.0837C40.1473 27.0837 43.063 27.3241 42.7524 28.8451Z" fill="#EC5239"/>
<path d="M59.2773 47.0132C58.6464 46.1221 52.2898 46.3746 51.7506 49.066C51.2062 51.7839 51.0989 54.8391 49.7558 57.563C49.6726 57.671 48.1526 59.6391 47.6882 59.814C47.1377 60.0214 45.5173 58.755 44.9308 58.7089C44.1607 58.6485 44.7683 60.7767 44.7683 60.7767C44.6173 61.2701 40.2649 63.3911 39.6709 63.7066C39.0265 64.0489 39.1202 64.6066 39.2179 65.1867C39.2562 65.4142 38.4788 65.662 38.3278 66.1554C38.1768 66.6486 38.4615 66.9328 39.2774 66.9316C39.9791 66.9306 39.8281 67.424 40.3597 67.8025C40.8914 68.1811 41.5213 67.4422 42.143 67.9706C43.2347 68.8987 47.6247 66.4532 50.6287 63.7704C52.7603 61.8666 53.7497 60.1882 53.7497 60.1882C53.7492 60.1879 53.7486 60.1873 53.7482 60.187C55.3182 58.0183 56.3344 55.0995 57.7799 52.3704C59.8446 48.4715 59.2773 47.0132 59.2773 47.0132Z" fill="#F9C5C5"/>
<path d="M20.5626 19.0572C20.2432 18.9811 19.8998 19.0114 19.5988 19.1421C19.283 19.2794 19.0238 19.5181 18.7337 19.7039C18.4437 19.8897 18.0867 20.0256 17.7579 19.9232C17.4798 19.8365 17.2798 19.599 17.0964 19.3728C16.3669 18.4739 16.0882 17.3408 15.8233 16.2391C15.6889 15.68 15.5551 15.1185 15.3543 14.5787C15.1943 14.1483 14.9951 13.4629 14.6219 13.1767C14.4727 13.0623 14.2339 13.0096 14.1127 13.1532C14.0753 13.1977 14.0556 13.2543 14.0407 13.3106C13.9088 13.807 14.0799 14.3183 14.1789 14.804C14.2503 15.1553 14.3142 15.5085 14.357 15.8648C14.3775 16.0348 14.5428 16.546 14.5455 16.717C14.5473 16.8269 14.5449 17.1851 14.3377 17.0722C14.2224 17.0094 14.154 16.9129 14.0722 16.8145C13.4023 16.008 12.8578 14.6804 12.3224 13.7887C12.1518 13.5045 11.9416 13.2112 11.6257 13.1106C11.5699 13.0928 11.5092 13.0816 11.4534 13.0993C11.2473 13.1641 11.2691 13.5209 11.2733 13.6879C11.2822 14.0448 11.4111 14.3034 11.5419 14.617C11.6857 14.9615 11.7711 15.3304 11.9211 15.676C12.1031 16.0952 12.3082 16.5051 12.4684 16.9336C12.5486 17.1479 12.8106 17.7226 12.8373 17.9514C12.8465 18.0298 12.8397 18.1071 12.809 18.1777C12.7835 18.2361 11.9 16.934 11.8368 16.8388C11.5417 16.3944 11.266 15.937 11.012 15.4678C10.9367 15.3286 10.8491 15.245 10.7182 15.156C10.5872 15.0671 10.4162 15.0224 10.2679 15.0778C10.082 15.1473 9.97957 15.3574 9.97626 15.5557C9.97294 15.7539 10.0486 15.9439 10.1253 16.1269C10.331 16.6178 10.5512 17.1028 10.786 17.5807C10.888 17.7882 11.9039 19.4456 11.5056 19.4971C11.3225 19.5208 10.7135 18.8027 10.5663 18.7085C10.2676 18.5174 9.14394 17.4322 8.98932 18.2688C8.88307 18.8435 9.89156 19.6062 10.2415 19.9771C10.8077 20.5772 11.2981 21.2472 11.822 21.8844C12.7733 23.041 13.8937 24.7091 13.179 26.2279C13.1007 26.4244 9.27761 36.6943 8.3612 38.6348C6.68495 42.1844 6.29071 45.241 6.7835 47.706C7.2766 50.171 10.4811 50.2203 12.1572 49.0371C13.8335 47.854 14.3599 45.9651 14.8174 42.7839C15.2607 39.7016 17.7523 25.3395 18.0092 24.6669C18.2662 23.9944 18.9879 23.114 19.3731 22.105C19.6504 21.3792 20.0169 20.7246 20.6574 20.2852C20.8688 20.1402 21.1202 19.9907 21.1667 19.7386C21.2281 19.4079 20.8887 19.135 20.5626 19.0572Z" fill="#F9C5C5"/>
<path d="M14.3287 24.4924C14.6304 24.7372 14.9632 24.9047 15.347 24.9741C15.7161 25.0408 15.6198 25.6111 15.2481 25.5494C14.7703 25.4702 14.3186 25.2709 13.9572 24.9457C13.6777 24.6944 14.0339 24.2533 14.3287 24.4924ZM12.2742 20.057C12.9436 18.9023 14.0151 18.02 15.2236 17.4732C15.3916 17.3973 15.4923 17.6634 15.3262 17.7396C14.1468 18.2822 13.2364 19.1397 12.5037 20.2003C12.4168 20.3264 12.1963 20.1916 12.2742 20.057Z" fill="#12323E"/>
</g>
<defs>
<clipPath id="clip0_70_10313">
<rect width="60.4082" height="80" fill="white" transform="translate(0.296875)"/>
</clipPath>
</defs>
</svg>
