<svg width="20" height="21" viewBox="0 0 20 21" fill="none" xmlns="http://www.w3.org/2000/svg">
<g clip-path="url(#clip0_2348_126113)">
<path d="M12.0005 16.1077V15.678L12.3712 15.4607C13.087 15.0411 13.6579 14.4768 14.0913 13.7586C14.5159 13.0551 14.7297 12.2801 14.7297 11.4168C14.7297 10.1091 14.2758 9.01344 13.3503 8.0879C12.4247 7.16235 11.329 6.70842 10.0213 6.70842C8.71362 6.70842 7.61792 7.16235 6.69238 8.0879C5.76683 9.01344 5.3129 10.1091 5.3129 11.4168C5.3129 12.2843 5.52184 13.0622 5.93487 13.7668C6.34963 14.4743 6.92075 15.0352 7.66187 15.4552L8.04211 15.6706V16.1077V19.75H12.0005V16.1077ZM3.58209 4.75895L3.36343 4.97761L3.96589 5.58006L4.18454 5.36141L3.58209 4.75895ZM9.83316 2.18817V3.37473H10.1668V2.18817H9.83316ZM1.97921 11.5624V11.2287H0.75V11.5624H1.97921ZM18.0208 11.5624H19.25V11.2287H18.0208V11.5624ZM16.032 5.55295L16.6296 4.97068L16.4179 4.75895L15.8245 5.35234L16.032 5.55295Z" stroke="#EC5239" stroke-width="1.5"/>
</g>
<defs>
<clipPath id="clip0_2348_126113">
<rect width="20" height="20" fill="white" transform="matrix(1 0 0 -1 0 20.5)"/>
</clipPath>
</defs>
</svg>
