<svg width="21" height="21" viewBox="0 0 21 21" fill="none" xmlns="http://www.w3.org/2000/svg">
<g clip-path="url(#clip0_184_41307)">
<path d="M12.2505 16.1077V15.678L12.6212 15.4607C13.337 15.0411 13.9079 14.4768 14.3413 13.7586C14.7659 13.0551 14.9797 12.2801 14.9797 11.4168C14.9797 10.1091 14.5258 9.01344 13.6003 8.0879C12.6747 7.16235 11.579 6.70842 10.2713 6.70842C8.96362 6.70842 7.86792 7.16235 6.94238 8.0879C6.01683 9.01344 5.5629 10.1091 5.5629 11.4168C5.5629 12.2843 5.77184 13.0622 6.18487 13.7668C6.59963 14.4743 7.17075 15.0352 7.91187 15.4552L8.29211 15.6706V16.1077V19.75H12.2505V16.1077ZM3.83209 4.75895L3.61343 4.97761L4.21588 5.58006L4.43454 5.36141L3.83209 4.75895ZM10.0832 2.18817V3.37473H10.4168V2.18817H10.0832ZM2.22921 11.5624V11.2287H1V11.5624H2.22921ZM18.2708 11.5624H19.5V11.2287H18.2708V11.5624ZM16.282 5.55295L16.8796 4.97068L16.6679 4.75896L16.0745 5.35234L16.282 5.55295Z" stroke="#53BD6F" stroke-width="1.5"/>
</g>
<defs>
<clipPath id="clip0_184_41307">
<rect width="20" height="20" fill="white" transform="matrix(1 0 0 -1 0.25 20.5)"/>
</clipPath>
</defs>
</svg>
