<svg width="28" height="28" viewBox="0 0 28 28" fill="none" xmlns="http://www.w3.org/2000/svg">
<path d="M16.0005 19.1077V18.678L16.3712 18.4607C17.087 18.0411 17.6579 17.4768 18.0913 16.7586C18.5159 16.0551 18.7297 15.2801 18.7297 14.4168C18.7297 13.1091 18.2758 12.0134 17.3503 11.0879C16.4247 10.1624 15.329 9.70842 14.0213 9.70842C12.7136 9.70842 11.6179 10.1624 10.6924 11.0879C9.76683 12.0134 9.3129 13.1091 9.3129 14.4168C9.3129 15.2843 9.52184 16.0622 9.93487 16.7668C10.3496 17.4743 10.9207 18.0352 11.6619 18.4552L12.0421 18.6706V19.1077V22.75H16.0005V19.1077ZM7.58209 7.75895L7.36343 7.97761L7.96588 8.58006L8.18454 8.36141L7.58209 7.75895ZM13.8332 5.18817V6.37473H14.1668V5.18817H13.8332ZM5.97921 14.5624V14.2287H4.75V14.5624H5.97921ZM22.0208 14.5624H23.25V14.2287H22.0208V14.5624ZM20.032 8.55295L20.6296 7.97068L20.4179 7.75896L19.8245 8.35234L20.032 8.55295Z" stroke="#EC5239" stroke-width="1.5"/>
</svg>
