<svg width="53" height="52" viewBox="0 0 53 52" fill="none" xmlns="http://www.w3.org/2000/svg">
<rect x="0.5" width="52" height="52" rx="26" fill="#5AC4EE"/>
<path d="M35.5 17.6121L32.3367 33.5605C32.3367 33.5605 31.8944 34.6666 30.6778 34.1357L23.3783 28.5394L20.724 27.2565L16.2559 25.7523C16.2559 25.7523 15.5701 25.509 15.5037 24.9781C15.4373 24.4473 16.278 24.1598 16.278 24.1598L34.0399 17.192C34.0399 17.192 35.4999 16.5506 35.4999 17.6124" fill="white"/>
<path d="M22.8165 33.3823C22.8165 33.3823 22.6034 33.3624 22.3378 32.5217C22.0726 31.6812 20.7231 27.2573 20.7231 27.2573L31.4512 20.4445C31.4512 20.4445 32.0706 20.0685 32.0485 20.4445C32.0485 20.4445 32.159 20.5109 31.8271 20.8206C31.4955 21.1304 23.3997 28.4076 23.3997 28.4076" fill="#D2E5F1"/>
<path d="M26.1752 30.6857L23.2881 33.3181C23.2881 33.3181 23.0623 33.4894 22.8154 33.382L23.3683 28.4924" fill="#B5CFE4"/>
</svg>
