<svg width="41" height="55" viewBox="0 0 41 55" fill="none" xmlns="http://www.w3.org/2000/svg">
<path d="M28.7216 1H1V54H39.5284V11.8067H28.7216V1Z" fill="#EC5239" stroke="#12323E" stroke-width="1.978" stroke-miterlimit="10" stroke-linejoin="round"/>
<path d="M28.7207 1V11.8067H39.5274L28.7207 1Z" fill="#FDC82F" stroke="#12323E" stroke-width="1.978" stroke-miterlimit="10" stroke-linejoin="round"/>
<path d="M20.263 47.1403C27.4251 47.1403 33.2311 41.3343 33.2311 34.1722C33.2311 27.0101 27.4251 21.2041 20.263 21.2041C13.1009 21.2041 7.29492 27.0101 7.29492 34.1722C7.29492 41.3343 13.1009 47.1403 20.263 47.1403Z" fill="white" stroke="#12323E" stroke-width="1.978" stroke-miterlimit="10" stroke-linejoin="round"/>
<path d="M21.2034 40.2803L20.1697 37.931H15.5651L14.6253 40.2803H11.9941L16.6927 29.3796H19.042L23.7406 40.2803H21.2034ZM17.9144 32.5746L16.5048 35.7696H19.23L17.9144 32.5746ZM24.5863 34.1721V31.9168H22.425V30.3193H24.5863V28.064H26.2778V30.3193H28.4392V31.8228H26.2778V34.0782H24.5863V34.1721Z" fill="#12323E"/>
</svg>
