<svg width="80" height="80" viewBox="0 0 80 80" fill="none" xmlns="http://www.w3.org/2000/svg">
<path d="M40 80C17.9087 80 6.86646e-05 62.0914 6.86646e-05 40C6.86646e-05 17.9086 17.9087 0 40 0C62.0914 0 80 17.9086 80 40C80 62.0914 62.0914 80 40 80Z" fill="#FAF2EE"/>
<path fill-rule="evenodd" clip-rule="evenodd" d="M52.4742 30.8264C61.789 31.8624 70.5332 34.289 77.1895 41.8048L53.8622 72.4084C45.8276 64.9439 37.1603 61.3651 28.5091 60.3458C27.5442 60.2368 26.6641 59.7429 26.0685 58.9759C19.9351 51.103 13.4524 44.8043 4.82279 40.514L25.8647 11.3794L52.4742 30.8264Z" fill="#015DFF"/>
<path fill-rule="evenodd" clip-rule="evenodd" d="M52.5804 30.7894C62.3085 30.6429 70.7878 31.791 76.4854 35.9631L53.7932 66.9996C47.5547 60.7304 37.5225 56.9508 28.405 59.0308L52.5804 30.7894ZM52.3755 30.9993C49.6207 19.2418 31.9358 12.1192 26.6135 10.1406L5.79398 39.164C14.1127 41.5028 27.8756 49.655 28.3598 58.9942L52.3755 30.9993Z" fill="white"/>
<path fill-rule="evenodd" clip-rule="evenodd" d="M62.6465 50.5286C62.8409 50.2309 63.1455 50.0226 63.4934 49.9495C63.8413 49.8764 64.204 49.9446 64.5017 50.1389C65.7425 50.9489 67.7295 52.246 68.9705 53.0561C69.2681 53.2504 69.4764 53.5551 69.5495 53.903C69.6226 54.2509 69.5544 54.6136 69.3602 54.9113C68.4656 56.2815 66.9618 58.5852 66.0673 59.9554C65.8729 60.2531 65.5683 60.4614 65.2204 60.5345C64.8725 60.6076 64.5098 60.5395 64.2121 60.3451C62.9713 59.5351 60.9843 58.238 59.7434 57.428C59.4457 57.2336 59.2374 56.929 59.1643 56.5811C59.0912 56.2332 59.1594 55.8705 59.3537 55.5728C60.2482 54.2025 61.752 51.8989 62.6465 50.5286Z" fill="#FDC82F"/>
<path fill-rule="evenodd" clip-rule="evenodd" d="M52.1485 56.9552C52.1485 56.9552 47.6198 54.163 39.5028 53.8187C39.258 53.8083 39.068 53.6014 39.0784 53.3567C39.0888 53.1119 39.2956 52.9219 39.5404 52.9323C47.937 53.2885 52.6158 56.201 52.6158 56.201C52.8241 56.3301 52.8883 56.6035 52.7593 56.8117C52.6302 57.02 52.3568 57.0842 52.1485 56.9552ZM50.7893 48.9421L56.544 50.3933C56.7815 50.4531 56.9255 50.6942 56.8656 50.9318C56.8057 51.1694 56.5646 51.3134 56.3271 51.2535L50.5723 49.8023C50.3348 49.7424 50.1907 49.5013 50.2506 49.2637C50.3105 49.0261 50.5517 48.8821 50.7893 48.9421ZM47.4462 49.4578L42.392 48.507C42.1512 48.4617 41.9928 48.2298 42.0381 47.9891C42.0834 47.7483 42.3153 47.5898 42.556 47.6352L47.6102 48.5859C47.851 48.6312 48.0094 48.8631 47.9641 49.1039C47.9188 49.3447 47.6869 49.5031 47.4462 49.4578ZM61.9719 47.5747C61.9719 47.5747 51.8257 43.8689 46.751 44.3303C46.507 44.3524 46.2913 44.1726 46.2691 43.9286C46.2469 43.6847 46.4267 43.4689 46.6707 43.4467C51.8711 42.9739 62.2751 46.741 62.2751 46.741C62.5054 46.8247 62.6242 47.0792 62.5404 47.3094C62.4567 47.5397 62.2022 47.6585 61.9719 47.5747ZM65.3355 42.6463C65.3355 42.6463 59.6532 40.9896 54.9936 40.4279C53.0638 40.1952 51.3152 40.1396 50.2585 40.5046C50.0269 40.5846 49.7744 40.4618 49.6944 40.2302C49.6144 39.9986 49.7373 39.7461 49.9688 39.6661C51.1139 39.2704 53.0084 39.2949 55.0998 39.547C59.8233 40.1165 65.5837 41.7945 65.5837 41.7945C65.819 41.8631 65.954 42.1093 65.8855 42.3445C65.8169 42.5798 65.5707 42.7148 65.3355 42.6463ZM67.5606 38.7613C67.5606 38.7613 63.9451 37.2867 59.9823 36.4351C57.3938 35.8789 54.6546 35.5769 52.7124 36.1725C52.4782 36.2443 52.2301 36.1127 52.1582 35.8784C52.0864 35.6443 52.2181 35.3962 52.4523 35.3243C54.5135 34.6923 57.4216 34.9774 60.1686 35.5677C64.2093 36.436 67.8957 37.9399 67.8957 37.9399C68.1225 38.0324 68.2314 38.2912 68.1389 38.5181C68.0463 38.745 67.7875 38.8538 67.5606 38.7613ZM30.3667 49.3555C30.3667 49.3555 22.2835 41.4128 12.7551 38.2367C12.5227 38.1591 12.397 37.9079 12.4745 37.6755C12.552 37.4431 12.8032 37.3175 13.0356 37.395C22.7469 40.6321 30.9883 48.7225 30.9883 48.7225C31.1631 48.8942 31.1657 49.175 30.994 49.3499C30.8223 49.5246 30.5415 49.5272 30.3667 49.3555ZM33.8333 44.9811C33.7036 44.8289 33.3656 44.4461 32.9791 44.1171C29.7224 41.3435 19.7655 35.1308 15.8871 34.137C15.6498 34.0762 15.5067 33.8345 15.5675 33.5972C15.6283 33.3599 15.87 33.2168 16.1073 33.2776C20.0639 34.2914 30.232 40.6121 33.5544 43.4417C34.0964 43.9033 34.4644 44.2857 34.6237 44.5437C34.911 45.0087 34.7531 45.3229 34.4844 45.4784C34.2724 45.6011 33.8044 45.0906 33.8333 44.9811ZM37.7157 39.8349L32.8876 35.8722C32.6982 35.7167 32.6707 35.4372 32.8262 35.2479C32.9816 35.0585 33.2611 35.031 33.4505 35.1864L38.2786 39.1491C38.468 39.3046 38.4955 39.5841 38.3401 39.7734C38.1847 39.9628 37.9052 39.9903 37.7157 39.8349ZM41.1992 34.758C41.1992 34.758 32.4608 26.4559 25.0238 24.2022C24.7894 24.1312 24.6569 23.8835 24.728 23.6491C24.799 23.4146 25.0467 23.2821 25.2811 23.3532C32.8752 25.6544 41.8097 34.1142 41.8097 34.1142C41.9874 34.2829 41.9949 34.5636 41.8263 34.7414C41.6577 34.9191 41.3769 34.9266 41.1992 34.758ZM30.5244 34.3141L22.7357 29.577C22.5263 29.4497 22.4598 29.1768 22.5872 28.9675C22.7144 28.7582 22.9873 28.6917 23.1967 28.819L30.9854 33.5561C31.1948 33.6834 31.2613 33.9562 31.1339 34.1656C31.0067 34.3749 30.7338 34.4414 30.5244 34.3141ZM44.9625 30.4876C44.9625 30.4876 36.2661 21.2662 27.4745 18.3976C27.2416 18.3217 27.1144 18.0713 27.1904 17.8384C27.2664 17.6055 27.5168 17.4782 27.7497 17.5542C36.7221 20.4818 45.6075 29.8784 45.6075 29.8784C45.7757 30.0566 45.7676 30.3373 45.5895 30.5055C45.4114 30.6737 45.1307 30.6657 44.9625 30.4876Z" fill="#12323E"/>
<path fill-rule="evenodd" clip-rule="evenodd" d="M18.2605 14.0997C18.0363 13.2723 17.8621 12.4716 17.7765 11.8737C17.6908 11.2758 17.7005 10.9296 17.8036 10.9114H17.8036C17.9067 10.8932 18.0945 11.2043 18.3259 11.7764C18.5574 12.3486 18.8133 13.1347 19.0376 13.9621C20.8455 20.6332 25.07 36.2205 26.878 42.8917C27.1022 43.719 27.2764 44.5197 27.362 45.1176C27.4477 45.7155 27.438 46.0616 27.3349 46.0799H27.3349C27.2318 46.0982 27.044 45.787 26.8125 45.2149C26.5811 44.6428 26.3252 43.8566 26.1009 43.0292C24.2929 36.3581 20.0685 20.7708 18.2605 14.0997Z" fill="#12323E"/>
<path fill-rule="evenodd" clip-rule="evenodd" d="M15.911 13.7169C15.7333 13.0612 15.8286 12.3853 16.176 11.8378C16.5234 11.2904 17.0944 10.9163 17.7634 10.7979C17.7634 10.7979 17.7634 10.7979 17.7635 10.7979C18.4325 10.6794 19.1447 10.8263 19.7434 11.2062C20.3421 11.5861 20.7783 12.1679 20.956 12.8237C22.8963 19.9829 28.3818 40.2233 28.3818 40.2233C28.3818 40.2233 27.6883 43.0581 27.4325 44.5853C27.4016 44.7695 27.2638 44.9127 27.0762 44.9555C26.8886 44.9984 26.6833 44.9335 26.5455 44.7878C25.3539 43.5277 23.3369 41.1166 23.3369 41.1166C23.3369 41.1166 17.8513 20.8761 15.911 13.7169Z" fill="#EC5239"/>
<path fill-rule="evenodd" clip-rule="evenodd" d="M15.8777 13.5436C15.7592 12.9433 15.8664 12.3371 16.1833 11.8378C16.5307 11.2904 17.1017 10.9163 17.7706 10.7979C17.7707 10.7979 17.7707 10.7979 17.7707 10.7979C18.4397 10.6794 19.1519 10.8263 19.7506 11.2062C20.312 11.5624 20.7305 12.0963 20.9271 12.7021C19.4608 13.5804 17.8069 13.9412 15.8777 13.5436ZM23.8661 23.5353L24.2866 25.0867C22.4418 24.7832 20.751 25.0473 19.2325 25.9461L18.8212 24.4288C20.3252 23.4757 22.0034 23.165 23.8661 23.5353ZM27.9252 38.5123L28.3457 40.0638C26.5009 39.7602 24.8102 40.0243 23.2916 40.9232L22.8803 39.4058C24.3843 38.4527 26.0625 38.142 27.9252 38.5123Z" fill="#12323E"/>
</svg>
