<svg width="44" height="44" viewBox="0 0 44 44" fill="none" xmlns="http://www.w3.org/2000/svg">
<rect width="44" height="44" rx="22" fill="#55ACEE"/>
<path d="M30.884 16.8588C30.2613 17.1349 29.5922 17.3215 28.8899 17.4055C29.6068 16.9758 30.1572 16.2953 30.4164 15.4846C29.7349 15.8891 28.9893 16.174 28.2118 16.3271C27.5784 15.6524 26.6761 15.2307 25.6775 15.2307C23.76 15.2307 22.2054 16.7853 22.2054 18.7026C22.2054 18.9747 22.2361 19.2397 22.2953 19.4939C19.4098 19.349 16.8515 17.9668 15.139 15.8663C14.8402 16.379 14.669 16.9755 14.669 17.6117C14.669 18.8163 15.282 19.8789 16.2136 20.5016C15.6622 20.4843 15.123 20.3354 14.6409 20.0673C14.6407 20.0818 14.6407 20.0964 14.6407 20.111C14.6407 21.7932 15.8375 23.1965 17.4257 23.5154C16.9145 23.6545 16.3782 23.6748 15.8578 23.5749C16.2996 24.9543 17.5819 25.958 19.1011 25.9861C17.9129 26.9173 16.4158 27.4724 14.7892 27.4724C14.5089 27.4724 14.2326 27.4559 13.9609 27.4239C15.4974 28.409 17.3224 28.9838 19.2831 28.9838C25.6694 28.9838 29.1616 23.6932 29.1616 19.1052C29.1616 18.9546 29.1583 18.8049 29.1515 18.656C29.8312 18.1647 30.4179 17.5561 30.884 16.8588Z" fill="white"/>
</svg>
