<svg width="29" height="28" viewBox="0 0 29 28" fill="none" xmlns="http://www.w3.org/2000/svg">
<g clip-path="url(#clip0_368_32034)">
<path opacity="0.5" d="M24.4158 3.16968H23.5971V23.2837C23.5971 24.62 22.5093 25.7077 21.1731 25.7077H12.8777H6.28125V26.4533C6.28125 27.3071 6.97423 28 7.82804 28H16.1204H24.4128C25.2666 28 25.9596 27.3071 25.9596 26.4533V4.71646C25.9596 3.86266 25.2696 3.16968 24.4158 3.16968Z" fill="#C6CED1"/>
<path d="M12.8792 24.8304H21.1716C22.0255 24.8304 22.7184 24.1374 22.7184 23.2837V3.16959V1.54678C22.7184 0.692982 22.0255 0 21.1716 0H12.8792H10.1219V0.511696C10.1277 0.564327 10.1307 0.619883 10.1307 0.675439V4.04678V4.91228C10.1307 6.11403 9.15409 7.09064 7.95233 7.09064H7.08683H3.71548C3.67162 7.09064 3.62484 7.08772 3.58098 7.08479H3.04297V23.2837C3.04297 24.1374 3.73595 24.8304 4.58975 24.8304H6.28566H12.8792ZM13.1921 19.5731H7.78567C7.38216 19.5731 7.05467 19.2456 7.05467 18.8421C7.05467 18.4386 7.38216 18.1111 7.78567 18.1111H13.195C13.5985 18.1111 13.926 18.4386 13.926 18.8421C13.926 19.2456 13.5956 19.5731 13.1921 19.5731ZM18.6015 15.8421H7.78567C7.38216 15.8421 7.05467 15.5146 7.05467 15.1111C7.05467 14.7076 7.38216 14.3801 7.78567 14.3801H18.6015C19.005 14.3801 19.3325 14.7076 19.3325 15.1111C19.3325 15.5146 19.005 15.8421 18.6015 15.8421ZM7.78567 10.4181H18.6015C19.005 10.4181 19.3325 10.7456 19.3325 11.1491C19.3325 11.5526 19.005 11.8801 18.6015 11.8801H7.78567C7.38216 11.8801 7.05467 11.5526 7.05467 11.1491C7.05467 10.7456 7.38216 10.4181 7.78567 10.4181Z" fill="#C6CED1"/>
<path d="M3.71613 6.21374H7.95297C7.9559 6.21374 7.96174 6.21374 7.96467 6.21374C8.67227 6.20789 9.24537 5.63479 9.25122 4.92719C9.25122 4.92427 9.25122 4.91842 9.25122 4.91549V0.675728C9.25122 0.283916 8.92958 0.0236816 8.59628 0.0236816C8.43546 0.0236816 8.27464 0.0821612 8.14014 0.216664L3.25414 5.10263C2.84478 5.51199 3.13426 6.21374 3.71613 6.21374Z" fill="#C6CED1"/>
</g>
<defs>
<clipPath id="clip0_368_32034">
<rect width="28" height="28" fill="white" transform="translate(0.5)"/>
</clipPath>
</defs>
</svg>
