<svg width="28" height="28" viewBox="0 0 28 28" fill="none" xmlns="http://www.w3.org/2000/svg">
<g clip-path="url(#clip0_368_32147)">
<path d="M23.9158 3.16968H23.0971V23.2837C23.0971 24.62 22.0093 25.7077 20.6731 25.7077H12.3777H5.78125V26.4533C5.78125 27.3071 6.47423 28 7.32804 28H15.6204H23.9128C24.7666 28 25.4596 27.3071 25.4596 26.4533V4.71646C25.4596 3.86266 24.7696 3.16968 23.9158 3.16968Z" fill="#C6CED1"/>
<path d="M12.3792 24.8304H20.6716C21.5255 24.8304 22.2184 24.1374 22.2184 23.2837V3.16959V1.54678C22.2184 0.692982 21.5255 0 20.6716 0H12.3792H9.62193V0.511696C9.62775 0.564327 9.6307 0.619883 9.6307 0.675439V4.04678V4.91228C9.6307 6.11403 8.65409 7.09064 7.45233 7.09064H6.58683H3.21548C3.17162 7.09064 3.12484 7.08772 3.08098 7.08479H2.54297V23.2837C2.54297 24.1374 3.23595 24.8304 4.08975 24.8304H5.78566H12.3792ZM12.6921 19.5731H7.28567C6.88216 19.5731 6.55467 19.2456 6.55467 18.8421C6.55467 18.4386 6.88216 18.1111 7.28567 18.1111H12.695C13.0985 18.1111 13.426 18.4386 13.426 18.8421C13.426 19.2456 13.0956 19.5731 12.6921 19.5731ZM18.1015 15.8421H7.28567C6.88216 15.8421 6.55467 15.5146 6.55467 15.1111C6.55467 14.7076 6.88216 14.3801 7.28567 14.3801H18.1015C18.505 14.3801 18.8325 14.7076 18.8325 15.1111C18.8325 15.5146 18.505 15.8421 18.1015 15.8421ZM7.28567 10.4181H18.1015C18.505 10.4181 18.8325 10.7456 18.8325 11.1491C18.8325 11.5526 18.505 11.8801 18.1015 11.8801H7.28567C6.88216 11.8801 6.55467 11.5526 6.55467 11.1491C6.55467 10.7456 6.88216 10.4181 7.28567 10.4181Z" fill="#12323E"/>
<path d="M3.21613 6.21374H7.45297C7.4559 6.21374 7.46174 6.21374 7.46467 6.21374C8.17227 6.20789 8.74537 5.63479 8.75122 4.92719C8.75122 4.92427 8.75122 4.91842 8.75122 4.91549V0.675728C8.75122 0.283916 8.42958 0.0236816 8.09628 0.0236816C7.93546 0.0236816 7.77464 0.0821612 7.64014 0.216664L2.75414 5.10263C2.34478 5.51199 2.63426 6.21374 3.21613 6.21374Z" fill="#12323E"/>
</g>
<defs>
<clipPath id="clip0_368_32147">
<rect width="28" height="28" fill="white"/>
</clipPath>
</defs>
</svg>
