<svg width="32" height="32" viewBox="0 0 32 32" fill="none" xmlns="http://www.w3.org/2000/svg">
<circle cx="16" cy="16" r="16" fill="#BEE1F4"/>
<path d="M10.472 15.432L10.104 16.712H12.776L12.408 15.432C12.2373 14.8773 12.072 14.3067 11.912 13.72C11.7627 13.1333 11.6133 12.552 11.464 11.976H11.4C11.2507 12.5627 11.1013 13.1493 10.952 13.736C10.8027 14.312 10.6427 14.8773 10.472 15.432ZM6.968 21L10.376 10.536H12.552L15.96 21H14.008L13.192 18.168H9.672L8.856 21H6.968ZM20.3379 21.192C19.6125 21.192 18.9299 21.08 18.2899 20.856C17.6605 20.6213 17.0739 20.2373 16.5299 19.704L17.5379 18.44C17.9752 18.8453 18.4125 19.1387 18.8499 19.32C19.2872 19.4907 19.7779 19.576 20.3219 19.576C20.9299 19.576 21.4365 19.432 21.8419 19.144C22.2579 18.8453 22.4659 18.4133 22.4659 17.848C22.4659 17.2933 22.2632 16.888 21.8579 16.632C21.4632 16.376 20.8819 16.248 20.1139 16.248H18.8179V14.856H19.7939C20.5619 14.856 21.1112 14.728 21.4419 14.472C21.7832 14.216 21.9539 13.848 21.9539 13.368C21.9539 12.888 21.7885 12.536 21.4579 12.312C21.1272 12.0773 20.7059 11.96 20.1939 11.96C19.7459 11.96 19.3352 12.04 18.9619 12.2C18.5885 12.3493 18.2312 12.5627 17.8899 12.84L16.9459 11.608C17.3619 11.2133 17.8525 10.904 18.4179 10.68C18.9939 10.456 19.6019 10.344 20.2419 10.344C21.3405 10.344 22.1992 10.5893 22.8179 11.08C23.4472 11.56 23.7619 12.232 23.7619 13.096C23.7619 13.6293 23.6392 14.0987 23.3939 14.504C23.1592 14.9093 22.8019 15.208 22.3219 15.4V15.464C22.8872 15.592 23.3565 15.8747 23.7299 16.312C24.1032 16.7493 24.2899 17.304 24.2899 17.976C24.2899 18.4987 24.1885 18.9627 23.9859 19.368C23.7832 19.7627 23.5005 20.0987 23.1379 20.376C22.7859 20.6427 22.3699 20.8453 21.8899 20.984C21.4099 21.1227 20.8925 21.192 20.3379 21.192Z" fill="#12323E"/>
</svg>
