<svg width="12" height="16" viewBox="0 0 12 16" fill="none" xmlns="http://www.w3.org/2000/svg">
<path fill-rule="evenodd" clip-rule="evenodd" d="M6.00062 7.00027C6.71074 7.00027 7.28641 6.42461 7.28641 5.71449C7.28641 5.00437 6.71074 4.42871 6.00062 4.42871C5.29051 4.42871 4.71484 5.00437 4.71484 5.71449C4.71484 6.42461 5.29051 7.00027 6.00062 7.00027ZM8.28641 5.71449C8.28641 6.97689 7.26303 8.00027 6.00062 8.00027C4.73822 8.00027 3.71484 6.97689 3.71484 5.71449C3.71484 4.45209 4.73822 3.42871 6.00062 3.42871C7.26303 3.42871 8.28641 4.45209 8.28641 5.71449ZM5.32089 15.2633C5.73551 15.7306 5.99959 16 5.99959 16C5.99959 16 6.26368 15.7306 6.6783 15.2633C8.19241 13.5568 11.714 9.21191 11.714 5.71444C11.714 2.55844 9.15559 0 5.99959 0C2.84363 0 0.285156 2.55844 0.285156 5.71444C0.285156 9.21191 3.80678 13.5568 5.32089 15.2633ZM5.99959 14.5212C6.0441 14.4707 6.09021 14.418 6.13781 14.3633C6.65835 13.7645 7.35079 12.9229 8.04111 11.9495C8.73333 10.9734 9.41047 9.88285 9.91152 8.7857C10.4168 7.67916 10.714 6.62828 10.714 5.71444C10.714 3.11072 8.60331 1 5.99959 1C3.39591 1 1.28516 3.11073 1.28516 5.71444C1.28516 6.62828 1.58235 7.67916 2.08767 8.7857C2.58872 9.88285 3.26586 10.9734 3.95808 11.9495C4.6484 12.9229 5.34083 13.7645 5.86138 14.3633C5.90898 14.418 5.95509 14.4707 5.99959 14.5212Z" fill="#12323E"/>
</svg>
