<svg width="15" height="15" viewBox="0 0 15 15" fill="none" xmlns="http://www.w3.org/2000/svg">
<path d="M7.87218 0H5.58107C5.27812 0 5.03196 0.24616 5.03196 0.549111C5.03196 0.852063 5.27812 1.09822 5.58107 1.09822H7.87218C8.17513 1.09822 8.4213 0.852063 8.4213 0.549111C8.4213 0.24616 8.17513 0 7.87218 0Z" fill="#12323E"/>
<path d="M13.987 3.61593L12.4911 2.12008C12.2828 1.9118 11.942 1.9118 11.7148 2.12008C11.5065 2.32837 11.5065 2.6692 11.7148 2.8964L13.1917 4.37333C13.3054 4.48695 13.4379 4.52482 13.5704 4.52482C13.703 4.52482 13.8545 4.46803 13.9491 4.37333C14.1953 4.16504 14.1953 3.82422 13.987 3.61593Z" fill="#12323E"/>
<path fill-rule="evenodd" clip-rule="evenodd" d="M0 8.5C0 4.90884 2.90885 2 6.50001 2C10.0912 2 13 4.90884 13 8.5C13 12.0912 10.0912 15 6.50001 15C2.90885 15 0 12.0912 0 8.5ZM6.50001 9.20026H9.19337C9.48066 9.20026 9.71409 8.96686 9.71409 8.69752C9.71409 8.41023 9.48066 8.1768 9.19337 8.1768H7.02073V5.30387C7.02073 5.01659 6.7873 4.78316 6.50001 4.78316C6.21273 4.78316 5.9793 5.01659 5.9793 5.30387V8.67954C5.9793 8.96683 6.21273 9.20026 6.50001 9.20026ZM6.49885 13.8181C9.436 13.8181 11.817 11.4371 11.817 8.4999C11.817 5.56275 9.436 3.18172 6.49885 3.18172C3.5617 3.18172 1.18066 5.56275 1.18066 8.4999C1.18066 11.4371 3.5617 13.8181 6.49885 13.8181Z" fill="#12323E"/>
</svg>
