<svg width="20" height="21" viewBox="0 0 20 21" fill="none" xmlns="http://www.w3.org/2000/svg">
<path d="M14.24 6.24511C13.6842 5.68664 13.0235 5.24363 12.2958 4.94157C11.5681 4.63951 10.7879 4.48438 10 4.48511V10.4851V16.4853C12.3996 16.4853 13.5996 15.3757 14.25 14.7251C14.8069 14.1681 15.2485 13.5067 15.5494 12.7787C15.8504 12.0508 16.0048 11.2707 16.0039 10.483C16.0029 9.69536 15.8467 8.91561 15.544 8.1884C15.2413 7.4612 14.7982 6.80084 14.24 6.24511ZM10 0.485107C4.48 0.485107 0 4.96511 0 10.4851C0 16.0051 4.48 20.4851 10 20.4851C15.52 20.4851 20 16.0051 20 10.4851C20 4.96511 15.52 0.485107 10 0.485107ZM10 18.4851C5.58 18.4851 2 14.9051 2 10.4851C2 6.06511 5.58 2.48511 10 2.48511C14.42 2.48511 18 6.06511 18 10.4851C18 14.9051 14.42 18.4851 10 18.4851Z" fill="#EC5239"/>
</svg>
