<svg width="14" height="15" viewBox="0 0 14 15" fill="none" xmlns="http://www.w3.org/2000/svg">
<path d="M3.5 13.3185H12.25V12.1519H3.507C3.2375 12.1449 2.91667 12.0381 2.91667 11.5685C2.91667 11.0989 3.2375 10.9922 3.507 10.9852H12.25V2.81852C12.25 2.17511 11.7267 1.65186 11.0833 1.65186H3.5C2.7965 1.65186 1.75 2.11794 1.75 3.40186V11.5685C1.75 12.8524 2.7965 13.3185 3.5 13.3185ZM2.91667 5.15186V3.40186C2.91667 2.93227 3.2375 2.82552 3.5 2.81852H11.0833V9.81852H2.91667V5.15186Z" fill="#EC5239"/>
<path d="M4.66602 3.98511H9.91601V5.15177H4.66602V3.98511Z" fill="#EC5239"/>
</svg>
