<svg width="12" height="13" viewBox="0 0 12 13" fill="none" xmlns="http://www.w3.org/2000/svg">
<path d="M5.83333 12.1518C2.61158 12.1518 0 9.54019 0 6.31844C0 3.09669 2.61158 0.485107 5.83333 0.485107C9.05508 0.485107 11.6667 3.09669 11.6667 6.31844C11.6632 9.53844 9.05333 12.1483 5.83333 12.1518ZM1.16667 6.41877C1.17993 7.65203 1.68084 8.8299 2.55994 9.69494C3.43904 10.56 4.62483 11.0418 5.85815 11.0352C7.09146 11.0286 8.272 10.534 9.14175 9.65956C10.0115 8.78512 10.4997 7.60194 10.4997 6.36861C10.4997 5.13528 10.0115 3.95209 9.14175 3.07766C8.272 2.20322 7.09146 1.70864 5.85815 1.70201C4.62483 1.69538 3.43904 2.17724 2.55994 3.04228C1.68084 3.90732 1.17993 5.08518 1.16667 6.31844V6.41877Z" fill="#59C676"/>
<path d="M1.16667 6.41877C1.17993 7.65203 1.68084 8.8299 2.55994 9.69494C3.43904 10.56 4.62483 11.0418 5.85815 11.0352C7.09146 11.0286 8.272 10.534 9.14175 9.65956C10.0115 8.78512 10.4997 7.60194 10.4997 6.36861C10.4997 5.13528 10.0115 3.95209 9.14175 3.07766C8.272 2.20322 7.09146 1.70864 5.85815 1.70201C4.62483 1.69538 3.43904 2.17724 2.55994 3.04228C1.68084 3.90732 1.17993 5.08518 1.16667 6.31844V6.41877Z" fill="#59C676"/>
<path d="M8.18873 3.31836L5.04676 7.46077L3.18917 5.60452L2.33203 6.46166L5.18873 9.31836L9.18917 4.1755L8.18873 3.31836Z" fill="white"/>
</svg>
