<svg width="24" height="23" viewBox="0 0 24 23" fill="none" xmlns="http://www.w3.org/2000/svg">
<path d="M11.5245 1.94863C11.6741 1.48798 12.3259 1.48798 12.4755 1.94863L14.5819 8.43141C14.6488 8.63742 14.8408 8.7769 15.0574 8.7769H21.8738C22.3582 8.7769 22.5596 9.39671 22.1677 9.68141L16.6531 13.688C16.4779 13.8153 16.4046 14.041 16.4715 14.247L18.5779 20.7298C18.7276 21.1904 18.2003 21.5735 17.8085 21.2888L12.2939 17.2822C12.1186 17.1549 11.8814 17.1549 11.7061 17.2822L6.19153 21.2888C5.79967 21.5735 5.27243 21.1904 5.42211 20.7298L7.52849 14.247C7.59542 14.041 7.5221 13.8153 7.34685 13.688L1.83227 9.68141C1.44041 9.39671 1.6418 8.7769 2.12616 8.7769H8.94256C9.15917 8.7769 9.35115 8.63742 9.41809 8.43141L11.5245 1.94863Z" stroke="#FF9B26" stroke-width="2"/>
</svg>
