<svg width="14" height="15" viewBox="0 0 14 15" fill="none" xmlns="http://www.w3.org/2000/svg">
<path d="M7 1.36011C3.61758 1.36011 0.875 4.10269 0.875 7.48511C0.875 10.8675 3.61758 13.6101 7 13.6101C10.3824 13.6101 13.125 10.8675 13.125 7.48511C13.125 4.10269 10.3824 1.36011 7 1.36011ZM7 12.571C4.1918 12.571 1.91406 10.2933 1.91406 7.48511C1.91406 4.6769 4.1918 2.39917 7 2.39917C9.8082 2.39917 12.0859 4.6769 12.0859 7.48511C12.0859 10.2933 9.8082 12.571 7 12.571Z" fill="#59C676"/>
<path d="M9.38846 9.21594L7.43886 7.80638V4.42261C7.43886 4.36245 7.38964 4.31323 7.32949 4.31323H6.67187C6.61172 4.31323 6.5625 4.36245 6.5625 4.42261V8.18782C6.5625 8.22337 6.57891 8.25618 6.60762 8.27669L8.86893 9.92551C8.91815 9.96105 8.98651 9.95012 9.02206 9.90227L9.41307 9.36906C9.44862 9.31848 9.43768 9.25012 9.38846 9.21594Z" fill="#59C676"/>
</svg>
