<svg width="13" height="13" viewBox="0 0 13 13" fill="none" xmlns="http://www.w3.org/2000/svg">
<path d="M6.83138 12.1518C3.60963 12.1518 0.998047 9.54019 0.998047 6.31844C0.998047 3.09669 3.60963 0.485107 6.83138 0.485107C10.0531 0.485107 12.6647 3.09669 12.6647 6.31844C12.6612 9.53844 10.0514 12.1483 6.83138 12.1518ZM2.16471 6.41877C2.17797 7.65203 2.67889 8.8299 3.55799 9.69494C4.43709 10.56 5.62288 11.0418 6.85619 11.0352C8.08951 11.0286 9.27005 10.534 10.1398 9.65956C11.0096 8.78512 11.4978 7.60194 11.4978 6.36861C11.4978 5.13528 11.0096 3.95209 10.1398 3.07766C9.27005 2.20322 8.08951 1.70864 6.85619 1.70201C5.62288 1.69538 4.43709 2.17724 3.55799 3.04228C2.67889 3.90732 2.17797 5.08518 2.16471 6.31844V6.41877ZM5.66471 8.94344V3.69344L9.16471 6.31844L5.66471 8.94344Z" fill="#EC5239"/>
</svg>
