<svg width="16" height="16" viewBox="0 0 16 16" xmlns="http://www.w3.org/2000/svg">
<path d="M8.00005 9.7C7.56996 9.7 7.19846 10.0084 7.11806 10.424C6.94086 11.2816 8.00585 11.8702 8.63605 11.2359C9.20164 10.6737 8.80035 9.7 8.00005 9.7ZM8.00005 4.5C7.50296 4.5 7.10006 4.9029 7.10006 5.4V7.5667C7.10006 8.0638 7.50296 8.4667 8.00005 8.4667C8.49715 8.4667 8.90005 8.0638 8.90005 7.5667V5.4C8.90005 4.9029 8.49715 4.5 8.00005 4.5ZM16 6.0532V9.9468C16 10.8282 15.6567 11.657 15.0334 12.2803L12.2802 15.0335C11.657 15.6567 10.8282 16 9.94684 16H6.05316C5.17177 16 4.34297 15.6567 3.71978 15.0335L0.966596 12.2803C0.3433 11.657 0 10.8282 0 9.9468V6.0532C0 5.1718 0.3433 4.343 0.966596 3.7197L3.71978 0.9665C4.34297 0.3433 5.17177 0 6.05316 0H9.94684C10.8282 0 11.657 0.3433 12.2802 0.9665L15.0334 3.7197C15.6567 4.343 16 5.1717 16 6.0532ZM14.2 6.0532C14.2 5.6525 14.044 5.2759 13.7607 4.9926L11.0075 2.2394C10.7242 1.9561 10.3475 1.8 9.94694 1.8H6.05327C5.65267 1.8 5.27597 1.9561 4.99267 2.2394L2.23939 4.9925C1.95609 5.2758 1.80009 5.6525 1.80009 6.0532V9.9468C1.80009 10.3475 1.95609 10.7241 2.23939 11.0074L4.99257 13.7606C5.27587 14.0439 5.65257 14.2 6.05316 14.2H9.94684C10.3474 14.2 10.7241 14.0439 11.0074 13.7606L13.7606 11.0074C14.0439 10.7241 14.1999 10.3474 14.1999 9.9468V6.0532H14.2Z" />
</svg>
