<svg width="58" height="58" viewBox="0 0 58 58" fill="none" xmlns="http://www.w3.org/2000/svg">
<rect width="56.8889" height="56.8889" transform="translate(0.46875 0.375)" fill="#EBFBEC"/>
<path d="M36.7226 33.5393V33.7408L36.8954 33.8443L42.5298 37.22L42.7126 36.915L42.5298 37.22C43.4935 37.7973 44.7159 37.1012 44.7159 35.9789V25.5399C44.7159 24.4176 43.4935 23.7215 42.5298 24.2988L36.8954 27.6745L36.7226 27.778V27.9795V33.5393Z" fill="white" stroke="#12323E" stroke-width="0.711111"/>
<path opacity="0.12" d="M44.3632 33.1832V35.9778C44.3632 36.8231 43.4387 37.3461 42.7149 36.9129L37.0781 33.5372V30.7478L42.7149 34.1236C43.4387 34.5568 44.3632 34.0338 44.3632 33.1832Z" fill="#969696"/>
<path d="M44.3632 25.543V26.8426C44.3632 25.992 43.4387 25.469 42.7149 25.9022L37.0781 29.278V27.9837L42.7149 24.6079C43.4387 24.1695 44.3632 24.6925 44.3632 25.543Z" fill="#FBFBFB"/>
<path d="M23.7578 37.4894H23.4023V37.845V39.5351C23.4023 40.315 24.0345 40.9472 24.8144 40.9472H28.702C29.4819 40.9472 30.1142 40.315 30.1142 39.5351V37.845V37.4894H29.7586H23.7578Z" fill="#015DFF" stroke="#12323E" stroke-width="0.711111"/>
<path d="M29.7667 37.845V39.5355C29.7667 40.1166 29.2913 40.5921 28.7102 40.5921H24.822C24.299 40.5921 23.8605 40.2064 23.7812 39.6993C23.8341 39.7045 23.8869 39.7098 23.9397 39.7098H27.8279C28.409 39.7098 28.8845 39.2344 28.8845 38.6533V37.845H29.7667Z" fill="#015DFF"/>
<path d="M25.897 37.845H23.7578V38.5636H24.9422C25.385 38.5636 25.7745 38.2705 25.897 37.845Z" fill="#FFED91"/>
<path d="M35.4446 23.3166H18.0629C16.9639 23.3166 16.0741 24.2088 16.0741 25.3081V36.2072C16.0741 37.3065 16.9639 38.1987 18.0629 38.1987H35.4446C36.5435 38.1987 37.4333 37.3065 37.4333 36.2072V25.3081C37.4333 24.2088 36.5435 23.3166 35.4446 23.3166Z" fill="white" stroke="#12323E" stroke-width="0.711111"/>
<path opacity="0.12" d="M37.0739 25.3077V36.2056C37.0739 37.109 36.3449 37.8432 35.4416 37.8432H18.062C17.1587 37.8432 16.4297 37.109 16.4297 36.2056V35.5612H33.1595C34.0628 35.5612 34.7918 34.8269 34.7918 33.9236V23.6702H35.4415C36.3449 23.6702 37.0739 24.4044 37.0739 25.3077Z" fill="#969696"/>
<path d="M24.4269 23.6702H18.0621C17.1605 23.6702 16.4297 24.401 16.4297 25.3026V26.6814C16.4297 25.778 17.1587 25.0437 18.0621 25.0437H23.0534C23.812 25.0437 24.4269 24.4287 24.4269 23.6702Z" fill="#FBFBFB"/>
<path d="M30.733 27.2363H18.6094V34.2779H30.733V27.2363Z" fill="#59C676"/>
<path d="M30.7336 27.2344V34.2764H18.6094V32.6493H23.6915C26.6821 32.6493 29.1064 30.225 29.1064 27.2344V27.2344H30.7336Z" fill="#47B865"/>
<path d="M33.8001 29.9423C34.4059 29.9423 34.8971 29.4502 34.8971 28.8432C34.8971 28.2362 34.4059 27.7441 33.8001 27.7441C33.1943 27.7441 32.7031 28.2362 32.7031 28.8432C32.7031 29.4502 33.1943 29.9423 33.8001 29.9423Z" fill="#015DFF"/>
<path d="M33.8001 33.7741C34.4059 33.7741 34.8971 33.282 34.8971 32.675C34.8971 32.068 34.4059 31.5759 33.8001 31.5759C33.1943 31.5759 32.7031 32.068 32.7031 32.675C32.7031 33.282 33.1943 33.7741 33.8001 33.7741Z" fill="#015DFF"/>
<path d="M21.0649 24.029C23.5364 24.029 25.54 22.0254 25.54 19.5539C25.54 17.0824 23.5364 15.0788 21.0649 15.0788C18.5933 15.0788 16.5898 17.0824 16.5898 19.5539C16.5898 22.0254 18.5933 24.029 21.0649 24.029Z" fill="#EC5239" stroke="#12323E" stroke-width="0.711111"/>
<path d="M25.1841 19.557C25.1841 21.8286 23.3404 23.6723 21.0635 23.6723C19.6582 23.6723 18.4168 22.9697 17.6719 21.8973C18.3375 22.3622 19.1511 22.6369 20.028 22.6369C22.2997 22.6369 24.1434 20.7932 24.1434 18.5162C24.1434 17.6446 23.8739 16.8363 23.4091 16.1707C24.4815 16.9102 25.1841 18.1517 25.1841 19.557Z" fill="#D5202A"/>
<path d="M31.0328 24.9016C33.9785 24.9016 36.3664 22.5136 36.3664 19.5679C36.3664 16.6222 33.9785 14.2343 31.0328 14.2343C28.0871 14.2343 25.6991 16.6222 25.6991 19.5679C25.6991 22.5136 28.0871 24.9016 31.0328 24.9016Z" fill="#EC5239" stroke="#12323E" stroke-width="0.711111"/>
<path d="M36.0106 19.5661C36.0106 22.3187 33.7816 24.5477 31.029 24.5477C29.2217 24.5477 27.6368 23.5838 26.7656 22.1473C27.521 22.6061 28.4014 22.8656 29.3468 22.8656C32.0995 22.8656 34.3285 20.6366 34.3285 17.8839C34.3285 16.9386 34.069 16.0581 33.6102 15.3027C35.0467 16.1739 36.0106 17.7588 36.0106 19.5661Z" fill="#D5202A"/>
<path d="M18.7148 19.5519C18.7148 20.8546 19.7742 21.914 21.0769 21.914C22.3796 21.914 23.4391 20.8546 23.4391 19.5519C23.4391 18.2489 22.3797 17.1894 21.0769 17.1894C19.7742 17.1894 18.7148 18.2489 18.7148 19.5519ZM27.6318 19.4136C27.6318 21.2032 29.0871 22.6588 30.8768 22.6588C32.6665 22.6588 34.122 21.2032 34.122 19.4136C34.122 17.6239 32.6664 16.1686 30.8768 16.1686C29.0872 16.1686 27.6318 17.624 27.6318 19.4136Z" fill="white" stroke="#12323E" stroke-width="0.711111"/>
<path opacity="0.12" d="M33.894 19.7724C33.894 21.232 32.7099 22.4161 31.2503 22.4161C30.2354 22.4161 29.3509 21.8409 28.9062 21C29.2736 21.1933 29.694 21.3045 30.1387 21.3045C31.5983 21.3045 32.7824 20.1203 32.7824 18.6656C32.7824 18.2209 32.6761 17.8053 32.4779 17.438C33.3189 17.873 33.894 18.7574 33.894 19.7724Z" fill="#969696"/>
<path d="M33.1633 17.8509C32.7048 17.5083 32.1405 17.3067 31.5258 17.3067C30.0092 17.3067 28.7697 18.5412 28.7697 20.0628C28.7697 20.6775 28.9763 21.2469 29.3239 21.7054C28.6387 21.2066 28.1953 20.3954 28.1953 19.4834C28.1953 17.9668 29.4298 16.7273 30.9514 16.7273C31.8583 16.7273 32.6695 17.1707 33.1633 17.8509Z" fill="#FBFBFB"/>
<path d="M23.3563 45.196L26.2613 40.9697H27.3188L30.2126 45.196C30.3339 45.3779 30.406 45.6028 30.2244 45.7243C30.0421 45.8461 29.7838 45.6877 29.6627 45.5061L26.7237 41.1075L23.8201 45.5249C23.7001 45.7068 23.5415 45.8447 23.3574 45.7243C23.1748 45.6041 23.2361 45.3789 23.3563 45.196Z" fill="#12323E"/>
</svg>
