<svg width="58" height="58" viewBox="0 0 58 58" fill="none" xmlns="http://www.w3.org/2000/svg">
<rect width="56.8889" height="56.8889" transform="translate(0.1875 0.373047)" fill="#E4F2FF"/>
<path d="M27.9678 41.8576C35.039 41.8576 40.7714 36.1402 40.7714 29.0875C40.7714 22.0348 35.039 16.3174 27.9678 16.3174C20.8965 16.3174 15.1641 22.0348 15.1641 29.0875C15.1641 36.1402 20.8965 41.8576 27.9678 41.8576Z" fill="#015DFF"/>
<path d="M40.7713 29.0875C40.7713 22.0347 35.0389 16.3174 27.9676 16.3174C26.3371 16.3174 24.7781 16.622 23.3438 17.1763C23.8542 17.1145 24.3737 17.082 24.9009 17.082C31.9721 17.082 37.7045 22.7994 37.7045 29.8522C37.7045 35.2786 34.3107 39.9139 29.5248 41.7634C35.8615 40.997 40.7713 35.6144 40.7713 29.0875Z" fill="#0555E1"/>
<path d="M17.683 23.3081C17.8665 24.0402 18.5597 24.7967 19.1613 25.2544C19.4217 25.4525 19.665 25.7886 19.7241 26.3586C19.8632 27.6998 20.7442 28.0698 20.7442 28.0698C20.1351 28.9155 19.7406 29.2919 20.1285 30.9484C20.222 31.3479 20.5697 31.6882 20.863 32.0471C20.8842 32.0731 20.905 32.099 20.9252 32.1249C21.5008 32.8612 21.7324 33.8063 21.5987 34.7304C21.506 35.372 21.4571 36.6508 22.3931 37.228C22.9702 37.5838 22.464 39.3803 24.2687 39.2924C24.4467 39.2837 24.5843 39.1324 24.5787 38.9548L24.5498 38.0479C24.5302 37.7361 24.794 37.3828 24.6523 37.0115C24.3556 36.2339 24.9083 35.3912 25.7822 35.4791C26.0156 35.5026 26.3551 35.4115 26.3551 34.6831C26.3551 33.5731 27.3289 34.0356 27.3289 34.0356C27.3289 34.0356 27.4239 33.0874 28.4417 32.6019C29.5083 32.0931 28.8591 29.6882 27.5143 29.9195C27.5143 29.9195 27.375 29.4029 26.8807 29.2786C26.2914 29.1303 25.7881 28.7484 25.5361 28.1968C25.5308 28.1853 25.5256 28.1737 25.5204 28.162C24.7914 26.5263 22.7846 27.0058 22.7846 27.0058C22.4303 26.7649 22.1152 26.7192 21.8548 26.7621C21.7026 26.7872 21.5706 26.6551 21.59 26.5025C21.6427 26.0906 21.4046 25.6968 21.0149 25.551C20.8577 25.4922 20.6088 25.1129 20.4688 24.6543C20.104 23.4595 21.7358 22.7131 22.4064 23.768C23.0003 23.4005 23.309 22.7084 23.1849 22.0223L23.9132 21.2621C24.1456 21.0196 24.4674 20.8823 24.8037 20.8823C25.3727 20.8823 25.8676 20.4936 26.001 19.942C26.0599 19.6983 25.8554 19.4714 25.6062 19.5041L25.5271 19.5144C25.2148 19.5552 25.0055 19.2031 25.1913 18.9495L25.451 18.5952C25.5376 18.477 25.6686 18.399 25.8141 18.3791C26.7941 18.2447 27.3197 17.1786 26.7475 16.374C22.9884 16.7286 19.7029 18.7039 17.6006 21.5922C17.5271 22.1242 17.533 22.7101 17.683 23.3081ZM39.5231 23.5803L39.5129 23.5744C39.5129 23.5744 37.0797 20.3893 34.3176 22.0709C33.8512 22.3549 33.5112 23.0367 33.5585 23.5797C33.5889 23.9286 33.325 24.2239 32.9754 24.2572C32.547 24.2982 32.1996 24.6589 31.9865 25.1601C31.2776 26.827 32.5451 28.671 34.3606 28.671C35.1371 28.6339 36.1112 28.8923 36.1112 29.848C36.1112 30.017 36.1492 30.1838 36.2223 30.3362C36.4587 30.7849 36.5712 31.2733 36.3408 31.7558C35.9958 32.4784 36.4048 33.297 36.0407 34.0616C35.9282 34.2978 35.8607 34.5528 35.8371 34.8133C35.7482 35.7946 36.307 36.7204 37.2181 37.1014L37.7503 37.3239C39.6346 35.1001 40.7713 32.2258 40.7713 29.0862C40.7714 27.1146 40.3231 25.2475 39.5231 23.5803Z" fill="#59C676"/>
<path d="M39.5233 23.5822L39.5132 23.5763C39.5132 23.5763 37.3816 20.7862 34.8438 21.8076C36.6323 24.0037 37.7049 26.8033 37.7049 29.8532C37.7049 32.1094 37.1175 34.2284 36.0881 36.0679C36.3272 36.523 36.7194 36.8955 37.2184 37.1041L37.7506 37.3267C39.6351 35.1028 40.7718 32.2283 40.7718 29.0884C40.7718 27.1167 40.3234 25.2494 39.5233 23.5822Z" fill="#51BA6C"/>
<path d="M41.0059 28.3984C40.9283 28.3384 40.8361 28.3126 40.7451 28.3151C40.7605 28.5714 40.7692 28.8294 40.7692 29.0894C40.7692 29.142 40.7678 29.1942 40.7672 29.2466C44.9454 32.5372 47.0098 35.6834 46.1623 37.4961C44.9173 40.1581 39.7423 39.2708 37.5798 38.9088C33.2976 38.1919 29.1391 36.6881 25.2129 34.8624C21.3938 33.0865 17.9295 31.0073 15.1651 28.837C13.6577 27.6537 12.1967 26.3498 11.0298 24.82C10.1815 23.7079 9.0533 21.988 9.72439 20.5527C10.5776 18.7278 14.3662 18.2887 19.6345 19.3928C19.851 19.2077 20.0733 19.0292 20.302 18.8585C20.2485 18.7523 20.1508 18.6694 20.0255 18.6424C14.0757 17.3569 10.0519 17.9277 8.98556 20.2082C8.62288 20.9839 8.62999 21.9013 9.00663 22.935C9.76282 25.0102 11.9989 27.4652 15.187 29.8793C17.8517 31.897 21.1813 33.8861 24.8687 35.6009C28.8276 37.4418 33.0164 38.9521 37.3304 39.692C39.9728 40.1451 45.4334 40.9796 46.9012 37.8407C47.9678 35.5595 45.8192 32.1178 41.0059 28.3984Z" fill="#12323E"/>
<path d="M46.13 37.4437C47.7638 37.4437 49.0882 36.1247 49.0882 34.4977C49.0882 32.8707 47.7638 31.5518 46.13 31.5518C44.4963 31.5518 43.1719 32.8707 43.1719 34.4977C43.1719 36.1247 44.4963 37.4437 46.13 37.4437Z" fill="#EC5239"/>
<path d="M49.0814 34.4977C49.0814 32.8707 47.7569 31.5518 46.1232 31.5518C45.8815 31.5518 45.6467 31.5813 45.4219 31.6358L45.9064 32.0798C46.5567 32.6758 46.8894 33.5413 46.8052 34.418C46.7141 35.367 47.1124 36.2937 47.8564 36.8844C48.5984 36.3492 49.0814 35.4799 49.0814 34.4977Z" fill="#E34127"/>
<path d="M18.6945 13.5649L19.9686 14.232L19.7253 12.819L20.7561 11.8184L19.3316 11.6122L18.6945 10.3267L18.0574 11.6122L16.6328 11.8184L17.6636 12.819L17.4203 14.232L18.6945 13.5649Z" fill="#FDC82F"/>
<path d="M38.296 46.6372L39.5702 47.3043L39.3269 45.8913L40.3577 44.8907L38.9332 44.6845L38.296 43.3989L37.6589 44.6845L36.2344 44.8907L37.2652 45.8913L37.0219 47.3043L38.296 46.6372Z" fill="#FDC82F"/>
</svg>
