<svg width="58" height="58" viewBox="0 0 58 58" fill="none" xmlns="http://www.w3.org/2000/svg">
<rect width="56.8889" height="56.8889" transform="translate(0.335938 0.375)" fill="#ECE9FB"/>
<g clip-path="url(#clip0_910_48094)">
<path d="M25.8914 43.7717C25.7906 43.6708 25.6828 43.5816 25.5724 43.4976C26.6037 42.2848 26.5489 40.4646 25.4035 39.3191C25.1445 39.0602 24.8498 38.8603 24.5366 38.7126C25.2503 37.5263 25.0991 35.965 24.0759 34.9418C23.0527 33.9187 21.4915 33.7673 20.3051 34.4811C20.1574 34.1679 19.9575 33.8732 19.6986 33.6143C18.5532 32.4689 16.7329 32.4141 15.5201 33.4454C15.4361 33.3349 15.3468 33.2271 15.246 33.1263C14.0405 31.9208 12.0861 31.9208 10.8806 33.1263C9.67521 34.3317 9.67521 36.2862 10.8806 37.4916L21.5261 48.137C22.7316 49.3425 24.686 49.3424 25.8914 48.137C27.0969 46.9315 27.0969 44.9771 25.8914 43.7717Z" fill="white"/>
<path d="M30.609 41.5396L30.6095 41.5399C31.5088 42.1143 32.7165 42.0109 33.5013 41.2261L33.2498 40.9747L33.5013 41.2261L36.7371 37.9902C38.26 36.4673 38.6705 34.254 37.9646 32.3579L37.7876 31.8824L37.4011 32.2111C34.8835 34.3518 31.8228 35.8949 28.406 36.6692L28.458 36.8984L28.1283 37.1376L30.0364 40.8947L30.0369 40.8958C30.1642 41.1442 30.3562 41.3775 30.609 41.5396Z" fill="#EC5239" stroke="#12323E" stroke-width="0.711111"/>
<path d="M36.4856 37.739L33.2498 40.9748C32.586 41.6387 31.5631 41.7272 30.8009 41.2404C30.6091 41.1174 30.4566 40.9355 30.3534 40.7338L28.4453 36.9768L28.4846 37.0161C28.8436 36.9325 29.2026 36.8391 29.5567 36.7407L30.5205 38.6389C30.6238 38.8406 30.7763 39.0225 30.9681 39.1454C31.7303 39.6323 32.7532 39.5438 33.4171 38.8799L36.6529 35.6441C37.2578 35.0393 37.6708 34.3213 37.897 33.564C38.0937 35.049 37.6265 36.5981 36.4856 37.739Z" fill="#F26650"/>
<path d="M22.2289 30.7096L22.4581 30.7616C23.2324 27.3448 24.7755 24.2842 26.9162 21.7665L27.2449 21.38L26.7694 21.203C24.8733 20.4972 22.66 20.9076 21.137 22.4306L17.9012 25.6664C17.1165 26.4511 17.013 27.6588 17.5875 28.5581L17.5874 28.5581L17.5878 28.5586C17.7498 28.8114 17.9831 29.0035 18.2315 29.1307L18.2326 29.1313L21.9897 31.0393L22.2289 30.7096Z" fill="#EC5239" stroke="#12323E" stroke-width="0.711111"/>
<path d="M21.3884 22.6826L18.1526 25.9184C17.4888 26.5822 17.4002 27.6051 17.8871 28.3673C18.0101 28.5591 18.192 28.7116 18.3936 28.8148L22.1507 30.7229L22.1114 30.6836C22.1949 30.3246 22.2884 29.9656 22.3867 29.6115L20.4885 28.6477C20.2869 28.5444 20.105 28.392 19.982 28.2002C19.4951 27.4379 19.5837 26.4151 20.2476 25.7512L23.4834 22.5154C24.0883 21.9105 24.8062 21.4975 25.5635 21.2712C24.0784 21.0745 22.5293 21.5417 21.3884 22.6826Z" fill="#F26650"/>
<path d="M28.1047 37.0167C32.1641 36.1 35.7246 34.1173 38.4981 31.3439C42.7048 27.1371 45.1137 21.1323 44.7074 14.3198C33.3928 13.6503 24.3095 20.7073 22.0078 30.9199L28.1047 37.0167Z" fill="white" stroke="#12323E" stroke-width="0.711111"/>
<path d="M21.527 48.1366C22.7317 49.3413 24.6888 49.3413 25.8936 48.1366C27.0983 46.9318 27.0983 44.9747 25.8936 43.77C25.7953 43.6717 25.6871 43.5832 25.574 43.4996C26.6116 42.285 26.5526 40.4656 25.4069 39.3199C25.1462 39.0592 24.8512 38.8625 24.5414 38.7101C25.2544 37.525 25.102 35.9662 24.0792 34.9434C23.4694 34.3336 22.6679 34.0337 21.8762 34.0485C21.8369 34.1173 21.7926 34.2009 21.7484 34.2746C22.0631 34.4221 22.3532 34.6238 22.6138 34.8844C23.7595 36.0301 23.8136 37.8446 22.7859 39.0592C22.8941 39.1477 23.0022 39.2362 23.1006 39.3345C24.3054 40.5393 24.3103 42.4915 23.1006 43.7011C21.8958 44.9059 20.5096 44.3351 19.3048 43.1303L10.3215 33.8974C10.0002 34.9641 9.45313 35.5759 10.881 37.4906L21.527 48.1366Z" fill="#F2F2F2"/>
<path opacity="0.12" d="M38.493 31.3419C35.7197 34.1153 32.1546 36.0969 28.0978 37.0165L22.1953 30.8451C22.3428 30.1862 22.5309 29.8432 22.7375 29.2138L27.3357 33.7957C31.3924 32.8761 34.9526 30.8994 37.726 28.126C41.2664 24.5855 43.5284 19.7764 43.9169 14.2837C44.1775 14.2886 44.4381 14.3033 44.6987 14.3181C45.1068 21.1286 42.6974 27.1376 38.493 31.3419Z" fill="#969696"/>
<path d="M43.6821 21.874C44.3412 19.4907 44.8678 17.0185 44.707 14.3202C42.0078 14.1605 39.5397 14.6904 37.1562 15.3481L43.6821 21.874Z" fill="#EC5239"/>
<path d="M43.6799 21.8741L42.3203 20.5146C42.8662 18.5426 43.327 16.473 43.3122 14.2846C43.7794 14.2797 44.2367 14.2945 44.7039 14.3191C44.8662 17.0188 44.3438 19.4891 43.6799 21.8741Z" fill="#F26650"/>
<path d="M33.8875 28.2575C35.616 28.2575 37.0172 26.8562 37.0172 25.1278C37.0172 23.3993 35.616 21.998 33.8875 21.998C32.159 21.998 30.7578 23.3993 30.7578 25.1278C30.7578 26.8562 32.159 28.2575 33.8875 28.2575Z" fill="#015DFF"/>
<path d="M33.8922 28.8037C32.9108 28.8037 31.9883 28.4216 31.2947 27.7278C30.6008 27.0342 30.2188 26.1117 30.2188 25.1305C30.2188 24.1491 30.6008 23.2266 31.2947 22.533C31.9886 21.8391 32.9111 21.457 33.8922 21.457C34.8734 21.457 35.7959 21.8391 36.4895 22.533C37.1833 23.2266 37.5654 24.1491 37.5654 25.1305C37.5654 26.1117 37.1833 27.0342 36.4895 27.7278C35.7958 28.4216 34.8734 28.8037 33.8922 28.8037ZM33.8922 22.5447C33.2016 22.5447 32.5523 22.8137 32.0637 23.3021C31.5754 23.7904 31.3064 24.4396 31.3064 25.1306C31.3064 25.8212 31.5754 26.4705 32.0637 26.9588C32.5521 27.4471 33.2013 27.7161 33.8922 27.7161C34.5829 27.7161 35.2322 27.4471 35.7205 26.9588C36.2088 26.4704 36.4778 25.8212 36.4778 25.1306C36.4778 24.4396 36.2088 23.7904 35.7205 23.3021C35.2321 22.8138 34.5829 22.5447 33.8922 22.5447Z" fill="#EC5239"/>
<path d="M26.2802 35.1989C28.0801 33.399 28.9887 31.3895 28.3098 30.7105C27.6308 30.0316 25.6213 30.9403 23.8214 32.7402C22.0216 34.5401 21.1129 36.5497 21.7919 37.2286C22.4709 37.9076 24.4804 36.9989 26.2802 35.1989Z" fill="#015DFF"/>
<path d="M28.1889 23.72C28.1018 23.72 28.0139 23.6921 27.9398 23.6348C27.7614 23.497 27.7287 23.241 27.8665 23.0628C28.3015 22.4998 28.7659 21.9547 29.2465 21.4422C29.4005 21.2778 29.6586 21.2701 29.823 21.4239C29.9871 21.5779 29.9956 21.836 29.8413 22.0004C29.3785 22.494 28.9311 23.0192 28.5118 23.5615C28.4316 23.6656 28.3108 23.72 28.1889 23.72ZM31.1404 20.5919C31.0262 20.5919 30.9128 20.5444 30.8321 20.4514C30.6844 20.2815 30.7025 20.0239 30.8727 19.876C31.4144 19.4055 31.9832 18.9581 32.5629 18.5465C32.7458 18.4159 33.0013 18.4589 33.1314 18.6429C33.2617 18.8263 33.2187 19.081 33.035 19.2114C32.4771 19.6078 31.9293 20.0388 31.4075 20.4921C31.3302 20.559 31.2352 20.5919 31.1404 20.5919Z" fill="white"/>
</g>
<defs>
<clipPath id="clip0_910_48094">
<rect width="36.9778" height="36.9778" fill="white" transform="translate(8.88281 13.175)"/>
</clipPath>
</defs>
</svg>
