<svg width="20" height="22" viewBox="0 0 20 22" fill="none" xmlns="http://www.w3.org/2000/svg">
<path fill-rule="evenodd" clip-rule="evenodd" d="M1.5 14C1.10218 14 0.720644 13.842 0.43934 13.5607C0.158035 13.2794 0 12.8978 0 12.5V1.5C0 1.10218 0.158035 0.720644 0.43934 0.43934C0.720644 0.158035 1.10218 0 1.5 0H18.5C18.8978 0 19.2794 0.158035 19.5607 0.43934C19.842 0.720644 20 1.10218 20 1.5V12.5C20 12.8978 19.842 13.2794 19.5607 13.5607C19.2794 13.842 18.8978 14 18.5 14H1.5ZM1 1.5C1 1.36739 1.05268 1.24022 1.14645 1.14645C1.24021 1.05268 1.36739 1 1.5 1H18.5C18.6326 1 18.7598 1.05268 18.8536 1.14645C18.9473 1.24022 19 1.36739 19 1.5V3H1V1.5ZM1.5 13C1.36739 13 1.24021 12.9473 1.14645 12.8536C1.05268 12.7598 1 12.6326 1 12.5V7H19V12.5C19 12.6326 18.9473 12.7598 18.8536 12.8536C18.7598 12.9473 18.6326 13 18.5 13H1.5Z" fill="#EC5239"/>
<path d="M11.9007 13.9998H9.10042V17.3448L7 17.3447L7.00054 17.9187L10.5043 21.4785L14 17.9129V17.345L11.9007 17.3449V13.9998ZM9.56714 14.4745H11.434V17.8197L13.4322 17.8198L10.5037 20.8069L7.56334 17.8194L9.56714 17.8196V14.4745Z" fill="#59C676"/>
<path d="M9.56714 14.4745H11.434V17.8197L13.4322 17.8198L10.5037 20.8069L7.56334 17.8194L9.56714 17.8196V14.4745Z" fill="#59C676"/>
</svg>
