<?xml version="1.0" standalone="no"?>
<!DOCTYPE svg PUBLIC "-//W3C//DTD SVG 20010904//EN"
 "http://www.w3.org/TR/2001/REC-SVG-20010904/DTD/svg10.dtd">
<svg version="1.0" xmlns="http://www.w3.org/2000/svg"
 width="260.000000pt" height="260.000000pt" viewBox="0 0 260.000000 260.000000"
 preserveAspectRatio="xMidYMid meet">
<metadata>
Created by potrace 1.14, written by Peter Selinger 2001-2017
</metadata>
<g transform="translate(0.000000,260.000000) scale(0.100000,-0.100000)"
fill="#000000" stroke="none">
<path d="M3 2075 c-2 -6 -2 -74 -1 -150 l3 -140 420 -1 c264 -1 439 -5 471
-12 79 -17 159 -50 214 -88 27 -19 51 -34 54 -34 2 0 4 74 4 166 l1 165 -32
20 c-46 28 -173 66 -248 75 -105 12 -881 11 -886 -1z"/>
<path d="M1720 2078 c-75 -8 -211 -49 -256 -77 l-31 -19 -2 -166 c-1 -91 2
-166 5 -166 4 0 22 12 41 26 41 31 150 81 194 89 18 3 36 8 42 12 5 3 206 5
448 6 l439 0 0 148 c0 82 -3 149 -7 150 -46 5 -825 2 -873 -3z"/>
<path d="M0 1373 l0 -152 458 -3 457 -3 69 -28 c38 -15 94 -44 126 -65 l57
-38 -1 170 -1 171 -55 27 c-61 30 -161 58 -232 65 -25 2 -233 5 -462 6 l-416
2 0 -152z"/>
<path d="M1760 1519 c-140 -10 -312 -66 -323 -106 -3 -10 -5 -88 -5 -174 l0
-157 54 38 c56 39 170 85 234 95 19 2 225 5 458 5 l422 0 0 150 0 150 -32 0
c-286 5 -742 4 -808 -1z"/>
<path d="M0 811 l0 -150 453 -3 452 -3 72 -27 c40 -14 99 -44 131 -66 l59 -40
1 168 c1 197 12 180 -140 233 l-93 32 -467 3 -468 3 0 -150z"/>
<path d="M1671 949 c-59 -11 -168 -48 -206 -69 l-30 -17 -2 -170 -2 -171 60
40 c33 22 92 52 132 67 l72 26 453 3 452 3 0 150 0 149 -442 -1 c-244 -1 -463
-5 -487 -10z"/>
</g>
</svg>
