<svg width="259" height="245" viewBox="0 0 259 245" fill="none" xmlns="http://www.w3.org/2000/svg">
<g opacity="0.8">
<rect x="258.625" y="154.61" width="85.9709" height="153.354" transform="rotate(-180 258.625 154.61)" fill="#DBEEF2"/>
<rect width="28.657" height="89.069" transform="matrix(-1 0 0 1 257.875 155.931)" fill="#53BD6F"/>
<rect width="43.3727" height="85.9709" transform="matrix(-1 0 0 1 171.258 67.4014)" fill="#53BD6F"/>
<rect width="43.3727" height="42.5982" transform="matrix(-1 0 0 1 128.297 66.5962)" fill="#015DFF"/>
<rect width="85.1964" height="66.6081" transform="matrix(-1 0 0 1 85.1953 0)" fill="#CCF0FF"/>
<circle cx="215.64" cy="77.9376" r="42.9855" transform="rotate(-180 215.64 77.9376)" fill="#015DFF"/>
<path d="M171.2 198.715C178.93 198.715 186.584 197.573 193.725 195.354C200.867 193.135 207.356 189.884 212.822 185.784C218.288 181.685 222.624 176.818 225.582 171.462C228.54 166.106 230.063 160.365 230.062 154.567L171.2 154.567V198.715Z" fill="white"/>
<path d="M171.697 0.434998C160.356 0.434998 149.126 2.14784 138.649 5.47576C128.171 8.80367 118.651 13.6815 110.632 19.8306C102.613 25.9798 96.2519 33.2799 91.912 41.3142C87.5721 49.3485 85.3384 57.9596 85.3384 66.6559L171.697 66.6559V0.434998Z" fill="white"/>
</g>
</svg>
